<svg width="40" height="40" viewBox="0 0 40 40" fill="none" xmlns="http://www.w3.org/2000/svg">
<path fill-rule="evenodd" clip-rule="evenodd" d="M19.4741 38.0889L9.97533 26.9014C9.79736 26.6917 9.75955 26.4148 9.8751 26.1651C9.99065 25.9154 10.2263 25.7649 10.5012 25.7649H14.9253V16.3382C14.9253 15.5784 15.5455 14.9583 16.3053 14.9583H17.2715L16.8149 18.8716C16.7299 19.5993 17.133 20.29 17.8085 20.574C18.484 20.8582 19.2596 20.663 19.7203 20.0932L23.8628 14.9687C24.5438 15.0521 25.0747 15.6352 25.0747 16.3383V25.765H29.4988C29.7737 25.765 30.0094 25.9156 30.1249 26.1653C30.2404 26.415 30.2028 26.6917 30.0246 26.9015L20.526 38.0889C20.3902 38.2488 20.2097 38.3323 20 38.3323C19.7903 38.3323 19.6096 38.2485 19.4741 38.0889ZM21.0046 2.08214C21.0147 1.9087 20.915 1.75519 20.7524 1.69394C20.5899 1.63261 20.4137 1.68214 20.3068 1.81901L12.7719 11.4667C12.6778 11.5873 12.6616 11.741 12.7287 11.8785C12.7957 12.016 12.9267 12.0978 13.0797 12.0978H18.8637L18.0563 19.0164C18.0359 19.1917 18.1303 19.3532 18.293 19.4217C18.4557 19.4902 18.6371 19.4446 18.7481 19.3072L26.6803 9.49495C26.7771 9.37511 26.7953 9.22018 26.7289 9.08112C26.6625 8.94206 26.5306 8.85886 26.3764 8.85886H20.6099L21.0046 2.08214Z" fill="#155AB8"/>
</svg>
