<svg width="40" height="40" viewBox="0 0 40 40" fill="none" xmlns="http://www.w3.org/2000/svg">
<g clip-path="url(#clip0_7901_4068)">
<path d="M5.9375 21.1719H1.17188C0.524687 21.1719 0 20.6472 0 20C0 19.3528 0.524687 18.8281 1.17188 18.8281H5.9375C6.58469 18.8281 7.10938 19.3528 7.10938 20C7.10938 20.6472 6.58469 21.1719 5.9375 21.1719Z" fill="#155AB8"/>
<path d="M13.5358 7.45648L12.6388 5.29101C12.3912 4.69304 12.6751 4.00757 13.273 3.75992H13.2731C13.8711 3.51226 14.5566 3.79617 14.8042 4.39413L15.7012 6.5596C15.9488 7.15757 15.6649 7.84304 15.0669 8.0907H15.0669C14.4689 8.33835 13.7834 8.05437 13.5358 7.45648Z" fill="#155AB8"/>
<path d="M6.55952 15.7012L4.39413 14.8042C3.79617 14.5566 3.51226 13.871 3.75992 13.2731V13.273C4.00757 12.6751 4.69312 12.3912 5.29101 12.6388L7.4564 13.5358C8.05437 13.7834 8.33827 14.469 8.09062 15.0669V15.0669C7.84296 15.6648 7.15742 15.9488 6.55952 15.7012Z" fill="#155AB8"/>
<path d="M31.9093 15.0669C31.6617 14.469 31.9456 13.7834 32.5435 13.5358L34.709 12.6388C35.307 12.3912 35.9925 12.6751 36.2401 13.273V13.2731C36.4878 13.8711 36.2039 14.5566 35.6059 14.8042L33.4404 15.7012C32.8425 15.9488 32.157 15.6648 31.9093 15.0669Z" fill="#155AB8"/>
<path d="M24.933 8.0907C24.3351 7.84304 24.0511 7.15749 24.2987 6.5596L25.1957 4.39413C25.4433 3.79617 26.1289 3.51226 26.7268 3.75992H26.7268C27.3248 4.00757 27.6087 4.69312 27.3611 5.29101L26.4641 7.45648C26.2165 8.05437 25.531 8.33835 24.933 8.0907Z" fill="#155AB8"/>
<path d="M20 30.5469C14.1845 30.5469 9.45312 25.8155 9.45312 20C9.45312 14.1845 14.1845 9.45312 20 9.45312C25.8155 9.45312 30.5469 14.1845 30.5469 20C30.5469 25.8155 25.8155 30.5469 20 30.5469Z" fill="#155AB8"/>
<path d="M20 40C19.3527 40 18.8281 39.4753 18.8281 38.8281V34.0625C18.8281 33.4153 19.3528 32.8906 20 32.8906C20.6472 32.8906 21.1719 33.4153 21.1719 34.0625V38.8281C21.1719 39.4753 20.6472 40 20 40Z" fill="#155AB8"/>
<path d="M20 7.10938C19.3527 7.10938 18.8281 6.58469 18.8281 5.9375V1.17188C18.8281 0.524687 19.3528 0 20 0C20.6472 0 21.1719 0.524687 21.1719 1.17188V5.9375C21.1719 6.58469 20.6472 7.10938 20 7.10938Z" fill="#155AB8"/>
<path d="M38.8281 21.1719H34.0625C33.4153 21.1719 32.8906 20.6472 32.8906 20C32.8906 19.3528 33.4153 18.8281 34.0625 18.8281H38.8281C39.4753 18.8281 40 19.3528 40 20C40 20.6472 39.4753 21.1719 38.8281 21.1719Z" fill="#155AB8"/>
<path d="M5.85789 34.1421C5.40023 33.6844 5.40023 32.9425 5.85789 32.4848L9.22773 29.115C9.68539 28.6573 10.4273 28.6573 10.885 29.115C11.3427 29.5726 11.3427 30.3146 10.885 30.7722L7.51516 34.1421C7.0575 34.5997 6.31555 34.5997 5.85789 34.1421Z" fill="#155AB8"/>
<path d="M32.4848 34.1421L29.115 30.7722C28.6573 30.3146 28.6573 29.5726 29.115 29.115C29.5726 28.6573 30.3146 28.6573 30.7722 29.115L34.1421 32.4848C34.5997 32.9425 34.5997 33.6844 34.1421 34.1421C33.6844 34.5997 32.9424 34.5997 32.4848 34.1421Z" fill="#155AB8"/>
<path d="M9.22766 10.885L5.85789 7.51516C5.40023 7.0575 5.40023 6.31555 5.85789 5.85789C6.31555 5.40023 7.0575 5.40023 7.51516 5.85789L10.885 9.22773C11.3427 9.68539 11.3427 10.4273 10.885 10.885C10.4273 11.3427 9.68531 11.3427 9.22766 10.885Z" fill="#155AB8"/>
<path d="M29.115 10.885C28.6573 10.4273 28.6573 9.68539 29.115 9.22773L32.4848 5.85789C32.9425 5.40023 33.6844 5.40023 34.1421 5.85789C34.5997 6.31555 34.5997 7.0575 34.1421 7.51516L30.7722 10.885C30.3146 11.3427 29.5726 11.3427 29.115 10.885Z" fill="#155AB8"/>
<path d="M13.2731 36.2401C12.6751 35.9925 12.3912 35.3069 12.6388 34.709L13.5358 32.5435C13.7834 31.9456 14.469 31.6617 15.0669 31.9093H15.0669C15.6649 32.157 15.9488 32.8425 15.7012 33.4404L14.8042 35.6059C14.5565 36.2039 13.871 36.4878 13.2731 36.2401Z" fill="#155AB8"/>
<path d="M3.75992 26.7269C3.51226 26.1289 3.79617 25.4433 4.39413 25.1957L6.55952 24.2987C7.15749 24.0511 7.84296 24.335 8.09062 24.933V24.933C8.33827 25.531 8.05437 26.2165 7.4564 26.4641L5.29101 27.3611C4.69312 27.6087 4.00757 27.3248 3.75992 26.7269Z" fill="#155AB8"/>
<path d="M34.709 27.3611L32.5435 26.4641C31.9456 26.2165 31.6617 25.5309 31.9093 24.933V24.933C32.157 24.335 32.8425 24.0511 33.4404 24.2987L35.6059 25.1957C36.2039 25.4433 36.4878 26.1289 36.2401 26.7268V26.7269C35.9925 27.3248 35.3069 27.6087 34.709 27.3611Z" fill="#155AB8"/>
<path d="M25.1957 35.6059L24.2987 33.4404C24.0511 32.8425 24.335 32.157 24.933 31.9093H24.933C25.531 31.6617 26.2165 31.9456 26.4641 32.5435L27.3611 34.709C27.6087 35.307 27.3248 35.9925 26.7269 36.2401H26.7268C26.1289 36.4878 25.4433 36.2039 25.1957 35.6059Z" fill="#155AB8"/>
</g>
<defs>
<clipPath id="clip0_7901_4068">
<rect width="40" height="40" fill="white"/>
</clipPath>
</defs>
</svg>
