<svg width="178" height="27" viewBox="0 0 178 27" fill="none" xmlns="http://www.w3.org/2000/svg">
<g clip-path="url(#clip0_10410_6414)">
<path d="M12.1718 22.6276C12.6802 22.3207 13.3169 22.3207 13.8254 22.6276L19.0552 25.7842C20.2669 26.5156 21.7617 25.4291 21.4401 24.0508L20.0521 18.1022C19.9172 17.5238 20.1137 16.9182 20.5626 16.5293L25.1854 12.5247C26.2552 11.598 25.6833 9.84073 24.273 9.72112L18.1901 9.20521C17.5987 9.15506 17.0837 8.78173 16.8521 8.23533L14.4717 2.61913C13.9203 1.31832 12.0768 1.31833 11.5254 2.61913L9.14498 8.23533C8.91339 8.78173 8.39839 9.15506 7.80706 9.20521L1.72414 9.72112C0.313824 9.84073 -0.25806 11.598 0.811731 12.5247L5.43449 16.5293C5.88342 16.9182 6.07998 17.5238 5.94502 18.1022L4.55701 24.0508C4.2354 25.4291 5.73021 26.5156 6.94195 25.7842L12.1718 22.6276Z" fill="#143635"/>
</g>
<g clip-path="url(#clip1_10410_6414)">
<path d="M50.1718 22.6276C50.6802 22.3207 51.3169 22.3207 51.8254 22.6276L57.0552 25.7842C58.2669 26.5156 59.7617 25.4291 59.4401 24.0508L58.0521 18.1022C57.9172 17.5238 58.1137 16.9182 58.5626 16.5293L63.1854 12.5247C64.2552 11.598 63.6833 9.84073 62.273 9.72112L56.1901 9.20521C55.5987 9.15506 55.0837 8.78173 54.8521 8.23533L52.4717 2.61913C51.9203 1.31832 50.0768 1.31833 49.5254 2.61913L47.145 8.23533C46.9134 8.78173 46.3984 9.15506 45.8071 9.20521L39.7241 9.72112C38.3138 9.84073 37.7419 11.598 38.8117 12.5247L43.4345 16.5293C43.8834 16.9182 44.08 17.5238 43.945 18.1022L42.557 24.0508C42.2354 25.4291 43.7302 26.5156 44.9419 25.7842L50.1718 22.6276Z" fill="#143635"/>
</g>
<g clip-path="url(#clip2_10410_6414)">
<path d="M88.1718 22.6276C88.6802 22.3207 89.3169 22.3207 89.8254 22.6276L95.0552 25.7842C96.2669 26.5156 97.7617 25.4291 97.4401 24.0508L96.0521 18.1022C95.9172 17.5238 96.1137 16.9182 96.5626 16.5293L101.185 12.5247C102.255 11.598 101.683 9.84073 100.273 9.72112L94.1901 9.20521C93.5987 9.15506 93.0837 8.78173 92.8521 8.23533L90.4717 2.61913C89.9203 1.31832 88.0768 1.31833 87.5254 2.61913L85.145 8.23533C84.9134 8.78173 84.3984 9.15506 83.8071 9.20521L77.7241 9.72112C76.3138 9.84073 75.7419 11.598 76.8117 12.5247L81.4345 16.5293C81.8834 16.9182 82.08 17.5238 81.945 18.1022L80.557 24.0508C80.2354 25.4291 81.7302 26.5156 82.9419 25.7842L88.1718 22.6276Z" fill="#143635"/>
</g>
<g clip-path="url(#clip3_10410_6414)">
<path d="M126.172 22.6276C126.68 22.3207 127.317 22.3207 127.825 22.6276L133.055 25.7842C134.267 26.5156 135.762 25.4291 135.44 24.0508L134.052 18.1022C133.917 17.5238 134.114 16.9182 134.563 16.5293L139.185 12.5247C140.255 11.598 139.683 9.84073 138.273 9.72112L132.19 9.20521C131.599 9.15506 131.084 8.78173 130.852 8.23533L128.472 2.61913C127.92 1.31832 126.077 1.31833 125.525 2.61913L123.145 8.23533C122.913 8.78173 122.398 9.15506 121.807 9.20521L115.724 9.72112C114.314 9.84073 113.742 11.598 114.812 12.5247L119.434 16.5293C119.883 16.9182 120.08 17.5238 119.945 18.1022L118.557 24.0508C118.235 25.4291 119.73 26.5156 120.942 25.7842L126.172 22.6276Z" fill="#143635"/>
</g>
<g clip-path="url(#clip4_10410_6414)">
<path d="M164.172 22.6276C164.68 22.3207 165.317 22.3207 165.825 22.6276L171.055 25.7842C172.267 26.5156 173.762 25.4291 173.44 24.0508L172.052 18.1022C171.917 17.5238 172.114 16.9182 172.563 16.5293L177.185 12.5247C178.255 11.598 177.683 9.84073 176.273 9.72112L170.19 9.20521C169.599 9.15506 169.084 8.78173 168.852 8.23533L166.472 2.61913C165.92 1.31832 164.077 1.31833 163.525 2.61913L161.145 8.23533C160.913 8.78173 160.398 9.15506 159.807 9.20521L153.724 9.72112C152.314 9.84073 151.742 11.598 152.812 12.5247L157.434 16.5293C157.883 16.9182 158.08 17.5238 157.945 18.1022L156.557 24.0508C156.235 25.4291 157.73 26.5156 158.942 25.7842L164.172 22.6276Z" fill="#143635"/>
</g>
<defs>
<clipPath id="clip0_10410_6414">
<rect width="26" height="26" fill="white" transform="translate(0 0.443359)"/>
</clipPath>
<clipPath id="clip1_10410_6414">
<rect width="26" height="26" fill="white" transform="translate(38 0.443359)"/>
</clipPath>
<clipPath id="clip2_10410_6414">
<rect width="26" height="26" fill="white" transform="translate(76 0.443359)"/>
</clipPath>
<clipPath id="clip3_10410_6414">
<rect width="26" height="26" fill="white" transform="translate(114 0.443359)"/>
</clipPath>
<clipPath id="clip4_10410_6414">
<rect width="26" height="26" fill="white" transform="translate(152 0.443359)"/>
</clipPath>
</defs>
</svg>
