<svg width="18" height="20" viewBox="0 0 18 20" fill="none" xmlns="http://www.w3.org/2000/svg">
<g clip-path="url(#clip0_3290_8571)">
<path d="M3.91797 17.5H0.289062V5.81641H3.91797V17.5ZM2.10156 4.22266C0.941406 4.22266 0 3.26172 0 2.10156C0 1.54419 0.221414 1.00965 0.615533 0.615533C1.00965 0.221414 1.54419 0 2.10156 0C2.65893 0 3.19347 0.221414 3.58759 0.615533C3.98171 1.00965 4.20312 1.54419 4.20312 2.10156C4.20312 3.26172 3.26172 4.22266 2.10156 4.22266ZM17.4961 17.5H13.875V11.8125C13.875 10.457 13.8477 8.71875 11.9883 8.71875C10.1016 8.71875 9.8125 10.1914 9.8125 11.7148V17.5H6.1875V5.81641H9.66797V7.41016H9.71875C10.2031 6.49219 11.3867 5.52344 13.1523 5.52344C16.8242 5.52344 17.5 7.94141 17.5 11.082V17.5H17.4961Z" fill="#323232"/>
</g>
<defs>
<clipPath id="clip0_3290_8571">
<rect width="17.5" height="20" fill="white"/>
</clipPath>
</defs>
</svg>
