<svg width="48" height="48" viewBox="0 0 48 48" fill="none" xmlns="http://www.w3.org/2000/svg">
<path d="M24 0C15.5658 0 8.53125 6.79406 8.53125 15.4688C8.53125 18.7689 9.52294 21.7118 11.4262 24.4693L22.8162 42.2424C23.3688 43.1064 24.6323 43.1048 25.1838 42.2424L36.6233 24.4088C38.4855 21.7762 39.4688 18.685 39.4688 15.4688C39.4688 6.93928 32.5295 0 24 0ZM24 22.5C20.1232 22.5 16.9688 19.3456 16.9688 15.4688C16.9688 11.5919 20.1232 8.4375 24 8.4375C27.8768 8.4375 31.0312 11.5919 31.0312 15.4688C31.0312 19.3456 27.8768 22.5 24 22.5Z" fill="#102849"/>
<path d="M34.9935 32.3152L27.9125 43.3858C26.0796 46.2435 21.9102 46.2342 20.0861 43.3886L12.9936 32.3181C6.75319 33.7609 2.90625 36.404 2.90625 39.5625C2.90625 45.0433 13.7745 48 24 48C34.2255 48 45.0938 45.0433 45.0938 39.5625C45.0938 36.4017 41.2415 33.7572 34.9935 32.3152Z" fill="#155AB8"/>
</svg>
