<svg width="48" height="48" viewBox="0 0 48 48" fill="none" xmlns="http://www.w3.org/2000/svg">
<g clip-path="url(#clip0_6170_6905)">
<path d="M1.78126 15.0939C1.71644 15.0937 1.65167 15.0902 1.5872 15.0835C1.35462 15.0581 1.12934 14.9871 0.924212 14.8745C0.719086 14.762 0.538138 14.6102 0.391705 14.4277C0.245272 14.2452 0.136222 14.0357 0.0707842 13.8111C0.00534627 13.5864 -0.0151977 13.3511 0.0103258 13.1185C0.124701 12.0648 0.262513 11.056 0.433138 10.0295V10.0126C1.2572 5.36729 5.37939 1.2451 10.0247 0.423849H10.0425C11.0681 0.249474 12.0788 0.111662 13.1316 9.94261e-05C13.6013 -0.0507475 14.0719 0.0870684 14.44 0.383229C14.808 0.67939 15.0434 1.10964 15.0942 1.57932C15.1451 2.049 15.0073 2.51964 14.7111 2.88771C14.4149 3.25578 13.9847 3.49113 13.515 3.54197C12.5335 3.64885 11.5913 3.77729 10.636 3.93572C9.10595 4.20572 7.5722 5.0476 6.31595 6.30385C5.0597 7.5601 4.21876 9.09385 3.94595 10.6238C3.78751 11.5773 3.65626 12.5195 3.5522 13.5001C3.5059 13.9375 3.29937 14.3424 2.9724 14.6366C2.64543 14.9309 2.22114 15.0937 1.78126 15.0939Z" fill="#155AB8"/>
<path d="M46.2131 15.1087C45.7743 15.1083 45.3511 14.9459 45.0246 14.6526C44.6981 14.3594 44.4914 13.956 44.444 13.5197C44.3381 12.5372 44.2097 11.595 44.0512 10.6416C43.7812 9.11062 42.9375 7.57687 41.6803 6.32062C40.4231 5.06437 38.8903 4.21874 37.3603 3.95062C36.405 3.79124 35.4628 3.6628 34.4812 3.55687C34.0116 3.50602 33.5813 3.27068 33.2851 2.90261C32.989 2.53454 32.8512 2.06389 32.902 1.59421C32.9529 1.12453 33.1882 0.694283 33.5563 0.398122C33.9243 0.101961 34.395 -0.035855 34.8647 0.014992C35.9175 0.12843 36.9272 0.26718 37.9537 0.437805H37.9715C42.6178 1.26187 46.74 5.38405 47.5603 10.0312V10.0491C47.7309 11.0737 47.8697 12.0844 47.9831 13.1428C48.032 13.611 47.8936 14.0795 47.5981 14.4459C47.3027 14.8124 46.8741 15.047 46.4062 15.0984C46.3421 15.1055 46.2776 15.109 46.2131 15.1087Z" fill="#155AB8"/>
<path d="M34.6706 48.0133C34.2152 48.0123 33.7773 47.8368 33.4472 47.523C33.1171 47.2092 32.9197 46.7808 32.8957 46.3259C32.8717 45.871 33.0229 45.4243 33.3181 45.0774C33.6134 44.7306 34.0303 44.51 34.4831 44.4611C35.4666 44.3542 36.4088 44.2258 37.3613 44.0673C38.8922 43.7945 40.426 42.9536 41.6822 41.6964C42.9385 40.4392 43.7813 38.9064 44.0513 37.3764C44.2097 36.422 44.3381 35.4808 44.4441 34.4983C44.4949 34.0286 44.7303 33.5983 45.0983 33.3022C45.4664 33.006 45.9371 32.8682 46.4067 32.919C46.8764 32.9699 47.3067 33.2052 47.6028 33.5733C47.899 33.9414 48.0368 34.412 47.986 34.8817C47.8725 35.9355 47.7338 36.9442 47.5631 37.9708V37.9886C46.7428 42.6339 42.6206 46.7561 37.9744 47.5764H37.9575C36.9328 47.7461 35.9222 47.8848 34.8638 47.9992C34.7997 48.0071 34.7352 48.0118 34.6706 48.0133Z" fill="#155AB8"/>
<path d="M13.3257 48.0001C13.2608 48.0001 13.196 47.9963 13.1316 47.9889C12.0769 47.8745 11.0691 47.7367 10.0425 47.5661H10.0247C5.37942 46.7383 1.25723 42.6161 0.435978 37.9689V37.9511C0.262541 36.9283 0.124728 35.9186 0.0103533 34.8639C-0.0404936 34.3942 0.0973223 33.9236 0.393483 33.5555C0.689644 33.1874 1.11989 32.9521 1.58957 32.9012C2.05925 32.8504 2.5299 32.9882 2.89797 33.2844C3.26604 33.5805 3.50138 34.0108 3.55223 34.4804C3.6591 35.4639 3.78754 36.4051 3.94598 37.3595C4.21879 38.8895 5.06254 40.4233 6.31598 41.6795C7.56942 42.9358 9.10598 43.7814 10.636 44.0495C11.5904 44.2079 12.5316 44.3373 13.515 44.4433C13.9697 44.4901 14.3889 44.7098 14.6861 45.0571C14.9832 45.4044 15.1355 45.8526 15.1114 46.309C15.0873 46.7654 14.8887 47.1951 14.5567 47.5092C14.2246 47.8232 13.7846 47.9977 13.3275 47.9964L13.3257 48.0001Z" fill="#155AB8"/>
<path d="M24.3807 38.0533C22.1953 38.1076 17.9025 37.772 16.4991 37.4345C15.5428 37.2329 14.6438 36.6761 13.9678 35.9017C13.2989 35.1462 12.8783 34.2033 12.7632 33.2008V33.1708C12.6902 32.4479 12.6676 31.7208 12.6957 30.9948C12.6957 30.9948 12.6422 30.3545 12.7632 29.192V29.1629C12.8654 28.2086 13.2924 27.3183 13.9725 26.6411C14.6559 25.9566 15.5519 25.5251 16.5132 25.4176C17.9194 25.2686 22.2047 25.187 24.3816 25.187C26.5585 25.187 30.0535 25.2686 31.4607 25.4176C32.4219 25.525 33.318 25.9565 34.0013 26.6411C34.6816 27.3186 35.1086 28.2092 35.2107 29.1639V29.193C35.2802 29.7908 35.3155 30.392 35.3166 30.9939C35.3199 31.7221 35.2849 32.45 35.2116 33.1745V33.2036C35.0961 34.2069 34.6749 35.1505 34.005 35.9064C33.3272 36.6808 32.4282 37.2376 31.4738 37.4392C30.0675 37.7551 26.566 38.0683 24.3807 38.0533Z" fill="#102849"/>
<path d="M23.8566 23.552C27.6151 23.552 30.6619 20.5052 30.6619 16.7467C30.6619 12.9882 27.6151 9.94141 23.8566 9.94141C20.0981 9.94141 17.0513 12.9882 17.0513 16.7467C17.0513 20.5052 20.0981 23.552 23.8566 23.552Z" fill="#102849"/>
</g>
<defs>
<clipPath id="clip0_6170_6905">
<rect width="48" height="48" fill="white"/>
</clipPath>
</defs>
</svg>
