<svg width="48" height="48" viewBox="0 0 48 48" fill="none" xmlns="http://www.w3.org/2000/svg">
<g clip-path="url(#clip0_6170_6920)">
<path fill-rule="evenodd" clip-rule="evenodd" d="M4.67864 19.6092H11.6429V23.478C11.6429 23.909 11.9921 24.2585 12.4234 24.2585C12.8547 24.2585 13.204 23.909 13.204 23.478V19.6092H43.3213C45.5743 19.6092 47.4175 21.4524 47.4175 23.7054V27.5369C44.1169 27.5369 41.441 30.2127 41.441 33.5134C41.441 36.8139 44.1169 39.4897 47.4175 39.4897V43.3218C47.4175 45.5745 45.5743 47.4175 43.3213 47.4175H13.2041V43.7721C13.2041 43.3412 12.8547 42.9917 12.4235 42.9917C11.9921 42.9917 11.643 43.3412 11.643 43.7721V47.4175H4.67864C2.42555 47.4175 0.58252 45.5745 0.58252 43.3218V39.4897C3.88299 39.4897 6.55889 36.8139 6.55889 33.5134C6.55889 30.2128 3.88299 27.5369 0.58252 27.5369V23.7054C0.58252 21.4524 2.42555 19.6092 4.67864 19.6092ZM12.4235 32.0638C12.8547 32.0638 13.2041 31.7141 13.2041 31.2832V28.1612C13.2041 27.7302 12.8548 27.3806 12.4235 27.3806C11.9922 27.3806 11.643 27.7302 11.643 28.1612V31.2832C11.643 31.7141 11.9921 32.0638 12.4235 32.0638ZM12.4235 39.8691C12.8547 39.8691 13.2041 39.5195 13.2041 39.0886V35.9664C13.2041 35.5354 12.8548 35.1859 12.4235 35.1859C11.9922 35.1859 11.643 35.5354 11.643 35.9664V39.0886C11.643 39.5195 11.9921 39.8691 12.4235 39.8691Z" fill="#102849"/>
<path fill-rule="evenodd" clip-rule="evenodd" d="M41.9069 18.0483L27.319 6.68275L24.9881 9.67469C24.7229 10.0148 24.2326 10.0758 23.8922 9.81072C23.5524 9.54578 23.4913 9.05519 23.7565 8.71534L26.0875 5.72313L20.5937 1.44316C18.8167 0.0585635 16.23 0.379751 14.8453 2.15706L12.4905 5.17956C15.0943 7.20822 15.5603 10.9634 13.5316 13.5669C11.503 16.1705 7.74764 16.6368 5.14421 14.6084L2.78921 17.6313C2.55108 17.9371 2.36311 18.2671 2.22464 18.6106C2.96789 18.2504 3.80068 18.0483 4.67874 18.0483H41.9069ZM19.0954 15.968C19.4353 16.2331 19.9261 16.1718 20.1907 15.832L22.1094 13.3693C22.3747 13.0293 22.3135 12.5388 21.9738 12.2737C21.6338 12.0086 21.1432 12.0698 20.8779 12.4096L18.9596 14.8725C18.6944 15.2124 18.7554 15.703 19.0954 15.968Z" fill="#155AB8"/>
</g>
<defs>
<clipPath id="clip0_6170_6920">
<rect width="48" height="48" fill="white"/>
</clipPath>
</defs>
</svg>
