<svg width="48" height="48" viewBox="0 0 48 48" fill="none" xmlns="http://www.w3.org/2000/svg">
<path fill-rule="evenodd" clip-rule="evenodd" d="M8.80125 7.85265C9.61792 5.40258 11.9107 3.75 14.4934 3.75H33.5065C36.0891 3.75 38.3819 5.40258 39.1986 7.85265L41.4103 14.4879L42.4486 13.8884C43.166 13.4743 44.0834 13.72 44.4976 14.4375C44.9118 15.155 44.666 16.0724 43.9486 16.4865L42.3787 17.3929L42.6458 18.1942C44.9449 19.4755 46.5 21.9311 46.5 24.75V26.5152C44.1999 23.1834 40.3549 21 36 21C28.9584 21 23.25 26.7084 23.25 33.75C23.25 34.0018 23.2573 34.2518 23.2717 34.5H13.4536C13.0845 37.4597 10.5597 39.75 7.5 39.75C4.18629 39.75 1.5 37.0637 1.5 33.75V24.75C1.5 21.9312 3.05503 19.4756 5.35403 18.1943L5.59684 17.4658L3.90058 16.4865C3.18314 16.0724 2.93733 15.155 3.35154 14.4375C3.76576 13.72 4.68314 13.4743 5.40058 13.8884L6.56518 14.5609L8.80125 7.85265ZM36.3526 8.80132L39.1688 17.25H8.8311L11.6473 8.80132C12.0556 7.57627 13.202 6.75 14.4934 6.75H33.5065C34.7978 6.75 35.9442 7.57627 36.3526 8.80132ZM14.25 27.75C15.0785 27.75 15.75 27.0784 15.75 26.25C15.75 25.4216 15.0785 24.75 14.25 24.75H11.25C10.4215 24.75 9.75 25.4216 9.75 26.25C9.75 27.0784 10.4215 27.75 11.25 27.75H14.25Z" fill="#102849"/>
<path d="M29.6149 27.3649C33.1015 23.8784 38.7543 23.8784 42.2408 27.3649C45.3659 30.49 45.6898 35.3555 43.2127 38.8415L46.0606 41.6894C46.6465 42.2751 46.6465 43.2249 46.0606 43.8107C45.4749 44.3965 44.5251 44.3965 43.9393 43.8107L41.0914 40.9628C37.6054 43.4399 32.74 43.1159 29.6149 39.9908C26.1283 36.5043 26.1283 30.8515 29.6149 27.3649Z" fill="#155AB8"/>
</svg>
