<svg width="28" height="28" viewBox="0 0 28 28" fill="none" xmlns="http://www.w3.org/2000/svg">
<mask id="mask0_8572_1182" style="mask-type:alpha" maskUnits="userSpaceOnUse" x="0" y="0" width="28" height="28">
<rect width="28" height="28" fill="#D9D9D9"/>
</mask>
<g mask="url(#mask0_8572_1182)">
<path d="M7.02679 20.1743C8.01846 19.4385 9.09879 18.8574 10.2678 18.431C11.4366 18.0047 12.6807 17.7916 14 17.7916C15.3193 17.7916 16.5633 18.0047 17.7321 18.431C18.9011 18.8574 19.9815 19.4385 20.9731 20.1743C21.6984 19.377 22.2731 18.4542 22.6972 17.4058C23.1213 16.3573 23.3333 15.222 23.3333 14C23.3333 11.4138 22.4243 9.21176 20.6062 7.39371C18.7882 5.57565 16.5861 4.66663 14 4.66663C11.4138 4.66663 9.21176 5.57565 7.39371 7.39371C5.57565 9.21176 4.66663 11.4138 4.66663 14C4.66663 15.222 4.87867 16.3573 5.30275 17.4058C5.72683 18.4542 6.30151 19.377 7.02679 20.1743ZM14.0003 14.875C12.9351 14.875 12.0368 14.5094 11.3055 13.7783C10.574 13.047 10.2083 12.1488 10.2083 11.0836C10.2083 10.0184 10.5738 9.12018 11.305 8.38888C12.0363 7.65738 12.9345 7.29163 13.9997 7.29163C15.0648 7.29163 15.9631 7.65718 16.6944 8.38829C17.4259 9.1196 17.7916 10.0178 17.7916 11.083C17.7916 12.1482 17.4261 13.0464 16.695 13.7777C15.9637 14.5092 15.0654 14.875 14.0003 14.875ZM14 25.0833C12.4609 25.0833 11.0172 24.7939 9.66871 24.215C8.32024 23.6361 7.14725 22.8479 6.14975 21.8502C5.15206 20.8527 4.36378 19.6797 3.78492 18.3312C3.20606 16.9827 2.91663 15.539 2.91663 14C2.91663 12.4609 3.20606 11.0172 3.78492 9.66871C4.36378 8.32024 5.15206 7.14725 6.14975 6.14975C7.14725 5.15206 8.32024 4.36378 9.66871 3.78492C11.0172 3.20606 12.4609 2.91663 14 2.91663C15.539 2.91663 16.9827 3.20606 18.3312 3.78492C19.6797 4.36378 20.8527 5.15206 21.8502 6.14975C22.8479 7.14725 23.6361 8.32024 24.215 9.66871C24.7939 11.0172 25.0833 12.4609 25.0833 14C25.0833 15.539 24.7939 16.9827 24.215 18.3312C23.6361 19.6797 22.8479 20.8527 21.8502 21.8502C20.8527 22.8479 19.6797 23.6361 18.3312 24.215C16.9827 24.7939 15.539 25.0833 14 25.0833ZM14 23.3333C15.0529 23.3333 16.0681 23.1639 17.0455 22.8252C18.023 22.4863 18.8909 22.0125 19.6493 21.4039C18.8909 20.8175 18.0343 20.3605 17.0794 20.0331C16.1243 19.7054 15.0978 19.5416 14 19.5416C12.9021 19.5416 11.8738 19.7035 10.915 20.0273C9.9562 20.3512 9.10142 20.8101 8.35067 21.4039C9.109 22.0125 9.9769 22.4863 10.9544 22.8252C11.9318 23.1639 12.947 23.3333 14 23.3333ZM14 13.125C14.5804 13.125 15.0657 12.9297 15.456 12.5393C15.8464 12.149 16.0416 11.6637 16.0416 11.0833C16.0416 10.5029 15.8464 10.0175 15.456 9.62729C15.0657 9.23685 14.5804 9.04163 14 9.04163C13.4195 9.04163 12.9342 9.23685 12.544 9.62729C12.1535 10.0175 11.9583 10.5029 11.9583 11.0833C11.9583 11.6637 12.1535 12.149 12.544 12.5393C12.9342 12.9297 13.4195 13.125 14 13.125Z" fill="#333333"/>
</g>
</svg>
