<svg width="28" height="28" viewBox="0 0 28 28" fill="none" xmlns="http://www.w3.org/2000/svg">
<mask id="mask0_8572_604" style="mask-type:alpha" maskUnits="userSpaceOnUse" x="0" y="0" width="28" height="28">
<rect width="28" height="28" fill="#D9D9D9"/>
</mask>
<g mask="url(#mask0_8572_604)">
<path d="M16.8517 13.529C16.4941 13.529 16.1912 13.4055 15.9431 13.1586C15.6948 12.9118 15.5707 12.6098 15.5707 12.2524C15.5707 11.8948 15.694 11.5918 15.9408 11.3435C16.1875 11.0952 16.4897 10.9711 16.8473 10.9711C17.2047 10.9711 17.5075 11.0946 17.7558 11.3415C18.0041 11.5882 18.1283 11.8903 18.1283 12.2477C18.1283 12.6053 18.0048 12.9082 17.7579 13.1565C17.5111 13.4048 17.2091 13.529 16.8517 13.529ZM11.1528 13.529C10.7954 13.529 10.4926 13.4055 10.2442 13.1586C9.99594 12.9118 9.87179 12.6098 9.87179 12.2524C9.87179 11.8948 9.99526 11.5918 10.2422 11.3435C10.489 11.0952 10.791 10.9711 11.1484 10.9711C11.506 10.9711 11.8088 11.0946 12.057 11.3415C12.3053 11.5882 12.4294 11.8903 12.4294 12.2477C12.4294 12.6053 12.306 12.9082 12.0593 13.1565C11.8125 13.4048 11.5104 13.529 11.1528 13.529ZM14 19.3845C12.9456 19.3845 11.9861 19.1067 11.1216 18.5512C10.2571 17.9955 9.59374 17.2562 9.13154 16.3334H18.8685C18.4063 17.2562 17.743 17.9955 16.8785 18.5512C16.014 19.1067 15.0545 19.3845 14 19.3845ZM14.0006 23.9167C12.6242 23.9167 11.3347 23.6564 10.1323 23.1359C8.92961 22.6154 7.88107 21.9079 6.98662 21.0135C6.09218 20.119 5.38469 19.0708 4.86417 17.8687C4.34364 16.6665 4.08337 15.3771 4.08337 14.0006C4.08337 12.6242 4.34364 11.3347 4.86417 10.1323C5.38469 8.92961 6.09218 7.88107 6.98662 6.98662C7.88107 6.09218 8.92932 5.38469 10.1314 4.86417C11.3336 4.34364 12.623 4.08337 13.9995 4.08337C15.3759 4.08337 16.6654 4.34364 17.8678 4.86417C19.0705 5.38469 20.119 6.09218 21.0135 6.98662C21.9079 7.88107 22.6154 8.92932 23.1359 10.1314C23.6564 11.3336 23.9167 12.623 23.9167 13.9995C23.9167 15.3759 23.6564 16.6654 23.1359 17.8678C22.6154 19.0705 21.9079 20.119 21.0135 21.0135C20.119 21.9079 19.0708 22.6154 17.8687 23.1359C16.6665 23.6564 15.3771 23.9167 14.0006 23.9167ZM14 22.1667C16.2556 22.1667 18.1806 21.3695 19.775 19.775C21.3695 18.1806 22.1667 16.2556 22.1667 14C22.1667 11.7445 21.3695 9.81949 19.775 8.22504C18.1806 6.6306 16.2556 5.83337 14 5.83337C13.8359 5.83337 13.6719 5.83707 13.508 5.84446C13.3439 5.85204 13.1848 5.87528 13.0308 5.91417C12.9441 6.04581 12.8888 6.17219 12.8649 6.29333C12.841 6.41447 12.829 6.55282 12.829 6.70837C12.829 7.16162 12.9886 7.54789 13.3079 7.86717C13.6272 8.18644 14.0146 8.34608 14.4702 8.34608C14.6652 8.34608 14.8301 8.31692 14.9649 8.25858C15.0994 8.20025 15.2445 8.17108 15.4 8.17108C15.582 8.17108 15.7337 8.24089 15.855 8.3805C15.9766 8.51992 16.0373 8.68257 16.0373 8.86846C16.0373 9.22468 15.8582 9.4585 15.4998 9.56992C15.1416 9.68153 14.7973 9.73733 14.4667 9.73733C13.6366 9.73733 12.9243 9.44003 12.3297 8.84542C11.7351 8.25081 11.4377 7.53846 11.4377 6.70837V6.50187C11.4377 6.43732 11.4513 6.35137 11.4783 6.24404C9.82707 6.78246 8.47344 7.75128 7.41742 9.1505C6.36139 10.5497 5.83337 12.1662 5.83337 14C5.83337 16.2556 6.6306 18.1806 8.22504 19.775C9.81949 21.3695 11.7445 22.1667 14 22.1667Z" fill="#333333"/>
</g>
</svg>
