<svg width="24" height="24" viewBox="0 0 24 24" fill="none" xmlns="http://www.w3.org/2000/svg">
<mask id="mask0_8572_2139" style="mask-type:alpha" maskUnits="userSpaceOnUse" x="0" y="0" width="24" height="24">
<rect width="24" height="24" fill="#D9D9D9"/>
</mask>
<g mask="url(#mask0_8572_2139)">
<path d="M12 12.9999C11.7167 12.9999 11.4792 12.904 11.2875 12.7124C11.0958 12.5207 11 12.2832 11 11.9999C11 11.7165 11.0958 11.479 11.2875 11.2874C11.4792 11.0957 11.7167 10.9999 12 10.9999C12.2833 10.9999 12.5208 11.0957 12.7125 11.2874C12.9042 11.479 13 11.7165 13 11.9999C13 12.2832 12.9042 12.5207 12.7125 12.7124C12.5208 12.904 12.2833 12.9999 12 12.9999ZM12.0017 21.4999C10.6877 21.4999 9.45267 21.2505 8.2965 20.7519C7.14033 20.2532 6.13467 19.5765 5.2795 18.7216C4.42433 17.8668 3.74725 16.8615 3.24825 15.7059C2.74942 14.5502 2.5 13.3155 2.5 12.0016C2.5 10.6876 2.74933 9.45254 3.248 8.29638C3.74667 7.14021 4.42342 6.13454 5.27825 5.27938C6.13308 4.42421 7.13833 3.74713 8.294 3.24813C9.44967 2.74929 10.6844 2.49988 11.9983 2.49988C13.3123 2.49988 14.5473 2.74921 15.7035 3.24788C16.8597 3.74654 17.8653 4.42329 18.7205 5.27813C19.5757 6.13296 20.2528 7.13821 20.7518 8.29388C21.2506 9.44954 21.5 10.6843 21.5 11.9981C21.5 13.3121 21.2507 14.5472 20.752 15.7034C20.2533 16.8595 19.5766 17.8652 18.7218 18.7204C17.8669 19.5755 16.8617 20.2526 15.706 20.7516C14.5503 21.2505 13.3156 21.4999 12.0017 21.4999ZM12 19.9999C14.2333 19.9999 16.125 19.2249 17.675 17.6749C19.225 16.1249 20 14.2332 20 11.9999C20 9.76654 19.225 7.87488 17.675 6.32488C16.125 4.77488 14.2333 3.99988 12 3.99988C9.76667 3.99988 7.875 4.77488 6.325 6.32488C4.775 7.87488 4 9.76654 4 11.9999C4 14.2332 4.775 16.1249 6.325 17.6749C7.875 19.2249 9.76667 19.9999 12 19.9999ZM7.848 16.6614L13.4635 13.8614C13.5507 13.8179 13.6279 13.7625 13.6953 13.6951C13.7626 13.6278 13.818 13.5505 13.8615 13.4634L16.6615 7.84788C16.7512 7.68121 16.7316 7.53379 16.6027 7.40563C16.4739 7.27746 16.3237 7.25504 16.152 7.33838L10.5365 10.1384C10.4493 10.1819 10.3721 10.2373 10.3047 10.3046C10.2374 10.372 10.182 10.4492 10.1385 10.5364L7.3385 16.1519C7.24883 16.3249 7.26808 16.4755 7.39625 16.6036C7.52442 16.7318 7.675 16.751 7.848 16.6614Z" fill="#333333"/>
</g>
</svg>
