<svg width="24" height="24" viewBox="0 0 24 24" fill="none" xmlns="http://www.w3.org/2000/svg">
<mask id="mask0_8572_422" style="mask-type:alpha" maskUnits="userSpaceOnUse" x="0" y="0" width="24" height="24">
<rect width="24" height="24" fill="#D9D9D9"/>
</mask>
<g mask="url(#mask0_8572_422)">
<path d="M12 20.7115C11.4347 20.7115 10.9568 20.5164 10.5663 20.126C10.176 19.7357 9.98079 19.2578 9.98079 18.6923C9.98079 18.127 10.176 17.6491 10.5663 17.2588C10.9568 16.8685 11.4347 16.6733 12 16.6733C12.5654 16.6733 13.0433 16.8685 13.4338 17.2588C13.8241 17.6491 14.0193 18.127 14.0193 18.6923C14.0193 19.2578 13.8241 19.7357 13.4338 20.126C13.0433 20.5164 12.5654 20.7115 12 20.7115ZM12 10.7693C13.2115 10.7693 14.3574 10.9693 15.4375 11.3693C16.5177 11.7693 17.4936 12.3225 18.3653 13.029C18.6153 13.2212 18.7445 13.4702 18.7528 13.776C18.7611 14.0819 18.6538 14.3463 18.4308 14.5693C18.218 14.7821 17.9561 14.8895 17.6453 14.8913C17.3343 14.8933 17.0538 14.8033 16.8038 14.6213C16.145 14.1175 15.4065 13.7213 14.5885 13.4328C13.7705 13.1443 12.9077 13 12 13C11.0924 13 10.2295 13.1443 9.41154 13.4328C8.59354 13.7213 7.85512 14.1175 7.19629 14.6213C6.94629 14.8033 6.66579 14.8908 6.35479 14.8838C6.04396 14.8766 5.78212 14.7666 5.56929 14.5538C5.35646 14.3308 5.25162 14.0664 5.25479 13.7605C5.25812 13.4549 5.38479 13.2059 5.63479 13.0135C6.50646 12.3072 7.48237 11.7565 8.56254 11.3615C9.64271 10.9667 10.7885 10.7693 12 10.7693ZM12 4.76929C14.0577 4.76929 15.985 5.11579 17.7818 5.80879C19.5786 6.50179 21.1847 7.47329 22.6 8.72329C22.85 8.93595 22.9818 9.19937 22.9953 9.51354C23.0086 9.8277 22.9038 10.0963 22.6808 10.3193C22.4616 10.5385 22.195 10.6442 21.8808 10.6365C21.5668 10.6289 21.2815 10.5205 21.025 10.3115C19.8059 9.2642 18.428 8.45045 16.8913 7.87029C15.3548 7.29012 13.7244 7.00004 12 7.00004C10.2757 7.00004 8.64529 7.29012 7.10879 7.87029C5.57212 8.45045 4.19421 9.2642 2.97504 10.3115C2.71854 10.5205 2.43329 10.6289 2.11929 10.6365C1.80512 10.6442 1.53846 10.5385 1.31929 10.3193C1.09629 10.0963 0.991457 9.8277 1.00479 9.51354C1.01829 9.19937 1.15004 8.93595 1.40004 8.72329C2.81537 7.47329 4.42146 6.50179 6.21829 5.80879C8.01512 5.11579 9.94237 4.76929 12 4.76929Z" fill="#333333"/>
</g>
</svg>
