<svg width="81" height="49" viewBox="0 0 81 49" fill="none" xmlns="http://www.w3.org/2000/svg">
<path d="M2.85558 0.656976C3.21408 1.80088 3.79369 2.88512 4.0417 4.05878C6.0089 14.3987 12.3714 22.3106 20.4875 29.04C23.2809 31.3579 26.9155 33.1531 30.4599 34.2046C40.5363 37.3323 50.7484 38.1783 60.8674 36.4497C63.785 35.9571 66.6162 34.8971 69.2897 33.4069C68.3227 33.2545 67.2805 33.0633 66.2779 32.9796C63.3805 32.6987 60.4475 32.4864 57.5462 32.0293C56.3186 31.8291 55.044 31.169 53.8798 30.479C53.43 30.2459 53.0754 29.2783 53.2137 28.8273C53.3522 28.3763 54.1934 27.8537 54.6039 27.9792C61.9021 29.4939 69.2294 28.933 76.5326 28.9693C79.0907 28.9874 80.2231 29.9223 80.1624 32.2428C79.9534 37.9712 78.4024 43.353 75.6556 48.2897C75.5845 48.4271 75.1778 48.4778 74.5145 48.657C70.8732 44.8547 74.4996 41.1575 74.1394 36.5282C73.1876 37.0807 72.457 37.5735 71.7226 37.8899C56.761 43.6441 41.3223 42.7919 25.7088 37.3194C23.3564 36.5367 21.0283 35.1567 18.9567 33.6483C11.3847 28.0717 5.67296 21.1066 2.33863 12.6721C1.27851 9.9452 1.02779 6.94069 0.705833 4.07347C0.532928 2.9386 1.13769 1.77087 1.41074 0.692709C1.89243 0.680802 2.37401 0.668883 2.85558 0.656976Z" fill="white"/>
</svg>
