<svg width="299" height="37" viewBox="0 0 299 37" fill="none" xmlns="http://www.w3.org/2000/svg">
<g clip-path="url(#clip0_10410_419)">
<path d="M33.8186 8.74219H28.3954H28.35H28.3047V8.78572V8.83106V35.8145V35.8599V35.9034H28.35H28.3954H33.8186H33.8639H33.9092V35.8599V35.8145V8.83106V8.78572V8.74219H33.8639H33.8186Z" fill="#81FBBF"/>
<path d="M28.3954 5.94139H33.8167H33.8621H33.9074V5.89604V5.8507V0.534536V0.489192V0.443848H33.8621H33.8167H28.3954H28.35H28.3047V0.489192V0.534536V5.8507V5.89604V5.94139H28.35H28.3954Z" fill="#81FBBF"/>
<path d="M64.7162 35.8122L64.6074 17.5947C64.4423 15.0645 63.2561 12.7084 61.27 10.9599C59.3692 9.28761 56.8753 8.32812 54.4267 8.32812C50.7193 8.32812 47.9642 9.76463 46.009 12.7193V8.74166H40.4062V35.9047H46.009V20.0541C46.009 16.4701 48.9237 13.5536 52.5077 13.5536C56.0917 13.5536 59.0083 16.4701 59.0083 20.0541V35.9047H64.718V35.8593V35.814L64.7162 35.8122Z" fill="#81FBBF"/>
<path d="M88.802 10.6209C86.7434 9.14446 83.9792 8.33008 81.0191 8.33008C78.2749 8.33008 75.7211 9.03563 74.0125 10.2636C71.2846 12.2279 69.6667 14.8143 69.3312 17.7435L69.3258 17.7943L69.3203 17.8451H74.6093V17.8016L74.6129 17.7581C74.7562 14.7472 78.215 12.7267 81.3547 12.7267C83.0886 12.7267 84.6068 13.3216 85.6279 14.4044C86.7488 15.5924 87.2603 17.2937 87.1497 19.4594H86.9937C86.5439 19.4594 85.8764 19.4557 85.0983 19.4521H85.0874C84.0336 19.4467 82.7204 19.4394 81.527 19.4394C80.1957 19.4394 79.2416 19.4485 78.6086 19.4666C75.5978 19.5537 72.9043 20.758 71.2139 22.7695C69.6849 24.5923 69.0736 26.9176 69.4509 29.495C69.732 31.4248 70.8638 33.1896 72.6359 34.4592C74.3481 35.6872 76.5065 36.3637 78.7084 36.3637C80.3498 36.3637 81.9659 35.9756 83.3861 35.2428C84.8843 34.4701 86.163 33.3311 87.1878 31.8565V35.9048H92.6817V18.1444C92.571 14.9648 91.2288 12.3639 88.802 10.6209ZM82.8075 31.3486C81.9061 31.6987 80.845 31.8928 79.8184 31.8928C77.4986 31.8928 74.9974 30.8698 74.9285 27.9986C74.9031 26.8922 75.2532 25.9581 75.9714 25.2235C76.9182 24.255 78.449 23.7 80.1739 23.7H87.1334C87.1007 29.0977 84.1007 30.8462 82.8093 31.3486H82.8075Z" fill="#81FBBF"/>
<path d="M108.032 31.0476H106.022C105.307 31.0476 104.635 30.7683 104.127 30.2622C103.621 29.7562 103.341 29.0833 103.341 28.3687V0.456543H97.6171V28.8402C97.6171 29.6401 97.7495 30.4237 98.0125 31.1691C98.8233 33.4962 100.824 35.2537 103.233 35.7561C103.704 35.8559 104.192 35.9049 104.682 35.9049H108.122V31.0494H108.032V31.0476Z" fill="#81FBBF"/>
<path d="M181.331 23.4733H181.374V23.4298L181.378 23.3863C181.57 19.3452 180.652 15.8156 178.724 13.1784C176.718 10.4341 173.693 8.79085 169.977 8.42265C169.4 8.36642 168.827 8.3374 168.272 8.3374C164.657 8.3374 161.515 9.56532 159.19 11.8906C157.122 13.9565 155.751 16.8585 155.329 20.0616C154.884 23.4334 155.497 26.8433 157.055 29.6619C158.778 32.7743 161.497 34.9055 164.918 35.8251C166.217 36.1733 167.566 36.3493 168.934 36.3493C174.341 36.3493 180.286 33.4617 181.378 27.0102L181.387 26.9576L181.396 26.905H175.799L175.79 26.9394L175.781 26.9739C174.948 30.3294 171.62 31.521 169.023 31.521C166.931 31.521 164.952 30.8336 163.596 29.6383C162.063 28.2871 161.049 26.1577 160.665 23.4733H181.331ZM160.879 19.4449C161.173 17.4697 162.02 15.8119 163.327 14.6475C164.659 13.4613 166.413 12.8356 168.399 12.8356C168.566 12.8356 168.736 12.8392 168.905 12.8482C172.643 13.0423 175.269 15.6922 175.454 19.4449H160.879Z" fill="#81FBBF"/>
<path d="M210.665 35.8122L210.557 17.5947C210.392 15.0645 209.205 12.7084 207.219 10.9599C205.318 9.28761 202.825 8.32812 200.376 8.32812C196.669 8.32812 193.913 9.76463 191.958 12.7193V8.74166H186.355V35.9047H191.958V20.0541C191.958 16.4701 194.873 13.5536 198.457 13.5536C202.041 13.5536 204.958 16.4701 204.958 20.0541V35.9047H210.667V35.8593V35.814L210.665 35.8122Z" fill="#81FBBF"/>
<path d="M231.966 8.74185H224.208V0.456543H218.484V8.74185H213.062V13.7025H218.484V27.4727C218.484 32.1213 222.266 35.9049 226.916 35.9049H231.967L232.013 35.9067H232.058V35.8613V31.0494H227.754C225.801 31.0494 224.21 29.4587 224.21 27.5053V13.7025H232.058V8.74185H231.967H231.966Z" fill="#81FBBF"/>
<path d="M255.228 10.6209C253.169 9.14446 250.405 8.33008 247.445 8.33008C244.701 8.33008 242.147 9.03563 240.438 10.2636C237.71 12.2279 236.093 14.8143 235.757 17.7435L235.752 17.7943L235.746 17.8451H241.035V17.8016L241.039 17.7581C241.182 14.7472 244.641 12.7267 247.78 12.7267C249.514 12.7267 251.033 13.3216 252.054 14.4044C253.175 15.5924 253.686 17.2937 253.575 19.4594H253.419C252.971 19.4594 252.302 19.4557 251.526 19.4521H251.515C250.461 19.4467 249.148 19.4394 247.955 19.4394C246.623 19.4394 245.667 19.4485 245.036 19.4666C242.025 19.5537 239.332 20.758 237.641 22.7695C236.111 24.5923 235.501 26.9176 235.878 29.495C236.16 31.4248 237.291 33.1896 239.063 34.4592C240.776 35.6872 242.934 36.3637 245.136 36.3637C246.777 36.3637 248.394 35.9756 249.814 35.2428C251.312 34.4701 252.591 33.3311 253.615 31.8565V35.9048H259.109V18.1444C258.999 14.9648 257.656 12.3639 255.23 10.6209H255.228ZM249.233 31.3486C248.332 31.6987 247.271 31.8928 246.244 31.8928C243.924 31.8928 241.423 30.8698 241.352 27.9986C241.327 26.8922 241.677 25.9581 242.394 25.2235C243.34 24.255 244.871 23.7 246.596 23.7H253.555C253.523 29.0996 250.523 30.8462 249.231 31.3486H249.233Z" fill="#81FBBF"/>
<path d="M275.071 31.0476H273.061C272.347 31.0476 271.674 30.7683 271.166 30.2622C270.66 29.7562 270.38 29.0833 270.38 28.3687V0.456543H264.656V28.8402C264.656 29.6401 264.789 30.4237 265.052 31.1691C265.862 33.4962 267.863 35.2537 270.272 35.7561C270.743 35.8559 271.231 35.9049 271.721 35.9049H275.162V31.0494H275.071V31.0476Z" fill="#81FBBF"/>
<path d="M298.954 26.6293C298.751 24.2423 297.704 22.5646 295.751 21.4981C294.037 20.5622 291.857 20.2013 289.749 19.8548C288.739 19.688 287.785 19.5302 286.885 19.3143C285.492 18.9806 284.148 18.4909 283.731 17.1759C283.443 16.2599 283.579 15.3821 284.125 14.6366C284.95 13.5103 286.649 12.783 288.452 12.783C290.602 12.783 293.119 13.8694 293.741 16.9202L293.748 16.9564L293.756 16.9927H298.76V16.9456L298.754 16.8984C298.555 12.6995 295.725 9.54718 291.369 8.66932C290.362 8.46618 289.337 8.36279 288.325 8.36279C285.037 8.36279 282.149 9.45831 280.403 11.3682C278.903 13.0079 278.259 15.1409 278.487 17.7073C278.685 19.9056 279.677 21.4637 281.522 22.4739C283.142 23.359 285.198 23.7218 287.188 24.0719C288.964 24.3838 290.641 24.6795 291.935 25.3179C293.099 25.8929 293.759 26.9068 293.745 28.0966C293.73 29.3862 292.929 30.5561 291.652 31.1492C290.748 31.57 289.722 31.7931 288.683 31.7931C286.278 31.7931 283.459 30.5289 282.759 26.9775L282.752 26.9412L282.744 26.905H277.738V26.9521L277.744 26.9993C277.985 32.0234 281.38 35.5512 286.604 36.2042C287.322 36.2949 288.042 36.3402 288.746 36.3402C292.234 36.3402 295.15 35.2556 296.961 33.2858C298.517 31.5917 299.188 29.3517 298.956 26.6275L298.954 26.6293Z" fill="#81FBBF"/>
<path d="M143.637 0.447266H134.641C129.519 0.447266 125.367 4.59899 125.367 9.72107V35.9028H130.861V9.72107C130.861 7.63342 132.553 5.94117 134.641 5.94117H143.635C145.567 5.94117 147.132 7.50646 147.132 9.43812C147.132 11.3698 145.284 12.9351 143.353 12.9351C138.925 12.9351 135.337 16.5227 135.337 20.9501C135.337 25.3775 138.925 28.9652 143.353 28.9652C145.44 28.9652 147.132 30.6574 147.132 32.7451V35.9119H152.626V32.7469C152.626 27.6248 148.475 23.4731 143.353 23.4731C141.96 23.4731 140.83 22.3431 140.83 20.9501C140.83 19.5571 141.96 18.4272 143.353 18.4272C148.317 18.4272 152.626 14.4024 152.626 9.43812C152.628 4.47202 148.603 0.447266 143.637 0.447266Z" fill="#81FBBF"/>
<path d="M0 10.6808C0 13.6209 1.24787 16.269 3.23939 18.1281C1.25332 19.9872 0.0108826 22.6317 0.0108826 25.5664V35.8305H5.50479V25.5628C5.50479 22.9709 7.60695 20.8687 10.1988 20.8687H23.2816V15.3766H10.2133C7.60695 15.3766 5.49391 13.2636 5.49391 10.6572C5.49391 8.0508 7.60695 5.93776 10.2133 5.93776H23.2906V0.443848H10.2369C4.60698 0.443848 0 5.05082 0 10.6808Z" fill="#81FBBF"/>
</g>
<defs>
<clipPath id="clip0_10410_419">
<rect width="299" height="35.9199" fill="white" transform="translate(0 0.443848)"/>
</clipPath>
</defs>
</svg>
