<svg width="258" height="32" viewBox="0 0 258 32" fill="none" xmlns="http://www.w3.org/2000/svg">
<g clip-path="url(#clip0_6413_9040)">
<path d="M29.1689 7.66613H24.4913H24.4522H24.413V7.70368V7.74279V31.0166V31.0557V31.0933H24.4522H24.4913H29.1689H29.208H29.2471V31.0557V31.0166V7.74279V7.70368V7.66613H29.208H29.1689Z" fill="#143635"/>
<path d="M24.4913 5.25091H29.1673H29.2064H29.2455V5.2118V5.17269V0.587378V0.548268V0.509157H29.2064H29.1673H24.4913H24.4522H24.413V0.548268V0.587378V5.17269V5.2118V5.25091H24.4522H24.4913Z" fill="#143635"/>
<path d="M55.8175 31.0156L55.7236 15.3025C55.5813 13.1202 54.5581 11.088 52.8451 9.57991C51.2056 8.13751 49.0545 7.30994 46.9426 7.30994C43.7449 7.30994 41.3685 8.54896 39.6821 11.0974V7.66662H34.8496V31.0953H39.6821V17.4239C39.6821 14.3326 42.1961 11.817 45.2874 11.817C48.3787 11.817 50.8943 14.3326 50.8943 17.4239V31.0953H55.8191V31.0562V31.0171L55.8175 31.0156Z" fill="#143635"/>
<path d="M76.5915 9.28775C74.8159 8.01431 72.4317 7.31189 69.8786 7.31189C67.5116 7.31189 65.3089 7.92045 63.8352 8.97956C61.4823 10.6738 60.0869 12.9047 59.7975 15.4312L59.7928 15.475L59.7881 15.5188H64.3499V15.4813L64.3531 15.4437C64.4766 12.8468 67.46 11.104 70.168 11.104C71.6636 11.104 72.973 11.6172 73.8538 12.5511C74.8206 13.5758 75.2617 15.0432 75.1663 16.9112H75.0318C74.6438 16.9112 74.0681 16.908 73.397 16.9049H73.3876C72.4786 16.9002 71.346 16.894 70.3166 16.894C69.1683 16.894 68.3455 16.9018 67.7995 16.9174C65.2025 16.9925 62.8794 18.0313 61.4213 19.7662C60.1025 21.3385 59.5753 23.344 59.9007 25.5671C60.1432 27.2316 61.1194 28.7538 62.6478 29.8489C64.1247 30.908 65.9863 31.4915 67.8855 31.4915C69.3013 31.4915 70.6952 31.1567 71.9201 30.5247C73.2124 29.8583 74.3153 28.8758 75.1992 27.604V31.0957H79.9378V15.777C79.8424 13.0345 78.6847 10.7912 76.5915 9.28775ZM71.4211 27.1659C70.6436 27.4679 69.7284 27.6352 68.8429 27.6352C66.842 27.6352 64.6847 26.7529 64.6253 24.2764C64.6034 23.3221 64.9053 22.5165 65.5248 21.8829C66.3414 21.0475 67.6618 20.5688 69.1496 20.5688H75.1522C75.1241 25.2245 72.5365 26.7326 71.4227 27.1659H71.4211Z" fill="#143635"/>
<path d="M93.1802 26.9054H91.4468C90.8304 26.9054 90.25 26.6645 89.812 26.228C89.3755 25.7915 89.1346 25.2111 89.1346 24.5947V0.519899H84.1973V25.0015C84.1973 25.6914 84.3115 26.3672 84.5383 27.0102C85.2376 29.0173 86.9632 30.5333 89.0407 30.9666C89.4474 31.0526 89.8683 31.0949 90.2907 31.0949H93.2584V26.9069H93.1802V26.9054Z" fill="#143635"/>
<path d="M156.402 20.3728H156.439V20.3353L156.442 20.2977C156.608 16.8122 155.817 13.7678 154.154 11.4932C152.423 9.12622 149.814 7.70885 146.608 7.39128C146.111 7.34278 145.617 7.31775 145.138 7.31775C142.02 7.31775 139.31 8.37686 137.305 10.3824C135.521 12.1643 134.339 14.6674 133.974 17.4301C133.591 20.3384 134.12 23.2795 135.464 25.7106C136.95 28.3952 139.295 30.2333 142.245 31.0265C143.365 31.3269 144.529 31.4786 145.709 31.4786C150.372 31.4786 155.501 28.9881 156.442 23.4234L156.45 23.3781L156.458 23.3327H151.63L151.622 23.3624L151.615 23.3921C150.897 26.2863 148.026 27.3141 145.786 27.3141C143.982 27.3141 142.275 26.7212 141.105 25.6903C139.783 24.5248 138.908 22.6882 138.577 20.3728H156.402ZM138.761 16.8982C139.015 15.1946 139.745 13.7647 140.873 12.7604C142.022 11.7372 143.534 11.1975 145.247 11.1975C145.391 11.1975 145.538 11.2006 145.684 11.2085C148.908 11.3758 151.173 13.6615 151.333 16.8982H138.761Z" fill="#143635"/>
<path d="M181.704 31.0156L181.61 15.3026C181.468 13.1202 180.445 11.088 178.732 9.57992C177.092 8.13752 174.941 7.30995 172.829 7.30995C169.631 7.30995 167.255 8.54897 165.569 11.0974V7.66664H160.736V31.0954H165.569V17.4239C165.569 14.3326 168.083 11.817 171.174 11.817C174.265 11.817 176.781 14.3326 176.781 17.4239V31.0954H181.706V31.0562V31.0171L181.704 31.0156Z" fill="#143635"/>
<path d="M200.076 7.66603H193.385V0.519772H188.447V7.66603H183.771V11.9447H188.447V23.8218C188.447 27.8314 191.709 31.0948 195.72 31.0948H200.077L200.116 31.0963H200.155V31.0572V26.9068H196.443C194.758 26.9068 193.386 25.5348 193.386 23.8499V11.9447H200.155V7.66603H200.077H200.076Z" fill="#143635"/>
<path d="M220.14 9.28775C218.365 8.01431 215.981 7.31189 213.427 7.31189C211.06 7.31189 208.858 7.92045 207.384 8.97956C205.031 10.6738 203.636 12.9047 203.346 15.4312L203.342 15.475L203.337 15.5188H207.899V15.4813L207.902 15.4437C208.025 12.8468 211.009 11.104 213.717 11.104C215.212 11.104 216.522 11.6172 217.403 12.5511C218.369 13.5758 218.811 15.0432 218.715 16.9112H218.581C218.194 16.9112 217.617 16.908 216.947 16.9049H216.938C216.029 16.9002 214.896 16.894 213.867 16.894C212.719 16.894 211.894 16.9018 211.35 16.9174C208.753 16.9925 206.43 18.0313 204.972 19.7662C203.651 21.3385 203.126 23.344 203.451 25.5671C203.694 27.2316 204.67 28.7538 206.198 29.8489C207.675 30.908 209.537 31.4915 211.436 31.4915C212.852 31.4915 214.246 31.1567 215.471 30.5247C216.763 29.8583 217.866 28.8758 218.75 27.604V31.0957H223.488V15.777C223.393 13.0345 222.235 10.7912 220.142 9.28775H220.14ZM214.97 27.1659C214.192 27.4679 213.277 27.6352 212.392 27.6352C210.391 27.6352 208.234 26.7529 208.173 24.2764C208.151 23.3221 208.453 22.5165 209.071 21.8829C209.887 21.0475 211.207 20.5688 212.695 20.5688H218.698C218.67 25.226 216.082 26.7326 214.968 27.1659H214.97Z" fill="#143635"/>
<path d="M237.257 26.9052H235.524C234.908 26.9052 234.327 26.6643 233.889 26.2279C233.453 25.7914 233.212 25.211 233.212 24.5946V0.519772H228.274V25.0013C228.274 25.6913 228.389 26.3671 228.615 27.0101C229.315 29.0172 231.04 30.5331 233.118 30.9665C233.525 31.0525 233.945 31.0948 234.368 31.0948H237.336V26.9068H237.257V26.9052Z" fill="#143635"/>
<path d="M257.856 23.0943C257.68 21.0355 256.778 19.5884 255.093 18.6685C253.614 17.8613 251.734 17.55 249.916 17.2512C249.045 17.1072 248.222 16.9711 247.446 16.785C246.244 16.4971 245.085 16.0747 244.725 14.9405C244.477 14.1505 244.594 13.3933 245.065 12.7503C245.777 11.7788 247.243 11.1515 248.798 11.1515C250.651 11.1515 252.823 12.0886 253.359 14.7199L253.366 14.7512L253.372 14.7825H257.688V14.7418L257.683 14.7012C257.511 11.0795 255.071 8.36058 251.313 7.60341C250.445 7.42819 249.561 7.33902 248.688 7.33902C245.852 7.33902 243.361 8.28393 241.855 9.93126C240.561 11.3455 240.006 13.1852 240.203 15.3989C240.373 17.295 241.229 18.6388 242.82 19.5102C244.217 20.2736 245.991 20.5865 247.707 20.8884C249.239 21.1575 250.686 21.4125 251.801 21.9632C252.806 22.4591 253.375 23.3336 253.363 24.3599C253.35 25.4722 252.659 26.4812 251.557 26.9928C250.778 27.3557 249.893 27.5482 248.996 27.5482C246.922 27.5482 244.491 26.4578 243.887 23.3946L243.881 23.3634L243.874 23.3321H239.557V23.3727L239.561 23.4134C239.769 27.7469 242.698 30.7896 247.203 31.3528C247.823 31.4311 248.444 31.4702 249.051 31.4702C252.059 31.4702 254.575 30.5346 256.136 28.8357C257.479 27.3745 258.057 25.4425 257.857 23.0927L257.856 23.0943Z" fill="#143635"/>
<path d="M123.89 0.512087H116.131C111.713 0.512087 108.132 4.09304 108.132 8.51096V31.0933H112.87V8.51096C112.87 6.71031 114.33 5.25071 116.131 5.25071H123.889C125.555 5.25071 126.905 6.6008 126.905 8.26691C126.905 9.93301 125.311 11.2831 123.645 11.2831C119.826 11.2831 116.731 14.3775 116.731 18.1963C116.731 22.015 119.826 25.1094 123.645 25.1094C125.445 25.1094 126.905 26.569 126.905 28.3697V31.1012H131.643V28.3712C131.643 23.9533 128.063 20.3724 123.645 20.3724C122.443 20.3724 121.469 19.3977 121.469 18.1963C121.469 16.9948 122.443 16.0202 123.645 16.0202C127.926 16.0202 131.643 12.5487 131.643 8.26691C131.645 3.98353 128.174 0.512087 123.89 0.512087Z" fill="#143635"/>
<path d="M0 9.33873C0 11.8747 1.07632 14.1587 2.79405 15.7622C1.08101 17.3658 0.00938651 19.6467 0.00938651 22.1779V31.031H4.74801V22.1748C4.74801 19.9392 6.56117 18.1261 8.79672 18.1261H20.0809V13.389H8.80924C6.56117 13.389 4.73862 11.5665 4.73862 9.3184C4.73862 7.07033 6.56117 5.24778 8.80924 5.24778H20.0887V0.509157H8.82958C3.97362 0.509157 0 4.48278 0 9.33873Z" fill="#143635"/>
</g>
<defs>
<clipPath id="clip0_6413_9040">
<rect width="257.894" height="30.9817" fill="white" transform="translate(0 0.509157)"/>
</clipPath>
</defs>
</svg>
