<svg width="69" height="73" viewBox="0 0 69 73" fill="none" xmlns="http://www.w3.org/2000/svg">
<g filter="url(#filter0_d_3288_7412)">
<mask id="mask0_3288_7412" style="mask-type:alpha" maskUnits="userSpaceOnUse" x="9" y="8" width="49" height="48">
<rect x="9.33337" y="8" width="48" height="48" fill="#D9D9D9"/>
</mask>
<g mask="url(#mask0_3288_7412)">
<path fill-rule="evenodd" clip-rule="evenodd" d="M19.9488 50.9999C18.9385 50.9999 18.0834 50.6499 17.3834 49.9499C16.6834 49.2499 16.3334 48.3948 16.3334 47.3845V20.6154C16.3334 19.6052 16.6834 18.75 17.3834 18.05C18.0834 17.35 18.9385 17 19.9488 17H22.718V12.7693H25.7949V17H40.9487V12.7693H43.9486V17H46.7179C47.7281 17 48.5833 17.35 49.2833 18.05C49.9833 18.75 50.3333 19.6052 50.3333 20.6154V32.6807L47.3333 35.7307V28.6154H19.3333V47.3845C19.3333 47.5384 19.3974 47.6795 19.5256 47.8077C19.6539 47.9359 19.7949 48 19.9488 48H31.2756L34.2832 50.9999H19.9488ZM47.3333 25.6155H19.3333V20.6154C19.3333 20.4616 19.3974 20.3205 19.5256 20.1923C19.6539 20.0641 19.7949 20 19.9488 20H46.7179C46.8717 20 47.0128 20.0641 47.141 20.1923C47.2692 20.3205 47.3333 20.4616 47.3333 20.6154V25.6155Z" fill="#009FEE"/>
<path d="M24.1333 41.2884L22.0449 39.2L25.2449 36L22.0449 32.8L24.1333 30.7116L27.3333 33.9116L30.5333 30.7116L32.6217 32.8L29.4217 36L32.6217 39.2L30.5333 41.2884L27.3333 38.0884L24.1333 41.2884Z" fill="#FF4F55"/>
<path d="M42.0487 52.0384L35.6603 45.65L37.7487 43.5615L41.9987 47.8115L50.4987 39.3115L52.5871 41.45L42.0487 52.0384Z" fill="#FF4F55"/>
</g>
</g>
<defs>
<filter id="filter0_d_3288_7412" x="0.333374" y="0.769287" width="68.2538" height="71.2691" filterUnits="userSpaceOnUse" color-interpolation-filters="sRGB">
<feFlood flood-opacity="0" result="BackgroundImageFix"/>
<feColorMatrix in="SourceAlpha" type="matrix" values="0 0 0 0 0 0 0 0 0 0 0 0 0 0 0 0 0 0 127 0" result="hardAlpha"/>
<feOffset dy="4"/>
<feGaussianBlur stdDeviation="8"/>
<feColorMatrix type="matrix" values="0 0 0 0 0 0 0 0 0 0 0 0 0 0 0 0 0 0 0.12 0"/>
<feBlend mode="normal" in2="BackgroundImageFix" result="effect1_dropShadow_3288_7412"/>
<feBlend mode="normal" in="SourceGraphic" in2="effect1_dropShadow_3288_7412" result="shape"/>
</filter>
</defs>
</svg>
