<svg width="74" height="71" viewBox="0 0 74 71" fill="none" xmlns="http://www.w3.org/2000/svg">
<g filter="url(#filter0_d_3290_8090)">
<mask id="mask0_3290_8090" style="mask-type:alpha" maskUnits="userSpaceOnUse" x="11" y="10" width="49" height="48">
<rect x="11.6665" y="10" width="48" height="48" fill="#D9D9D9"/>
</mask>
<g mask="url(#mask0_3290_8090)">
<path d="M19.6665 44V34.1539H38.3242L35.3243 31.154H20.8818L23.4049 24H29.9011C29.8549 23.7872 29.8235 23.568 29.8069 23.3426C29.7902 23.1172 29.7819 22.9004 29.7819 22.6923V21.0001H22.8973C22.4101 21.0001 21.9678 21.1353 21.5704 21.4059C21.1729 21.6764 20.8999 22.0411 20.7512 22.5001L16.6665 34.1539V49.5C16.6665 49.925 16.8103 50.2812 17.0978 50.5687C17.3853 50.8562 17.7415 51 18.1665 51H19.3972C19.8222 51 20.1784 50.8562 20.4659 50.5687C20.7534 50.2812 20.8972 49.925 20.8972 49.5V47H46.4358V49.5C46.4358 49.925 46.5795 50.2812 46.867 50.5687C47.1545 50.8562 47.5107 51 47.9357 51H49.1664C49.5914 51 49.9477 50.8562 50.2352 50.5687C50.5227 50.2812 50.6664 49.925 50.6664 49.5V38.5539C50.2279 38.9077 49.7536 39.1866 49.2434 39.3904C48.7331 39.5942 48.2075 39.7231 47.6665 39.7769V44H19.6665Z" fill="#009FEE"/>
<path d="M24.5941 41.6923C25.3218 41.6923 25.9389 41.4376 26.4453 40.9282C26.9517 40.4187 27.2049 39.8001 27.2049 39.0724C27.2049 38.3447 26.9502 37.7276 26.4408 37.2212C25.9313 36.7148 25.3127 36.4616 24.585 36.4616C23.8573 36.4616 23.2402 36.7163 22.7338 37.2257C22.2274 37.7351 21.9742 38.3537 21.9742 39.0815C21.9742 39.8092 22.2289 40.4263 22.7383 40.9327C23.2477 41.4391 23.8663 41.6923 24.5941 41.6923Z" fill="#009FEE"/>
<path d="M42.7434 41.6923C43.3716 41.6923 43.9235 41.4955 44.3992 41.1019C44.8748 40.7083 45.1639 40.2077 45.2665 39.6C44.6511 39.4538 44.0658 39.2288 43.5107 38.925C42.9556 38.6211 42.4344 38.232 41.9472 37.7577L41.178 36.9885C40.8575 37.2167 40.6024 37.5146 40.4127 37.8822C40.2229 38.2498 40.128 38.6481 40.128 39.077C40.128 39.8034 40.3823 40.4209 40.8909 40.9295C41.3994 41.438 42.0169 41.6923 42.7434 41.6923Z" fill="#009FEE"/>
<path fill-rule="evenodd" clip-rule="evenodd" d="M44.978 34.6L34.9704 24.5923C34.7322 24.3542 34.5386 24.0641 34.3898 23.722C34.2409 23.3798 34.1665 23.0301 34.1665 22.6731V15.2116C34.1665 14.4423 34.4301 13.7981 34.9574 13.2789C35.4846 12.7597 36.1248 12.5001 36.878 12.5001H44.3395C44.6966 12.5001 45.0462 12.5745 45.3884 12.7233C45.7306 12.8722 46.0207 13.0657 46.2588 13.3039L56.2664 23.3116C56.7946 23.8398 57.0587 24.4808 57.0587 25.2346C57.0587 25.9884 56.7946 26.6295 56.2664 27.1577L48.8242 34.6C48.2959 35.1282 47.6549 35.3923 46.9011 35.3923C46.1472 35.3923 45.5062 35.1282 44.978 34.6ZM46.9069 32.0424C46.7338 32.0424 46.5895 31.9847 46.4741 31.8693L37.3395 22.7347C37.2754 22.6706 37.2305 22.6 37.2049 22.5231C37.1792 22.4462 37.1664 22.3692 37.1664 22.2923V15.8077C37.1664 15.7179 37.1953 15.6442 37.253 15.5865C37.3107 15.5288 37.3844 15.5 37.4742 15.5H43.9588C44.0357 15.5 44.1126 15.5128 44.1896 15.5385C44.2665 15.5641 44.337 15.609 44.4011 15.6731L53.5357 24.8077C53.6511 24.9231 53.7088 25.0673 53.7088 25.2404C53.7088 25.4135 53.6511 25.5577 53.5357 25.6731L47.3396 31.8693C47.2242 31.9847 47.0799 32.0424 46.9069 32.0424Z" fill="#FF4F55"/>
<path d="M41.6658 21.7308C42.156 21.7308 42.5671 21.565 42.8992 21.2334C43.2312 20.9018 43.3972 20.4909 43.3972 20.0007C43.3972 19.5105 43.2314 19.0994 42.8998 18.7673C42.5682 18.4353 42.1573 18.2693 41.6671 18.2693C41.1769 18.2693 40.7658 18.4351 40.4338 18.7667C40.1017 19.0983 39.9357 19.5092 39.9357 19.9994C39.9357 20.4895 40.1015 20.9006 40.4331 21.2327C40.7647 21.5647 41.1756 21.7308 41.6658 21.7308Z" fill="#FF4F55"/>
</g>
</g>
<defs>
<filter id="filter0_d_3290_8090" x="0.666504" y="0.500061" width="72.3921" height="70.4999" filterUnits="userSpaceOnUse" color-interpolation-filters="sRGB">
<feFlood flood-opacity="0" result="BackgroundImageFix"/>
<feColorMatrix in="SourceAlpha" type="matrix" values="0 0 0 0 0 0 0 0 0 0 0 0 0 0 0 0 0 0 127 0" result="hardAlpha"/>
<feOffset dy="4"/>
<feGaussianBlur stdDeviation="8"/>
<feColorMatrix type="matrix" values="0 0 0 0 0 0 0 0 0 0 0 0 0 0 0 0 0 0 0.12 0"/>
<feBlend mode="normal" in2="BackgroundImageFix" result="effect1_dropShadow_3290_8090"/>
<feBlend mode="normal" in="SourceGraphic" in2="effect1_dropShadow_3290_8090" result="shape"/>
</filter>
</defs>
</svg>
