<svg width="20" height="21" viewBox="0 0 20 21" fill="none" xmlns="http://www.w3.org/2000/svg">
<mask id="mask0_7901_1009" style="mask-type:alpha" maskUnits="userSpaceOnUse" x="0" y="0" width="20" height="21">
<rect x="3.05176e-05" y="0.5" width="20" height="20" fill="#D9D9D9"/>
</mask>
<g mask="url(#mask0_7901_1009)">
<path d="M3.43864 17.5834C2.80225 17.5834 2.26107 17.3606 1.8151 16.915C1.36899 16.4693 1.14594 15.9282 1.14594 15.2917C1.14594 14.7714 1.3035 14.308 1.61864 13.9015C1.93392 13.495 2.33191 13.227 2.8126 13.0977V7.90231C2.33191 7.77301 1.93392 7.50509 1.61864 7.09856C1.3035 6.69203 1.14594 6.22863 1.14594 5.70835C1.14594 5.07183 1.36864 4.53072 1.81406 4.08502C2.25948 3.63947 2.80038 3.41669 3.43677 3.41669C4.07302 3.41669 4.61413 3.63947 5.0601 4.08502C5.50621 4.53072 5.72927 5.07183 5.72927 5.70835C5.72927 6.22863 5.5717 6.69203 5.25656 7.09856C4.94128 7.50509 4.5433 7.77301 4.0626 7.90231V9.87502H9.3751V7.90231C8.89441 7.77301 8.49642 7.50509 8.18114 7.09856C7.866 6.69203 7.70844 6.22863 7.70844 5.70835C7.70844 5.07183 7.93114 4.53072 8.37656 4.08502C8.82198 3.63947 9.36281 3.41669 9.99906 3.41669C10.6355 3.41669 11.1766 3.63947 11.6226 4.08502C12.0687 4.53072 12.2918 5.07183 12.2918 5.70835C12.2918 6.22863 12.1342 6.69203 11.8191 7.09856C11.5038 7.50509 11.1058 7.77301 10.6251 7.90231V9.87502H14.9039C15.1934 9.87502 15.4395 9.77377 15.642 9.57127C15.8445 9.36891 15.9457 9.12294 15.9457 8.83335V7.90231C15.4649 7.77301 15.0669 7.50509 14.7518 7.09856C14.4366 6.69203 14.2791 6.22863 14.2791 5.70835C14.2791 5.07183 14.5017 4.53072 14.947 4.08502C15.3924 3.63947 15.9333 3.41669 16.5697 3.41669C17.2059 3.41669 17.7471 3.63947 18.1932 4.08502C18.6392 4.53072 18.8622 5.07183 18.8622 5.70835C18.8622 6.22863 18.7046 6.69203 18.3895 7.09856C18.0743 7.50509 17.6764 7.77301 17.1955 7.90231V8.83335C17.1955 9.46988 16.9727 10.011 16.5272 10.4567C16.0816 10.9022 15.5405 11.125 14.9039 11.125H10.6251V13.0977C11.1058 13.227 11.5038 13.495 11.8191 13.9015C12.1342 14.308 12.2918 14.7714 12.2918 15.2917C12.2918 15.9282 12.0691 16.4693 11.6236 16.915C11.1782 17.3606 10.6374 17.5834 10.0011 17.5834C9.36475 17.5834 8.82357 17.3606 8.3776 16.915C7.93149 16.4693 7.70844 15.9282 7.70844 15.2917C7.70844 14.7714 7.866 14.308 8.18114 13.9015C8.49642 13.495 8.89441 13.227 9.3751 13.0977V11.125H4.0626V13.0977C4.5433 13.227 4.94128 13.495 5.25656 13.9015C5.5717 14.308 5.72927 14.7714 5.72927 15.2917C5.72927 15.9282 5.50656 16.4693 5.06114 16.915C4.61573 17.3606 4.07489 17.5834 3.43864 17.5834ZM3.4376 16.3334C3.72719 16.3334 3.97316 16.2321 4.17552 16.0296C4.37802 15.8272 4.47927 15.5813 4.47927 15.2917C4.47927 15.0021 4.37802 14.7561 4.17552 14.5538C3.97316 14.3513 3.72719 14.25 3.4376 14.25C3.14802 14.25 2.90205 14.3513 2.69969 14.5538C2.49719 14.7561 2.39594 15.0021 2.39594 15.2917C2.39594 15.5813 2.49719 15.8272 2.69969 16.0296C2.90205 16.2321 3.14802 16.3334 3.4376 16.3334ZM3.4376 6.75002C3.72719 6.75002 3.97316 6.64877 4.17552 6.44627C4.37802 6.24391 4.47927 5.99794 4.47927 5.70835C4.47927 5.41877 4.37802 5.1728 4.17552 4.97044C3.97316 4.76794 3.72719 4.66669 3.4376 4.66669C3.14802 4.66669 2.90205 4.76794 2.69969 4.97044C2.49719 5.1728 2.39594 5.41877 2.39594 5.70835C2.39594 5.99794 2.49719 6.24391 2.69969 6.44627C2.90205 6.64877 3.14802 6.75002 3.4376 6.75002ZM10.0001 16.3334C10.2897 16.3334 10.5357 16.2321 10.738 16.0296C10.9405 15.8272 11.0418 15.5813 11.0418 15.2917C11.0418 15.0021 10.9405 14.7561 10.738 14.5538C10.5357 14.3513 10.2897 14.25 10.0001 14.25C9.71052 14.25 9.46455 14.3513 9.26219 14.5538C9.05969 14.7561 8.95844 15.0021 8.95844 15.2917C8.95844 15.5813 9.05969 15.8272 9.26219 16.0296C9.46455 16.2321 9.71052 16.3334 10.0001 16.3334ZM10.0001 6.75002C10.2897 6.75002 10.5357 6.64877 10.738 6.44627C10.9405 6.24391 11.0418 5.99794 11.0418 5.70835C11.0418 5.41877 10.9405 5.1728 10.738 4.97044C10.5357 4.76794 10.2897 4.66669 10.0001 4.66669C9.71052 4.66669 9.46455 4.76794 9.26219 4.97044C9.05969 5.1728 8.95844 5.41877 8.95844 5.70835C8.95844 5.99794 9.05969 6.24391 9.26219 6.44627C9.46455 6.64877 9.71052 6.75002 10.0001 6.75002ZM16.5705 6.75002C16.8601 6.75002 17.1061 6.64877 17.3086 6.44627C17.5111 6.24391 17.6124 5.99794 17.6124 5.70835C17.6124 5.41877 17.5111 5.1728 17.3086 4.97044C17.1061 4.76794 16.8601 4.66669 16.5705 4.66669C16.2811 4.66669 16.0351 4.76794 15.8326 4.97044C15.6301 5.1728 15.5289 5.41877 15.5289 5.70835C15.5289 5.99794 15.6301 6.24391 15.8326 6.44627C16.0351 6.64877 16.2811 6.75002 16.5705 6.75002Z" fill="#808080"/>
</g>
</svg>
