<svg width="20" height="21" viewBox="0 0 20 21" fill="none" xmlns="http://www.w3.org/2000/svg">
<mask id="mask0_7901_999" style="mask-type:alpha" maskUnits="userSpaceOnUse" x="0" y="0" width="20" height="21">
<rect x="3.05176e-05" y="0.5" width="20" height="20" fill="#D9D9D9"/>
</mask>
<g mask="url(#mask0_7901_999)">
<path d="M3.75003 16.83V4.92315C3.75003 4.50217 3.89586 4.14585 4.18753 3.85419C4.4792 3.56252 4.83552 3.41669 5.25649 3.41669H9.74357C10.1645 3.41669 10.5209 3.56252 10.8125 3.85419C11.1042 4.14585 11.25 4.50217 11.25 4.92315V10.3398H12.0513C12.4656 10.3398 12.8202 10.4873 13.1152 10.7823C13.4102 11.0773 13.5577 11.4319 13.5577 11.8461V15.6281C13.5577 15.8963 13.6509 16.1236 13.8373 16.31C14.0237 16.4965 14.251 16.5898 14.5192 16.5898C14.7874 16.5898 15.0147 16.4965 15.2011 16.31C15.3876 16.1236 15.4809 15.8963 15.4809 15.6281V9.78856C15.3559 9.86328 15.2239 9.91509 15.085 9.94398C14.9461 9.97273 14.8003 9.9871 14.6475 9.9871C14.136 9.9871 13.7036 9.81051 13.3502 9.45731C12.997 9.10412 12.8204 8.67176 12.8204 8.16023C12.8204 7.74787 12.938 7.38065 13.1732 7.05856C13.4082 6.73648 13.7191 6.52037 14.1059 6.41023L12.5769 4.88148C12.4786 4.78315 12.4281 4.66801 12.4254 4.53606C12.4228 4.40412 12.4741 4.28558 12.5792 4.18044C12.6728 4.08683 12.7864 4.03794 12.9198 4.03377C13.0534 4.02946 13.172 4.07488 13.2757 4.17002L15.8973 6.75335C16.0844 6.9403 16.2273 7.15689 16.3261 7.40314C16.425 7.64939 16.4744 7.90176 16.4744 8.16023V15.6281C16.4744 16.1756 16.2855 16.6384 15.9077 17.0163C15.5301 17.3943 15.0678 17.5834 14.5209 17.5834C13.9738 17.5834 13.5109 17.3943 13.1321 17.0163C12.7535 16.6384 12.5642 16.1756 12.5642 15.6281V11.5898C12.5642 11.5149 12.5401 11.4535 12.4919 11.4054C12.4439 11.3574 12.3825 11.3334 12.3077 11.3334H11.25V16.83C11.25 17.0435 11.1782 17.2224 11.0344 17.3667C10.8907 17.5111 10.7125 17.5834 10.5 17.5834H4.49982C4.28732 17.5834 4.10927 17.5111 3.96566 17.3667C3.82191 17.2224 3.75003 17.0435 3.75003 16.83ZM5.00003 9.04169H10V4.92315C10 4.85898 9.97329 4.80023 9.91982 4.74689C9.86649 4.69342 9.80774 4.66669 9.74357 4.66669H5.25649C5.19232 4.66669 5.13357 4.69342 5.08024 4.74689C5.02677 4.80023 5.00003 4.85898 5.00003 4.92315V9.04169ZM14.6475 8.99356C14.8836 8.99356 15.0816 8.9137 15.2413 8.75398C15.401 8.59426 15.4809 8.39634 15.4809 8.16023C15.4809 7.92412 15.401 7.7262 15.2413 7.56648C15.0816 7.40676 14.8836 7.3269 14.6475 7.3269C14.4114 7.3269 14.2135 7.40676 14.0538 7.56648C13.8941 7.7262 13.8142 7.92412 13.8142 8.16023C13.8142 8.39634 13.8941 8.59426 14.0538 8.75398C14.2135 8.9137 14.4114 8.99356 14.6475 8.99356ZM5.00003 16.3334H10V10.2917H5.00003V16.3334Z" fill="#808080"/>
</g>
</svg>
