<svg width="20" height="21" viewBox="0 0 20 21" fill="none" xmlns="http://www.w3.org/2000/svg">
<mask id="mask0_7901_1014" style="mask-type:alpha" maskUnits="userSpaceOnUse" x="0" y="0" width="20" height="21">
<rect x="3.05176e-05" y="0.5" width="20" height="20" fill="#D9D9D9"/>
</mask>
<g mask="url(#mask0_7901_1014)">
<path d="M8.83683 13.2885C9.13281 13.5844 9.51399 13.7249 9.98038 13.71C10.4466 13.695 10.7888 13.5267 11.0068 13.2052L14.3679 8.33667C14.4872 8.15708 14.4736 7.9941 14.3273 7.84771C14.1809 7.70146 14.0177 7.68785 13.8379 7.80687L8.96184 11.1602C8.63503 11.3783 8.4585 11.7135 8.43225 12.1658C8.40614 12.6183 8.541 12.9926 8.83683 13.2885ZM10.0004 4.25C10.5484 4.25 11.0722 4.29972 11.5716 4.39917C12.0712 4.49847 12.5582 4.65174 13.0325 4.85896C13.2012 4.92632 13.3692 5.04653 13.5364 5.21958C13.7036 5.39264 13.7463 5.5566 13.6645 5.71146C13.5829 5.86646 13.4063 5.96931 13.135 6.02C12.8636 6.07083 12.6393 6.06257 12.462 5.99521C12.072 5.82743 11.6745 5.70299 11.2695 5.62187C10.8647 5.54062 10.4416 5.5 10.0004 5.5C8.15315 5.5 6.58024 6.14931 5.28163 7.44792C3.98302 8.74653 3.33371 10.3194 3.33371 12.1667C3.33371 12.75 3.41357 13.3264 3.57329 13.8958C3.73302 14.4653 3.95871 15 4.25038 15.5H15.7504C16.0698 14.9722 16.3025 14.4236 16.4483 13.8542C16.5941 13.2847 16.667 12.6944 16.667 12.0833C16.667 11.6901 16.6278 11.2865 16.5493 10.8725C16.4707 10.4586 16.3475 10.0609 16.1798 9.67937C16.1125 9.50215 16.0986 9.3291 16.1381 9.16021C16.1777 8.99146 16.2711 8.85167 16.4185 8.74083C16.5553 8.64014 16.7047 8.61222 16.8666 8.65708C17.0284 8.70194 17.143 8.80021 17.2104 8.95187C17.4507 9.47535 17.6263 9.99056 17.7375 10.4975C17.8486 11.0044 17.9084 11.5245 17.917 12.0577C17.9255 12.812 17.8406 13.5249 17.6623 14.1962C17.4838 14.8678 17.2151 15.5246 16.8562 16.1667C16.7461 16.3472 16.5911 16.4896 16.3914 16.5938C16.1916 16.6979 15.9779 16.75 15.7504 16.75H4.25038C4.02815 16.75 3.8185 16.6966 3.62142 16.5898C3.42433 16.4828 3.26538 16.3311 3.14454 16.1346C2.82621 15.579 2.56982 14.9733 2.37538 14.3173C2.18093 13.6613 2.08371 12.9444 2.08371 12.1667C2.08371 11.0781 2.29024 10.0547 2.70329 9.09646C3.11635 8.13826 3.68017 7.29903 4.39475 6.57875C5.10947 5.85847 5.94968 5.29028 6.91538 4.87417C7.88121 4.45806 8.90954 4.25 10.0004 4.25Z" fill="#808080"/>
</g>
</svg>
