<svg width="64" height="64" viewBox="0 0 64 64" fill="none" xmlns="http://www.w3.org/2000/svg">
<mask id="mask0_6475_21053" style="mask-type:alpha" maskUnits="userSpaceOnUse" x="0" y="0" width="64" height="64">
<rect width="64" height="64" fill="#D9D9D9"/>
</mask>
<g mask="url(#mask0_6475_21053)">
<path d="M25.4667 39.858L47.78 17.5446C48.3876 16.9371 49.1 16.6333 49.9173 16.6333C50.7347 16.6333 51.4473 16.9371 52.0553 17.5446C52.6629 18.1526 52.9667 18.8737 52.9667 19.708C52.9667 20.5422 52.6629 21.2633 52.0553 21.8713L27.6047 46.3726C26.9967 46.9802 26.284 47.284 25.4667 47.284C24.6493 47.284 23.9367 46.9802 23.3287 46.3726L11.894 34.938C11.2865 34.33 10.9911 33.6089 11.008 32.7746C11.0249 31.9404 11.3371 31.2193 11.9447 30.6113C12.5527 30.0037 13.2738 29.7 14.108 29.7C14.9422 29.7 15.6633 30.0037 16.2713 30.6113L25.4667 39.858Z" fill="#155AB8"/>
</g>
</svg>
