<svg width="28" height="29" viewBox="0 0 28 29" fill="none" xmlns="http://www.w3.org/2000/svg">
<mask id="mask0_8572_1678" style="mask-type:alpha" maskUnits="userSpaceOnUse" x="0" y="0" width="28" height="29">
<rect y="0.5" width="28" height="28" fill="#D9D9D9"/>
</mask>
<g mask="url(#mask0_8572_1678)">
<path d="M12.775 15.7433L10.9174 13.8854C10.7437 13.712 10.5406 13.6234 10.3081 13.6197C10.0755 13.616 9.86874 13.7046 9.68771 13.8854C9.50687 14.0665 9.41646 14.2744 9.41646 14.5093C9.41646 14.744 9.50687 14.9519 9.68771 15.1329L12.0368 17.5C12.2478 17.7108 12.4938 17.8162 12.775 17.8162C13.0562 17.8162 13.3022 17.7108 13.5132 17.5L18.3482 12.6651C18.5216 12.4914 18.6102 12.2853 18.6139 12.0468C18.6176 11.8084 18.529 11.5987 18.3482 11.4176C18.1671 11.2366 17.9592 11.1461 17.7243 11.1461C17.4896 11.1461 17.2817 11.2366 17.1007 11.4176L12.775 15.7433ZM14 25.4331C13.8789 25.4331 13.76 25.4234 13.6433 25.4039C13.5266 25.3845 13.4137 25.3553 13.3044 25.3164C10.8441 24.4414 8.8866 22.89 7.43196 20.6623C5.97732 18.4344 5.25 16.0303 5.25 13.4503V8.19588C5.25 7.75449 5.37794 7.35627 5.63383 7.00121C5.88953 6.64596 6.21853 6.38832 6.62083 6.2283L13.2618 3.74913C13.5117 3.6593 13.7577 3.61438 14 3.61438C14.2423 3.61438 14.4883 3.6593 14.7382 3.74913L21.3792 6.2283C21.7815 6.38832 22.1105 6.64596 22.3662 7.00121C22.6221 7.35627 22.75 7.75449 22.75 8.19588V13.4503C22.75 16.0303 22.0227 18.4344 20.568 20.6623C19.1134 22.89 17.1559 24.4414 14.6956 25.3164C14.5863 25.3553 14.4734 25.3845 14.3567 25.4039C14.24 25.4234 14.1211 25.4331 14 25.4331ZM14 23.7169C16.0222 23.0753 17.6944 21.7919 19.0167 19.8669C20.3389 17.9419 21 15.803 21 13.4503V8.1845C21 8.10984 20.9794 8.04256 20.9382 7.98267C20.8971 7.92278 20.8392 7.87787 20.7643 7.84792L14.1234 5.36875C14.086 5.35378 14.0449 5.3463 14 5.3463C13.9551 5.3463 13.914 5.35378 13.8766 5.36875L7.23567 7.84792C7.16081 7.87787 7.10286 7.92278 7.06183 7.98267C7.02061 8.04256 7 8.10984 7 8.1845V13.4503C7 15.803 7.66111 17.9419 8.98333 19.8669C10.3056 21.7919 11.9778 23.0753 14 23.7169Z" fill="#333333"/>
</g>
</svg>
