<svg width="112" height="24" viewBox="0 0 112 24" fill="none" xmlns="http://www.w3.org/2000/svg">
<mask id="mask0_7901_2361" style="mask-type:alpha" maskUnits="userSpaceOnUse" x="0" y="0" width="24" height="24">
<rect width="24" height="24" fill="#D9D9D9"/>
</mask>
<g mask="url(#mask0_7901_2361)">
<path d="M12 17.2752L7.85 19.7752C7.66667 19.8919 7.475 19.9419 7.275 19.9252C7.075 19.9085 6.9 19.8419 6.75 19.7252C6.6 19.6085 6.48333 19.4627 6.4 19.2877C6.31667 19.1127 6.3 18.9169 6.35 18.7002L7.45 13.9752L3.775 10.8002C3.60833 10.6502 3.50417 10.4794 3.4625 10.2877C3.42083 10.096 3.43333 9.90853 3.5 9.72519C3.56667 9.54186 3.66667 9.39186 3.8 9.2752C3.93333 9.15853 4.11667 9.08353 4.35 9.0502L9.2 8.6252L11.075 4.1752C11.1583 3.9752 11.2875 3.8252 11.4625 3.7252C11.6375 3.6252 11.8167 3.5752 12 3.5752C12.1833 3.5752 12.3625 3.6252 12.5375 3.7252C12.7125 3.8252 12.8417 3.9752 12.925 4.1752L14.8 8.6252L19.65 9.0502C19.8833 9.08353 20.0667 9.15853 20.2 9.2752C20.3333 9.39186 20.4333 9.54186 20.5 9.72519C20.5667 9.90853 20.5792 10.096 20.5375 10.2877C20.4958 10.4794 20.3917 10.6502 20.225 10.8002L16.55 13.9752L17.65 18.7002C17.7 18.9169 17.6833 19.1127 17.6 19.2877C17.5167 19.4627 17.4 19.6085 17.25 19.7252C17.1 19.8419 16.925 19.9085 16.725 19.9252C16.525 19.9419 16.3333 19.8919 16.15 19.7752L12 17.2752Z" fill="#FF4545"/>
</g>
<mask id="mask1_7901_2361" style="mask-type:alpha" maskUnits="userSpaceOnUse" x="22" y="0" width="24" height="24">
<rect x="22" width="24" height="24" fill="#D9D9D9"/>
</mask>
<g mask="url(#mask1_7901_2361)">
<path d="M34 17.2752L29.85 19.7752C29.6667 19.8919 29.475 19.9419 29.275 19.9252C29.075 19.9085 28.9 19.8419 28.75 19.7252C28.6 19.6085 28.4833 19.4627 28.4 19.2877C28.3167 19.1127 28.3 18.9169 28.35 18.7002L29.45 13.9752L25.775 10.8002C25.6083 10.6502 25.5042 10.4794 25.4625 10.2877C25.4208 10.096 25.4333 9.90853 25.5 9.72519C25.5667 9.54186 25.6667 9.39186 25.8 9.2752C25.9333 9.15853 26.1167 9.08353 26.35 9.0502L31.2 8.6252L33.075 4.1752C33.1583 3.9752 33.2875 3.8252 33.4625 3.7252C33.6375 3.6252 33.8167 3.5752 34 3.5752C34.1833 3.5752 34.3625 3.6252 34.5375 3.7252C34.7125 3.8252 34.8417 3.9752 34.925 4.1752L36.8 8.6252L41.65 9.0502C41.8833 9.08353 42.0667 9.15853 42.2 9.2752C42.3333 9.39186 42.4333 9.54186 42.5 9.72519C42.5667 9.90853 42.5792 10.096 42.5375 10.2877C42.4958 10.4794 42.3917 10.6502 42.225 10.8002L38.55 13.9752L39.65 18.7002C39.7 18.9169 39.6833 19.1127 39.6 19.2877C39.5167 19.4627 39.4 19.6085 39.25 19.7252C39.1 19.8419 38.925 19.9085 38.725 19.9252C38.525 19.9419 38.3333 19.8919 38.15 19.7752L34 17.2752Z" fill="#FF4545"/>
</g>
<mask id="mask2_7901_2361" style="mask-type:alpha" maskUnits="userSpaceOnUse" x="44" y="0" width="24" height="24">
<rect x="44" width="24" height="24" fill="#D9D9D9"/>
</mask>
<g mask="url(#mask2_7901_2361)">
<path d="M56 17.2752L51.85 19.7752C51.6667 19.8919 51.475 19.9419 51.275 19.9252C51.075 19.9085 50.9 19.8419 50.75 19.7252C50.6 19.6085 50.4833 19.4627 50.4 19.2877C50.3167 19.1127 50.3 18.9169 50.35 18.7002L51.45 13.9752L47.775 10.8002C47.6083 10.6502 47.5042 10.4794 47.4625 10.2877C47.4208 10.096 47.4333 9.90853 47.5 9.72519C47.5667 9.54186 47.6667 9.39186 47.8 9.2752C47.9333 9.15853 48.1167 9.08353 48.35 9.0502L53.2 8.6252L55.075 4.1752C55.1583 3.9752 55.2875 3.8252 55.4625 3.7252C55.6375 3.6252 55.8167 3.5752 56 3.5752C56.1833 3.5752 56.3625 3.6252 56.5375 3.7252C56.7125 3.8252 56.8417 3.9752 56.925 4.1752L58.8 8.6252L63.65 9.0502C63.8833 9.08353 64.0667 9.15853 64.2 9.2752C64.3333 9.39186 64.4333 9.54186 64.5 9.72519C64.5667 9.90853 64.5792 10.096 64.5375 10.2877C64.4958 10.4794 64.3917 10.6502 64.225 10.8002L60.55 13.9752L61.65 18.7002C61.7 18.9169 61.6833 19.1127 61.6 19.2877C61.5167 19.4627 61.4 19.6085 61.25 19.7252C61.1 19.8419 60.925 19.9085 60.725 19.9252C60.525 19.9419 60.3333 19.8919 60.15 19.7752L56 17.2752Z" fill="#FF4545"/>
</g>
<mask id="mask3_7901_2361" style="mask-type:alpha" maskUnits="userSpaceOnUse" x="66" y="0" width="24" height="24">
<rect x="66" width="24" height="24" fill="#D9D9D9"/>
</mask>
<g mask="url(#mask3_7901_2361)">
<path d="M78 17.2752L73.85 19.7752C73.6667 19.8919 73.475 19.9419 73.275 19.9252C73.075 19.9085 72.9 19.8419 72.75 19.7252C72.6 19.6085 72.4833 19.4627 72.4 19.2877C72.3167 19.1127 72.3 18.9169 72.35 18.7002L73.45 13.9752L69.775 10.8002C69.6083 10.6502 69.5042 10.4794 69.4625 10.2877C69.4208 10.096 69.4333 9.90853 69.5 9.72519C69.5667 9.54186 69.6667 9.39186 69.8 9.2752C69.9333 9.15853 70.1167 9.08353 70.35 9.0502L75.2 8.6252L77.075 4.1752C77.1583 3.9752 77.2875 3.8252 77.4625 3.7252C77.6375 3.6252 77.8167 3.5752 78 3.5752C78.1833 3.5752 78.3625 3.6252 78.5375 3.7252C78.7125 3.8252 78.8417 3.9752 78.925 4.1752L80.8 8.6252L85.65 9.0502C85.8833 9.08353 86.0667 9.15853 86.2 9.2752C86.3333 9.39186 86.4333 9.54186 86.5 9.72519C86.5667 9.90853 86.5792 10.096 86.5375 10.2877C86.4958 10.4794 86.3917 10.6502 86.225 10.8002L82.55 13.9752L83.65 18.7002C83.7 18.9169 83.6833 19.1127 83.6 19.2877C83.5167 19.4627 83.4 19.6085 83.25 19.7252C83.1 19.8419 82.925 19.9085 82.725 19.9252C82.525 19.9419 82.3333 19.8919 82.15 19.7752L78 17.2752Z" fill="#FF4545"/>
</g>
<mask id="mask4_7901_2361" style="mask-type:alpha" maskUnits="userSpaceOnUse" x="88" y="0" width="24" height="24">
<rect x="88" width="24" height="24" fill="#D9D9D9"/>
</mask>
<g mask="url(#mask4_7901_2361)">
<path d="M100 17.2752L95.85 19.7752C95.6667 19.8919 95.475 19.9419 95.275 19.9252C95.075 19.9085 94.9 19.8419 94.75 19.7252C94.6 19.6085 94.4833 19.4627 94.4 19.2877C94.3167 19.1127 94.3 18.9169 94.35 18.7002L95.45 13.9752L91.775 10.8002C91.6083 10.6502 91.5042 10.4794 91.4625 10.2877C91.4208 10.096 91.4333 9.90853 91.5 9.72519C91.5667 9.54186 91.6667 9.39186 91.8 9.2752C91.9333 9.15853 92.1167 9.08353 92.35 9.0502L97.2 8.6252L99.075 4.1752C99.1583 3.9752 99.2875 3.8252 99.4625 3.7252C99.6375 3.6252 99.8167 3.5752 100 3.5752C100.183 3.5752 100.363 3.6252 100.538 3.7252C100.713 3.8252 100.842 3.9752 100.925 4.1752L102.8 8.6252L107.65 9.0502C107.883 9.08353 108.067 9.15853 108.2 9.2752C108.333 9.39186 108.433 9.54186 108.5 9.72519C108.567 9.90853 108.579 10.096 108.538 10.2877C108.496 10.4794 108.392 10.6502 108.225 10.8002L104.55 13.9752L105.65 18.7002C105.7 18.9169 105.683 19.1127 105.6 19.2877C105.517 19.4627 105.4 19.6085 105.25 19.7252C105.1 19.8419 104.925 19.9085 104.725 19.9252C104.525 19.9419 104.333 19.8919 104.15 19.7752L100 17.2752Z" fill="#FF4545"/>
</g>
</svg>
