<svg width="20" height="20" viewBox="0 0 20 20" fill="none" xmlns="http://www.w3.org/2000/svg">
<mask id="mask0_3047_5099" style="mask-type:alpha" maskUnits="userSpaceOnUse" x="0" y="0" width="20" height="20">
<rect width="20" height="20" fill="#D9D9D9"/>
</mask>
<g mask="url(#mask0_3047_5099)">
<path d="M13.4584 10.8334H4.16671C3.9306 10.8334 3.73268 10.7536 3.57296 10.5938C3.41324 10.4341 3.33337 10.2362 3.33337 10.0001C3.33337 9.76398 3.41324 9.56606 3.57296 9.40634C3.73268 9.24662 3.9306 9.16676 4.16671 9.16676H13.4584L11.0834 6.79176C10.9167 6.62509 10.8368 6.43065 10.8438 6.20842C10.8507 5.9862 10.9306 5.79176 11.0834 5.62509C11.25 5.45842 11.448 5.37162 11.6771 5.36467C11.9063 5.35773 12.1042 5.43759 12.2709 5.60426L16.0834 9.41676C16.1667 9.50009 16.2257 9.59037 16.2605 9.68759C16.2952 9.78481 16.3125 9.88898 16.3125 10.0001C16.3125 10.1112 16.2952 10.2154 16.2605 10.3126C16.2257 10.4098 16.1667 10.5001 16.0834 10.5834L12.2709 14.3959C12.1042 14.5626 11.9063 14.6425 11.6771 14.6355C11.448 14.6286 11.25 14.5418 11.0834 14.3751C10.9306 14.2084 10.8507 14.014 10.8438 13.7918C10.8368 13.5695 10.9167 13.3751 11.0834 13.2084L13.4584 10.8334Z" fill="#102849"/>
</g>
</svg>
