<svg width="24" height="24" viewBox="0 0 24 24" fill="none" xmlns="http://www.w3.org/2000/svg">
<mask id="mask0_7901_1302" style="mask-type:alpha" maskUnits="userSpaceOnUse" x="0" y="0" width="24" height="24">
<rect y="24" width="24" height="24" transform="rotate(-90 0 24)" fill="#D9D9D9"/>
</mask>
<g mask="url(#mask0_7901_1302)">
<path d="M14.975 12.0002C14.975 12.1335 14.9542 12.2585 14.9125 12.3752C14.8708 12.4919 14.8 12.6002 14.7 12.7002L10.1 17.3002C9.91665 17.4835 9.68332 17.5752 9.39999 17.5752C9.11665 17.5752 8.88332 17.4835 8.69999 17.3002C8.51665 17.1169 8.42499 16.8835 8.42499 16.6002C8.42499 16.3169 8.51665 16.0835 8.69999 15.9002L12.6 12.0002L8.69999 8.10019C8.51665 7.91686 8.42499 7.68353 8.42499 7.4002C8.42499 7.11686 8.51665 6.88353 8.69999 6.7002C8.88332 6.51686 9.11665 6.42519 9.39999 6.42519C9.68332 6.42519 9.91665 6.51686 10.1 6.7002L14.7 11.3002C14.8 11.4002 14.8708 11.5085 14.9125 11.6252C14.9542 11.7419 14.975 11.8669 14.975 12.0002Z" fill="#565656"/>
</g>
</svg>
