<svg width="20" height="21" viewBox="0 0 20 21" fill="none" xmlns="http://www.w3.org/2000/svg">
<mask id="mask0_7901_897" style="mask-type:alpha" maskUnits="userSpaceOnUse" x="0" y="0" width="20" height="21">
<rect y="0.5" width="20" height="20" fill="#D9D9D9"/>
</mask>
<g mask="url(#mask0_7901_897)">
<path d="M10 17.9504C9.83761 17.9504 9.67522 17.9224 9.51284 17.8663C9.35045 17.8102 9.20354 17.7234 9.07213 17.6059C8.32428 16.9168 7.6245 16.2071 6.97279 15.4769C6.32109 14.7467 5.75458 14.0167 5.27327 13.287C4.79197 12.5573 4.41109 11.834 4.13065 11.1171C3.85019 10.4003 3.70996 9.70794 3.70996 9.0402C3.70996 7.11715 4.33202 5.56027 5.57615 4.36956C6.82026 3.17885 8.29488 2.5835 10 2.5835C11.7051 2.5835 13.1797 3.17885 14.4239 4.36956C15.668 5.56027 16.29 7.11715 16.29 9.0402C16.29 9.70794 16.1498 10.3989 15.8694 11.1131C15.5889 11.8274 15.2094 12.5506 14.7307 13.283C14.2521 14.0154 13.6869 14.7453 13.0352 15.4729C12.3835 16.2005 11.6837 16.9088 10.9359 17.5979C10.8064 17.7154 10.6592 17.8035 10.4944 17.8623C10.3296 17.9211 10.1648 17.9504 10 17.9504ZM10.0014 10.388C10.4161 10.388 10.7706 10.2403 11.0649 9.94504C11.3592 9.64976 11.5064 9.2948 11.5064 8.88014C11.5064 8.46549 11.3588 8.111 11.0635 7.81666C10.7682 7.52233 10.4132 7.37516 9.99859 7.37516C9.58393 7.37516 9.22944 7.5228 8.93511 7.81808C8.64077 8.11336 8.49361 8.46832 8.49361 8.88298C8.49361 9.29763 8.64125 9.65212 8.93652 9.94646C9.2318 10.2408 9.58677 10.388 10.0014 10.388Z" fill="#808080"/>
</g>
</svg>
