<svg width="22" height="25" viewBox="0 0 22 25" fill="none" xmlns="http://www.w3.org/2000/svg">
<g clip-path="url(#clip0_4932_1168)">
<path d="M18.3547 5.05156C16.3906 3.08281 13.775 2 10.9953 2C5.25781 2 0.589062 6.66875 0.589062 12.4062C0.589062 14.2391 1.06719 16.0297 1.97656 17.6094L0.5 23L6.01719 21.5516C7.53594 22.3813 9.24688 22.8172 10.9906 22.8172H10.9953C16.7281 22.8172 21.5 18.1484 21.5 12.4109C21.5 9.63125 20.3187 7.02031 18.3547 5.05156ZM10.9953 21.0641C9.43906 21.0641 7.91562 20.6469 6.58906 19.8594L6.275 19.6719L3.00313 20.5297L3.875 17.3375L3.66875 17.0094C2.80156 15.6313 2.34688 14.0422 2.34688 12.4062C2.34688 7.63906 6.22812 3.75781 11 3.75781C13.3109 3.75781 15.4812 4.65781 17.1125 6.29375C18.7437 7.92969 19.7469 10.1 19.7422 12.4109C19.7422 17.1828 15.7625 21.0641 10.9953 21.0641ZM15.7391 14.5859C15.4813 14.4547 14.2016 13.8266 13.9625 13.7422C13.7234 13.6531 13.55 13.6109 13.3766 13.8734C13.2031 14.1359 12.7063 14.7172 12.5516 14.8953C12.4016 15.0688 12.2469 15.0922 11.9891 14.9609C10.4609 14.1969 9.45781 13.5969 8.45 11.8672C8.18281 11.4078 8.71719 11.4406 9.21406 10.4469C9.29844 10.2734 9.25625 10.1234 9.19062 9.99219C9.125 9.86094 8.60469 8.58125 8.38906 8.06094C8.17813 7.55469 7.9625 7.625 7.80313 7.61563C7.65313 7.60625 7.47969 7.60625 7.30625 7.60625C7.13281 7.60625 6.85156 7.67188 6.6125 7.92969C6.37344 8.19219 5.70312 8.82031 5.70312 10.1C5.70312 11.3797 6.63594 12.6172 6.7625 12.7906C6.89375 12.9641 8.59531 15.5891 11.2062 16.7188C12.8562 17.4312 13.5031 17.4922 14.3281 17.3703C14.8297 17.2953 15.8656 16.7422 16.0812 16.1328C16.2969 15.5234 16.2969 15.0031 16.2313 14.8953C16.1703 14.7781 15.9969 14.7125 15.7391 14.5859Z" fill="#EAF5FB"/>
</g>
<defs>
<clipPath id="clip0_4932_1168">
<rect width="21" height="24" fill="white" transform="translate(0.5 0.5)"/>
</clipPath>
</defs>
</svg>
