<svg width="23" height="20" viewBox="0 0 23 20" fill="none" xmlns="http://www.w3.org/2000/svg">
<path d="M21.9727 4.84766C21.7266 3.92187 21.0039 3.19531 20.0859 2.94922C18.4219 2.5 11.75 2.5 11.75 2.5C11.75 2.5 5.07812 2.5 3.41406 2.94922C2.49609 3.19531 1.77344 3.92187 1.52734 4.84766C1.08203 6.52344 1.08203 10.0156 1.08203 10.0156C1.08203 10.0156 1.08203 13.5078 1.52734 15.1836C1.77344 16.1094 2.49609 16.8047 3.41406 17.0508C5.07812 17.5 11.75 17.5 11.75 17.5C11.75 17.5 18.4219 17.5 20.0859 17.0508C21.0039 16.8047 21.7266 16.1055 21.9727 15.1836C22.418 13.5078 22.418 10.0156 22.418 10.0156C22.418 10.0156 22.418 6.52344 21.9727 4.84766ZM9.57031 13.1875V6.84375L15.1445 10.0156L9.57031 13.1875Z" fill="#323232"/>
</svg>
