<svg width="40" height="40" viewBox="0 0 40 40" fill="none" xmlns="http://www.w3.org/2000/svg">
<path d="M34.9999 20.2167C34.8439 19.8321 34.5764 19.5028 34.232 19.2712C33.8875 19.0396 33.4817 18.9161 33.0666 18.9167H29.6833V6.6667C29.6833 5.88873 29.3742 5.14262 28.8241 4.59252C28.274 4.04241 27.5279 3.73336 26.7499 3.73336H13.3333C12.9411 3.72222 12.5507 3.78985 12.1851 3.93227C11.8196 4.07468 11.4863 4.28898 11.205 4.56249C10.9237 4.83599 10.7002 5.16314 10.5476 5.52457C10.395 5.886 10.3164 6.27437 10.3166 6.6667V18.9H6.8666C6.45172 18.9007 6.04632 19.0242 5.70156 19.255C5.35681 19.4857 5.08813 19.8135 4.92945 20.1968C4.77077 20.5802 4.72919 21.0019 4.80995 21.4088C4.89072 21.8158 5.09022 22.1897 5.38327 22.4834L18.5166 35.6167C18.9103 36.0096 19.4438 36.2302 19.9999 36.2302C20.5561 36.2302 21.0896 36.0096 21.4833 35.6167L34.6166 22.4834C34.8958 22.1848 35.081 21.8107 35.1492 21.4077C35.2174 21.0046 35.1655 20.5905 34.9999 20.2167ZM17.0833 13C17.4129 13 17.7351 13.0978 18.0092 13.2809C18.2833 13.464 18.4969 13.7243 18.6231 14.0289C18.7492 14.3334 18.7822 14.6685 18.7179 14.9918C18.6536 15.3151 18.4949 15.6121 18.2618 15.8452C18.0287 16.0783 17.7317 16.237 17.4084 16.3013C17.0851 16.3656 16.75 16.3326 16.4455 16.2065C16.1409 16.0803 15.8806 15.8667 15.6975 15.5926C15.5143 15.3186 15.4166 14.9963 15.4166 14.6667C15.4166 14.2247 15.5922 13.8007 15.9048 13.4882C16.2173 13.1756 16.6412 13 17.0833 13ZM17.6499 23.3334C17.5302 23.4785 17.3801 23.5955 17.2102 23.6761C17.0403 23.7568 16.8547 23.7991 16.6666 23.8C16.4328 23.7955 16.2048 23.7262 16.0079 23.6C15.811 23.4739 15.6529 23.2956 15.5511 23.0851C15.4492 22.8745 15.4077 22.6399 15.431 22.4072C15.4544 22.1745 15.5417 21.9528 15.6833 21.7667L22.3499 13.4334C22.4593 13.3107 22.5917 13.2107 22.7398 13.1393C22.8878 13.0678 23.0484 13.0263 23.2125 13.017C23.3766 13.0077 23.5409 13.0308 23.6961 13.0851C23.8512 13.1394 23.9941 13.2238 24.1166 13.3334C24.3445 13.5408 24.4902 13.8234 24.5269 14.1295C24.5636 14.4355 24.489 14.7445 24.3166 15L17.6499 23.3334ZM22.9166 23.8C22.587 23.8 22.2647 23.7023 21.9906 23.5191C21.7166 23.336 21.5029 23.0757 21.3768 22.7712C21.2507 22.4666 21.2176 22.1315 21.282 21.8082C21.3463 21.4849 21.505 21.1879 21.7381 20.9549C21.9712 20.7218 22.2681 20.563 22.5914 20.4987C22.9148 20.4344 23.2499 20.4674 23.5544 20.5936C23.8589 20.7197 24.1192 20.9333 24.3024 21.2074C24.4855 21.4815 24.5833 21.8037 24.5833 22.1334C24.5877 22.355 24.5479 22.5753 24.4661 22.7814C24.3843 22.9875 24.2623 23.1752 24.1071 23.3335C23.9518 23.4918 23.7666 23.6175 23.5622 23.7034C23.3578 23.7892 23.1383 23.8334 22.9166 23.8334V23.8Z" fill="#155AB8"/>
</svg>
