<svg width="40" height="40" viewBox="0 0 40 40" fill="none" xmlns="http://www.w3.org/2000/svg">
<path d="M1.25 35H17.303C16.6273 33.8356 16.1454 32.5691 15.8763 31.25H1.25C0.918479 31.25 0.600537 31.3817 0.366117 31.6161C0.131696 31.8505 0 32.1685 0 32.5L0 33.75C0 34.0815 0.131696 34.3995 0.366117 34.6339C0.600537 34.8683 0.918479 35 1.25 35Z" fill="#155AB8"/>
<path d="M1.25 30H15.6875C15.6465 29.5885 15.6256 29.1719 15.625 28.75C15.6247 27.9103 15.7089 27.0728 15.8763 26.25H1.25C0.918479 26.25 0.600537 26.3817 0.366117 26.6161C0.131696 26.8505 0 27.1685 0 27.5L0 28.75C0 29.0815 0.131696 29.3995 0.366117 29.6339C0.600537 29.8683 0.918479 30 1.25 30Z" fill="#155AB8"/>
<path d="M1.25 25H16.1999C16.6262 23.6494 17.2793 22.3813 18.1313 21.25H1.25C0.918479 21.25 0.600537 21.3817 0.366117 21.6161C0.131696 21.8505 0 22.1685 0 22.5L0 23.75C0 24.0815 0.131696 24.3995 0.366117 24.6339C0.600537 24.8683 0.918479 25 1.25 25Z" fill="#155AB8"/>
<path d="M1.25 20H18.75C18.9708 20 19.1877 19.9411 19.3782 19.8295C19.5126 19.6976 19.6498 19.5689 19.79 19.4431C19.9272 19.238 20.0003 18.9968 20 18.75V17.5C20 17.1685 19.8683 16.8505 19.6339 16.6161C19.3995 16.3817 19.0815 16.25 18.75 16.25H1.25C0.918479 16.25 0.600537 16.3817 0.366117 16.6161C0.131696 16.8505 0 17.1685 0 17.5L0 18.75C0 19.0815 0.131696 19.3995 0.366117 19.6339C0.600537 19.8683 0.918479 20 1.25 20Z" fill="#155AB8"/>
<path d="M18.1313 36.25H1.25C0.918479 36.25 0.600537 36.3817 0.366117 36.6161C0.131696 36.8505 0 37.1685 0 37.5L0 38.75C0 39.0815 0.131696 39.3995 0.366117 39.6339C0.600537 39.8683 0.918479 40 1.25 40H18.75C19.0815 40 19.3995 39.8683 19.6339 39.6339C19.8683 39.3995 20 39.0815 20 38.75V38.2411C19.3068 37.647 18.6803 36.9794 18.1313 36.25Z" fill="#155AB8"/>
<path d="M28.125 17.5C21.9219 17.5 16.875 22.5469 16.875 28.75C16.875 34.9531 21.9219 40 28.125 40C34.3281 40 39.375 34.9531 39.375 28.75C39.375 22.5469 34.3281 17.5 28.125 17.5ZM26.875 27.5H29.375C30.3696 27.5 31.3234 27.8951 32.0267 28.5983C32.7299 29.3016 33.125 30.2554 33.125 31.25C33.125 32.2446 32.7299 33.1984 32.0267 33.9017C31.3234 34.6049 30.3696 35 29.375 35V36.875H26.875V35C25.8808 34.9989 24.9276 34.6034 24.2246 33.9004C23.5216 33.1974 23.1261 32.2442 23.125 31.25H25.625C25.6254 31.5814 25.7572 31.8991 25.9915 32.1335C26.2259 32.3678 26.5436 32.4996 26.875 32.5H29.375C29.7065 32.5 30.0245 32.3683 30.2589 32.1339C30.4933 31.8995 30.625 31.5815 30.625 31.25C30.625 30.9185 30.4933 30.6005 30.2589 30.3661C30.0245 30.1317 29.7065 30 29.375 30H26.875C25.8804 30 24.9266 29.6049 24.2233 28.9017C23.5201 28.1984 23.125 27.2446 23.125 26.25C23.125 25.2554 23.5201 24.3016 24.2233 23.5983C24.9266 22.8951 25.8804 22.5 26.875 22.5V20.625H29.375V22.5C30.3692 22.5011 31.3224 22.8966 32.0254 23.5996C32.7284 24.3026 33.1239 25.2558 33.125 26.25H30.625C30.6246 25.9186 30.4928 25.6009 30.2585 25.3665C30.0241 25.1322 29.7064 25.0004 29.375 25H26.875C26.5435 25 26.2255 25.1317 25.9911 25.3661C25.7567 25.6005 25.625 25.9185 25.625 26.25C25.625 26.5815 25.7567 26.8995 25.9911 27.1339C26.2255 27.3683 26.5435 27.5 26.875 27.5Z" fill="#155AB8"/>
<path d="M27.5 4.26762V8.74989H30V4.26762L30.9912 5.25872L32.7589 3.49106L29.6339 0.366061C29.3994 0.131675 29.0815 0 28.75 0C28.4185 0 28.1006 0.131675 27.8662 0.366061L24.7412 3.49106L26.5089 5.25872L27.5 4.26762Z" fill="#155AB8"/>
<path d="M32.7589 11.5087L33.75 10.5176V14.9999H36.25V10.5176L37.2412 11.5087L39.0089 9.74106L35.8839 6.61606C35.6494 6.38167 35.3315 6.25 35 6.25C34.6685 6.25 34.3506 6.38167 34.1162 6.61606L30.9912 9.74106L32.7589 11.5087Z" fill="#155AB8"/>
<path d="M20 10.5176V14.9999H22.5V10.5176L23.4912 11.5087L25.2589 9.74106L22.1339 6.61606C21.8995 6.38167 21.5815 6.25 21.25 6.25C20.9185 6.25 20.6006 6.38167 20.3662 6.61606L17.2412 9.74106L19.0089 11.5087L20 10.5176Z" fill="#155AB8"/>
</svg>
