<svg width="40" height="40" viewBox="0 0 40 40" fill="none" xmlns="http://www.w3.org/2000/svg">
<path d="M31.7745 1.21094H8.22563C3.69 1.21094 0 4.90094 0 9.43656C0 13.9941 3.72836 17.6622 8.17656 17.6622H11.8711V11.2173C11.8711 8.33109 14.2191 5.98297 17.1053 5.98297H17.1167C19.9968 5.98914 22.3398 8.33727 22.3398 11.2173V17.6622H31.7745C36.3101 17.6622 40 13.9722 40 9.43656C40 4.90094 36.3101 1.21094 31.7745 1.21094ZM34.1021 8.28953L29.4146 12.977C28.957 13.4347 28.215 13.4348 27.7573 12.977L25.4136 10.6333C24.9559 10.1756 24.9559 9.43367 25.4136 8.97602C25.8712 8.51836 26.6132 8.51836 27.0709 8.97602L28.586 10.4911L32.4449 6.63227C32.9025 6.17461 33.6445 6.17461 34.1022 6.63227C34.5598 7.08992 34.5598 7.83195 34.1021 8.28953Z" fill="#155AB8"/>
<path d="M27.5402 20.9602L19.9962 20.176V11.2173C19.9962 9.62323 18.7058 8.3301 17.1117 8.32667C15.5129 8.32323 14.2149 9.61839 14.2149 11.2173V26.211H14.1887L11.3353 23.8282C10.1318 22.8232 8.33588 23.0116 7.36713 24.2445C6.43814 25.4268 6.61752 27.1335 7.77197 28.0968L13.5636 32.9297H30.6211V24.4488C30.6211 22.6752 29.3001 21.1794 27.5402 20.9602Z" fill="#155AB8"/>
<path d="M14.2148 37.6172C14.2148 38.2644 14.7395 38.7891 15.3867 38.7891H29.4492C30.0964 38.7891 30.6211 38.2644 30.6211 37.6172V35.2734H14.2148V37.6172Z" fill="#155AB8"/>
</svg>
