<svg width="40" height="40" viewBox="0 0 40 40" fill="none" xmlns="http://www.w3.org/2000/svg">
<g clip-path="url(#clip0_7901_4318)">
<path d="M1.17013 30.5475H31.7965C32.0712 30.5475 32.3367 30.4514 32.5472 30.2762C32.8414 30.0299 39.5516 24.2573 39.9608 11.7966H7.06868C6.66108 23.1076 0.481275 28.4241 0.417053 28.4771C0.040552 28.7953 -0.0979699 29.3149 0.0714127 29.7773C0.239623 30.2385 0.678003 30.5475 1.17013 30.5475Z" fill="#155AB8"/>
<path d="M38.8281 4.765H32.9684V3.59307C32.9684 2.93679 32.4528 2.42114 31.7965 2.42114C31.1402 2.42114 30.6246 2.93679 30.6246 3.59307V4.765H24.6868V3.59307C24.6868 2.93679 24.1712 2.42114 23.5149 2.42114C22.8586 2.42114 22.343 2.93679 22.343 3.59307V4.765H16.4833V3.59307C16.4833 2.93679 15.9677 2.42114 15.3114 2.42114C14.6551 2.42114 14.1395 2.93679 14.1395 3.59307V4.765H8.27984C7.62356 4.765 7.10791 5.28065 7.10791 5.93693V9.45271H40V5.93693C40 5.28065 39.4844 4.765 38.8281 4.765Z" fill="#155AB8"/>
<path d="M34.0522 32.0729C33.4159 32.6028 32.6171 32.8912 31.7965 32.8912H7.10791V36.407C7.10791 37.0548 7.63207 37.5789 8.27984 37.5789H38.8281C39.4759 37.5789 40 37.0548 40 36.407V23.27C37.7405 28.8133 34.5876 31.6249 34.0522 32.0729Z" fill="#155AB8"/>
</g>
<defs>
<clipPath id="clip0_7901_4318">
<rect width="40" height="40" fill="white"/>
</clipPath>
</defs>
</svg>
