<svg width="65" height="64" viewBox="0 0 65 64" fill="none" xmlns="http://www.w3.org/2000/svg">
<path fill-rule="evenodd" clip-rule="evenodd" d="M51.1757 10.055C51.0217 9.91296 50.8157 9.841 50.6077 9.85797C43.2317 10.441 38.1867 8.586 34.8247 4.29199L34.8227 4.28998C34.3057 3.63501 33.5107 3.25 32.6667 3.25C31.8227 3.25 31.0267 3.63501 30.5097 4.289L30.5077 4.29199C27.1467 8.586 22.1017 10.441 14.7257 9.85797C14.5177 9.841 14.3117 9.91296 14.1577 10.055C14.0037 10.197 13.9167 10.396 13.9167 10.605V24.237C13.9167 28.99 15.4507 33.507 18.1527 37.224H19.4107L25.9237 35.725C28.2867 35.181 30.7467 35.708 32.6667 37.122C34.5867 35.708 37.0467 35.181 39.4097 35.725L45.9227 37.224H47.1807C49.8827 33.507 51.4167 28.99 51.4167 24.237V10.605C51.4167 10.396 51.3297 10.197 51.1757 10.055ZM41.2427 17.48L31.8827 28.712C31.2647 29.454 30.1607 29.555 29.4187 28.936L24.1867 24.576C23.8687 24.311 23.8257 23.838 24.0907 23.52C24.3557 23.202 24.8287 23.159 25.1467 23.424L30.3787 27.784C30.4847 27.872 30.6427 27.858 30.7307 27.752L40.0907 16.52C40.3557 16.202 40.8287 16.159 41.1467 16.424C41.4647 16.689 41.5077 17.162 41.2427 17.48Z" fill="#155AB8"/>
<path fill-rule="evenodd" clip-rule="evenodd" d="M29.2527 42.525L32.7867 38.992C33.1057 38.672 33.4527 38.389 33.8207 38.144C35.3497 37.128 37.2467 36.766 39.0737 37.187L45.6137 38.692C45.7057 38.714 45.7997 38.724 45.8937 38.724H47.4167V51.74L38.6767 43.001C38.6767 43.001 33.9717 47.691 33.8477 47.786C33.2417 48.247 32.4977 48.501 31.7277 48.501C30.8007 48.501 29.9107 48.132 29.2547 47.476L29.2527 47.475C28.5967 46.819 28.2277 45.928 28.2277 45C28.2277 44.072 28.5967 43.181 29.2527 42.525Z" fill="#102849"/>
<path fill-rule="evenodd" clip-rule="evenodd" d="M13.6667 35.25C14.3957 35.25 15.0957 35.54 15.6117 36.055C16.1267 36.571 16.4167 37.271 16.4167 38V56C16.4167 56.729 16.1267 57.429 15.6117 57.945C15.0957 58.46 14.3957 58.75 13.6667 58.75H9.66669C8.93769 58.75 8.23769 58.46 7.72169 57.945C7.20669 57.429 6.91669 56.729 6.91669 56V38C6.91669 37.271 7.20669 36.571 7.72169 36.055C8.23769 35.54 8.93769 35.25 9.66669 35.25H13.6667Z" fill="#102849"/>
<path fill-rule="evenodd" clip-rule="evenodd" d="M51.6667 35.25H55.6667C56.3957 35.25 57.0957 35.54 57.6117 36.055C58.1267 36.571 58.4167 37.271 58.4167 38V56C58.4167 56.729 58.1267 57.429 57.6117 57.945C57.0957 58.46 56.3957 58.75 55.6667 58.75H51.6667C50.9377 58.75 50.2377 58.46 49.7217 57.945C49.2067 57.429 48.9167 56.729 48.9167 56V38C48.9167 37.271 49.2067 36.571 49.7217 36.055C50.2377 35.54 50.9377 35.25 51.6667 35.25Z" fill="#102849"/>
<path fill-rule="evenodd" clip-rule="evenodd" d="M26.9407 55.672C26.8017 55.811 26.7237 56 26.7237 56.196C26.7237 56.392 26.8017 56.581 26.9407 56.72L27.5557 57.335C27.9307 57.71 28.1417 58.219 28.1417 58.749C28.1417 59.28 27.9307 59.788 27.5557 60.163L27.5537 60.165C26.7737 60.945 25.5087 60.945 24.7287 60.165L21.0597 56.496C20.5637 55.999 19.9097 55.693 19.2107 55.629C19.0377 55.627 18.8647 55.618 18.6907 55.618H17.9167V38.724H19.4397C19.5337 38.724 19.6277 38.714 19.7197 38.692L26.2597 37.187C28.0867 36.766 29.9837 37.128 31.5127 38.144L28.1927 41.464C27.2547 42.402 26.7277 43.674 26.7277 45C26.7277 46.326 27.2547 47.598 28.1927 48.536H28.1937C29.1317 49.474 30.4027 50.001 31.7277 50.001C32.8277 50.001 33.8907 49.638 34.7557 48.979L39.6997 53.923C40.0747 54.297 40.2847 54.806 40.2847 55.335C40.2847 55.865 40.0747 56.374 39.6997 56.748L39.6987 56.75C38.9167 57.531 37.6507 57.531 36.8697 56.75L32.6347 52.515C32.3477 52.228 31.8827 52.228 31.5957 52.515L31.5747 52.536C31.4367 52.674 31.3587 52.861 31.3587 53.056C31.3587 53.251 31.4367 53.438 31.5747 53.575L33.6287 55.629C34.4087 56.41 34.4087 57.675 33.6287 58.455L33.6267 58.457C32.8457 59.238 31.5797 59.238 30.7987 58.457L28.0007 55.659C27.7117 55.37 27.2427 55.37 26.9537 55.659L26.9407 55.672Z" fill="#102849"/>
<path fill-rule="evenodd" clip-rule="evenodd" d="M35.8487 47.9501L38.6767 45.1221L45.0437 51.4881C45.8237 52.2691 45.8237 53.5341 45.0437 54.3141L45.0417 54.3151C44.2607 55.0961 42.9947 55.0961 42.2137 54.3151L35.8487 47.9501Z" fill="#102849"/>
</svg>
