<svg width="65" height="64" viewBox="0 0 65 64" fill="none" xmlns="http://www.w3.org/2000/svg">
<g clip-path="url(#clip0_6288_9139)">
<path d="M53.3414 32.3744C53.3414 30.3578 51.7065 28.7229 49.6899 28.7229C47.6733 28.7229 46.0384 30.3578 46.0384 32.3744V29.9994C46.0384 27.9828 44.4035 26.3479 42.3869 26.3479C40.3703 26.3479 38.7354 27.9828 38.7354 29.9994V27.9994C38.7354 25.9828 37.1005 24.3479 35.0839 24.3479C33.0673 24.3479 31.4324 25.9828 31.4324 27.9994V13.1869C31.4324 11.1703 29.7975 9.5354 27.7809 9.5354C25.7643 9.5354 24.1294 11.1703 24.1294 13.1869V32.2582C20.8805 32.5177 18.3159 35.2428 18.3159 38.5573V46.4872L26.573 56.7884L26.5259 64H47.5805L47.615 56.7509L53.3414 47.8319V32.3744Z" fill="#102849"/>
<path d="M25.8247 0H29.5693V6.07475H25.8247V0Z" fill="#155AB8"/>
<path d="M37.3281 14.4585H43.4029V18.2031H37.3281V14.4585Z" fill="#155AB8"/>
<path d="M11.9912 14.4585H18.066V18.2031H11.9912V14.4585Z" fill="#155AB8"/>
<path d="M33.6211 7.75757L38.2815 3.0972L40.9289 5.74465L36.2685 10.405L33.6211 7.75757Z" fill="#155AB8"/>
<path d="M14.458 5.74268L17.1055 3.09523L21.7658 7.75559L19.1184 10.403L14.458 5.74268Z" fill="#155AB8"/>
</g>
<defs>
<clipPath id="clip0_6288_9139">
<rect width="64" height="64" fill="white" transform="translate(0.666504)"/>
</clipPath>
</defs>
</svg>
