<svg width="64" height="64" viewBox="0 0 64 64" fill="none" xmlns="http://www.w3.org/2000/svg">
<g clip-path="url(#clip0_6288_9149)">
<path d="M51.3762 19.376C51.3762 8.67499 42.7013 0 32.0002 0C21.2991 0 12.624 8.67499 12.624 19.376C12.624 30.0771 21.299 38.7522 32.0001 38.7522C42.7011 38.7522 51.3762 30.0772 51.3762 19.376ZM33.8752 28.5641V31.002H30.1255V28.569C27.4831 28.1696 25.4511 25.8835 25.4511 23.1315H29.2008C29.2008 24.0964 29.9859 24.8814 30.9508 24.8814H33.0139C34.0148 24.8814 34.8291 24.067 34.8291 23.0661C34.8291 22.0652 34.0146 21.2508 33.0139 21.2508H30.9868C27.9182 21.2508 25.4219 18.7544 25.4219 15.6857C25.4219 12.9101 27.4646 10.6028 30.1256 10.1876V7.74982H33.8753V10.196C36.5145 10.6308 38.5346 12.9275 38.5346 15.688H34.785C34.785 14.6857 33.9696 13.8704 32.9674 13.8704H30.9868C29.9859 13.8704 29.1716 14.6848 29.1716 15.6857C29.1716 16.6867 29.986 17.5011 30.9868 17.5011H33.0139C36.0823 17.5011 38.5787 19.9975 38.5787 23.0661C38.5787 25.8417 36.536 28.1488 33.8752 28.5641Z" fill="#102849"/>
<path d="M47.0534 36.9321C45.2413 38.4895 43.2128 39.7483 41.0028 40.6831C39.3153 41.3969 37.5659 41.9007 35.7731 42.1948V51.1933H32.0078V54.5946L41.4132 64L50.8187 54.5946V51.1933H47.0534V36.9321Z" fill="#155AB8"/>
<path d="M28.2272 42.1948C26.4344 41.9007 24.6851 41.3967 22.9975 40.6831C20.7875 39.7483 18.759 38.4895 16.9469 36.9321V45.1945H13.1816V48.5959L22.5871 58.0013L31.9925 48.5959V45.1945H28.2272V42.1948Z" fill="#155AB8"/>
</g>
<defs>
<clipPath id="clip0_6288_9149">
<rect width="64" height="64" fill="white"/>
</clipPath>
</defs>
</svg>
