<svg width="65" height="64" viewBox="0 0 65 64" fill="none" xmlns="http://www.w3.org/2000/svg">
<path d="M32.333 10C23.5107 10 16.333 17.1777 16.333 26V36C16.333 44.8223 23.5107 52 32.333 52C41.1553 52 48.333 44.8223 48.333 36V26C48.333 17.1777 41.1553 10 32.333 10Z" fill="#102849"/>
<path d="M62.333 27V37C62.333 39.7578 60.0908 42 57.333 42H55.9717C54.0596 53.332 44.2021 62 32.333 62C31.2275 62 30.333 61.1055 30.333 60C30.333 58.8945 31.2275 58 32.333 58C43.3604 58 52.333 49.0273 52.333 38V26C52.333 14.9727 43.3604 6 32.333 6C21.3057 6 12.333 14.9727 12.333 26V40C12.333 41.1055 11.4385 42 10.333 42H7.33301C4.5752 42 2.33301 39.7578 2.33301 37V27C2.33301 24.2422 4.5752 22 7.33301 22H8.69434C10.6064 10.668 20.4639 2 32.333 2C44.2021 2 54.0596 10.668 55.9717 22H57.333C60.0908 22 62.333 24.2422 62.333 27Z" fill="#155AB8"/>
</svg>
