<svg width="64" height="64" viewBox="0 0 64 64" fill="none" xmlns="http://www.w3.org/2000/svg">
<g clip-path="url(#clip0_6298_16457)">
<path d="M53.3333 42.6667C50.392 42.6667 48 40.2747 48 37.3333C48 34.392 50.392 32 53.3333 32C56.2747 32 58.6667 34.392 58.6667 37.3333C58.6667 40.2747 56.2747 42.6667 53.3333 42.6667Z" fill="#102849"/>
<path d="M10.6668 42.6667C7.7255 42.6667 5.3335 40.2747 5.3335 37.3333C5.3335 34.392 7.7255 32 10.6668 32C13.6082 32 16.0002 34.392 16.0002 37.3333C16.0002 40.2747 13.6082 42.6667 10.6668 42.6667Z" fill="#102849"/>
<path d="M32 44C27.5893 44 24 40.4107 24 36C24 31.5893 27.5893 28 32 28C36.4107 28 40 31.5893 40 36C40 40.4107 36.4107 44 32 44Z" fill="#102849"/>
<path d="M44.6668 61.3333H19.3335C18.2295 61.3333 17.3335 60.4373 17.3335 59.3333V55.3333C17.3335 51.288 20.6215 48 24.6668 48H39.3335C43.3788 48 46.6668 51.288 46.6668 55.3333V59.3333C46.6668 60.4373 45.7708 61.3333 44.6668 61.3333Z" fill="#102849"/>
<path d="M56.6668 45.3334H50.0001C49.1468 45.3334 48.3468 45.4667 47.6001 45.7334C50.7388 48.4694 52.0001 51.8747 52.0001 56H62.0001C63.0934 56 64.0001 55.0934 64.0001 54V52.6667C64.0001 48.6134 60.7201 45.3334 56.6668 45.3334Z" fill="#102849"/>
<path d="M14 45.3334H7.33333C3.28 45.3334 0 48.6134 0 52.6667V54C0 55.0934 0.906667 56 2 56H12C12 51.8747 13.2613 48.4694 16.4 45.7334C15.6533 45.4667 14.8533 45.3334 14 45.3334Z" fill="#102849"/>
<path d="M41.2454 24H22.7547C21.792 24 20.968 23.3147 20.7894 22.3707L18.7014 11.2587C18.4054 9.68271 19.9974 8.40805 21.4774 9.06138L25.9574 11.0507L30.272 3.66138C30.992 2.43205 33.008 2.43205 33.728 3.66138L38.0427 11.0507L42.5227 9.06138C43.992 8.41071 45.5947 9.67738 45.3014 11.2587L43.2134 22.3707C43.0347 23.3147 42.208 24 41.2454 24Z" fill="#155AB8"/>
</g>
<defs>
<clipPath id="clip0_6298_16457">
<rect width="64" height="64" fill="white"/>
</clipPath>
</defs>
</svg>
