<svg width="342" height="588" viewBox="0 0 342 588" fill="none" xmlns="http://www.w3.org/2000/svg">
<g clip-path="url(#clip0_6509_10210)">
<path d="M341.841 9.53284C341.366 2.97274 339.214 -0.397999 331.809 1.46873C330.061 1.90666 328.353 2.54808 326.698 3.26027C320.646 5.87458 314.957 9.11261 309.424 12.7222C303.062 16.8715 297.068 21.4764 291.455 26.5192C281.702 35.2734 273.268 45.191 266.337 56.356C257.796 70.1132 251.864 84.9365 247.981 100.605C247.236 103.613 246.77 106.691 246.171 109.761C236.658 106.444 227.008 104.648 216.963 104.108C218.808 100.016 220.65 96.2077 222.251 92.3017C226.036 83.083 229.612 73.8024 231.791 64.0176C233.521 56.2587 234.852 48.4511 235.438 40.5595C235.988 33.1324 236.41 25.6655 235.616 18.2118C235.096 13.3681 234.804 8.48447 232.483 4.02996C230.673 0.561908 227.345 -0.778424 223.525 0.446896C219.017 1.88897 215.37 4.68465 211.9 7.75016C200.195 18.088 192.005 30.8764 185.899 45.0892C180.309 58.1121 176.892 71.7145 175.801 85.8389C175.237 93.1289 174.958 100.445 176.107 107.744C176.324 109.116 177.021 110.819 174.794 111.717C167.064 114.826 160.24 119.396 153.993 124.877C147.116 130.906 141.21 137.705 137.767 146.26C136.618 149.118 135.163 151.533 132.944 153.594C131.24 155.173 130.264 157.222 129.532 159.385C127.637 164.994 129.852 170.974 134.861 173.164C136.17 173.739 136.094 174.265 135.833 175.292C134.124 181.989 132.554 188.717 131.68 195.582C131.223 199.174 130.535 202.417 127.899 205.487C124.381 209.583 123.928 215.223 123.063 220.452C122.854 221.721 122.579 222.354 121.35 222.217C119.487 222 117.681 222.637 115.769 222.309C112.956 221.823 110.138 222.11 107.236 223.637C109.011 224.318 110.515 224.667 112.099 224.8C115.121 225.052 118.138 225.41 121.164 225.64C122.575 225.747 122.943 226.454 122.996 227.75C123.054 229.122 122.655 230.551 123.303 231.878C124.123 233.554 123.4 234.169 121.75 234.496C117.885 235.257 114.091 236.283 110.671 238.345C109.934 238.792 108.634 238.809 109.233 240.242C109.748 241.477 110.662 241.154 111.629 240.893C115.068 239.968 118.533 239.176 122.011 238.416C124.225 237.929 124.687 238.495 125.45 240.592C129.31 251.182 136.383 259.233 146.046 265.028C148.7 266.616 151.384 268.159 154.077 269.734C153.43 270.632 152.485 270.38 151.761 270.561C139.897 273.521 127.953 276.069 115.777 277.374C109.761 278.02 104.938 276.343 101.686 270.831C96.5388 262.108 92.723 252.827 89.4396 243.295C88.2949 239.968 87.5096 236.872 89.3154 233.275C92.3192 227.299 93.9875 220.823 94.9637 214.17C95.9221 207.663 93.4773 202.881 87.7669 201.103C85.5396 200.409 83.1525 200.205 80.8586 199.78C80.8674 199.59 80.8452 199.488 80.8807 199.457C81.036 199.32 81.2002 199.196 81.3732 199.081C84.8341 196.79 87.8556 194.096 89.2444 190.035C92.5189 180.445 87.9843 170.094 78.5824 166.016C67.9603 161.411 56.9167 167.378 53.7753 177.698C52.1425 183.064 52.7326 188.226 54.6893 193.357C54.9112 193.946 55.8696 194.6 54.4941 195.282C53.3005 195.87 52.9367 195.375 52.5196 194.503C52.2091 193.853 51.9251 193.185 51.5657 192.557C47.9984 186.337 43.5969 180.976 36.3913 178.804C31.657 177.375 28.387 178.432 27.0603 183.117C26.0487 186.682 26.5856 190.261 28.1962 193.649C28.8218 194.972 29.7048 196.224 29.7891 197.958C26.9893 196.379 24.2872 195.114 21.4919 194.043C16.0522 191.96 10.5459 190.349 4.62259 191.588C1.2638 192.291 -0.4888 195.237 0.119064 198.577C0.686996 201.696 2.75019 203.779 4.87549 205.659C14.8675 214.528 26.1685 221.526 37.8422 227.919C39.5371 228.847 38.9958 229.272 38.2504 230.303C33.7025 236.589 32.0785 243.153 36.6442 250.169C37.1012 250.872 36.9193 251.323 36.6619 251.965C34.2083 258.025 31.6526 264.05 29.4119 270.185C28.001 274.047 25.5429 277.807 27.2334 282.275C27.8679 283.96 28.3914 285.69 28.9815 287.393C30.1529 290.764 32.2161 291.529 35.4107 289.866C37.8288 288.605 39.9009 286.849 42.1549 285.358C43.2774 284.619 43.9119 283.713 43.659 282.293C43.4549 281.165 43.9918 280.444 44.928 279.74C45.7755 279.103 47.2929 278.373 46.6096 277.015C45.4205 274.658 46.4809 273.211 48.1404 271.818C49.9462 270.3 50.2967 268.407 49.4848 266.275C49.254 265.669 49.223 265.151 49.5868 264.621C50.6916 262.993 52.5108 261.467 52.7504 259.719C53.2029 256.446 56.0603 258.569 57.1962 257.189C57.4935 256.826 58.0703 256.694 58.5495 256.437C58.758 256.928 58.9887 257.393 59.1485 257.875C63.9581 272.127 69.105 286.221 77.1803 299.053C81.0804 305.246 85.6505 310.537 93.1312 312.585C100.377 314.567 107.773 314.916 115.201 315.058C123.418 315.213 131.626 315.058 139.764 313.744C141.893 313.399 141.796 314.456 141.49 315.907C139.755 324.259 138.606 332.703 137.514 341.157C136.778 346.854 136.236 352.605 135.22 358.236C133.827 365.937 132.793 373.696 131.107 381.367C129.395 389.156 127.651 396.942 125.548 404.626C122.344 416.335 118.777 427.942 115.312 439.576C112.086 450.4 108.758 461.194 105.546 472.023C102.564 482.077 99.658 492.159 96.7562 502.24C95.008 508.318 93.3397 514.418 91.596 520.646C91.2411 520.226 90.9305 519.916 90.6909 519.558C86.3338 513.055 81.6439 506.783 76.3417 501.041C71.7583 496.069 66.3852 491.995 60.2355 489.013C53.9972 485.983 47.5769 483.913 40.6552 486.222C31.4795 489.288 27.1224 495.498 27.3177 504.142C27.4996 512.171 30.1573 519.593 34.2615 526.432C40.3535 536.58 47.8342 545.63 56.6771 553.535C64.7923 560.794 73.3911 567.394 83.1347 572.384C85.158 573.419 87.23 574.361 89.8345 575.613C82.8774 575.511 76.6124 576.007 70.3341 576.175C64.1622 576.343 57.9904 576.604 51.8674 577.281C46.3301 577.9 40.6596 577.909 34.9138 579.895C35.6636 580.236 36.0674 580.497 36.5111 580.607C40.5665 581.616 44.7594 581.744 48.8769 582.014C53.5268 582.319 58.1457 583.071 62.88 582.81C65.693 582.66 68.6303 583.518 71.5498 583.478C76.6079 583.412 81.6616 583.819 86.6843 584.151C94.6087 584.672 102.551 584.818 110.475 585.163C122.801 585.694 135.149 585.734 147.488 585.924C155.941 586.053 164.407 585.849 172.846 586.216C182.115 586.623 191.388 586.619 200.657 586.844C212.175 587.128 223.698 587.375 235.229 586.707C239.387 586.464 243.602 586.61 247.782 586.477C256.602 586.207 265.419 585.739 274.23 585.234C281.973 584.787 289.711 584.23 297.44 583.624C302.636 583.217 307.823 582.638 313.01 582.138C313.413 582.102 314.012 582.288 313.635 581.501C313.635 581.319 313.64 581.134 313.64 580.952C313.804 581.01 313.972 581.067 314.137 581.129C315.277 582.372 316.391 580.921 317.526 581.05C317.624 581.05 317.868 580.421 317.899 580.076C317.966 579.391 317.344 579.519 316.967 579.448C315.623 579.187 314.27 578.94 312.916 578.749C305.36 577.697 297.764 577.121 290.15 576.785C286.126 576.608 282.106 576.352 278.086 576.131C281.995 573.861 285.709 571.508 289.241 568.872C291.353 567.297 293.23 565.426 294.858 563.409C297.906 559.631 296.948 555.482 295.523 551.346C293.287 544.865 289.644 539.066 286.623 532.97C285.678 531.064 285.811 530.126 287.355 528.839C290.261 526.414 290.514 525.048 289.099 521.84C285.869 514.52 282.532 507.247 279.431 499.873C275.082 489.54 270.552 479.291 265.955 469.072C263.409 463.414 260.613 457.854 258.577 451.993C256.181 445.105 254.797 437.939 253.288 430.817C252.241 425.863 250.865 420.957 250.377 415.68C254.14 417.427 257.743 418.834 261.661 419.188C274.026 420.303 284.276 416.441 291.801 406.311C292.977 404.727 294.024 402.821 293.465 400.843C292.99 399.167 293.367 397.946 294.144 396.597C294.645 395.721 295.075 394.779 295.368 393.814C297.192 387.847 293.687 382.658 288.229 383.207C285.682 383.463 283.144 383.87 280.842 385.051C279.808 385.582 279.329 385.573 279.408 384.295C279.519 382.588 279.129 380.951 278.694 379.336C278.503 378.628 278.747 378.257 279.235 377.837C283.371 374.258 287.306 370.489 291.095 366.521C300.111 357.055 308.337 347.036 314.185 335.295C316.892 329.863 318.263 324.06 315.929 318.026C314.243 313.664 311.479 309.949 308.306 306.622C302.347 300.376 295.466 295.187 288.433 290.215C281.214 285.119 273.614 280.634 265.845 276.431C261.323 273.985 256.722 271.698 251.899 269.933C246.229 267.859 240.465 266.08 234.009 265.536C238.695 262.701 242.759 259.808 246.255 256.114C250.573 251.553 254.854 247.002 257.561 241.229C257.956 240.38 258.342 239.982 259.633 240.459C264.088 242.092 268.609 241.937 273.077 240.194C279.564 237.664 284.369 233.085 288.402 227.644C296.85 216.249 300.4 203.191 301.11 189.239C301.584 179.901 300.364 170.766 297.595 161.822C295.457 154.908 292.648 148.313 288.651 142.27C284.755 136.378 280.234 130.981 275.069 126.08C278.264 123.289 281.578 120.807 284.662 118.025C288.917 114.189 292.892 110.093 296.739 105.886C303.541 98.4504 309.544 90.3774 315.099 81.9683C321.138 72.816 326.232 63.1815 330.518 53.0958C333.863 45.222 336.579 37.1446 338.873 28.9124C340.643 22.5734 342.325 16.1682 341.841 9.53284ZM125.872 559.649C124.643 564.099 123.711 568.642 121.452 572.747C120.046 575.308 118.688 575.786 115.875 575.348C99.8976 572.857 86.1164 565.554 73.2713 556.172C67.2371 551.77 61.5267 546.962 56.4819 541.468C48.4554 532.722 41.1921 523.429 37.252 512.003C36.4667 509.729 35.9653 507.384 35.5926 504.58C38.9958 506.451 41.9996 508.296 44.6618 510.645C54.0326 518.912 62.5916 527.998 71.2969 536.938C76.8431 542.627 82.2828 548.457 88.5877 553.349C90.3359 554.703 92.2261 555.911 94.4579 556.256C89.7369 550.686 85.0382 545.095 80.2862 539.544C75.4987 533.952 70.8443 528.228 65.7906 522.885C60.6082 517.408 55.7897 511.56 49.8885 506.778C46.1881 503.784 42.4477 500.842 38.2415 498.604C36.6664 497.772 37.0967 497.232 37.9708 496.308C40.988 493.118 44.8304 492.787 48.7527 493.552C54.5518 494.689 59.4901 497.723 63.9848 501.439C72.2819 508.287 78.3339 516.997 84.5279 525.671C90.5489 534.103 96.3436 542.742 103.336 550.456C103.909 551.085 104.512 551.691 105.391 552.615C105.391 548.453 104.135 545.095 102.631 541.264C107.485 544.914 111.877 548.2 116.252 551.509C119.229 553.765 122.184 556.048 125.126 558.348C125.503 558.644 126.133 558.706 125.872 559.649ZM184.684 83.26C185.669 74.9437 187.497 66.7646 190.079 58.758C193.762 47.3541 198.846 36.6624 205.879 26.935C210.76 20.198 216.643 14.4518 223.423 9.60362C224.741 8.66141 225.22 8.9047 225.513 10.4441C226.351 14.8942 226.569 19.3973 226.617 23.9005C226.715 32.9599 226.236 42.0105 224.829 50.9504C223.139 61.7129 220.401 72.2188 216.763 82.5301C214.584 88.7142 211.394 94.624 210.201 101.038C209.455 105.037 206.806 103.812 204.792 104.32C202.147 104.988 201.526 104.334 201.974 101.688C203.017 95.5309 204.157 89.3866 205.262 83.2378C206.354 77.1687 207.507 71.1129 208.515 65.0306C209.362 59.9479 210.041 54.8343 210.791 49.734C208.381 52.4235 207.161 55.6925 205.937 58.904C204.18 63.5133 202.658 68.2155 201.433 73.0062C199.92 78.9249 198.722 84.9055 197.901 90.9569C197.311 95.3229 196.867 99.7067 196.419 104.09C196.331 104.953 196.082 105.254 195.168 105.417C191.729 106.041 188.326 106.824 184.897 107.545C183.747 99.5032 183.721 91.355 184.684 83.26ZM62.8445 175.362C66.434 171.532 71.6208 170.448 76.0045 172.492C81.0582 174.845 84.1552 181.007 83.1791 185.523C82.3671 189.297 80.6855 191.955 77.1359 193.508C76.2796 193.879 75.7738 193.999 74.811 193.565C71.7894 192.198 68.5682 191.433 65.1961 191.615C64.8278 191.615 64.4285 191.707 64.0957 191.597C63.1595 191.283 62.1656 192.437 61.4202 191.681C60.5417 190.787 60.3465 189.469 60.1024 188.253C59.1751 183.573 59.3304 179.109 62.8445 175.362ZM11.1094 203.169C9.67185 202.005 8.39401 200.714 7.27145 199.263C7.06735 198.997 6.65028 198.736 6.90319 198.352C7.10729 198.042 7.50218 198.024 7.89263 198.038C9.66298 198.091 11.3446 198.533 13.0573 198.94C22.0155 201.063 30.0686 205.314 38.1971 209.41C40.0296 210.335 41.8044 211.516 44.0539 211.768C41.2941 205.88 37.4428 200.776 35.1267 194.853C34.1595 192.393 33.454 189.925 33.2543 187.257C33.1123 185.373 33.8533 185.545 35.0779 186.001C38.8316 187.39 41.1388 190.433 43.5348 193.362C45.5004 195.764 46.7693 198.555 47.8031 201.444C48.2069 202.576 48.2557 203.647 47.6789 204.925C45.3451 210.074 45.141 215.519 45.9307 221.044C46.0816 222.097 46.3389 223.42 45.6601 224.123C45.0522 224.756 44.045 223.783 43.3085 223.389C32.0918 217.421 21.0394 211.184 11.1094 203.169ZM32.4069 282.965C30.8406 280.696 31.4041 278.457 32.2959 276.294C35.3042 268.987 37.9486 261.529 41.4272 254.079C42.0085 254.853 42.9047 255.132 42.4566 256.172C38.8316 264.603 36.0851 273.362 32.8816 281.952C32.7574 282.284 32.5799 282.598 32.4069 282.965ZM47.4526 260.272C45.4516 261.927 44.9191 264.227 45.5314 266.638C45.8154 267.766 45.6113 268.31 44.7993 269.009C42.9802 270.575 41.933 272.49 42.6163 275.007C42.745 275.485 42.887 275.874 42.0617 276.1C40.4112 276.546 39.9142 278.161 39.9009 279.524C39.892 280.709 39.3507 280.899 38.5787 281.28C37.0834 282.014 35.6281 282.832 33.8622 283.77C37.2343 274.941 40.6818 266.478 44.5509 258.193C44.8171 257.618 44.8881 256.517 45.9307 256.963C46.6495 257.273 47.7499 256.477 48.1315 257.791C48.4243 258.808 48.3666 259.516 47.4526 260.272ZM51.5169 253.022C47.426 253.69 42.359 250.288 40.5709 245.511C39.9808 243.932 39.5326 242.304 39.7012 240.72C39.7234 233.806 42.9358 229.759 48.5397 228.564C52.0449 227.821 55.3726 228.83 58.1857 231.157C59.0864 231.9 58.8823 232.59 57.844 232.899C56.5484 233.28 55.3016 233.793 53.8241 233.213C51.5479 232.316 49.3073 232.594 47.5325 234.426C46.3212 235.682 46.2325 238.867 47.1908 240.623C48.3711 242.795 50.6117 243.972 53.1807 243.68C55.3149 243.436 56.5795 242.158 57.0099 240.105C57.1873 239.265 57.0542 238.159 57.9372 237.841C59.1485 237.407 60.4929 237.221 61.784 237.177C62.3653 237.159 62.4851 238.035 62.525 238.588C62.9998 245.064 57.8751 251.991 51.5169 253.022ZM62.4141 228.724C59.9649 226.406 57.072 224.906 53.7398 224.371C52.6261 224.189 52.3466 223.429 51.9828 222.641C49.4404 217.103 51.1664 206.624 55.3327 202.258C59.1485 198.263 65.449 197.122 71.2215 199.396C71.8826 199.652 72.5259 199.957 73.3423 200.307C70.9907 201.267 68.6258 201.722 66.5271 202.965C65.4667 203.593 63.9892 202.682 62.667 203.164C59.0908 204.474 57.1075 207.097 56.4819 210.711C55.8074 214.604 57.2539 217.696 60.4663 220.018C62.8622 221.757 65.5998 222.371 68.5948 222.694C67.5299 225.158 65.9503 227.14 63.8694 228.79C63.2438 229.285 62.9376 229.219 62.4141 228.724ZM182.9 568.58C182.851 568.867 182.838 569.164 182.824 569.455C182.678 573.499 182.674 573.193 178.423 573.269C171.648 573.392 164.868 573.33 158.093 573.499C151.375 573.662 144.649 573.861 137.922 573.963C136.103 573.994 134.28 574.113 132.46 574.233C131.396 574.299 131.214 573.897 131.515 572.937C132.434 570.053 133.29 567.146 134.182 564.218C134.799 564.479 135.424 564.793 136.077 565.019C137.723 565.58 138.819 564.926 139.307 563.338C141.512 556.154 143.788 548.988 145.842 541.76C148.252 533.297 150.368 524.751 152.768 516.285C156.141 504.368 159.659 492.495 163.111 480.604C166.337 469.492 170.197 458.588 173.964 447.658C177.07 438.638 180.344 429.681 183.69 420.289C184.79 423.483 185.886 426.283 186.725 429.154C188.792 436.232 191.13 443.217 193.495 450.197C196.677 459.592 199.814 469.006 203.181 478.335C204.925 483.152 207.112 487.81 209.122 492.535C212.694 500.93 216.372 509.287 219.842 517.727C223.117 525.689 226.183 533.74 229.328 541.755C229.723 542.759 230.069 543.786 230.486 544.94C219.7 544.405 209.153 545.241 199.29 549.346C190.784 552.88 184.586 558.967 182.9 568.58ZM152.773 397.835C153.159 397.583 153.412 397.769 153.629 398.088C161.78 402.042 169.846 406.187 178.561 408.828C180.358 409.376 179.244 411.186 179.985 412.367C169.935 409.872 160.564 406.178 153.296 398.411C153.123 398.22 152.946 398.03 152.773 397.835ZM256.997 551.929C254.938 551.014 252.884 550.094 250.541 549.05C254.943 547.462 259.287 546.365 263.426 544.613C268.516 542.463 273.303 539.844 277.802 536.681C279.08 535.784 279.75 535.562 280.522 537.327C282.723 542.37 285.168 547.311 287.461 552.314C287.972 553.433 288.367 554.632 288.633 555.835C288.903 557.061 288.832 558.202 287.683 559.197C282.057 564.05 275.837 567.925 268.999 570.809C263.2 573.255 257.215 575.113 251.052 576.458C244.645 577.851 238.149 578.334 231.644 578.807C228.61 579.032 225.566 579.165 222.522 579.338C221.204 579.408 220.534 579.267 220.796 577.471C221.581 572.118 224.071 567.766 227.838 564.019C228.29 563.568 229.146 563.121 228.796 562.462C228.383 561.683 227.443 562.179 226.839 562.369C222.305 563.78 219.327 566.912 217.335 571.114C216.266 573.361 215.676 575.768 215.276 578.183C215.063 579.448 214.567 579.462 213.568 579.444C210.249 579.391 206.939 578.665 203.594 579.462C202.285 579.776 201.615 579.302 201.757 577.533C202.325 570.539 205.568 565.125 210.959 560.825C211.456 560.427 211.825 559.865 212.295 559.33C204.672 559.299 198.012 566.956 196.304 577.599C194.117 576.989 191.947 574.206 191.663 571.601C190.949 565.098 194.778 561.13 199.601 557.87C204.597 554.491 210.418 553.686 216.248 553.009C225.282 551.969 234.253 552.894 243.243 553.663C247.715 554.044 252.201 554.588 256.7 553.902C257.29 553.814 257.982 553.787 258.098 553.084C258.222 552.345 257.525 552.168 256.997 551.929ZM241.969 310.617C252.392 315.885 262.277 321.843 272.074 327.944C275.73 330.222 275.726 330.319 273.361 333.973C266.949 343.89 259.327 352.853 251.251 361.443C249.095 363.734 247.001 366.088 244.33 368.202C241.375 349.057 240.949 329.943 241.969 310.617ZM250.32 236.699C249.729 238.34 248.993 239.928 248.31 241.561C245.989 239.552 243.26 238.699 240.478 237.933C232.771 235.81 224.962 234.576 216.936 235.063C216.643 235.08 216.337 235.001 216.062 235.067C214.979 235.328 213.542 235.611 213.621 236.867C213.692 237.96 215.143 237.956 216.115 238.062C224.403 238.951 232.705 239.743 240.762 242.056C242.759 242.631 244.596 243.688 246.837 243.963C243.389 249.687 238.695 254.022 233.681 258.114C228.61 262.254 222.739 265.067 217.193 268.42C216.696 268.721 216.195 269.022 215.725 269.363C214.882 269.978 214.349 270.964 214.726 271.835C215.077 272.649 216.204 272.198 216.914 272.083C225.757 270.637 234.311 272.074 242.684 274.795C252.041 277.838 260.675 282.478 269.146 287.393C276.924 291.905 284.311 297.01 291.33 302.623C296.704 306.914 301.957 311.351 305.919 317.084C308.604 320.963 309.291 324.944 307.641 329.549C304.499 338.308 298.647 345.288 293.056 352.428C286.423 360.908 278.814 368.512 271.014 375.921C270.082 376.806 269.749 377.611 270.503 378.748C272.704 382.061 272.713 385.697 271.981 389.413C271.342 392.62 269.651 395.336 267.739 398.07C269.372 398.366 270.552 397.57 271.737 396.787C275.557 394.257 279.262 391.492 283.894 390.532C284.542 390.395 285.19 390.223 285.842 390.169C287.053 390.068 288.415 389.63 289.219 390.992C289.999 392.324 289.01 393.469 288.375 394.372C286.454 397.119 283.322 398.22 280.398 399.437C276.972 400.861 273.237 401.281 269.629 402.091C268.658 402.312 267.846 402.666 266.741 403.511C273.889 405.497 280.367 403.891 287.071 401.472C284.373 406.506 280.478 409.359 275.428 411.066C266.838 413.973 258.794 413.216 251.127 408.346C250.155 407.731 249.863 407.036 249.641 405.913C247.862 396.96 247.174 387.865 245.9 378.845C245.767 377.89 245.923 377.244 246.832 376.479C253.443 370.923 259.194 364.504 264.829 357.988C271.009 350.835 276.799 343.382 281.778 335.335C282.732 333.796 283.508 332.119 284.156 330.43C284.719 328.952 283.89 327.78 282.794 326.82C278.29 322.852 273.126 319.835 268.045 316.717C259.553 311.51 250.901 306.56 241.681 302.725C237.528 301 233.33 299.363 228.756 299.005C227.687 298.925 226.75 298.992 226.395 299.974C226.049 300.929 226.875 301.588 227.642 302.03C229.084 302.867 230.531 303.716 232.048 304.397C233.623 305.109 233.996 306.189 233.934 307.861C233.495 319.517 232.661 331.159 232.869 342.833C232.9 344.381 232.629 345.983 232.949 347.46C233.273 348.986 232.612 348.92 231.516 349.115C222.584 350.707 213.573 351.698 204.53 352.065C197.391 352.357 190.234 352.41 183.073 352.291C172.633 352.123 162.259 351.486 152.001 349.499C149.933 349.101 147.843 348.836 145.785 348.31C144.6 348.009 144.405 347.527 144.494 346.54C145.292 337.667 146.375 328.824 147.817 320.03C149.379 310.519 150.98 301.017 152.538 291.507C152.64 290.865 152.489 290.189 152.52 289.53C152.56 288.769 153.057 287.84 151.823 287.574C150.71 287.331 149.916 287.672 149.294 288.755C147.369 292.131 146.126 295.762 145.132 299.483C144.649 301.305 143.859 303.035 143.726 304.963C143.677 305.667 143.149 306.038 142.266 306.251C138.752 307.082 135.158 307.148 131.604 307.396C121.887 308.082 112.148 308.117 102.449 307.034C99.5027 306.706 96.5565 306.321 93.7479 305.131C88.4147 302.871 85.5928 298.217 82.6821 293.719C77.0383 284.991 73.1116 275.427 69.3579 265.788C67.805 261.812 66.2166 257.853 64.5793 253.907C64.0424 252.624 63.9493 251.567 64.6592 250.222C67.0685 245.657 68.1067 240.84 66.7179 235.695C66.5937 235.231 66.2032 234.682 66.9664 234.173C72.0024 230.825 74.8864 225.72 77.5752 220.58C78.5824 218.656 80.0466 218.2 81.7326 217.634C82.3316 217.43 82.8729 217.059 83.4409 216.767C79.9135 216.692 76.4393 217.028 72.9297 217.045C70.9863 217.054 69.1938 216.608 67.3702 216.24C65.5865 215.878 64.3974 214.604 64.1489 212.799C63.9226 211.162 65.1118 210.109 66.3053 209.278C70.2808 206.495 74.913 206.159 79.5319 206.08C81.3333 206.049 83.1835 206.172 84.9805 206.659C89.8523 207.977 90.7885 209.472 89.4219 214.343C87.6116 220.797 84.9627 226.936 81.8524 232.846C80.721 234.992 80.2995 236.947 80.8497 239.269C82.7354 247.21 85.686 254.774 88.8407 262.281C90.6465 266.571 92.9005 270.632 95.1988 274.666C99.5604 282.328 106.211 285.221 114.983 284.743C125.113 284.186 134.981 282.447 144.822 280.174C152.072 278.502 159.246 276.555 166.483 274.852C168.706 274.33 170.827 275.343 172.988 275.706C179.656 276.825 186.321 277.36 192.896 275.18C194.986 274.49 195.155 274.286 196.224 272.428C192.24 272.428 188.464 272.601 184.71 272.384C180.158 272.119 175.681 271.061 171.359 269.717C164.464 267.571 157.906 264.599 151.717 260.803C143.154 255.552 136.48 248.696 132.518 239.371C131.604 237.221 131.684 237.004 133.982 236.867C135.961 236.743 137.949 236.717 139.923 236.536C140.744 236.46 141.809 236.403 141.698 235.098C141.601 233.965 141.179 233.24 139.826 233.138C137.474 232.952 135.14 233.169 132.802 233.24C131.391 233.28 130.659 233.165 130.38 231.373C129.63 226.596 129.466 226.671 134.102 227.711C136.516 228.25 138.978 228.586 141.423 228.989C142.435 229.153 143.158 228.755 143.349 227.688C143.517 226.746 143.105 226.304 142.151 225.959C138.57 224.68 134.852 223.973 131.152 223.207C130.3 223.031 129.909 223.066 130.016 221.982C130.588 216.134 132.012 210.583 135.021 205.465C136.627 202.726 136.822 199.528 137.581 196.516C139.688 188.116 141.343 179.609 143.779 171.284C144.289 169.537 145.057 168.462 146.947 167.971C152.036 166.648 157.223 166.077 162.432 165.551C171.608 164.631 180.797 164.972 189.937 165.613C204.046 166.599 218.094 168.307 231.547 173.062C236.938 174.969 241.237 178.242 242.75 184.046C243.691 187.642 243.141 191.314 242.267 194.901C240.527 202.005 239.578 209.141 241.255 216.417C241.539 217.665 242.857 219.094 241.996 220.045C241.401 220.704 239.627 220.306 238.38 220.381C228.845 220.951 219.629 222.929 210.782 226.569C210.041 226.875 209.273 227.149 208.568 227.529C207.898 227.896 206.806 228.206 207.206 229.201C207.565 230.082 208.594 230.148 209.5 229.927C212.255 229.25 215.001 228.529 217.761 227.87C226.045 225.879 234.435 224.495 242.914 223.619C243.407 223.566 243.731 223.473 243.93 224.043C245.133 227.463 247.294 230.307 249.681 232.926C250.856 234.222 250.794 235.372 250.32 236.699ZM262.978 231.9C257.077 229.33 253.785 224.495 251.54 218.775C248.713 211.582 249.659 204.354 251.269 197.082C252.347 192.207 252.822 187.346 251.487 182.334C249.769 175.902 245.279 172.142 239.862 169.13C233.024 165.325 225.437 163.729 217.903 162.096C209.331 160.243 200.634 159.345 191.867 158.677C182.971 157.996 174.093 157.828 165.219 158.053C156.664 158.274 148.132 159.194 140.141 162.707C139.48 162.999 138.836 163.322 137.993 163.72C137.669 159.725 139.799 157.363 142.652 155.395C146.455 152.767 150.847 151.997 155.289 151.409C161.815 150.538 168.395 149.967 174.953 150.201C181.076 150.418 187.208 150.626 193.331 151.197C200.879 151.9 208.381 152.86 215.849 154.085C225.069 155.598 234.16 157.673 242.67 161.654C252.032 166.029 257.756 173.354 259.158 183.612C259.952 189.438 258.803 195.229 257.472 200.939C256.07 206.942 255.755 212.914 258.479 218.7C260.4 222.778 263.657 225.508 267.593 227.45C269.527 228.405 271.382 229.63 273.623 229.883C271.138 232.488 266.364 233.368 262.978 231.9ZM286.907 158.204C289.534 164.711 291.171 171.474 291.894 178.472C292.923 188.43 291.619 198.139 288.602 207.588C286.596 213.874 283.459 219.673 279.329 224.888C278.472 225.972 277.665 226.131 276.294 225.751C273.077 224.862 270.082 223.583 267.411 221.619C262.264 217.837 261.044 212.573 261.878 206.584C262.61 201.315 263.897 196.144 264.469 190.84C265.086 185.099 263.959 179.715 262.011 174.372C258.506 164.75 250.967 159.553 242.027 155.762C234.449 152.555 226.515 150.657 218.449 149.317C210.023 147.923 201.588 146.632 193.052 145.857C186.219 145.238 179.43 145.128 172.602 144.946C166.985 144.8 161.456 145.34 155.901 145.672C152.937 145.849 150.009 146.64 146.85 147.189C149.955 141.514 153.98 136.794 158.559 132.591C163.138 128.384 168.169 124.709 173.667 121.736C179.515 118.573 185.598 116.131 192.222 114.937C198.953 113.725 205.67 112.915 212.521 112.831C221 112.725 229.293 113.893 237.404 116.091C248.212 119.024 258.177 123.828 266.936 130.906C276.005 138.236 282.559 147.437 286.907 158.204ZM334.263 10.652C333.894 15.8806 332.222 20.7863 330.868 25.7672C328.557 34.2516 325.531 42.4971 322.065 50.5744C315.623 65.6012 307.41 79.6061 297.116 92.3238C292.44 98.1054 287.426 103.617 282.115 108.868C278.17 112.769 274.337 116.764 270.073 120.325C269.013 121.214 268.13 121.594 267.118 120.378C266.98 120.21 266.816 120.051 266.639 119.922C263.284 117.489 263.302 117.498 265.148 113.703C266.949 109.991 268.582 106.192 270.526 102.555C276.076 92.1734 281.884 81.9462 288.393 72.1038C293.061 65.0438 298.013 58.152 302.223 50.7956C302.924 49.5659 303.661 48.2344 303.199 46.2792C298.629 50.2382 294.916 54.4671 291.362 58.8686C286.046 65.4419 281.245 72.3692 276.795 79.5398C272.908 85.8035 269.607 92.3857 266.417 99.021C263.968 104.113 261.39 109.155 259.93 114.663C259.761 115.295 259.473 115.556 258.843 115.189C258.719 115.114 258.595 115.025 258.461 114.968C253.949 113.15 253.612 112.185 255.129 106.687C257.139 99.397 258.967 92.054 261.665 84.9719C265.073 76.023 269.439 67.5741 274.568 59.4834C277.594 54.7104 280.957 50.1586 284.586 45.8855C288.806 40.9179 293.522 36.3262 298.341 31.9204C303.506 27.2005 309.03 22.8742 314.962 19.0921C320.597 15.5002 326.32 12.0764 332.43 9.32936C333.979 8.63487 334.396 8.78084 334.263 10.652Z" fill="#0C2423"/>
<path d="M305.919 317.084C301.957 311.351 296.704 306.914 291.331 302.623C284.311 297.01 276.924 291.905 269.146 287.393C260.676 282.478 252.041 277.838 242.684 274.795C234.311 272.074 225.757 270.636 216.914 272.083C216.204 272.198 215.077 272.649 214.726 271.835C214.349 270.964 214.882 269.977 215.725 269.362C216.195 269.022 216.696 268.721 217.193 268.42C222.74 265.067 228.61 262.254 233.681 258.113C238.695 254.022 243.389 249.687 246.837 243.963C244.596 243.688 242.759 242.631 240.762 242.056C232.705 239.742 224.403 238.951 216.115 238.062C215.143 237.955 213.693 237.96 213.622 236.867C213.542 235.611 214.979 235.328 216.062 235.067C216.337 235 216.643 235.08 216.936 235.062C224.962 234.576 232.771 235.81 240.478 237.933C243.26 238.699 245.989 239.552 248.31 241.561C248.993 239.928 249.73 238.34 250.32 236.699C250.794 235.372 250.857 234.222 249.681 232.926C247.294 230.307 245.133 227.463 243.93 224.043C243.731 223.473 243.407 223.566 242.914 223.619C234.435 224.495 226.045 225.879 217.761 227.87C215.001 228.529 212.255 229.25 209.5 229.927C208.594 230.148 207.565 230.081 207.206 229.201C206.806 228.206 207.898 227.896 208.568 227.529C209.273 227.149 210.041 226.874 210.782 226.569C219.629 222.929 228.845 220.951 238.38 220.381C239.627 220.305 241.401 220.704 241.996 220.044C242.857 219.093 241.539 217.665 241.255 216.417C239.578 209.14 240.527 202.005 242.267 194.901C243.141 191.314 243.691 187.642 242.75 184.046C241.237 178.242 236.938 174.969 231.547 173.062C218.094 168.307 204.047 166.599 189.937 165.613C180.797 164.971 171.608 164.631 162.432 165.551C157.223 166.077 152.036 166.648 146.947 167.971C145.057 168.462 144.289 169.537 143.779 171.284C141.343 179.609 139.688 188.115 137.581 196.516C136.822 199.528 136.627 202.726 135.021 205.464C132.012 210.583 130.588 216.134 130.016 221.982C129.909 223.066 130.3 223.03 131.152 223.207C134.852 223.973 138.57 224.68 142.151 225.959C143.105 226.304 143.517 226.746 143.349 227.688C143.158 228.754 142.435 229.153 141.423 228.989C138.978 228.586 136.516 228.25 134.102 227.71C129.466 226.671 129.63 226.596 130.38 231.373C130.659 233.165 131.391 233.28 132.802 233.24C135.14 233.169 137.474 232.952 139.826 233.138C141.179 233.24 141.601 233.965 141.698 235.098C141.809 236.403 140.744 236.46 139.924 236.535C137.949 236.717 135.961 236.743 133.982 236.867C131.684 237.004 131.604 237.221 132.518 239.371C136.48 248.696 143.154 255.552 151.717 260.803C157.907 264.598 164.464 267.571 171.359 269.716C175.681 271.061 180.158 272.118 184.71 272.384C188.464 272.601 192.24 272.428 196.224 272.428C195.155 274.286 194.986 274.489 192.896 275.179C186.321 277.36 179.657 276.825 172.988 275.706C170.827 275.343 168.706 274.33 166.483 274.852C159.247 276.555 152.072 278.502 144.822 280.174C134.981 282.447 125.113 284.186 114.983 284.743C106.211 285.221 99.5604 282.328 95.1989 274.666C92.9005 270.632 90.6466 266.571 88.8407 262.28C85.686 254.774 82.7354 247.209 80.8497 239.269C80.2996 236.947 80.7211 234.992 81.8525 232.846C84.9628 226.936 87.6117 220.796 89.422 214.343C90.7885 209.472 89.8523 207.977 84.9806 206.659C83.1836 206.172 81.3334 206.048 79.532 206.079C74.9131 206.159 70.2809 206.495 66.3054 209.278C65.1118 210.109 63.9227 211.162 64.149 212.799C64.3975 214.604 65.5866 215.877 67.3702 216.24C69.1938 216.607 70.9864 217.054 72.9297 217.045C76.4394 217.028 79.9135 216.691 83.4409 216.767C82.873 217.059 82.3317 217.43 81.7327 217.634C80.0466 218.2 78.5824 218.655 77.5753 220.58C74.8865 225.72 72.0024 230.825 66.9665 234.173C66.2033 234.682 66.5938 235.23 66.718 235.695C68.1068 240.84 67.0685 245.657 64.6592 250.222C63.9493 251.567 64.0425 252.624 64.5794 253.907C66.2166 257.852 67.8051 261.812 69.358 265.788C73.1117 275.427 77.0384 284.991 82.6822 293.718C85.5929 298.217 88.4148 302.871 93.748 305.131C96.5566 306.321 99.5027 306.706 102.449 307.033C112.148 308.117 121.887 308.082 131.604 307.396C135.158 307.148 138.752 307.082 142.266 306.25C143.149 306.038 143.677 305.666 143.726 304.963C143.859 303.034 144.649 301.305 145.133 299.482C146.126 295.762 147.369 292.13 149.294 288.755C149.916 287.672 150.71 287.331 151.823 287.574C153.057 287.84 152.56 288.769 152.52 289.529C152.489 290.189 152.64 290.865 152.538 291.507C150.98 301.017 149.379 310.519 147.817 320.03C146.375 328.824 145.292 337.666 144.494 346.54C144.405 347.526 144.6 348.009 145.785 348.309C147.844 348.836 149.933 349.101 152.001 349.499C162.259 351.485 172.633 352.122 183.073 352.291C190.234 352.41 197.391 352.357 204.53 352.065C213.573 351.698 222.584 350.707 231.516 349.114C232.612 348.92 233.273 348.986 232.949 347.46C232.63 345.983 232.9 344.381 232.869 342.833C232.661 331.159 233.495 319.517 233.934 307.861C233.996 306.188 233.623 305.109 232.048 304.397C230.531 303.716 229.084 302.866 227.642 302.03C226.875 301.588 226.049 300.929 226.396 299.973C226.751 298.991 227.687 298.925 228.756 299.005C233.331 299.363 237.528 301 241.681 302.725C250.901 306.56 259.553 311.51 268.045 316.716C273.126 319.835 278.29 322.852 282.794 326.82C283.89 327.78 284.719 328.952 284.156 330.429C283.508 332.119 282.732 333.796 281.778 335.335C276.8 343.382 271.009 350.835 264.829 357.988C259.194 364.504 253.443 370.923 246.832 376.478C245.923 377.244 245.767 377.89 245.9 378.845C247.174 387.865 247.862 396.959 249.641 405.913C249.863 407.036 250.156 407.731 251.127 408.346C258.794 413.216 266.839 413.972 275.428 411.066C280.478 409.359 284.373 406.505 287.071 401.471C280.367 403.891 273.889 405.497 266.741 403.511C267.846 402.666 268.658 402.312 269.629 402.091C273.237 401.281 276.973 400.861 280.398 399.437C283.322 398.22 286.454 397.119 288.376 394.372C289.01 393.469 290 392.324 289.219 390.992C288.416 389.63 287.053 390.068 285.842 390.169C285.19 390.222 284.542 390.395 283.894 390.532C279.262 391.492 275.557 394.257 271.737 396.787C270.552 397.57 269.372 398.366 267.739 398.07C269.652 395.336 271.342 392.62 271.981 389.413C272.713 385.697 272.704 382.061 270.503 378.748C269.749 377.611 270.082 376.806 271.014 375.921C278.814 368.512 286.423 360.908 293.057 352.428C298.647 345.288 304.5 338.308 307.641 329.549C309.291 324.944 308.604 320.963 305.919 317.084ZM195.829 175.76C202.569 175 208.856 175.977 213.852 181.148C214.788 182.117 215.379 183.267 215.569 184.568C215.707 185.501 215.636 186.368 214.469 186.894C213.24 187.447 212.308 187.032 211.771 186.173C209.437 182.453 205.529 181.86 201.77 181.064C200.297 180.755 198.771 180.321 197.364 180.6C196.912 180.6 196.619 180.591 196.322 180.6C195.031 180.648 193.624 180.697 193.473 178.985C193.327 177.344 194.192 175.946 195.829 175.76ZM205.799 206.628C205.657 209.928 204.947 213.33 203.212 216.413C202.254 218.111 200.652 218.872 198.607 218.709C196.624 218.549 195.536 217.297 194.969 215.674C192.91 209.769 193.988 204.173 197.067 198.913C197.879 197.529 199.224 196.56 201.06 196.755C202.964 196.958 203.949 198.148 204.646 199.811C205.537 201.939 205.475 204.204 205.799 206.628ZM144.849 179.317C144.498 178.499 144.511 177.605 145.128 176.822C146.401 175.207 148.234 174.65 150.115 174.398C152.769 174.044 155.422 174.044 158.071 174.712C159.859 175.163 160.835 176.145 160.644 177.959C160.436 179.941 158.79 179.069 157.498 179.326C154.038 178.614 150.435 178.415 146.903 179.95C146.282 180.219 145.226 180.206 144.849 179.317ZM149.223 196.418C150.439 194.675 151.974 193.795 154.042 194.233C155.87 194.622 156.327 196.14 156.757 197.781C157.099 199.086 157.081 200.36 157.268 202.275C157.21 205.38 156.78 208.986 154.805 212.272C153.7 214.112 152.28 215.395 150.018 215.037C147.764 214.679 146.867 212.631 146.654 210.91C146.038 205.885 146.126 200.873 149.223 196.418ZM213.16 245.422C212.641 246.435 211.825 246.816 210.795 246.444C209.02 245.798 207.281 245.042 205.524 244.334C204.943 245.98 204.047 247.453 202.884 248.744C197.733 254.482 191.144 257.662 183.65 258.795C174.625 260.157 165.951 258.29 157.627 254.818C155.165 253.792 152.795 252.46 150.954 250.381C150.08 249.39 150.257 248.342 150.475 247.285C150.634 246.511 151.402 246.409 152.076 246.387C152.782 246.356 153.9 245.891 153.292 247.462C153.106 247.935 153.7 248.214 154.069 248.408C157.671 250.31 161.465 251.721 166.022 252.987C161.758 248.762 160.409 244.06 160.578 238.853C160.631 237.323 160.054 236.717 158.545 236.208C155.151 235.067 152.014 233.364 149.938 230.245C148.185 227.613 147.409 224.645 148.558 221.721C149.738 218.726 152.853 218.412 155.604 218.213C161.576 217.788 167.464 218.341 173.165 220.332C176.089 221.349 177.221 223.65 175.952 226.494C173.8 231.32 169.651 234.058 165.112 236.208C163.999 236.73 163.754 237.195 163.737 238.252C163.604 246.174 170.144 256.676 182.833 254.331C188.433 253.296 193.686 251.483 198.026 247.647C199.53 246.32 200.856 244.79 202.458 243.157C201.123 242.755 199.863 242.989 198.718 242.534C197.746 242.144 197.169 241.689 197.435 240.636C197.64 239.831 197.866 239.65 199.059 239.468C204.246 238.668 208.24 240.955 212.255 243.48C212.889 243.883 213.697 244.365 213.16 245.422Z" fill="white"/>
<path d="M291.894 178.472C291.171 171.474 289.534 164.71 286.907 158.203C282.559 147.437 276.005 138.236 266.936 130.906C258.178 123.828 248.212 119.024 237.404 116.091C229.293 113.893 221 112.725 212.521 112.831C205.67 112.915 198.953 113.725 192.222 114.937C185.598 116.131 179.515 118.573 173.667 121.736C168.169 124.708 163.138 128.384 158.559 132.591C153.98 136.793 149.955 141.513 146.85 147.189C150.009 146.64 152.937 145.848 155.901 145.672C161.456 145.34 166.985 144.8 172.602 144.946C179.43 145.127 186.219 145.238 193.052 145.857C201.588 146.631 210.023 147.923 218.449 149.317C226.515 150.657 234.449 152.555 242.027 155.762C250.967 159.553 258.506 164.75 262.011 174.371C263.959 179.715 265.086 185.099 264.469 190.84C263.897 196.144 262.61 201.315 261.878 206.584C261.044 212.573 262.264 217.837 267.411 221.619C270.082 223.583 273.077 224.862 276.294 225.751C277.665 226.131 278.472 225.972 279.329 224.888C283.459 219.673 286.596 213.874 288.602 207.588C291.619 198.139 292.923 188.429 291.894 178.472ZM271.573 215.51C269.203 215.506 268.258 214.347 268.276 211.445C268.294 208.654 270.069 205.876 271.857 205.832C275.167 205.752 277.132 207.362 277.15 210.176C277.168 213.343 274.905 215.51 271.573 215.51Z" fill="#81FBBF"/>
<path d="M303.201 46.2791C298.631 50.2337 294.917 54.467 291.363 58.8684C286.048 65.4418 281.247 72.3691 276.797 79.5396C272.91 85.8034 269.609 92.3856 266.418 99.0209C263.969 104.112 261.391 109.16 259.932 114.663C259.763 115.3 259.47 115.556 258.845 115.193C258.716 115.118 258.596 115.025 258.463 114.972C253.955 113.154 253.613 112.19 255.131 106.687C257.141 99.3969 258.969 92.0582 261.666 84.9717C265.074 76.0229 269.44 67.574 274.569 59.4833C277.595 54.7103 280.958 50.1585 284.588 45.8854C288.807 40.9177 293.524 36.3261 298.342 31.9203C303.507 27.2003 309.031 22.8741 314.963 19.092C320.598 15.4957 326.322 12.0763 332.432 9.32924C333.98 8.63475 334.397 8.78072 334.264 10.6519C333.896 15.8761 332.223 20.7862 330.865 25.7671C328.558 34.2515 325.532 42.4925 322.067 50.5743C315.624 65.6011 307.412 79.606 297.118 92.3237C292.437 98.1052 287.423 103.617 282.112 108.872C278.168 112.769 274.334 116.768 270.074 120.329C269.014 121.214 268.131 121.599 267.119 120.378C266.977 120.21 266.818 120.05 266.64 119.922C263.29 117.494 263.304 117.502 265.149 113.703C266.951 109.991 268.584 106.191 270.527 102.56C276.078 92.1777 281.886 81.946 288.395 72.1037C293.062 65.0437 298.014 58.1563 302.22 50.7955C302.921 49.5657 303.662 48.2343 303.196 46.2791H303.201Z" fill="white"/>
<path d="M94.4595 556.256C89.7386 550.682 85.0354 545.091 80.2879 539.543C75.5004 533.952 70.8504 528.224 65.7923 522.88C60.6099 517.404 55.7914 511.556 49.8902 506.778C46.1898 503.784 42.4538 500.837 38.2432 498.604C36.668 497.768 37.1029 497.228 37.9725 496.308C40.9896 493.114 44.832 492.782 48.7543 493.552C54.5579 494.689 59.4918 497.723 63.9909 501.435C72.2836 508.287 78.34 516.992 84.534 525.667C90.555 534.098 96.3497 542.742 103.342 550.452C103.915 551.084 104.514 551.686 105.392 552.611C105.392 548.448 104.137 545.091 102.632 541.26C107.486 544.909 111.879 548.196 116.249 551.509C119.227 553.765 122.182 556.048 125.123 558.348C125.501 558.644 126.131 558.702 125.873 559.648C124.644 564.103 123.708 568.646 121.45 572.751C120.043 575.308 118.685 575.79 115.872 575.352C99.8992 572.862 86.118 565.558 73.2686 556.176C67.2387 551.77 61.5239 546.966 56.4791 541.472C48.4526 532.727 41.1893 523.433 37.2493 512.007C36.4639 509.733 35.9625 507.389 35.5898 504.584C38.9886 506.455 41.9924 508.3 44.659 510.653C54.0299 518.921 62.5888 528.002 71.2941 536.942C76.8359 542.635 82.28 548.461 88.585 553.354C90.3287 554.707 92.2233 555.915 94.4551 556.264L94.4595 556.256Z" fill="white"/>
<path d="M210.792 49.7294C208.378 52.4189 207.158 55.6879 205.933 58.8994C204.176 63.5087 202.654 68.211 201.434 73.0017C199.921 78.9203 198.723 84.901 197.902 90.9524C197.312 95.3184 196.868 99.7021 196.42 104.086C196.332 104.953 196.083 105.249 195.169 105.417C191.735 106.041 188.327 106.82 184.898 107.545C183.753 99.5031 183.722 91.3549 184.685 83.2598C185.674 74.9392 187.498 66.7645 190.084 58.7579C193.767 47.354 198.847 36.6579 205.884 26.9349C210.761 20.1934 216.644 14.4473 223.424 9.6035C224.741 8.66128 225.221 8.90458 225.514 10.444C226.357 14.8941 226.57 19.3972 226.618 23.9004C226.72 32.9598 226.237 42.0103 224.835 50.9503C223.144 61.7128 220.402 72.2187 216.768 82.53C214.585 88.7141 211.4 94.6239 210.202 101.038C209.456 105.037 206.807 103.812 204.797 104.32C202.153 104.988 201.532 104.334 201.98 101.688C203.023 95.5307 204.163 89.3864 205.268 83.2377C206.359 77.1686 207.513 71.1128 208.52 65.0304C209.363 59.9434 210.042 54.8342 210.796 49.7338L210.792 49.7294Z" fill="white"/>
<path d="M250.537 549.045C254.943 547.461 259.283 546.36 263.422 544.613C268.512 542.458 273.299 539.84 277.803 536.681C279.08 535.783 279.75 535.562 280.518 537.327C282.719 542.37 285.163 547.307 287.457 552.314C287.972 553.433 288.363 554.632 288.629 555.835C288.899 557.065 288.828 558.202 287.679 559.197C282.058 564.05 275.833 567.925 268.995 570.809C263.196 573.255 257.211 575.113 251.048 576.458C244.641 577.851 238.145 578.333 231.64 578.811C228.601 579.032 225.557 579.169 222.518 579.337C221.2 579.408 220.53 579.271 220.792 577.475C221.573 572.123 224.066 567.766 227.829 564.019C228.282 563.568 229.138 563.121 228.787 562.462C228.375 561.683 227.434 562.179 226.831 562.369C222.296 563.784 219.319 566.912 217.327 571.114C216.257 573.366 215.667 575.768 215.268 578.183C215.059 579.448 214.558 579.461 213.56 579.444C210.241 579.391 206.931 578.665 203.585 579.461C202.276 579.771 201.607 579.302 201.749 577.533C202.316 570.535 205.555 565.125 210.951 560.825C211.448 560.427 211.816 559.865 212.291 559.33C204.664 559.299 198.008 566.956 196.295 577.599C194.108 576.989 191.938 574.206 191.654 571.601C190.94 565.098 194.769 561.13 199.592 557.866C204.588 554.486 210.409 553.681 216.244 553.009C225.273 551.965 234.249 552.894 243.239 553.663C247.711 554.044 252.197 554.588 256.696 553.907C257.282 553.818 257.978 553.792 258.094 553.088C258.218 552.349 257.517 552.173 256.989 551.934C254.934 551.014 252.876 550.098 250.533 549.049L250.537 549.045Z" fill="white"/>
<path d="M137.994 163.715C137.666 159.721 139.8 157.363 142.649 155.394C146.456 152.767 150.844 151.997 155.29 151.404C161.816 150.533 168.396 149.967 174.954 150.197C181.073 150.414 187.205 150.621 193.328 151.192C200.879 151.895 208.378 152.851 215.845 154.081C225.065 155.594 234.157 157.668 242.667 161.649C252.024 166.029 257.753 173.35 259.15 183.608C259.944 189.434 258.795 195.224 257.464 200.939C256.066 206.942 255.747 212.914 258.471 218.7C260.392 222.778 263.645 225.508 267.585 227.449C269.519 228.401 271.374 229.63 273.615 229.882C271.134 232.483 266.356 233.368 262.975 231.895C257.069 229.329 253.781 224.49 251.532 218.77C248.706 211.582 249.655 204.35 251.261 197.077C252.339 192.203 252.814 187.341 251.479 182.329C249.762 175.902 245.276 172.138 239.858 169.125C233.021 165.321 225.434 163.724 217.9 162.096C209.323 160.238 200.631 159.34 191.864 158.672C182.967 157.996 174.089 157.823 165.215 158.053C156.661 158.274 148.128 159.19 140.137 162.707C139.476 162.999 138.833 163.321 137.994 163.715Z" fill="#81FBBF"/>
<path d="M44.0551 211.768C41.2953 205.876 37.444 200.776 35.1235 194.852C34.1606 192.389 33.4552 189.925 33.2511 187.257C33.1091 185.373 33.85 185.545 35.0746 185.996C38.8239 187.385 41.1355 190.429 43.5315 193.357C45.4971 195.759 46.7616 198.551 47.7954 201.439C48.1992 202.572 48.248 203.642 47.6712 204.916C45.3374 210.065 45.1333 215.51 45.923 221.035C46.0739 222.093 46.3312 223.411 45.6524 224.114C45.0401 224.747 44.0373 223.774 43.3008 223.38C32.0841 217.408 21.0316 211.175 11.1017 203.16C9.66414 201.996 8.38629 200.705 7.26374 199.254C7.05964 198.988 6.647 198.727 6.89991 198.343C7.10401 198.033 7.49446 198.015 7.88935 198.029C9.65527 198.082 11.3413 198.524 13.054 198.931C22.0122 201.054 30.0653 205.305 38.1938 209.401C40.0263 210.326 41.8055 211.507 44.0551 211.764V211.768Z" fill="white"/>
<path d="M65.1958 191.614C64.8276 191.614 64.4283 191.707 64.0955 191.597C63.1637 191.283 62.1654 192.433 61.42 191.681C60.5415 190.792 60.3462 189.469 60.1022 188.253C59.1749 183.572 59.3302 179.109 62.8443 175.362C66.4338 171.532 71.6206 170.448 76.0043 172.487C81.058 174.84 84.1506 181.002 83.1789 185.523C82.3669 189.292 80.6853 191.955 77.1357 193.503C76.2794 193.879 75.7736 193.999 74.8152 193.565C71.7892 192.198 68.5724 191.433 65.2003 191.614H65.1958Z" fill="white"/>
<path d="M39.7014 240.72C39.7236 233.802 42.9359 229.759 48.5398 228.564C52.045 227.817 55.3727 228.825 58.1858 231.156C59.0865 231.9 58.8824 232.59 57.8441 232.895C56.5485 233.275 55.2973 233.788 53.8242 233.209C51.5481 232.315 49.3074 232.594 47.5371 234.425C46.3213 235.682 46.237 238.867 47.191 240.623C48.3712 242.795 50.6163 243.971 53.1809 243.679C55.3151 243.436 56.5796 242.158 57.01 240.105C57.1875 239.265 57.0544 238.154 57.9373 237.84C59.1486 237.407 60.493 237.221 61.7886 237.177C62.3698 237.159 62.4896 238.035 62.5296 238.584C63.0043 245.06 57.8796 251.987 51.5215 253.022C47.4306 253.686 42.3636 250.284 40.5755 245.511C39.9853 243.932 39.5372 242.304 39.7058 240.72H39.7014Z" fill="#81FBBF"/>
<path d="M73.3433 200.307C70.9917 201.262 68.6268 201.722 66.5281 202.965C65.4677 203.593 63.9902 202.678 62.6724 203.164C59.0962 204.474 57.1084 207.097 56.4828 210.711C55.8128 214.604 57.2549 217.696 60.4672 220.018C62.8676 221.752 65.6052 222.367 68.5957 222.694C67.5309 225.158 65.9513 227.14 63.8704 228.79C63.2448 229.285 62.9386 229.219 62.415 228.723C59.9658 226.41 57.0729 224.906 53.7452 224.371C52.6271 224.189 52.3476 223.428 51.9882 222.641C49.4458 217.103 51.1718 206.628 55.3381 202.262C59.1539 198.267 65.4499 197.126 71.2224 199.395C71.8835 199.656 72.5269 199.957 73.3433 200.311V200.307Z" fill="white"/>
<path d="M33.8633 283.766C37.2309 274.936 40.6785 266.474 44.5475 258.189C44.8137 257.614 44.8847 256.512 45.9274 256.959C46.6462 257.269 47.751 256.472 48.1281 257.786C48.421 258.804 48.3633 259.511 47.4493 260.268C45.4482 261.922 44.9158 264.227 45.5281 266.633C45.8165 267.761 45.6079 268.305 44.796 269.004C42.9768 270.57 41.9297 272.486 42.613 275.003C42.7417 275.48 42.8836 275.87 42.0584 276.095C40.4078 276.542 39.9109 278.157 39.902 279.515C39.8931 280.704 39.3518 280.895 38.5798 281.271C37.0845 282.005 35.6292 282.823 33.8633 283.761V283.766Z" fill="white"/>
<path d="M153.629 398.083C161.78 402.038 169.846 406.187 178.565 408.828C180.362 409.372 179.244 411.186 179.989 412.367C169.939 409.872 160.569 406.174 153.301 398.41C153.412 398.3 153.523 398.194 153.634 398.083H153.629Z" fill="#0C2423"/>
<path d="M41.4276 254.079C42.0089 254.849 42.9052 255.132 42.457 256.171C38.8276 264.603 36.0855 273.361 32.8776 281.952C32.7534 282.284 32.5759 282.598 32.4029 282.965C30.8366 280.696 31.4001 278.457 32.2919 276.294C35.3002 268.986 37.9446 261.528 41.4276 254.084V254.079Z" fill="white"/>
<path d="M153.293 398.411C153.12 398.22 152.947 398.026 152.773 397.835C153.155 397.579 153.412 397.769 153.626 398.083C153.515 398.194 153.404 398.3 153.293 398.411Z" fill="#0C2423"/>
<path d="M314.138 581.129C313.974 581.253 313.805 581.377 313.637 581.501C313.637 581.319 313.641 581.133 313.641 580.952C313.805 581.01 313.974 581.067 314.138 581.129Z" fill="white"/>
<path d="M166.022 252.987C161.758 248.762 160.41 244.06 160.578 238.853C160.627 237.323 160.055 236.717 158.546 236.208C155.152 235.067 152.015 233.364 149.938 230.245C148.186 227.613 147.409 224.645 148.558 221.725C149.739 218.731 152.853 218.412 155.604 218.218C161.572 217.793 167.464 218.341 173.166 220.332C176.09 221.354 177.217 223.65 175.948 226.494C173.796 231.32 169.647 234.058 165.108 236.208C163.999 236.735 163.751 237.195 163.733 238.252C163.6 246.174 170.144 256.676 182.834 254.331C188.429 253.296 193.687 251.483 198.022 247.647C199.526 246.316 200.853 244.79 202.454 243.158C201.119 242.755 199.859 242.994 198.714 242.534C197.742 242.145 197.165 241.693 197.432 240.636C197.636 239.831 197.862 239.65 199.056 239.468C204.242 238.672 208.236 240.955 212.251 243.48C212.886 243.879 213.693 244.365 213.156 245.422C212.637 246.435 211.825 246.82 210.796 246.444C209.017 245.798 207.277 245.042 205.525 244.334C204.943 245.984 204.047 247.453 202.885 248.744C197.729 254.482 191.14 257.662 183.65 258.795C174.621 260.157 165.951 258.295 157.628 254.818C155.165 253.792 152.796 252.46 150.954 250.381C150.076 249.39 150.253 248.342 150.475 247.285C150.635 246.511 151.403 246.409 152.077 246.382C152.782 246.356 153.901 245.887 153.293 247.462C153.111 247.935 153.705 248.214 154.069 248.408C157.672 250.31 161.466 251.721 166.027 252.987H166.022Z" fill="#0C2423"/>
<path d="M205.795 206.623C205.653 209.928 204.943 213.325 203.208 216.408C202.254 218.107 200.653 218.868 198.607 218.704C196.619 218.545 195.537 217.297 194.969 215.67C192.906 209.769 193.984 204.168 197.067 198.909C197.879 197.52 199.224 196.551 201.061 196.75C202.969 196.954 203.954 198.144 204.65 199.807C205.542 201.935 205.476 204.199 205.799 206.623H205.795Z" fill="#0C2423"/>
<path d="M157.269 202.275C157.212 205.38 156.781 208.986 154.807 212.272C153.702 214.113 152.282 215.395 150.019 215.037C147.765 214.679 146.869 212.635 146.656 210.91C146.035 205.885 146.128 200.873 149.225 196.418C150.441 194.671 151.976 193.795 154.044 194.233C155.872 194.622 156.329 196.14 156.759 197.776C157.101 199.081 157.083 200.36 157.269 202.271V202.275Z" fill="#0C2423"/>
<path d="M197.364 180.6C196.912 180.6 196.619 180.591 196.322 180.6C195.03 180.648 193.624 180.693 193.473 178.981C193.327 177.34 194.192 175.942 195.829 175.756C202.569 174.995 208.856 175.968 213.852 181.144C214.788 182.113 215.378 183.263 215.569 184.563C215.707 185.497 215.636 186.364 214.469 186.89C213.244 187.443 212.312 187.027 211.771 186.169C209.437 182.449 205.528 181.856 201.77 181.06C200.297 180.75 198.771 180.317 197.364 180.595V180.6Z" fill="#0C2423"/>
<path d="M157.499 179.326C154.038 178.614 150.435 178.41 146.904 179.945C146.282 180.215 145.226 180.202 144.845 179.313C144.494 178.494 144.512 177.601 145.129 176.818C146.402 175.203 148.23 174.65 150.116 174.398C152.769 174.044 155.423 174.044 158.072 174.712C159.86 175.163 160.836 176.145 160.645 177.959C160.436 179.941 158.79 179.069 157.499 179.33V179.326Z" fill="#0C2423"/>
<path d="M268.277 211.441C268.295 208.654 270.065 205.876 271.858 205.832C275.168 205.752 277.129 207.362 277.151 210.171C277.173 213.343 274.911 215.506 271.578 215.506C269.205 215.506 268.264 214.343 268.282 211.441H268.277Z" fill="#0C2423"/>
</g>
<defs>
<clipPath id="clip0_6509_10210">
<rect width="341.926" height="587.132" fill="white"/>
</clipPath>
</defs>
</svg>
