<svg width="300" height="526" viewBox="0 0 300 526" fill="none" xmlns="http://www.w3.org/2000/svg">
<g clip-path="url(#clip0_6531_11411)">
<path d="M290.743 214.916C290.241 214.978 289.732 214.97 289.23 214.998C288.083 203.959 279.366 199.545 272.75 205.737C272.338 205.165 271.945 204.585 271.525 204.025C267.838 199.094 260.611 198.872 256.955 203.835C255.034 206.441 253.244 209.35 252.257 212.403C249.448 221.081 247.076 229.906 244.544 238.673C244.151 240.042 243.809 241.423 243.369 243.064C242.436 240.684 241.681 238.63 240.825 236.623C238.904 232.115 235.715 228.735 231.304 226.635C225.687 223.967 219.468 226.814 218.889 232.496C218.667 234.671 219.418 237.02 220.067 239.186C220.697 241.267 222.043 243.146 222.58 245.238C223.435 248.587 223.891 252.037 224.501 255.448C225.423 260.598 226.815 265.577 229.826 269.878C225.827 273.534 221.981 277.054 217.975 280.718C215.824 278.241 213.579 275.837 211.541 273.274C203.712 263.426 195.991 253.488 188.138 243.659C184.307 238.864 179.628 234.966 173.926 232.644C169.877 230.999 165.583 229.953 161.74 228.743C166.583 228.105 171.554 226.308 176.345 223.986C191.145 216.81 201.526 206.239 203.171 188.654C209.581 189.428 215.995 190.198 222.405 190.972C222.432 190.786 222.455 190.595 222.479 190.408C216.36 187.565 209.849 186.262 203.097 185.671C202.631 183.112 202.164 180.556 201.619 177.577C208.768 176.589 215.863 175.609 222.953 174.625C215.583 173.057 208.247 173.816 201.137 175.379C198.897 171.572 197.808 167.826 197.753 163.419C197.668 156.659 196.446 149.915 195.735 143.439C197.893 142.482 200.316 141.626 202.514 140.374C205.089 138.908 206.248 135.983 205.641 133.408C204.63 129.114 201.787 126.535 197.734 125.178C196.516 124.769 195.559 124.454 194.992 122.984C190.562 111.479 183.494 101.989 173.059 95.217C170.601 93.6223 168.026 92.2104 165.509 90.7208C165.762 89.9507 166.019 89.2894 166.194 88.6088C168.932 78.0994 170.204 67.45 169.243 56.5866C168.263 45.5366 165.704 34.9339 160.581 25.0118C155.821 15.7937 149.208 8.20142 140.99 1.90823C138.466 -0.024843 134.487 0.0490572 132.919 3.09453C131.815 5.24152 130.687 7.43908 130.026 9.74166C127.357 19.022 125.926 28.5162 125.856 38.1777C125.809 44.1753 125.805 50.1845 126.109 56.1744C126.366 61.2268 126.98 66.2676 127.63 71.285C128.166 75.3962 128.991 79.4646 129.687 83.5563C116.125 83.8481 103.231 86.5474 91.1073 92.965C90.8856 91.8021 90.7534 90.8413 90.5161 89.9118C88.2486 81.0437 85.1992 72.4557 81.4264 64.1089C76.4906 53.2067 70.6214 42.884 63.0914 33.5414C57.6928 26.8398 51.9324 20.5233 45.2658 15.0275C39.0038 9.85834 32.2944 5.55657 24.6049 2.82226C20.3576 1.31314 17.421 3.73629 16.9037 7.80858C15.7019 17.3028 16.5926 26.7076 18.619 36.0074C21.5439 49.43 26.5496 62.0747 33.2201 74.0582C37.9342 82.5373 43.3678 90.538 50.1472 97.5196C55.114 102.638 60.2832 107.558 65.4289 112.626C65.0322 113.144 64.4138 113.883 63.877 114.672C57.0665 124.66 53.9666 135.913 52.687 147.764C51.6252 157.604 52.3719 167.309 54.8495 176.912C56.8837 184.784 59.9137 192.174 65.1372 198.456C71.2009 205.745 78.7777 209.424 88.5208 207.339C93.4721 213.78 99.9404 218.405 107.043 222.333C106.584 224.274 106.148 226.122 105.736 227.884C102.83 227.705 100.096 227.479 97.3539 227.378C84.1529 226.892 72.2628 231.361 60.9872 237.561C53.2121 241.835 45.752 246.689 38.257 251.454C31.1042 255.997 24.3482 261.111 18.6968 267.479C10.7233 276.463 8.78246 284.172 15.6824 294.549C19.5563 300.372 24.286 305.646 28.825 311.002C32.7067 315.58 36.8646 319.924 40.8318 324.296C39.9373 325.436 38.891 326.451 38.2142 327.676C33.7607 335.72 35.686 344.922 42.8544 350.776C49.836 356.482 61.1388 358.162 68.5561 351.663C68.8828 351.379 69.3573 351.262 69.7618 351.075C71.9477 350.064 74.1336 349.057 76.1639 348.119C75.9189 349.006 75.5222 350.293 75.2071 351.596C71.9788 364.984 68.6105 378.341 65.5923 391.775C62.6207 405.015 59.9253 418.321 57.261 431.63C55.4835 440.518 53.9394 449.456 52.3642 458.382C51.1351 465.356 50.0382 472.353 48.8442 479.331C48.568 480.937 49.1203 481.816 50.7345 482.042C51.1779 482.104 51.6524 482.155 52.0452 482.349C52.4342 482.54 52.7337 482.906 53.072 483.197C52.7025 483.454 52.3369 483.932 51.9674 483.936C49.976 483.944 47.9807 483.901 45.9971 483.75C39.2799 483.248 32.5394 483.135 25.9468 484.524C18.7551 486.04 12.6836 489.65 8.09402 495.577C5.09523 499.448 3.18549 503.695 2.95601 508.627C2.77709 512.536 3.66001 516.13 6.5499 519.268C4.35234 519.471 2.42704 519.646 0 519.867C0.68066 520.248 0.871245 520.427 1.08517 520.459C7.12554 521.373 13.1387 522.582 19.2141 523.103C28.1949 523.87 37.2107 524.332 46.2188 524.581C61.0999 524.994 75.9889 525.301 90.874 525.352C116.926 525.441 142.974 525.379 169.022 525.235C183.669 525.157 198.317 524.935 212.957 524.515C225.03 524.165 237.091 523.512 249.149 522.843C257.492 522.38 265.819 521.691 274.147 521.034C276.169 520.875 278.176 520.447 280.187 520.143C280.171 519.984 280.152 519.821 280.136 519.661C274.532 519.362 268.927 519.062 263.303 518.763C264.131 518.066 265.006 517.448 265.741 516.694C270.078 512.244 270.273 506.834 268.701 501.361C265.706 490.93 258.336 485.037 247.959 482.898C240.086 481.276 232.179 482.275 224.311 483.388C220.643 483.909 216.991 485.041 213.478 483.948C213.478 482.618 213.65 481.404 213.447 480.257C212.891 477.091 212.144 473.96 211.541 470.801C210.188 463.73 208.99 456.628 207.531 449.576C205.462 439.569 203.331 429.569 201.02 419.616C198.095 407.026 195.182 394.424 191.861 381.934C188.461 369.142 184.471 356.509 180.927 343.751C178.411 334.685 176.447 325.416 176.695 316C176.898 308.209 178.275 300.45 179.146 292.566C183.545 297.186 187.656 301.527 191.794 305.837C195.474 309.664 199.367 313.238 203.965 315.973C208.885 318.901 214.046 320.422 219.834 319.104C225.956 317.707 231.226 314.565 235.991 310.745C245.077 303.464 253.672 295.611 261.031 286.514C261.447 286 262.097 285.491 262.715 285.37C267.846 284.374 272.334 282.111 276.212 278.649C282.579 272.967 286.686 265.903 289.378 257.821C292.12 249.595 295.496 241.586 298.281 233.375C299.335 230.268 299.926 226.872 299.996 223.59C300.105 218.366 297.056 214.15 290.743 214.916ZM273.365 213.341C274.104 211.287 275.426 209.529 277.748 209.121C280.798 208.588 283.089 210.828 283.442 214.255C283.874 218.37 282.198 221.933 280.763 225.581C278.114 232.333 275.481 239.089 272.953 245.553C269.907 243.955 266.69 242.271 263.696 240.696C266.862 231.722 270.067 222.516 273.365 213.341ZM137.801 6.57562C147.174 14.6346 153.996 24.4673 158.205 35.8829C164.564 53.1405 163.845 70.7055 159.45 88.0137C151.923 86.5201 144.572 85.0577 136.933 83.5408C131.255 58.0996 129.932 32.3785 137.801 6.57562ZM64.3166 184.804C58.2256 171.167 57.1171 156.908 59.8514 142.354C61.3839 134.213 63.8343 126.321 68.3811 119.254C68.9373 118.394 69.5829 117.593 70.1819 116.769C73.5852 118.966 76.8874 121.152 80.7496 122.175C80.9091 121.996 81.0686 121.821 81.228 121.642C81.2553 121.611 81.2864 121.58 81.3136 121.549C81.2047 121.401 81.0997 121.249 80.9947 121.098C79.6334 119.157 78.4159 117.08 76.794 115.392C71.8349 110.223 66.7514 105.162 61.59 100.192C50.0927 89.1066 40.8746 76.458 34.2353 61.8763C29.4317 51.3242 25.9973 40.3908 23.9865 29.0141C22.8663 22.6859 22.3879 16.276 23.2358 9.64053C28.4049 11.2119 32.9517 13.7984 37.2146 16.9022C49.8554 26.1164 59.198 38.2244 67.362 51.3631C71.9944 58.8153 75.6505 66.7615 78.8632 74.8906C82.1032 83.0974 84.5574 91.5609 86.0393 100.281C86.965 105.738 88.0891 111.172 87.4007 116.765C87.3695 117.014 87.459 117.274 87.5718 117.601C87.6379 117.788 87.7118 117.998 87.7779 118.235C87.7935 118.219 87.8091 118.2 87.8246 118.184C90.6095 115.228 91.2279 111.743 91.4924 108.13C91.6713 105.621 91.753 103.105 92.0369 100.608C92.0992 100.056 92.7293 99.4177 93.2621 99.0832C99.1391 95.4387 105.565 93.1712 112.301 91.7787C121.298 89.9157 130.391 89.6551 139.504 90.6313C153.094 92.0899 165.544 96.4189 175.844 105.785C181.168 110.627 185.159 116.43 187.998 123.357C184.906 123.023 182.067 122.556 179.216 122.432C171.865 122.105 164.506 121.65 157.155 121.747C144.281 121.922 131.484 123.12 118.972 126.348C111.722 128.219 104.876 131.035 99.3842 136.391C94.5845 141.07 92.492 147.017 91.4652 153.458C90.24 161.113 91.1385 168.798 91.084 176.472C91.0529 180.677 90.7806 184.85 88.9953 188.783C86.6189 194.029 81.0997 196.464 75.4171 195.655C68.805 194.714 66.5413 189.79 64.3166 184.804ZM74.7637 199.525C76.8757 199.424 79.1783 199.638 81.3214 199.148C88.5792 197.479 92.2859 192.474 93.8066 185.418C95.273 178.615 94.3628 171.762 94.5923 164.936C94.7596 159.985 95.0085 154.971 95.977 150.133C97.5678 142.163 103.029 137.111 110.123 133.719C117.245 130.316 124.888 128.686 132.647 127.648C145.02 125.987 157.446 125.127 169.932 125.812C177.921 126.247 185.906 126.866 193.642 129.126C195.174 129.573 196.742 130.199 198.01 131.125C198.967 131.821 199.721 133.05 200.11 134.194C200.53 135.43 199.43 136.442 198.36 136.022C192.215 133.591 185.742 132.723 179.239 132.327C171.239 131.837 163.215 131.455 155.206 131.572C144.934 131.724 134.666 132.556 124.635 134.933C120.271 135.967 115.934 137.375 111.819 139.149C103.888 142.572 99.882 149.051 99.3219 157.499C98.9563 163.081 99.1975 168.701 99.2208 174.302C99.2441 180.467 98.8085 186.546 96.5293 192.365C93.0132 201.349 82.8927 204.628 74.7637 199.525ZM84.7208 514.22C75.9578 515.671 67.1442 516.966 58.3034 517.713C50.2172 518.393 42.057 518.21 33.9358 518.51C32.1622 518.576 31.6099 517.829 31.6371 516.262C31.7615 509.023 34.1925 502.897 40.2056 498.502C40.2251 498.491 40.2406 498.475 40.2523 498.456C40.2601 498.448 40.2679 498.44 40.2717 498.428C40.2873 498.405 40.299 498.382 40.3106 498.355C40.334 498.308 40.3495 498.261 40.3729 498.215C40.3807 498.199 40.3884 498.187 40.3962 498.172H40.3923C40.2951 498.176 40.1978 498.18 40.1006 498.191C40.0384 498.195 39.9761 498.203 39.9139 498.211C39.7622 498.23 39.6066 498.253 39.4511 498.288C39.3694 498.304 39.2877 498.32 39.206 498.343C38.8482 498.428 38.4826 498.549 38.1131 498.697C38.0392 498.724 37.9653 498.755 37.8914 498.79C37.3469 499.024 36.7984 499.323 36.2461 499.681C36.1683 499.731 36.0905 499.782 36.0166 499.833C35.8922 499.918 35.7638 500.008 35.6394 500.101C35.4955 500.206 35.3515 500.315 35.2076 500.424C35.0948 500.513 34.982 500.607 34.8693 500.7C34.8265 500.735 34.7876 500.766 34.7487 500.801C34.6164 500.91 34.4881 501.023 34.3597 501.139C34.2197 501.268 34.0797 501.396 33.9436 501.532C33.8346 501.637 33.7257 501.746 33.6168 501.859C33.4496 502.026 33.2901 502.197 33.1306 502.372C33.0217 502.493 32.9128 502.614 32.8078 502.738C32.66 502.913 32.5122 503.088 32.3683 503.271C32.2711 503.388 32.1777 503.508 32.0883 503.629C31.8588 503.924 31.641 504.232 31.4271 504.551C31.3765 504.632 31.322 504.71 31.2676 504.792C30.937 505.297 30.6258 505.826 30.3341 506.375C30.2135 506.604 30.093 506.841 29.9802 507.079C29.8674 507.32 29.7585 507.561 29.6496 507.806C29.494 508.176 29.3462 508.549 29.2062 508.934C29.1167 509.191 29.0311 509.447 28.9494 509.708C28.8016 510.183 28.6733 510.665 28.5644 511.159C28.5372 511.275 28.5138 511.392 28.4905 511.509L28.4205 511.859C28.3388 512.291 28.2766 512.738 28.226 513.185C28.2221 513.224 28.2143 513.263 28.2143 513.302C28.191 513.504 28.1754 513.706 28.1599 513.912C28.1482 514.049 28.1404 514.185 28.1365 514.317C28.0782 515.612 28.156 516.946 28.401 518.308C25.4606 518.09 22.594 518 19.778 517.565C19.218 517.479 18.6462 516.126 18.4439 515.27C17.5766 511.606 18.4673 508.125 19.8247 504.726C21.1082 501.524 23.2552 498.981 25.8729 496.803C26.2463 496.495 26.7013 496.281 26.9658 495.877C19.9258 496.511 11.4895 505.822 14.8151 516.024C11.684 515.702 9.50202 513.738 9.10918 510.587C8.35073 504.558 10.9878 499.922 15.4685 496.223C20.3576 492.19 26.1374 490.136 32.3761 489.856C37.9536 489.603 43.5584 490.086 49.1514 490.047C52.298 490.027 55.4369 489.568 58.5873 489.389C59.5597 489.335 60.5788 489.417 61.52 489.662C69.0773 491.606 76.6657 493.36 84.5069 493.59C87.4084 493.672 90.31 493.602 93.2777 493.602C93.4877 496.523 93.7289 499.346 93.8883 502.17C94.2345 508.211 91.3368 513.127 84.7208 514.22ZM164.549 511.987H97.9334C102.418 505.352 99.8042 498.409 99.6875 491.532C100.252 491.353 100.921 491.283 101.411 490.949C101.943 490.587 102.616 490.027 102.698 489.475C104.312 478.647 105.673 467.779 107.463 456.982C108.836 448.682 110.454 440.401 112.457 432.233C116.008 417.749 119.82 403.327 123.748 388.939C125.506 382.51 127.805 376.229 129.858 369.881C130.049 369.85 130.239 369.823 130.43 369.795C133.351 377.812 136.424 385.781 139.154 393.863C141.725 401.467 144.214 409.122 146.225 416.889C148.944 427.406 151.523 437.99 153.518 448.662C155.611 459.888 156.984 471.249 158.59 482.563C159.022 485.605 159.282 488.681 159.391 491.754C159.45 493.345 159.862 494.158 161.538 494.185C162.487 494.201 163.432 494.418 164.549 494.566V511.987ZM182.573 493.897C190.931 493.104 199.037 491.101 207.045 488.643C207.893 488.382 208.982 488.316 209.791 488.615C214.404 490.323 219.071 490.237 223.871 489.642C229.305 488.973 234.781 488.32 240.242 488.324C246.286 488.331 252.136 489.716 257.025 493.687C262.163 497.864 265.08 504.772 263.229 510.595C262.47 512.975 261.374 513.905 258.585 514.636C261.716 503.792 253.408 494.648 245.532 493.672C247.484 495.601 249.336 497.281 251.012 499.121C254.621 503.08 255.882 507.837 255.356 513.092C255.189 514.737 254.47 515.982 252.54 516.13C250.619 516.273 248.705 516.546 246.586 516.787C248.534 511.085 247.686 505.959 244.151 501.373C241.288 497.658 237.356 495.955 232.078 495.741C241.102 500.338 245.368 506.908 243.229 516.997C240.783 517.117 238.301 517.39 235.827 517.339C224.851 517.114 213.856 517.094 202.903 516.413C194.758 515.912 186.649 514.652 178.562 513.465C172.394 512.555 170.787 510.583 170.655 504.399C170.581 501.151 170.83 497.896 170.931 494.687C175.023 494.415 178.807 494.255 182.573 493.897ZM291.342 235.678C288.207 244.126 285.368 252.698 281.805 260.964C277.709 270.462 271.187 277.727 260.537 280.115C258.359 280.606 256.092 280.676 253.42 280.994C254.376 282.029 255.111 282.823 256.088 283.869C250.845 288.995 245.831 294.32 240.363 299.123C235.54 303.363 230.417 307.35 225.042 310.854C217.352 315.864 211.39 314.436 204.778 309.271C195.731 302.216 188.053 293.717 181.079 284.612C180.628 284.02 180.394 283.099 180.41 282.336C180.569 274.328 180.686 266.319 178.734 258.474C178.24 256.495 177.256 254.632 176.497 252.718C176.229 252.776 175.964 252.835 175.696 252.889C175.696 253.951 175.735 255.013 175.692 256.075C175.354 264.305 175.011 272.535 174.657 280.769C174.292 289.244 172.857 297.571 171.192 305.872C170.986 306.906 170.71 307.424 169.589 307.591C164.055 308.404 158.559 309.742 153.001 310.072C144.269 310.59 135.467 310.936 126.743 310.457C117.447 309.952 108.202 308.466 98.9485 307.28C96.0237 306.906 93.1532 306.124 89.921 305.459C89.921 300.481 90.2011 295.522 89.8588 290.605C89.3026 282.644 88.4003 274.697 87.4862 266.767C87.354 265.619 87.8168 265.254 88.4041 264.565C90.0338 262.648 91.5118 260.602 92.7487 258.245C74.0753 264.235 56.3664 272.029 39.5911 281.881C39.6494 282.06 39.7039 282.239 39.7622 282.422C40.6062 282.589 41.4853 282.663 42.2865 282.955C42.9127 283.18 43.6984 283.534 43.9862 284.063C48.9375 293.137 54.764 301.62 61.1038 309.765C63.1458 312.386 63.3092 312.453 65.849 312.923C65.7596 312.188 65.6779 311.504 65.6118 310.94C72.8462 309.886 79.2716 311.2 82.5855 318.656C85.4909 325.187 83.5967 331.208 79.7734 336.84C78.7271 334.039 77.7003 331.305 76.6773 328.571C76.4284 328.613 76.1795 328.656 75.9267 328.699C75.9267 330.784 76.0084 332.869 75.9072 334.949C75.7439 338.411 74.7909 341.569 71.9166 343.833C71.4382 344.21 70.9015 344.518 70.3686 344.875C69.9563 342.281 69.5713 339.873 69.1201 337.085C68.1866 340.056 67.4865 342.549 66.6191 344.984C65.4951 348.123 62.7024 349.162 59.8281 349.753C52.4653 351.266 44.3557 346.707 42.3293 339.994C41.3375 336.7 41.5047 333.549 43.3133 330.41C44.4063 332.526 45.3203 334.588 46.4949 336.49C47.9496 338.851 49.9605 340.733 52.722 341.39C53.9861 341.694 55.3941 341.39 56.7554 341.091C53.0254 338.52 51.1584 334.848 49.6026 331.021C48.3541 327.96 48.5019 327.089 49.8749 323.674C47.444 321.352 44.8147 319.139 42.5432 316.61C36.4562 309.847 30.3886 303.056 24.5971 296.043C22.174 293.102 20.1398 289.726 18.5334 286.265C16.6548 282.231 18.0161 278.33 20.5093 274.861C24.7099 269.007 30.2797 264.592 36.0594 260.454C48.1752 251.784 60.7188 243.803 74.4953 238C82.2315 234.745 90.3333 232.839 98.793 233.298C103.406 233.547 107.992 234.243 112.589 234.725C112.826 234.748 113.071 234.659 113.764 234.55C110.442 231.1 113.386 227.887 113.515 224.465C117.568 224.655 121.566 226.207 125.444 223.749C113.67 219.618 102.721 214.317 94.4328 204.543C101.131 199.51 103.523 192.45 104.717 184.761C105.685 178.538 105.067 172.291 105.059 166.052C105.055 162.381 105.059 158.639 105.724 155.053C106.914 148.608 111.492 145.096 117.408 143.058C125.619 140.23 134.125 138.904 142.74 138.211C154.222 137.286 165.719 137.083 177.213 138.036C179.978 138.262 182.72 138.842 185.482 138.954C187.329 139.032 187.959 139.977 188.22 141.486C189.274 147.64 190.421 153.781 191.281 159.965C191.639 162.536 191.382 165.197 191.363 167.814C191.351 169.44 191.476 170.941 192.471 172.392C193.444 173.812 194.027 175.492 194.813 177.122C191.744 178.444 188.698 179.755 185.653 181.066C185.735 181.361 185.82 181.661 185.902 181.956C189.235 182.061 192.141 180.101 195.657 179.701C196.026 181.552 196.423 183.52 196.847 185.64C193.331 185.893 189.85 185.613 186.742 187.231C186.75 187.456 186.754 187.682 186.761 187.907H196.695C196.983 191.276 196.24 194.123 195.233 196.884C192.253 205.048 186.563 210.91 179.344 215.48C171.056 220.731 161.939 223.368 152.27 224.387C150.352 224.589 148.446 224.97 146.556 225.355C145.914 225.484 145.327 225.884 144.716 226.16C144.708 226.374 144.701 226.588 144.689 226.806C147.478 227.623 150.266 228.444 153.25 229.319C152.977 232.267 151.869 235.433 153.6 238.899C154.638 237.269 155.517 235.888 156.377 234.538C161.674 234.795 166.801 235.849 171.709 237.93C177.691 240.47 181.923 245.009 185.777 250.03C193.914 260.629 202.078 271.205 210.266 281.765C211.289 283.083 212.522 284.242 213.447 285.246C212.315 287.848 211.254 290.279 210.196 292.71C210.448 292.908 210.701 293.11 210.954 293.309C212.809 291.936 214.746 290.66 216.501 289.17C222.016 284.495 227.477 279.754 232.922 274.993C233.875 274.161 234.622 274.114 235.804 274.62C238.099 275.608 240.479 276.49 243.089 275.666C243.501 275.537 244.038 275.786 244.843 275.915C244.462 275.487 244.318 275.199 244.093 275.086C236.018 271.034 231.778 264.254 230.188 255.581C229.309 250.777 228.535 245.946 227.461 241.182C227.018 239.206 225.789 237.421 225.178 235.464C224.836 234.371 224.676 232.94 225.131 231.999C225.365 231.516 227.329 231.361 228.157 231.773C230.063 232.726 231.996 233.877 233.486 235.379C236.454 238.373 237.76 242.38 239.184 246.25C239.888 248.167 241.094 249.602 242.778 250.575C248.087 253.647 251.059 258.167 251.603 264.281C251.626 264.534 251.696 264.787 251.782 265.028C251.821 265.133 251.961 265.199 252.054 265.285C254.544 260.699 252.49 254.982 245.831 247.969C250.211 239.365 251.852 229.836 255.053 220.836C256.434 216.962 258.091 213.162 259.911 209.475C261.642 205.962 265.057 205.227 267.013 207.759C268.289 209.416 268.612 211.439 268.095 213.481C266.714 218.961 265.212 224.414 263.867 229.906C263.015 233.395 262.358 236.93 261.622 240.4H254.925C254.905 240.559 254.882 240.719 254.863 240.878C262.12 242.983 269.51 244.811 275.679 249.816C275.212 248.984 274.749 248.152 274.228 247.214C279.16 239.813 283.209 231.781 286.663 223.442C287.274 221.968 288.328 221.054 289.922 220.719C292.124 220.26 293.726 221.45 293.932 223.698C294.317 227.969 292.777 231.812 291.342 235.678ZM83.7368 309.924C78.8282 305.673 73.1457 304.425 66.8447 305.409C66.2302 305.506 65.2889 305.417 64.9428 305.024C62.2396 301.951 52.4575 287.474 50.4661 282.305C60.7227 277.611 70.9987 272.904 81.4459 268.12C83.4606 279.61 85.1914 302.484 83.7368 309.924Z" fill="#0C2423"/>
<path d="M291.342 235.678C288.207 244.126 285.368 252.699 281.805 260.964C277.71 270.462 271.187 277.728 260.537 280.116C258.359 280.606 256.092 280.676 253.42 280.995C254.377 282.029 255.112 282.823 256.088 283.869C250.845 288.995 245.831 294.32 240.363 299.124C235.54 303.363 230.417 307.35 225.042 310.854C217.353 315.864 211.39 314.437 204.778 309.271C195.731 302.216 188.053 293.717 181.079 284.612C180.628 284.021 180.395 283.099 180.41 282.337C180.57 274.328 180.686 266.32 178.734 258.475C178.24 256.495 177.256 254.632 176.497 252.718C176.229 252.776 175.964 252.835 175.696 252.889C175.696 253.951 175.735 255.013 175.692 256.075C175.354 264.305 175.012 272.535 174.658 280.769C174.292 289.244 172.857 297.572 171.192 305.872C170.986 306.906 170.71 307.424 169.59 307.591C164.055 308.404 158.559 309.742 153.001 310.073C144.269 310.59 135.467 310.936 126.743 310.458C117.447 309.952 108.202 308.466 98.9488 307.28C96.0239 306.906 93.1534 306.125 89.9213 305.46C89.9213 300.481 90.2013 295.522 89.859 290.606C89.3028 282.644 88.4005 274.698 87.4864 266.767C87.3542 265.62 87.817 265.254 88.4044 264.566C90.034 262.648 91.5121 260.602 92.7489 258.245C74.0755 264.235 56.3667 272.029 39.5913 281.882C39.6496 282.06 39.7041 282.239 39.7624 282.422C40.6065 282.589 41.4855 282.663 42.2867 282.955C42.9129 283.181 43.6986 283.535 43.9864 284.064C48.9377 293.138 54.7642 301.621 61.1041 309.765C63.146 312.387 63.3094 312.453 65.8492 312.923C65.7598 312.188 65.6781 311.504 65.612 310.94C72.8464 309.886 79.2718 311.2 82.5857 318.657C85.4911 325.187 83.597 331.208 79.7736 336.84C78.7273 334.04 77.7005 331.305 76.6776 328.571C76.4286 328.614 76.1797 328.656 75.9269 328.699C75.9269 330.784 76.0086 332.869 75.9074 334.95C75.7441 338.411 74.7912 341.57 71.9168 343.833C71.4384 344.211 70.9017 344.518 70.3688 344.876C69.9565 342.281 69.5715 339.874 69.1203 337.085C68.1868 340.057 67.4867 342.55 66.6193 344.985C65.4953 348.123 62.7026 349.162 59.8283 349.753C52.4655 351.266 44.3559 346.708 42.3295 339.994C41.3377 336.7 41.5049 333.549 43.3135 330.411C44.4065 332.527 45.3205 334.588 46.4951 336.49C47.9498 338.851 49.9607 340.733 52.7222 341.391C53.9863 341.694 55.3943 341.391 56.7556 341.091C53.0256 338.52 51.1586 334.849 49.6028 331.021C48.3543 327.96 48.5021 327.089 49.8751 323.674C47.4442 321.352 44.8149 319.139 42.5434 316.611C36.4564 309.847 30.3888 303.056 24.5973 296.043C22.1742 293.103 20.14 289.727 18.5336 286.265C16.655 282.232 18.0163 278.33 20.5095 274.861C24.7101 269.007 30.2799 264.593 36.0596 260.454C48.1754 251.785 60.719 243.803 74.4956 238C82.2317 234.745 90.3335 232.839 98.7932 233.298C103.406 233.547 107.992 234.243 112.589 234.725C112.826 234.749 113.071 234.659 113.764 234.55C110.442 231.1 113.387 227.888 113.515 224.465C117.568 224.655 121.566 226.207 125.444 223.749C113.67 219.619 102.722 214.317 94.4331 204.543C101.131 199.51 103.523 192.451 104.717 184.761C105.685 178.538 105.067 172.291 105.059 166.053C105.055 162.381 105.059 158.639 105.724 155.053C106.914 148.608 111.492 145.096 117.408 143.058C125.619 140.23 134.125 138.904 142.74 138.212C154.222 137.286 165.72 137.084 177.213 138.037C179.978 138.262 182.721 138.842 185.482 138.955C187.33 139.032 187.96 139.977 188.22 141.487C189.274 147.64 190.422 153.781 191.281 159.966C191.639 162.536 191.382 165.197 191.363 167.815C191.351 169.44 191.476 170.942 192.471 172.392C193.444 173.812 194.027 175.492 194.813 177.122C191.744 178.444 188.699 179.755 185.653 181.066C185.735 181.362 185.82 181.661 185.902 181.957C189.235 182.062 192.141 180.101 195.657 179.701C196.026 181.552 196.423 183.52 196.847 185.64C193.331 185.893 189.85 185.613 186.742 187.231C186.75 187.456 186.754 187.682 186.762 187.908H196.695C196.983 191.276 196.24 194.123 195.233 196.885C192.254 205.049 186.563 210.91 179.344 215.48C171.056 220.731 161.939 223.368 152.27 224.387C150.352 224.589 148.446 224.971 146.556 225.356C145.914 225.484 145.327 225.885 144.716 226.161C144.709 226.375 144.701 226.589 144.689 226.806C147.478 227.623 150.267 228.444 153.25 229.319C152.978 232.267 151.869 235.433 153.6 238.899C154.638 237.269 155.517 235.888 156.377 234.539C161.674 234.795 166.801 235.849 171.709 237.93C177.691 240.47 181.923 245.009 185.778 250.031C193.914 260.629 202.078 271.205 210.266 281.765C211.289 283.083 212.522 284.242 213.447 285.246C212.316 287.848 211.254 290.279 210.196 292.71C210.449 292.908 210.701 293.11 210.954 293.309C212.81 291.936 214.747 290.66 216.501 289.17C222.016 284.495 227.477 279.754 232.922 274.993C233.875 274.161 234.622 274.114 235.804 274.62C238.099 275.608 240.479 276.491 243.089 275.666C243.502 275.538 244.038 275.787 244.843 275.915C244.462 275.487 244.318 275.199 244.093 275.087C236.018 271.034 231.779 264.254 230.188 255.581C229.309 250.777 228.535 245.947 227.461 241.182C227.018 239.206 225.789 237.421 225.178 235.464C224.836 234.371 224.676 232.94 225.131 231.999C225.365 231.517 227.329 231.361 228.158 231.773C230.063 232.726 231.996 233.877 233.486 235.379C236.454 238.374 237.761 242.38 239.184 246.25C239.888 248.167 241.094 249.603 242.778 250.575C248.087 253.648 251.059 258.167 251.603 264.282C251.627 264.534 251.697 264.787 251.782 265.028C251.821 265.133 251.961 265.2 252.055 265.285C254.544 260.699 252.49 254.982 245.831 247.969C250.211 239.366 251.852 229.836 255.053 220.836C256.434 216.962 258.091 213.162 259.911 209.475C261.642 205.963 265.057 205.227 267.013 207.76C268.289 209.416 268.612 211.439 268.095 213.481C266.714 218.961 265.213 224.414 263.867 229.906C263.015 233.395 262.358 236.931 261.623 240.4H254.925C254.906 240.56 254.882 240.719 254.863 240.879C262.12 242.983 269.511 244.811 275.679 249.817C275.213 248.984 274.75 248.152 274.228 247.215C279.16 239.813 283.209 231.781 286.663 223.442C287.274 221.968 288.328 221.054 289.923 220.719C292.124 220.26 293.726 221.451 293.933 223.699C294.318 227.969 292.777 231.812 291.342 235.678Z" fill="white"/>
<path d="M87.7781 118.235C87.712 117.998 87.6381 117.788 87.5719 117.601C87.4592 117.275 87.3697 117.014 87.4008 116.765C88.0893 111.172 86.9652 105.738 86.0395 100.281C84.5576 91.5611 82.1033 83.0976 78.8634 74.8908C75.6507 66.7618 71.9946 58.8155 67.3622 51.3633C59.1981 38.2246 49.8556 26.1166 37.2148 16.9024C32.9519 13.7986 28.4051 11.2121 23.236 9.64075C22.388 16.2762 22.8664 22.6861 23.9866 29.0143C25.9975 40.391 29.4319 51.3244 34.2354 61.8766C40.8748 76.4582 50.0929 89.1069 61.5902 100.192C66.7515 105.163 71.8351 110.223 76.7942 115.392C78.4161 117.08 79.6335 119.157 80.9948 121.098C81.0998 121.25 81.2049 121.401 81.3138 121.549C81.2865 121.58 81.2554 121.611 81.2282 121.642L81.8661 121.989H83.6397L84.8999 121.646L86.7357 120.903L87.8248 119.927V118.185C87.8248 118.185 87.7936 118.22 87.7781 118.235ZM77.3504 107.317C67.9417 81.853 54.0951 58.8544 38.6733 36.731C38.825 36.5988 38.9767 36.4665 39.1284 36.3343C41.7032 38.9908 44.3364 41.5929 46.8412 44.3155C54.0329 52.1295 59.9566 60.8692 65.3046 70.0095C70.6488 79.142 75.2267 88.6168 77.3037 99.0951C77.8171 101.697 78.0038 104.361 78.3383 106.998C78.0116 107.104 77.681 107.209 77.3504 107.317ZM80.6331 184.637C80.637 184.714 80.637 184.796 80.6409 184.878C80.6448 184.955 80.6487 185.037 80.6487 185.115C80.6487 185.037 80.6487 184.959 80.6487 184.878C80.6448 184.796 80.6409 184.714 80.637 184.637H80.6331Z" fill="white"/>
<path d="M175.843 105.785C165.544 96.4191 153.094 92.0901 139.504 90.6315C130.391 89.6552 121.297 89.9158 112.301 91.7789C105.564 93.1713 99.1387 95.4389 93.2617 99.0834C92.7288 99.4178 92.0987 100.056 92.0365 100.608C91.7526 103.105 91.6709 105.622 91.492 108.13C91.2275 111.744 90.609 115.229 87.8242 118.185V119.927L86.7351 120.903L84.8993 121.646L83.6391 121.989H81.8655L81.2276 121.642C81.0681 121.821 80.9087 121.996 80.7492 122.175C76.8869 121.152 73.5848 118.966 70.1815 116.769C69.5825 117.593 68.9368 118.395 68.3806 119.254C63.8338 126.321 61.3834 134.213 59.851 142.354C57.1167 156.908 58.2252 171.167 64.3161 184.804C66.5409 189.79 68.8046 194.714 75.4167 195.655C81.0993 196.464 86.6184 194.03 88.9949 188.783C90.7802 184.85 91.0524 180.677 91.0836 176.472C91.138 168.799 90.2395 161.113 91.4647 153.458C92.4916 147.017 94.5841 141.07 99.3837 136.391C104.876 131.035 111.721 128.22 118.971 126.349C131.484 123.12 144.28 121.922 157.154 121.747C164.505 121.65 171.864 122.105 179.215 122.432C182.066 122.556 184.906 123.023 187.998 123.358C185.159 116.43 181.168 110.627 175.843 105.785ZM61.4573 158.869C61.9824 153.544 65.2574 145.419 68.2639 142.167C65.9925 147.733 63.7249 153.303 61.4573 158.869ZM60.59 150.728C60.52 147.329 65.3741 136.329 68.6218 133.622C65.9419 139.332 63.2621 145.038 60.59 150.728ZM62.6825 137.811C63.686 132.587 65.6269 127.893 70.3448 124.116C67.6105 129.001 65.1485 133.408 62.6825 137.811ZM80.5625 186.103C80.5586 186.126 80.5547 186.15 80.5508 186.177C80.5392 186.243 80.5275 186.313 80.5081 186.379C80.4886 186.476 80.4653 186.577 80.4342 186.675C80.4108 186.772 80.3797 186.865 80.3447 186.959C80.3214 187.04 80.2902 187.126 80.2552 187.207C80.193 187.367 80.123 187.523 80.0452 187.67C80.0102 187.744 79.9713 187.814 79.9285 187.88C79.9013 187.927 79.8741 187.974 79.8429 188.02C79.8157 188.067 79.7846 188.114 79.7535 188.156C79.6874 188.258 79.6135 188.355 79.5396 188.444C79.4734 188.526 79.4073 188.604 79.3334 188.678C79.2634 188.752 79.1895 188.822 79.1156 188.888C79.0378 188.958 78.9639 189.016 78.8822 189.074C78.8045 189.133 78.7228 189.187 78.6411 189.238C78.5594 189.284 78.4777 189.331 78.3922 189.37C78.3299 189.401 78.2677 189.428 78.2016 189.452C78.1432 189.471 78.0888 189.491 78.0304 189.51C77.9721 189.529 77.9099 189.545 77.8515 189.557C77.7621 189.576 77.6687 189.592 77.5754 189.603C75.0355 189.88 72.8419 187.818 72.4996 184.835C72.204 182.241 73.857 179.428 75.8134 179.203C78.2988 178.915 80.3408 180.922 80.5975 183.913C80.617 184.154 80.6247 184.395 80.6325 184.637C80.6364 184.714 80.6403 184.796 80.6442 184.878C80.6442 184.959 80.6442 185.037 80.6442 185.115C80.6442 185.453 80.617 185.784 80.5586 186.103H80.5625Z" fill="#81FBBF"/>
<path d="M258.584 514.636C261.715 503.792 253.408 494.644 245.531 493.672C247.48 495.601 249.335 497.281 251.012 499.121C254.621 503.081 255.877 507.833 255.352 513.092C255.189 514.741 254.465 515.982 252.536 516.13C250.615 516.278 248.701 516.546 246.581 516.787C248.534 511.085 247.682 505.959 244.147 501.373C241.284 497.659 237.348 495.955 232.074 495.741C241.097 500.335 245.364 506.904 243.225 516.993C240.778 517.114 238.297 517.386 235.823 517.336C224.847 517.11 213.851 517.09 202.899 516.41C194.754 515.904 186.641 514.648 178.554 513.458C172.389 512.551 170.783 510.576 170.647 504.391C170.577 501.144 170.826 497.888 170.927 494.679C175.015 494.407 178.799 494.248 182.564 493.89C190.923 493.096 199.029 491.093 207.041 488.635C207.889 488.374 208.978 488.308 209.783 488.608C214.396 490.315 219.063 490.23 223.863 489.638C229.297 488.966 234.773 488.316 240.234 488.32C246.282 488.324 252.128 489.712 257.017 493.684C262.155 497.857 265.076 504.769 263.221 510.591C262.462 512.971 261.365 513.901 258.577 514.632L258.584 514.636Z" fill="white"/>
<path d="M93.2773 493.602C93.4873 496.523 93.7285 499.347 93.8918 502.17C94.238 508.211 91.3365 513.127 84.7243 514.22C75.9613 515.671 67.1477 516.966 58.3069 517.713C50.2207 518.393 42.0644 518.214 33.9432 518.514C32.1696 518.58 31.6173 517.833 31.6445 516.266C31.769 509.027 34.1999 502.902 40.213 498.506C40.3064 498.436 40.3414 498.289 40.3997 498.176C34.9739 498.363 26.4637 507.487 28.4046 518.312C25.468 518.094 22.6014 518.004 19.7855 517.569C19.2254 517.483 18.6497 516.13 18.4475 515.274C17.5801 511.606 18.4708 508.125 19.8321 504.726C21.1118 501.525 23.2588 498.981 25.8764 496.807C26.2498 496.496 26.7049 496.286 26.9732 495.877C19.9294 496.511 11.497 505.826 14.8225 516.029C11.6914 515.702 9.50944 513.738 9.11271 510.591C8.35426 504.562 10.9913 499.926 15.472 496.227C20.3611 492.194 26.1409 490.136 32.3796 489.856C37.9571 489.607 43.5619 490.09 49.1511 490.051C52.2977 490.027 55.4404 489.572 58.587 489.389C59.5594 489.335 60.5784 489.417 61.5196 489.662C69.0769 491.606 76.6653 493.361 84.5065 493.59C87.4081 493.676 90.3096 493.606 93.2734 493.606L93.2773 493.602Z" fill="white"/>
<path d="M137.8 6.57582C147.174 14.6348 154 24.4675 158.204 35.8792C164.564 53.1369 163.844 70.7018 159.449 88.01C151.923 86.5164 144.572 85.054 136.933 83.541C131.254 58.096 129.932 32.3787 137.796 6.57582H137.8Z" fill="white"/>
<path d="M198.36 136.022C192.215 133.591 185.742 132.724 179.239 132.327C171.239 131.837 163.215 131.456 155.206 131.572C144.934 131.724 134.666 132.556 124.635 134.933C120.271 135.967 115.934 137.375 111.819 139.149C103.888 142.572 99.882 149.052 99.3219 157.5C98.9563 163.081 99.1974 168.701 99.2208 174.302C99.2441 180.467 98.8085 186.546 96.5292 192.365C93.0131 201.35 82.8927 204.629 74.7637 199.526C76.8757 199.424 79.1782 199.638 81.3213 199.148C88.5791 197.48 92.2858 192.474 93.8066 185.418C95.2729 178.616 94.3628 171.762 94.5923 164.936C94.7595 159.985 95.0084 154.971 95.9769 150.133C97.5677 142.163 103.029 137.111 110.123 133.719C117.245 130.316 124.887 128.686 132.647 127.648C145.019 125.987 157.446 125.127 169.932 125.812C177.921 126.248 185.906 126.866 193.642 129.126C195.174 129.573 196.742 130.199 198.01 131.125C198.967 131.821 199.721 133.05 200.11 134.194C200.53 135.431 199.43 136.442 198.36 136.022Z" fill="#81FBBF"/>
<path d="M272.952 245.554C269.907 243.955 266.694 242.267 263.695 240.696C266.857 231.723 270.066 222.516 273.365 213.341C274.104 211.287 275.426 209.525 277.748 209.121C280.797 208.588 283.084 210.828 283.442 214.255C283.87 218.37 282.194 221.933 280.762 225.581C278.114 232.333 275.477 239.085 272.948 245.554H272.952Z" fill="white"/>
<path d="M39.1279 36.3343C41.7028 38.9908 44.3359 41.5968 46.8408 44.3155C54.0324 52.1295 59.9561 60.8692 65.3042 70.0056C70.6483 79.1381 75.2262 88.6129 77.3032 99.0951C77.8166 101.697 78.0033 104.361 78.3417 106.995C78.0111 107.1 77.6805 107.209 77.3538 107.314C67.9451 81.853 54.0986 58.8505 38.6729 36.7271C38.8245 36.5949 38.9762 36.4627 39.1279 36.3304V36.3343Z" fill="#0C2423"/>
<path d="M80.6487 185.115C80.6487 185.453 80.6215 185.784 80.5631 186.103C80.5592 186.126 80.5553 186.153 80.5514 186.177C80.5398 186.243 80.5281 186.313 80.5087 186.379C80.4853 186.48 80.462 186.577 80.4348 186.675C80.4075 186.768 80.3764 186.865 80.3453 186.959C80.3181 187.044 80.287 187.126 80.2558 187.207C80.1936 187.367 80.1236 187.523 80.0458 187.67C80.0108 187.744 79.9719 187.814 79.9291 187.88C79.9019 187.927 79.8747 187.974 79.8436 188.02C79.8163 188.067 79.7852 188.114 79.7541 188.157C79.688 188.258 79.6141 188.355 79.5402 188.444C79.4741 188.526 79.404 188.604 79.334 188.678C79.264 188.752 79.1901 188.822 79.1162 188.888C79.0423 188.954 78.9645 189.016 78.8829 189.074C78.8051 189.133 78.7234 189.187 78.6417 189.238C78.56 189.284 78.4784 189.331 78.3928 189.37C78.3306 189.401 78.2644 189.428 78.2022 189.452C78.1439 189.471 78.0894 189.491 78.0311 189.51C77.9727 189.53 77.9105 189.545 77.8521 189.557C77.7627 189.576 77.6693 189.592 77.576 189.603C75.0362 189.88 72.8425 187.818 72.5002 184.835C72.2046 182.241 73.8576 179.429 75.8141 179.203C78.2994 178.915 80.3414 180.922 80.5981 183.913C80.6176 184.154 80.6253 184.395 80.6331 184.637C80.637 184.714 80.6409 184.796 80.6448 184.878C80.6448 184.959 80.6448 185.037 80.6448 185.115H80.6487Z" fill="#0C2423"/>
<path d="M68.6224 133.622C65.9425 139.332 63.2627 145.038 60.5906 150.728C60.5206 147.329 65.3747 136.329 68.6224 133.622Z" fill="#0C2423"/>
<path d="M70.3449 124.116C67.6106 129.001 65.1486 133.408 62.6826 137.811C63.6861 132.587 65.627 127.893 70.3449 124.116Z" fill="#0C2423"/>
<path d="M68.2636 142.167C65.9922 147.733 63.7246 153.303 61.457 158.869C61.9821 153.544 65.2571 145.419 68.2636 142.167Z" fill="#0C2423"/>
<path d="M129.147 196.733C133.907 200.132 138.847 202.481 144.249 203.882C149.496 205.243 154.837 205.325 160.185 205.037C160.966 204.994 162.114 204.212 162.386 203.504C163.561 200.408 164.506 197.219 165.463 194.045C165.75 193.096 165.206 192.61 164.269 192.24C161.11 190.996 158.271 189.187 156.178 186.476C154.292 184.03 154.848 182.392 157.742 181.354C161.857 179.88 166.128 180.043 170.375 180.401C172.086 180.545 173.806 180.941 175.455 181.439C177.571 182.077 178.08 183.404 176.902 185.278C174.79 188.639 172.312 191.649 168.672 192.699C167.987 196.706 167.345 200.478 166.637 204.613C169.344 204.033 172.191 203.349 175.07 202.847C176.163 202.656 178.201 202.61 178.31 202.964C178.839 204.675 177.034 204.912 176.011 205.422C171.449 207.686 166.462 208.495 161.48 208.864C151.266 209.615 141.414 208.172 132.456 202.773C130.761 201.75 129.096 200.607 127.641 199.273C126.607 198.324 126.051 198.343 125.129 199.315C124.662 199.809 123.802 199.93 123.122 200.222C123.118 199.385 122.877 198.46 123.153 197.732C124.079 195.317 128.54 192.983 131.196 193.442C131.609 193.512 132.087 193.928 132.262 194.31C132.355 194.508 131.928 195.084 131.609 195.309C130.936 195.788 130.181 196.145 129.135 196.733H129.147Z" fill="#0C2423"/>
<path d="M125.584 168.725C125.673 165.294 126.272 162.136 128.645 159.542C130.726 157.27 133.795 157.387 135.292 160.074C138.151 165.216 138.684 170.701 136.42 176.208C135.669 178.032 134.347 179.755 132.025 179.786C129.578 179.817 128.264 178.102 127.194 176.189C126.918 175.691 126.704 175.131 126.599 174.574C126.23 172.63 125.918 170.677 125.584 168.729V168.725Z" fill="#0C2423"/>
<path d="M178.807 168.888C178.123 171.319 177.742 173.894 176.676 176.146C175.05 179.584 171.324 179.557 169.414 176.266C167.676 173.268 167.302 169.962 167.571 166.578C167.773 164.015 168.185 161.514 169.784 159.339C171.694 156.737 173.988 156.644 175.871 159.223C177.952 162.07 178.391 165.345 178.294 168.748C178.465 168.795 178.632 168.845 178.804 168.892L178.807 168.888Z" fill="#0C2423"/>
<path d="M144.569 156.154C143.639 156.002 142.951 155.979 142.32 155.769C137.879 154.291 133.484 152.681 129.011 151.304C125.378 150.183 121.733 150.016 118.595 152.712C117.556 153.602 116.728 154.738 115.681 155.893C114.725 151.222 119.229 145.683 123.838 145.606C130.271 145.501 136.105 147.5 141.41 151.039C143.067 152.144 144.327 153.68 144.561 156.154H144.569Z" fill="#0C2423"/>
<path d="M165.708 155.967C165.708 155.333 165.595 154.719 165.723 154.159C166.964 148.791 173.479 144.026 178.983 144.423C182.087 144.649 185.327 148.441 185.155 151.844C184.475 151.389 183.876 150.977 183.265 150.584C180.064 148.53 176.77 148.659 173.627 150.545C170.955 152.148 168.466 154.057 165.704 155.963L165.708 155.967Z" fill="#0C2423"/>
</g>
<defs>
<clipPath id="clip0_6531_11411">
<rect width="300" height="524.789" fill="white" transform="translate(0 0.605484)"/>
</clipPath>
</defs>
</svg>
