<svg width="382" height="603" viewBox="0 0 382 603" fill="none" xmlns="http://www.w3.org/2000/svg">
<g clip-path="url(#clip0_6413_8321)">
<path d="M13.7413 214.975C14.3221 214.389 14.8257 214.612 15.5245 214.784C20.9649 216.136 26.1694 218.215 31.4056 220.125C39.9225 223.233 48.2442 226.881 56.6567 230.28C68.6175 235.121 80.5102 240.117 92.2849 245.389C93.5599 245.957 94.7624 246.896 96.2961 246.596C99.5857 245.952 102.826 245.099 106.142 244.523C111.256 243.629 116.279 242.24 121.357 241.138C131.779 238.878 142.202 236.619 152.642 234.45C158.432 233.252 164.267 232.263 170.066 231.124C171.745 230.797 172.743 231.351 173.447 232.907C174.858 236.024 176.441 239.064 177.875 242.172C181.877 250.857 185.843 259.565 189.891 268.404C195.748 260.717 201.534 253.121 207.328 245.512C201.729 243.733 196.583 241.419 191.787 238.384C180.711 231.373 172.489 222.171 169.481 209.017C169.299 208.223 169.122 207.792 167.916 207.905C160.628 208.609 153.809 210.75 147.261 213.954C146.09 214.526 144.439 215.705 143.49 214.244C142.429 212.602 144.384 211.794 145.423 210.986C151.789 206.027 159.331 204.189 167.099 203.118C168.555 202.919 168.85 202.442 168.791 201.199C168.678 198.699 169.127 196.267 170.152 193.998C170.511 193.199 170.298 192.941 169.667 192.764C168.301 192.383 166.899 192.138 165.556 191.702C159.93 189.864 154.144 188.975 148.246 188.671C146.381 188.576 144.466 188.907 142.651 188.176C142.147 187.977 141.594 187.768 141.607 187.16C141.621 186.584 142.025 186.284 142.66 186.225C143.077 186.185 143.468 185.885 143.89 185.758C147.592 184.619 151.313 184.86 155.124 185.227C160.451 185.749 165.66 186.538 170.593 188.694C170.937 188.843 171.3 189.061 171.654 189.066C172.394 189.079 176.714 182.627 176.559 181.824C176.487 181.456 176.423 181.084 176.351 180.717C175.593 176.892 174.826 173.067 174.073 169.242C172.757 162.531 173.261 155.734 173.224 148.973C173.215 147.593 172.907 147.271 171.763 146.895C167.725 145.57 165.551 140.229 166.282 137.053C167.062 133.663 169.236 131.14 171.636 128.745C173.891 126.499 176.891 125.069 178.442 122.029C180.062 118.867 182.018 115.885 183.996 112.913C190.312 103.407 198.285 95.7028 208.09 89.922C209.633 89.0145 210.232 88.0253 210.196 86.2421C210.155 84.1912 210.423 82.1176 210.763 80.0893C212.033 72.5208 214.143 65.1882 216.984 58.0508C219.493 51.7528 222.007 45.4412 225.36 39.5651C231.667 28.53 239.226 18.4024 248.565 9.70402C253.029 5.5477 257.821 1.88142 263.969 0.565549C265.566 0.220701 267.141 0.184401 268.784 0.837797C272.268 2.21719 272.55 5.39796 273.008 8.29287C273.525 11.5644 273.407 14.8767 273.171 18.2481C272.659 25.6351 271.197 32.8088 269.505 39.9644C266.832 51.2537 262.182 61.7352 256.492 71.7993C255.139 74.1861 254.014 76.7044 252.685 79.3679C257.612 79.023 262.204 79.5267 266.755 79.8987C272.286 80.3525 277.768 81.5685 283.231 82.653C284.451 82.8935 284.524 82.6167 284.833 81.6457C286.466 76.5455 287.923 71.4046 290.078 66.4542C293.44 58.7269 297.488 51.4125 302.443 44.6516C308.7 36.1166 315.742 28.2804 323.8 21.32C329.118 16.728 334.836 12.8349 340.898 9.41816C345.426 6.86356 350.267 4.94875 355.322 3.65557C358.113 2.94318 360.99 2.81614 363.83 3.102C367.124 3.43323 369.638 7.37176 369.574 11.882C369.484 18.4976 368.299 24.9136 366.121 31.1708C362.945 40.3002 359.143 49.1256 354.655 57.706C350.345 65.9505 345.163 73.5826 339.355 80.7472C333.207 88.3294 326.369 95.3352 318.646 101.379C317.675 102.137 317.738 102.432 318.492 103.194C323.66 108.444 328.252 114.107 331.9 120.568C334.164 124.575 336.151 128.677 337.826 132.946C340.662 140.156 342.041 147.689 343.107 155.348C344.314 164.06 343.72 172.649 342.254 181.193C341.025 188.376 338.275 195.082 334.237 201.185C328.764 209.462 321.74 215.683 311.681 217.724C310.433 217.979 308.899 217.82 307.978 218.5C305.442 220.37 303.159 222.589 300.7 224.735C302.347 224.953 303.772 225.093 305.179 225.334C312.225 226.518 319.267 227.802 326.001 230.266C331.364 232.231 336.487 234.627 341.415 237.708C348.648 242.222 354.791 247.944 360.599 253.929C367.415 260.948 372.642 269.198 376.703 278.268C380.006 285.646 381.767 293.137 381.467 301.114C381.127 310.221 376.476 317.118 369.452 322.445C358.898 330.444 346.878 335.563 334.35 339.547C333.129 339.932 332.839 340.141 333.261 341.48C334.25 344.606 335.18 347.764 335.707 351.031C336.215 354.189 336.977 357.302 337.64 360.482C342.395 357.442 346.202 353.726 349.886 349.847C352.005 347.61 352.945 347.737 354.977 350.101C355.408 350.6 355.717 351.217 356.016 351.811C358.276 356.344 357.949 361.249 358.067 366.095C358.081 366.604 357.369 367.343 358.308 367.602C358.943 367.779 359.27 367.198 359.674 366.708C361.806 364.126 364.479 364.652 365.6 367.838C365.822 368.468 366.017 369.135 366.058 369.798C366.693 380.946 362.936 390.357 354.587 397.776C348.489 403.189 341.056 405.204 333.066 405.467C332.19 405.494 331.741 405.54 331.324 406.547C328.901 412.423 326.396 418.267 323.778 424.057C319.671 433.15 316.477 442.525 314.911 452.394C314.467 455.189 314.09 457.888 316.373 460.611C318.464 463.111 320.538 465.706 322.498 468.356C327.603 475.244 333.565 481.406 339.26 487.777C346.229 495.572 353.866 502.759 361.03 510.382C362.854 512.32 365.627 514.035 364.896 517.506C364.86 517.688 365.228 517.974 365.436 518.182C368.082 520.81 369.81 524.072 371.703 527.216C374.861 532.484 375.151 537.966 373.096 543.706C371.87 547.127 369.724 549.958 367.8 552.953C362.936 560.522 357.4 567.564 351.366 574.22C348.829 577.02 346.234 579.769 343.752 582.451C347.854 582.306 352.228 582.81 356.62 582.996C360.05 583.141 363.481 583.336 366.68 584.861C367.165 585.092 367.741 585.124 367.714 585.763C367.691 586.303 367.088 586.435 366.707 586.526C364.474 587.075 362.242 587.683 359.973 588.014C353.353 588.976 346.696 589.511 340.022 589.988C333.08 590.487 326.124 590.818 319.177 591.159C309.512 591.63 299.811 591.435 290.141 591.857C279.651 592.311 269.151 592.12 258.66 592.275C250.334 592.397 241.981 592.12 233.641 592.157C218.232 592.229 202.827 591.885 187.422 591.571C175.806 591.331 164.195 590.727 152.579 590.396C145.632 590.201 138.699 589.788 131.779 589.221C124.601 588.64 117.436 587.905 110.281 587.093C108.933 586.939 107.426 586.648 106.201 585.469C111.392 584.134 116.538 583.549 121.656 582.946C128.008 582.193 134.393 581.625 140.781 581.262C150.954 580.686 161.137 580.282 171.323 579.928C178.388 579.679 185.462 579.606 192.536 579.511C204.46 579.347 216.389 578.939 228.309 579.18C240.619 579.429 252.939 579.053 265.235 579.797C266.719 579.887 267.263 579.402 267.182 577.837C266.773 569.71 270.884 564.029 277.319 559.755C286.176 553.87 295.904 552.694 306.141 554.795C309.557 555.499 309.462 555.571 310.751 552.381C311.132 551.433 310.946 551.152 310.229 550.612C309.535 550.085 308.999 549.3 308.514 548.552C303.863 541.382 298.676 534.59 293.563 527.761C286.03 517.711 277.613 508.35 270.217 498.181C265.789 492.092 261.456 485.957 257.962 479.264C255.117 473.815 253.234 468.012 252.762 461.94C252.108 453.523 253.365 445.174 255.244 436.971C257.748 426.044 260.916 415.3 264.781 404.768C266.038 401.347 265.957 401.32 262.79 399.487C262.399 399.26 262.027 399.006 261.664 398.733C256.696 395.004 265.262 400.718 265.262 400.718L259.418 400.625L266 400.73C259.357 406.592 246.364 415.046 239.916 421.117C233.006 427.619 226.517 434.539 220.668 442.053C216.789 447.035 213.032 452.108 210.74 457.984C208.263 464.332 206.357 470.893 204.737 477.536C203.026 484.546 201.765 491.647 200.69 498.762C199.905 503.944 198.952 509.103 198.271 514.307C197.491 520.229 196.406 526.105 195.576 532.022C194.696 538.288 194.024 544.581 193.13 550.843C192.64 554.269 192.146 554.714 188.661 554.931C187.404 555.009 187.159 555.485 187.041 556.497C186.524 560.957 185.013 565.059 182.494 568.78C177.077 576.784 172.212 578.817 162.616 577.41C156.522 576.516 150.691 574.397 145.133 571.865C132.818 566.252 120.735 560.208 109.491 552.549C99.6447 545.843 90.1795 538.751 82.484 529.567C78.1552 524.399 74.734 518.877 74.8293 511.662C74.9246 504.506 78.4683 499.57 84.3716 496.534C89.7757 493.753 95.7879 493.458 101.8 494.86C112.463 497.351 121.13 503.585 129.801 509.784C132.405 511.648 134.769 513.854 137.324 515.968C138.622 512.102 139.933 508.431 141.081 504.711C144.008 495.241 146.834 485.739 149.752 476.265C152.588 467.05 155.542 457.87 158.332 448.641C160.628 441.045 163.101 433.518 167.725 426.97C172.058 420.831 176.968 415.182 182.109 409.673C189.931 401.297 198.226 393.452 207.006 385.693C206.47 385.792 206.18 385.815 205.912 385.897C193.13 389.763 180.344 393.624 167.566 397.513C163.687 398.697 160.043 399.314 155.986 397.431C145.455 392.544 134.701 388.152 124.088 383.447C111.043 377.661 98.0294 371.794 85.0522 365.859C83.4459 365.12 81.3904 364.829 80.5964 362.769C77.1207 353.726 72.7647 345.046 69.4342 335.944C69.0077 334.778 68.3543 334.147 66.9477 334.197C62.0336 334.374 57.5324 333.044 53.308 330.485C48.3894 327.5 45.0952 323.402 45.2313 317.549C45.2949 315.008 44.9636 313.692 42.8582 312.027C37.867 308.084 36.2245 302.643 37.9578 296.422C38.2073 295.533 37.9351 295.188 37.4269 294.73C31.2242 289.117 31.2196 277.669 39.7092 273.163C40.408 272.791 40.6304 272.605 40.1222 271.702C38.4887 268.798 37.0412 265.785 35.5665 262.791C31.5781 254.696 27.6396 246.578 23.633 238.493C20.0938 231.351 16.2823 224.34 13.5961 216.799C13.3465 216.105 13.1423 215.578 13.7413 214.975ZM335.884 397.976C348.684 396.805 356.888 385.892 359.075 376.137C359.12 375.928 359.047 375.697 358.998 375.102C356.697 377.008 354.356 378.115 351.91 379.014C350.73 379.445 349.333 380.184 348.316 379.204C347.373 378.292 348.171 376.954 348.643 375.973C351.107 370.887 350.839 365.383 351.243 359.979C351.275 359.58 351.03 359.153 350.889 358.645C346.96 362.388 343.316 366.268 339.114 369.544C337.671 370.674 338.411 372.312 338.32 373.718C337.821 381.455 337.603 389.241 334.958 396.642C334.477 397.985 334.836 398.071 335.884 397.976ZM178.411 555.19C177.912 553.057 175.035 553.47 173.238 552.849C164.603 549.849 157.189 545.031 150.301 539.068C144.048 533.655 138.653 527.339 132.187 522.198C123.761 515.492 115.707 508.214 105.548 504.003C100.475 501.906 95.4158 500.591 89.9027 502.274C85.5695 503.599 82.3116 508.953 83.2281 513.318C84.2264 518.078 88.4326 522.625 91.8902 525.642C91.2186 522.919 90.1432 520.782 90.352 518.287C90.8148 512.765 93.5418 509.793 99.0458 509.325C101.228 509.139 103.379 509.561 105.521 509.979C106.283 510.128 106.828 510.519 106.719 511.331C106.601 512.206 105.866 512.243 105.162 512.207C102.894 512.079 100.716 512.37 98.5602 513.182C96.3233 514.021 95.4612 515.66 95.384 517.847C95.2706 521.173 96.7634 523.945 98.5693 526.581C104.141 534.712 111.687 540.756 119.56 546.451C131.321 554.959 143.89 561.992 157.52 567.051C161.041 568.358 164.671 569.066 168.474 569.106C172.389 569.156 176.378 564.41 177.317 561.27C177.912 559.283 178.842 557.037 178.411 555.19ZM95.8332 256.17C95.4566 255.367 95.1935 254.601 94.1771 254.21C83.0875 249.945 72.3972 244.691 60.9355 240.612C66.1491 252.541 71.2719 264.283 76.4128 276.017C80.4512 285.228 84.5168 294.426 88.537 303.646C88.9771 304.644 89.449 305.452 90.5198 305.919C102.403 311.106 114.192 316.528 126.67 321.515C121.833 311.242 117.173 301.327 112.495 291.418C106.95 279.666 101.387 267.923 95.8332 256.17ZM191.91 291.014C186.896 279.951 181.945 268.862 176.895 257.813C174.105 251.701 171.16 245.657 168.297 239.572C167.825 238.574 167.031 238.316 166.06 238.529C163.836 239.023 161.595 239.359 159.385 239.981C155.143 241.179 150.709 241.705 146.494 242.976C142.973 244.033 139.343 244.7 135.808 245.453C129.719 246.755 123.584 247.944 117.536 249.423C112.159 250.744 106.691 251.615 101.346 253.017C98.2835 253.82 98.1383 254.46 99.5358 257.377C104.01 266.725 108.443 276.095 112.885 285.455C117.627 295.46 122.368 305.466 127.101 315.475C127.968 317.308 128.852 319.142 129.615 321.02C129.914 321.755 130.123 322.277 130.863 321.946C134.878 320.957 138.726 319.981 142.587 319.055C151.944 316.809 161.286 314.491 170.738 312.671C172.099 312.408 172.684 311.904 173.093 310.371C174.527 305.03 178.638 301.754 182.953 298.764C185.249 297.171 187.776 296 190.367 294.966C193.216 293.822 193.185 293.832 191.91 291.014ZM260.775 40.7993C263.261 31.7788 264.763 22.5859 265.104 13.2251C265.158 11.696 264.958 10.1578 264.84 7.92533C239.694 27.9628 225.283 53.6494 218.844 84.4907C224.548 82.5123 230.061 81.5549 235.565 80.593C237.915 80.1846 240.302 80.0167 242.666 79.7036C243.251 79.6219 243.768 79.4359 244.095 78.7961C250.434 66.4724 257.068 54.2711 260.775 40.7993ZM326.192 196.548C330.348 190.4 332.644 183.535 333.706 176.234C336.959 153.837 330.933 133.781 318.251 115.454C316.268 112.591 313.537 110.372 310.941 108.063C309.984 107.21 309.221 107.255 308.16 107.854C304.738 109.773 301.167 111.343 297.311 112.183C296.993 112.251 296.675 112.31 296.362 112.351C295.546 112.46 294.729 112.464 293.908 112.351C293.771 112.328 293.635 112.305 293.499 112.278C292.555 110.781 293.499 109.978 294.706 109.587C296.789 108.925 297.329 107.405 297.429 105.49C297.928 95.9432 301.19 87.1315 304.979 78.5284C309.117 69.1222 314.698 60.5419 321.355 52.7102C326.078 47.1609 331.219 41.9972 337.091 37.6276C337.64 37.2193 338.32 36.035 339.128 37.1194C339.718 37.918 338.788 38.5306 338.298 39.0887C332.771 45.4003 327.303 51.7528 322.348 58.5545C314.263 69.6713 308.541 81.9678 303.681 94.7136C302.424 98.0123 301.785 101.547 300.736 105.422C305.805 102.409 309.929 98.938 313.764 95.19C319.975 89.1098 326.124 82.9479 331.405 75.992C340.417 64.1174 348.938 51.9933 354.251 37.8772C357.341 29.6734 360.286 21.4788 361.366 12.726C361.534 11.3557 361.017 11.2059 359.855 11.5508C355.631 12.8167 351.447 14.1916 347.54 16.2743C338.257 21.2247 329.958 27.5272 322.603 35.0231C316.577 41.1669 311.154 47.8687 306.367 54.9925C302.869 60.1925 300.333 65.9959 297.95 71.822C293.921 81.6684 291.353 91.9094 289.955 102.414C289.515 105.717 289.384 109.193 290.881 112.41C289.647 114.56 288.562 114.801 286.856 113.19C285.055 111.489 283.998 109.347 283.462 106.942C282.441 102.341 282.355 97.6629 282.387 92.9893C282.396 91.7824 282.087 91.3286 280.88 91.0745C269.818 88.7831 258.71 87.0906 247.353 87.9028C242.425 88.2568 237.597 89.137 232.738 90.0491C227.597 91.0155 222.656 92.3496 217.973 94.6001C205.717 100.485 196.565 109.719 189.174 121.485C193.416 120.818 197.219 120.151 201.039 119.629C210.15 118.381 219.275 118.113 228.473 118.608C239.181 119.184 249.699 120.809 259.954 123.799C271.197 127.079 281.693 131.903 289.629 141C294.81 146.94 297.075 154.136 298.427 161.705C300.115 171.17 301.617 180.671 303.459 190.105C304.752 196.752 308.772 200.546 315.016 201.394C319.635 202.02 323.519 200.509 326.192 196.553V196.548ZM311.304 209.63C314.794 208.495 317.87 206.726 320.76 203.908C317.915 204.407 315.433 205.174 312.792 204.738C306.399 203.69 302.883 199.52 300.668 193.862C299.284 190.327 299.398 186.516 298.64 182.863C297.56 177.654 296.621 172.418 295.713 167.173C294.77 161.687 293.767 156.237 291.512 151.087C287.963 142.97 281.888 137.284 274.201 133.282C264.142 128.041 253.284 125.509 242.071 124.144C233.015 123.041 223.958 122.211 214.828 122.51C205.549 122.81 196.406 123.935 187.526 126.871C181.986 128.699 176.727 132.865 175.044 137.289C180.575 136.005 185.857 134.589 191.215 133.577C201.171 131.699 211.212 130.8 221.381 131.218C231.744 131.635 241.985 132.801 252.113 135.034C259.305 136.617 266.292 138.759 272.763 142.384C280.558 146.754 284.751 153.506 286.198 162.19C287.918 172.509 289.311 182.886 291.607 193.1C292.673 197.846 294.162 202.429 297.533 206.077C301.317 210.174 305.936 211.367 311.304 209.63ZM287.845 562.323C281.035 564.451 275.708 569.492 274.945 576.616C274.841 577.578 274.932 578.581 275.068 579.547C275.499 582.615 277.169 583.762 280.331 583.499C281.461 583.404 281.18 582.737 281.275 582.143C281.761 578.989 282.074 575.813 283.848 572.981C285.295 570.672 287.292 569.134 289.683 567.995C290.228 567.736 290.759 567.337 291.326 567.909C292.079 568.671 291.249 569.206 290.926 569.637C288.939 572.269 287.269 575.001 286.484 578.286C286.167 579.606 286.135 580.922 285.917 582.229C285.74 583.291 286.561 583.477 287.528 583.481C289.774 583.49 292.079 583.35 294.248 583.803C296.308 584.234 296.417 582.837 296.426 581.816C296.458 575.509 299.18 571.203 304.811 568.97C305.351 568.757 305.891 568.317 306.526 568.548C307.003 568.725 307.642 568.893 307.856 569.265C308.178 569.837 307.524 570.186 307.116 570.486C305.669 571.548 304.153 572.478 303.032 573.971C301.544 575.944 300.664 578.036 300.696 580.541C300.732 583.39 300.981 583.926 303.645 583.749C309.889 583.34 316.155 583.254 322.326 581.925C329.264 580.432 334.881 576.72 339.822 571.911C348.294 563.675 355.894 554.705 361.947 544.504C363.717 541.519 365.636 538.56 365.522 534.862C365.522 534.558 365.477 534.25 365.527 533.955C365.781 532.521 364.914 531.427 363.866 531.091C363.031 530.819 362.437 532.099 361.892 532.888C358.616 537.68 354.76 541.954 349.977 545.248C340.911 551.483 331.069 555.462 319.807 554.954C318.796 554.909 316.236 557.4 316.177 558.353C316.141 558.929 316.477 559.201 316.844 559.414C317.226 559.637 317.756 559.628 318.106 559.882C318.877 560.44 320.642 560.363 320.134 561.774C319.689 562.994 318.237 562.255 317.294 562.114C307.461 560.617 297.556 559.292 287.845 562.323ZM237.398 349.733C243.188 350.936 248.873 350.976 254.177 347.782C254.903 347.346 255.607 346.893 256.083 346.217C257.195 344.647 258.774 344.211 260.575 344.134C265.83 343.907 271.084 344.125 276.343 343.662C281.643 343.199 286.893 342.401 292.133 341.602C298.568 340.617 304.993 339.506 311.34 338.081C316.191 336.992 320.901 335.281 325.702 333.947C331.805 332.25 337.812 330.177 343.561 327.622C351.597 324.051 359.633 320.326 366.189 314.15C371.653 309.009 373.259 302.68 372.583 295.451C371.68 285.719 367.16 277.515 361.888 269.62C356.888 262.133 351.093 255.281 344.038 249.7C337.254 244.328 329.454 240.63 321.346 237.599C312.729 234.377 303.772 232.943 294.656 232.036C290.405 231.614 286.33 231.65 282.251 232.88C281.62 233.07 280.899 233.075 280.236 233.007C279.356 232.911 278.339 232.73 278.045 231.768C277.741 230.765 278.693 230.37 279.374 229.917C285.549 225.801 291.144 220.982 296.666 215.755C287.233 209.834 284.461 200.237 282.564 190.214C281.153 182.759 279.959 175.263 278.625 167.794C278.181 165.299 277.65 162.812 277.083 160.339C275.953 155.434 272.872 152.09 268.647 149.522C260.53 144.58 251.446 142.915 242.289 141.413C231.626 139.662 220.891 138.99 210.114 139.666C200.767 140.252 191.556 141.894 182.485 144.272C181.669 144.485 181.483 144.916 181.496 145.728C181.637 155.107 181.369 164.495 183.629 173.734C184.296 176.47 184.523 179.328 185.058 182.119C185.362 183.693 184.069 184.9 183.229 186.126C180.72 189.774 178.765 193.658 178.143 198.091C176.555 209.376 180.884 218.5 188.829 226.083C196.81 233.696 206.629 237.721 217.342 239.754C223.028 240.834 228.749 241.338 234.557 241.161C240.456 240.984 246.092 239.595 251.759 238.188C253.088 237.857 254.935 236.564 255.766 238.438C256.632 240.385 254.681 241.301 253.279 242.145C249.998 244.119 246.414 245.458 242.797 246.624C235.324 249.038 227.629 249.015 219.951 248.048C217.143 247.695 215.505 248.43 213.844 250.735C209.901 256.211 205.563 261.398 201.479 266.775C199.129 269.865 197.019 273.136 194.687 276.244C193.802 277.424 194.315 278.472 194.777 279.375C196.615 282.951 198.394 286.549 199.61 290.374C200.073 291.835 201.03 291.572 201.915 291.359C205.763 290.428 209.683 290.211 213.794 290.047C212.596 283.813 212.446 277.574 212.864 271.294C212.941 270.146 213.299 269.474 214.13 269.329C215.132 269.157 215.677 270.019 215.954 270.967C217.043 274.688 217.469 278.536 218.186 282.334C218.644 284.743 219.239 287.134 219.561 289.562C219.729 290.832 220.759 290.751 221.353 290.859C232.529 292.947 241.182 299.276 249.046 307.04C252.517 310.466 256.782 311.519 261.605 310.856C267.626 310.03 273.702 309.577 279.701 308.624C286.389 307.562 293.009 306.087 299.67 304.858C304.775 303.914 309.689 302.271 314.712 301.033C316.454 300.601 317.049 300.202 316.631 298.133C315.098 290.601 313.827 283.019 312.076 275.523C311.395 272.623 309.467 271.099 307.597 269.338C306.122 267.954 304.498 266.725 302.946 265.418C302.506 265.046 301.762 264.751 302.089 264.02C302.402 263.303 303.159 263.294 303.854 263.349C305.533 263.476 307.03 264.252 308.514 264.896C319.59 269.71 328.542 277.188 335.534 286.998C336.691 288.618 337.671 290.515 338.139 292.425C338.511 293.959 339.11 293.473 339.881 293.192C341.129 292.738 342.663 292.062 343.434 293.41C344.183 294.716 342.753 295.728 341.805 296.49C338.375 299.258 334.268 300.801 330.221 302.321C318.051 306.886 305.492 310.062 292.71 312.394C283.285 314.119 273.793 315.339 264.301 316.623C256.451 317.69 250.643 315.307 244.717 310.33C237.597 304.354 230.015 298.596 220.437 296.808C212.95 295.406 205.554 296.096 198.285 298.188C192.504 299.857 187 302.158 182.254 305.974C177.925 309.454 177.181 313.815 180.185 317.962C181.691 320.035 183.878 320.299 185.802 318.656C191.855 313.492 198.984 310.82 206.738 309.554C209.533 309.1 212.31 308.801 215.137 309.155C216.076 309.273 217.12 309.477 217.274 310.448C217.456 311.596 216.348 311.823 215.455 311.991C209.801 313.034 204.288 314.581 199.043 316.945C194.355 319.06 189.8 321.428 187.44 326.415C185.535 330.44 188.488 335.449 192.717 335.486C193.766 335.495 194.519 335.104 195.326 334.451C202.151 328.902 210.178 326.225 218.731 324.954C220.115 324.75 222.147 324.478 222.501 326.433C222.851 328.362 220.909 328.344 219.597 328.756C213.867 330.562 208.059 332.187 202.963 335.544C201.003 336.833 199.229 338.258 198.539 340.726C197.876 343.081 198.412 345.173 200.014 346.757C201.447 348.172 203.281 348.817 205.563 348.395C210.808 347.419 215.387 344.474 220.627 343.544C221.716 343.353 222.76 342.909 223.849 342.755C225.16 342.573 226.145 342.659 227.229 344.039C229.752 347.247 233.432 348.907 237.398 349.733ZM321.114 282.388C322.276 287.343 322.916 292.166 323.329 297.017C323.406 297.915 323.805 298.011 324.472 297.802C325.32 297.543 326.174 297.271 326.986 296.912C328.583 296.209 331.169 296.391 331.6 294.907C331.886 293.913 329.776 292.234 328.764 290.841C327.19 288.691 325.107 286.962 323.778 284.584C323.274 283.69 322.475 282.801 321.114 282.388ZM161.54 389.096C162.049 390.185 162.334 390.902 163.945 390.434C185.662 384.177 207.405 378.002 229.158 371.876C230.578 371.477 230.769 371.236 230.038 369.884C226.639 363.609 223.309 357.293 220.124 350.908C219.352 349.352 218.631 349.493 217.378 350.028C213.653 351.612 209.833 352.914 205.962 354.139C199.628 356.145 193.598 350.423 192.785 344.529C192.735 344.152 192.572 343.757 192.649 343.408C193.035 341.67 191.996 341.411 190.621 341.098C183.552 339.492 179.758 333.602 181.238 326.565C181.374 325.911 181.487 325.775 180.775 325.489C176.491 323.774 173.891 320.662 173.22 316.029C173.056 314.922 172.616 314.436 171.291 314.754C157.883 317.984 144.366 320.761 130.953 324.283C136.534 336.03 142.093 347.691 147.61 359.375C152.284 369.267 156.917 379.181 161.54 389.096ZM120.826 374.444C125.876 376.332 130.931 378.356 135.745 380.652C142.17 383.719 149.017 385.734 155.31 389.046C156.418 389.627 157.647 389.971 159.208 390.58C154.734 381.173 150.405 372.157 146.145 363.11C140.319 350.741 134.502 338.371 128.793 325.948C128.122 324.491 127.015 323.974 125.803 323.502C114.215 318.969 102.948 313.688 91.1279 308.692C96.4276 320.925 101.591 332.818 106.737 344.715C110.698 353.862 114.659 363.005 118.561 372.176C119.042 373.31 119.691 374.018 120.826 374.444ZM73.8582 312.381C76.5989 316.415 78.9992 320.553 76.8757 325.703C76.735 326.048 76.7305 326.556 76.4809 326.728C74.0398 328.416 75.0153 330.354 75.9047 332.4C79.6481 340.99 83.3597 349.588 87.0169 358.218C87.5705 359.53 88.723 359.865 89.753 360.342C97.7254 364.017 105.725 367.629 113.715 371.264C114.587 371.658 115.44 372.08 116.665 372.666C113.906 366.499 111.256 360.65 108.674 354.77C103.347 342.664 98.0611 330.544 92.7568 318.429C91.3593 315.235 89.9164 312.063 88.5824 308.841C88.1241 307.734 87.5251 307.008 86.3817 306.523C81.9667 304.653 77.6017 302.675 72.8918 300.592C74.1305 304.132 74.8111 307.321 73.2956 310.575C72.9644 311.283 73.459 311.791 73.8582 312.381ZM52.573 319.223C54.1747 323.257 59.1024 326.547 63.7397 326.492C65.1554 326.869 66.9295 326.946 68.6084 326.329C74.0216 324.337 74.2621 320.984 71.2083 316.61C70.3644 315.398 69.4433 314.89 67.6465 315.716C63.5083 317.612 59.0343 317.168 54.6239 316.61C53.9297 316.523 53.0449 315.934 52.5503 316.628C52.0194 317.367 52.2372 318.379 52.573 319.223ZM44.6097 300.883C44.5598 305.166 46.9964 307.485 50.2135 309.1C53.0312 310.516 56.1576 310.947 59.2294 311.614C61.5934 312.127 63.5265 311.478 65.6454 310.997C67.6873 310.539 68.9941 309.368 69.4478 307.367C69.9969 304.966 69.525 302.743 67.651 301.051C65.5365 299.145 63.3812 298.215 60.1914 299.05C56.153 300.102 51.9105 299.385 47.8041 298.41C44.9636 297.734 44.5099 298.201 44.6097 300.883ZM42.3864 290.047C45.9619 293.641 50.6491 294.204 55.3091 294.862C55.6721 294.911 56.0441 294.916 56.9017 294.98C57.8228 294.848 59.2703 294.807 60.6224 294.421C65.0465 293.165 66.1808 289.299 63.2995 285.569C62.5055 284.539 61.539 283.604 60.3865 283.114C56.1213 281.304 51.7154 279.861 47.1053 279.293C44.1106 278.93 41.4743 280.296 40.6621 282.261C39.6502 284.711 40.4262 288.073 42.3864 290.047ZM35.9567 246.32C38.9333 252.391 41.928 258.453 44.9046 264.524C46.5245 267.823 48.1308 271.131 49.7461 274.434C50.2407 275.45 51.003 275.895 52.1601 276.19C56.1485 277.193 60.2095 278.059 63.5673 280.745C68.318 284.539 69.348 288.414 66.8796 293.963C66.63 294.517 66.4485 294.803 67.1655 295.175C73.282 298.351 79.6345 301.001 86.3771 304.068C77.6244 284.04 69.112 264.56 60.6043 245.081C60.1868 244.119 59.6877 243.171 59.4155 242.163C58.6169 239.16 56.2801 238.198 53.6347 237.494C52.4868 237.186 51.3978 236.628 50.2861 236.183C42.6223 233.107 34.9585 230.03 27.2947 226.949C27.0315 226.845 26.8001 226.573 26.4417 226.854C29.6088 233.333 32.776 239.831 35.9567 246.32Z" fill="#143635"/>
<path d="M182.256 305.973C187.002 302.157 192.506 299.857 198.287 298.187C205.556 296.095 212.952 295.405 220.439 296.808C230.018 298.595 237.6 304.353 244.719 310.329C250.645 315.307 256.453 317.689 264.303 316.623C273.795 315.339 283.288 314.118 292.712 312.394C305.494 310.062 318.054 306.885 330.223 302.321C334.271 300.801 338.377 299.258 341.807 296.49C342.756 295.728 344.185 294.716 343.436 293.409C342.665 292.061 341.131 292.737 339.883 293.191C339.112 293.473 338.513 293.958 338.141 292.424C337.674 290.514 336.694 288.617 335.537 286.998C328.544 277.188 319.592 269.71 308.516 264.895C307.032 264.251 305.535 263.475 303.856 263.348C303.162 263.294 302.404 263.303 302.091 264.02C301.764 264.75 302.508 265.045 302.948 265.417C304.5 266.724 306.125 267.954 307.599 269.338C309.469 271.098 311.397 272.623 312.078 275.522C313.829 283.018 315.1 290.6 316.633 298.132C317.051 300.202 316.456 300.601 314.714 301.032C309.691 302.271 304.777 303.913 299.672 304.857C293.011 306.087 286.391 307.561 279.703 308.623C273.704 309.576 267.629 310.03 261.607 310.856C256.784 311.518 252.519 310.465 249.048 307.04C241.184 299.276 232.531 292.946 221.356 290.859C220.761 290.75 219.731 290.832 219.563 289.561C219.241 287.134 218.647 284.742 218.188 282.333C217.471 278.535 217.045 274.687 215.956 270.967C215.679 270.018 215.135 269.156 214.132 269.329C213.302 269.474 212.943 270.145 212.866 271.293C212.449 277.573 212.598 283.812 213.796 290.047C209.685 290.21 205.765 290.428 201.917 291.358C201.032 291.571 200.075 291.834 199.612 290.373C198.396 286.548 196.617 282.95 194.78 279.375C194.317 278.472 193.804 277.423 194.689 276.244C197.021 273.136 199.131 269.864 201.481 266.774C205.565 261.397 209.903 256.211 213.846 250.734C215.507 248.429 217.145 247.694 219.954 248.048C227.631 249.014 235.326 249.037 242.8 246.623C246.416 245.457 250.001 244.118 253.281 242.145C254.683 241.301 256.634 240.384 255.768 238.437C254.937 236.564 253.091 237.857 251.761 238.188C246.094 239.595 240.458 240.983 234.56 241.16C228.752 241.337 223.03 240.833 217.344 239.753C206.631 237.721 196.812 233.696 188.831 226.082C180.886 218.5 176.557 209.375 178.145 198.09C178.767 193.657 180.723 189.773 183.232 186.125C184.071 184.9 185.364 183.693 185.06 182.118C184.525 179.328 184.298 176.469 183.631 173.733C181.371 164.495 181.639 155.107 181.498 145.728C181.485 144.916 181.671 144.485 182.488 144.271C191.558 141.894 200.769 140.251 210.116 139.666C220.893 138.99 231.628 139.661 242.291 141.413C251.448 142.915 260.532 144.58 268.65 149.521C272.874 152.089 275.955 155.433 277.085 160.338C277.652 162.811 278.183 165.298 278.628 167.794C279.962 175.262 281.155 182.758 282.566 190.213C284.463 200.236 287.235 209.833 296.669 215.755C291.146 220.982 285.552 225.801 279.376 229.916C278.696 230.37 277.743 230.765 278.047 231.767C278.342 232.729 279.358 232.911 280.238 233.006C280.901 233.074 281.622 233.07 282.253 232.879C286.332 231.649 290.407 231.613 294.658 232.035C303.774 232.943 312.731 234.376 321.348 237.598C329.456 240.629 337.256 244.327 344.04 249.699C351.096 255.281 356.89 262.132 361.89 269.619C367.163 277.514 371.682 285.718 372.585 295.451C373.261 302.679 371.655 309.009 366.192 314.15C359.635 320.325 351.599 324.051 343.563 327.622C337.814 330.176 331.807 332.25 325.704 333.947C320.903 335.281 316.193 336.991 311.343 338.08C304.995 339.505 298.57 340.617 292.136 341.601C286.895 342.4 281.645 343.199 276.345 343.661C271.086 344.124 265.832 343.906 260.577 344.133C258.776 344.211 257.197 344.646 256.085 346.216C255.609 346.892 254.906 347.346 254.18 347.782C248.875 350.976 243.19 350.935 237.4 349.733C233.434 348.907 229.754 347.246 227.232 344.038C226.147 342.659 225.163 342.572 223.851 342.754C222.762 342.908 221.719 343.353 220.63 343.544C215.389 344.474 210.811 347.419 205.565 348.394C203.283 348.816 201.45 348.172 200.016 346.756C198.414 345.172 197.879 343.081 198.541 340.726C199.231 338.257 201.005 336.833 202.965 335.544C208.061 332.186 213.869 330.562 219.6 328.756C220.911 328.343 222.853 328.361 222.504 326.433C222.15 324.477 220.117 324.749 218.733 324.953C210.18 326.224 202.153 328.901 195.329 334.45C194.521 335.104 193.768 335.494 192.72 335.485C188.491 335.449 185.537 330.439 187.443 326.415C189.802 321.428 194.358 319.059 199.045 316.945C204.29 314.581 209.803 313.034 215.457 311.99C216.351 311.822 217.458 311.595 217.276 310.447C217.122 309.476 216.078 309.272 215.139 309.154C212.312 308.8 209.535 309.1 206.74 309.553C198.986 310.819 191.857 313.492 185.804 318.655C183.881 320.298 181.694 320.035 180.187 317.961C177.183 313.814 177.927 309.453 182.256 305.973ZM204.013 155.17C203.777 154.571 203.387 153.918 202.874 153.559C199.158 150.941 195.161 149.072 190.474 149.113C189.775 149.117 189.167 149.29 188.55 149.544C187.447 150.002 186.422 150.683 186.499 151.949C186.58 153.355 187.955 153.178 188.926 153.378C192.574 154.131 196.159 155.061 199.512 156.763C200.356 157.194 201.341 157.348 202.058 157.566C203.669 157.598 204.526 156.477 204.013 155.17ZM190.955 173.198V173.22C190.955 173.379 190.941 173.533 190.927 173.692C190.918 174.477 190.927 175.258 190.973 176.034C191.118 178.615 191.622 181.125 192.883 183.457C193.695 184.954 194.63 186.547 196.713 186.42C198.99 186.284 200.383 185.004 201.019 182.822C202.375 178.189 202.185 173.592 200.751 169.014C199.952 166.45 198.655 165.375 196.377 165.384C194.063 165.389 192.266 166.891 191.367 169.109C191.172 169.59 191.068 170.071 191.014 170.548C190.991 170.711 190.982 170.874 190.973 171.038C190.95 171.446 190.955 171.855 190.959 172.258C190.959 172.572 190.959 172.885 190.955 173.198ZM211.16 223.028C207.326 220.664 206.3 216.662 205.134 212.755C204.989 212.265 204.757 211.789 204.676 211.303C204.44 209.865 204.326 208.753 206.35 208.091C211.083 206.535 214.976 203.644 217.608 199.288C218.025 198.594 218.492 197.827 218.579 197.056C218.923 193.784 218.765 192.922 215.557 192.192C207.485 190.349 199.349 190.15 191.209 191.783C188.527 192.323 187.579 194.506 188.618 197.523C190.455 202.855 194.389 206.185 199.281 208.477C200.442 209.021 200.905 209.434 201 210.782C201.295 214.852 202.04 218.845 204.753 222.384C203.991 222.42 203.446 222.443 202.952 222.466C202.738 222.951 203.047 223.151 203.251 223.3C207.897 226.74 213.011 228.922 218.878 229.158C228.634 229.558 237.146 226.3 244.61 220.242C246.153 218.99 247.255 218.35 249.343 218.84C252.043 219.475 252.905 218.06 251.766 215.451C250.64 212.882 248.508 211.335 246.044 210.332C243.943 209.479 242.518 210.723 243.181 212.941C243.684 214.629 242.99 215.319 241.901 216.267C237.173 220.396 231.633 223.069 225.689 224.616C220.811 225.882 215.761 225.864 211.16 223.028ZM245.45 171.827C244.665 168.429 242.078 166.446 238.834 166.736C236.837 166.913 235.463 167.975 234.895 169.858C233.126 175.77 234.324 181.438 236.788 186.851C237.559 188.548 239.283 189.75 241.425 189.396C243.793 189.006 245.191 187.45 245.89 185.208C246.511 183.226 246.348 181.206 246.257 179.187C246.325 176.696 246.008 174.246 245.45 171.827ZM253.59 150.506C251.28 148.854 248.585 148.641 245.862 148.582C245.563 148.577 245.259 148.609 244.96 148.623C239.369 148.827 234.047 149.998 229.242 153.02C227.812 153.918 226.628 155.098 227.422 156.863C228.248 158.71 229.9 159.032 231.796 158.428C234.845 157.462 237.5 155.588 240.699 154.889C244.038 154.158 247.292 153.782 250.636 154.58C251.144 154.698 251.684 154.717 252.21 154.739C253.349 154.798 254.379 154.444 254.824 153.355C255.332 152.098 254.534 151.177 253.59 150.506Z" fill="white"/>
<path d="M217.975 94.5952C222.658 92.3447 227.599 91.0106 232.74 90.0442C237.6 89.1321 242.428 88.2518 247.355 87.8979C258.713 87.0857 269.82 88.7782 280.883 91.0696C282.09 91.3237 282.398 91.7775 282.389 92.9844C282.357 97.658 282.444 102.336 283.465 106.937C284 109.342 285.057 111.484 286.859 113.185C288.565 114.796 289.649 114.556 290.883 112.405C291.754 112.359 292.63 112.319 293.501 112.278C293.638 112.305 293.774 112.328 293.91 112.346C294.731 112.464 295.548 112.459 296.365 112.346C296.682 112.305 296.995 112.251 297.313 112.178C301.17 111.339 304.741 109.769 308.162 107.849C309.224 107.25 309.986 107.205 310.943 108.058C313.539 110.367 316.27 112.586 318.253 115.449C330.936 133.776 336.961 153.832 333.708 176.229C332.646 183.53 330.35 190.395 326.194 196.543C323.521 200.5 319.637 202.011 315.018 201.385C308.775 200.536 304.754 196.743 303.461 190.095C301.619 180.662 300.117 171.161 298.429 161.695C297.077 154.127 294.813 146.93 289.631 140.991C281.695 131.893 271.2 127.07 259.956 123.789C249.701 120.799 239.183 119.175 228.475 118.598C219.277 118.104 210.153 118.372 201.041 119.619C197.221 120.141 193.418 120.808 189.176 121.475C196.567 109.71 205.719 100.476 217.975 94.5907V94.5952ZM315.354 190.722C319.115 190.685 321.135 188.584 321.103 184.741C321.08 181.665 318.762 179.378 315.653 179.36C311.465 179.333 309.741 181.02 309.741 185.145C309.741 188.73 311.778 190.758 315.354 190.722Z" fill="#81FBBF"/>
<path d="M315.421 141.057C319.212 147.202 322.866 153.149 326.553 159.071C327.112 159.964 327.958 161.138 329.076 160.321C330.136 159.549 328.823 158.65 328.419 157.928C325.506 152.638 322.288 147.533 318.731 142.633C318.081 141.739 317.599 140.489 315.421 141.057Z" fill="#143635"/>
<path d="M322.449 164.815C320.904 159.366 318.245 154.585 314.014 150.755C316.047 155.908 318.321 160.923 322.449 164.815Z" fill="#143635"/>
<path d="M130.863 321.945C134.874 320.952 138.722 319.976 142.583 319.05C151.94 316.804 161.282 314.49 170.734 312.666C172.095 312.403 172.681 311.899 173.089 310.366C174.523 305.025 178.634 301.749 182.949 298.759C185.245 297.166 187.772 295.995 190.363 294.961C193.213 293.817 193.181 293.826 191.906 291.013C186.896 279.951 181.942 268.861 176.896 257.813C174.101 251.701 171.156 245.657 168.297 239.572C167.825 238.569 167.031 238.31 166.06 238.528C163.837 239.023 161.595 239.359 159.386 239.98C155.143 241.174 150.71 241.705 146.499 242.97C142.978 244.028 139.348 244.695 135.809 245.448C129.72 246.746 123.585 247.934 117.537 249.418C112.16 250.734 106.692 251.61 101.347 253.012C98.2841 253.815 98.1435 254.455 99.5365 257.372C104.01 266.72 108.444 276.09 112.886 285.45C117.632 295.455 122.369 305.461 127.102 315.47C127.968 317.303 128.853 319.137 129.615 321.015C129.915 321.755 130.124 322.276 130.863 321.945Z" fill="#81FBBF"/>
<path d="M130.955 324.278C136.532 336.025 142.095 347.691 147.612 359.37C152.286 369.262 156.919 379.177 161.542 389.091C162.051 390.175 162.332 390.892 163.947 390.429C185.664 384.168 207.407 377.997 229.16 371.871C230.58 371.472 230.771 371.231 230.04 369.879C226.646 363.604 223.311 357.288 220.13 350.899C219.354 349.343 218.637 349.483 217.385 350.019C213.66 351.607 209.839 352.905 205.969 354.13C199.639 356.135 193.604 350.409 192.792 344.519C192.742 344.147 192.579 343.748 192.656 343.403C193.041 341.665 192.002 341.402 190.628 341.089C183.558 339.483 179.765 333.593 181.244 326.555C181.38 325.902 181.489 325.77 180.781 325.485C176.498 323.769 173.898 320.657 173.226 316.024C173.063 314.912 172.623 314.431 171.298 314.749C157.89 317.975 144.377 320.757 130.96 324.273L130.955 324.278Z" fill="#81FBBF"/>
<path d="M290.88 112.4C291.751 112.359 292.627 112.314 293.498 112.273C292.554 110.776 293.498 109.968 294.705 109.582C296.788 108.915 297.328 107.4 297.427 105.485C297.922 95.9338 301.189 87.122 304.973 78.5235C309.116 69.1173 314.692 60.5324 321.353 52.7052C326.077 47.1514 331.218 41.9923 337.085 37.6227C337.634 37.2143 338.315 36.03 339.122 37.1145C339.712 37.9085 338.782 38.5256 338.292 39.0837C332.761 45.3999 327.298 51.7478 322.343 58.554C314.252 69.6663 308.531 81.9674 303.675 94.7132C302.419 98.0119 301.779 101.547 300.731 105.422C305.794 102.404 309.924 98.9376 313.753 95.1896C319.97 89.1094 326.113 82.9475 331.395 75.9916C340.406 64.1215 348.928 51.9974 354.246 37.8768C357.336 29.673 360.28 21.4784 361.356 12.7256C361.524 11.3552 361.006 11.2055 359.845 11.5504C355.62 12.8163 351.437 14.1912 347.535 16.2739C338.251 21.2243 329.952 27.5223 322.597 35.0227C316.571 41.1664 311.149 47.8683 306.362 54.9921C302.868 60.1921 300.331 65.9955 297.945 71.8216C293.915 81.6679 291.352 91.9045 289.95 102.413C289.509 105.712 289.378 109.188 290.875 112.405L290.88 112.4Z" fill="white"/>
<path d="M91.8925 525.637C91.221 522.919 90.1456 520.778 90.3543 518.282C90.8171 512.76 93.5442 509.788 99.0481 509.32C101.226 509.134 103.381 509.556 105.519 509.974C106.281 510.124 106.825 510.509 106.716 511.326C106.598 512.202 105.868 512.238 105.16 512.197C102.896 512.075 100.718 512.361 98.5581 513.173C96.3211 514.017 95.459 515.65 95.3818 517.842C95.2684 521.168 96.7567 523.936 98.5671 526.577C104.139 534.708 111.685 540.752 119.558 546.446C131.319 554.954 143.887 561.987 157.518 567.046C161.039 568.353 164.674 569.061 168.471 569.106C172.387 569.152 176.38 564.41 177.32 561.265C177.914 559.278 178.844 557.032 178.413 555.185C177.914 553.053 175.037 553.47 173.24 552.844C164.606 549.845 157.191 545.026 150.303 539.064C144.051 533.65 138.656 527.334 132.19 522.193C123.759 515.487 115.705 508.209 105.55 504.003C100.477 501.902 95.4181 500.586 89.9006 502.274C85.5718 503.599 82.3139 508.948 83.2305 513.313C84.2287 518.078 88.435 522.62 91.8925 525.637Z" fill="white"/>
<path d="M91.1261 308.691C96.4305 320.924 101.59 332.817 106.74 344.714C110.696 353.862 114.662 363.005 118.56 372.175C119.041 373.31 119.69 374.017 120.824 374.444C125.874 376.332 130.929 378.355 135.743 380.651C142.173 383.719 149.015 385.733 155.313 389.046C156.42 389.626 157.65 389.976 159.211 390.579C154.732 381.173 150.408 372.157 146.148 363.109C140.321 350.74 134.504 338.371 128.792 325.947C128.12 324.491 127.018 323.974 125.806 323.502C114.217 318.969 102.946 313.687 91.1261 308.691Z" fill="#81FBBF"/>
<path d="M126.667 321.51C121.83 311.241 117.17 301.322 112.492 291.413C106.947 279.66 101.385 267.917 95.8352 256.165C95.454 255.362 95.1954 254.595 94.179 254.205C83.0849 249.94 72.3992 244.69 60.9375 240.606C66.1511 252.535 71.2739 264.278 76.4148 276.012C80.4486 285.223 84.5187 294.421 88.5389 303.641C88.9745 304.644 89.451 305.447 90.5218 305.914C102.41 311.101 114.194 316.523 126.672 321.51H126.667Z" fill="#81FBBF"/>
<path d="M365.518 534.857C365.518 534.558 365.472 534.245 365.527 533.954C365.776 532.521 364.914 531.422 363.866 531.087C363.031 530.819 362.437 532.099 361.892 532.888C358.616 537.675 354.755 541.954 349.972 545.244C340.911 551.478 331.065 555.462 319.803 554.949C318.791 554.904 316.232 557.395 316.173 558.348C316.136 558.924 316.472 559.196 316.844 559.41C317.225 559.632 317.756 559.623 318.106 559.877C318.877 560.435 320.642 560.362 320.134 561.769C319.694 562.994 318.237 562.255 317.294 562.109C307.456 560.612 297.556 559.287 287.845 562.318C281.03 564.446 275.703 569.487 274.945 576.611C274.841 577.573 274.932 578.576 275.068 579.542C275.499 582.614 277.169 583.758 280.331 583.495C281.457 583.399 281.18 582.732 281.271 582.138C281.761 578.98 282.069 575.804 283.843 572.977C285.291 570.667 287.287 569.129 289.683 567.99C290.228 567.731 290.754 567.332 291.326 567.904C292.079 568.666 291.248 569.197 290.922 569.628C288.939 572.26 287.269 574.991 286.48 578.281C286.162 579.601 286.13 580.917 285.912 582.224C285.735 583.281 286.557 583.472 287.523 583.472C289.769 583.481 292.074 583.34 294.248 583.794C296.308 584.225 296.417 582.828 296.426 581.807C296.457 575.5 299.18 571.193 304.816 568.966C305.355 568.752 305.895 568.312 306.531 568.544C307.007 568.716 307.647 568.888 307.86 569.26C308.182 569.828 307.529 570.182 307.121 570.481C305.673 571.543 304.158 572.473 303.032 573.966C301.549 575.94 300.664 578.036 300.695 580.536C300.732 583.386 300.981 583.921 303.649 583.744C309.893 583.336 316.159 583.25 322.33 581.92C329.268 580.427 334.881 576.716 339.827 571.906C348.294 563.666 355.898 554.695 361.951 544.495C363.721 541.509 365.64 538.555 365.527 534.853L365.518 534.857Z" fill="white"/>
<path d="M175.041 137.288C180.573 136.004 185.854 134.588 191.213 133.576C201.168 131.698 211.21 130.8 221.378 131.217C231.742 131.639 241.983 132.805 252.11 135.033C259.302 136.617 266.29 138.758 272.76 142.384C280.556 146.753 284.748 153.501 286.196 162.19C287.916 172.508 289.309 182.881 291.605 193.099C292.671 197.845 294.159 202.428 297.53 206.076C301.315 210.169 305.934 211.367 311.302 209.625C314.791 208.495 317.867 206.725 320.758 203.903C317.913 204.402 315.431 205.169 312.795 204.738C306.397 203.685 302.885 199.52 300.666 193.857C299.282 190.322 299.4 186.515 298.638 182.863C297.553 177.654 296.614 172.413 295.711 167.172C294.767 161.686 293.76 156.237 291.509 151.082C287.961 142.965 281.885 137.284 274.199 133.277C264.135 128.036 253.277 125.504 242.069 124.139C233.012 123.036 223.955 122.206 214.826 122.505C205.547 122.809 196.404 123.93 187.524 126.866C181.984 128.694 176.725 132.86 175.037 137.284L175.041 137.288Z" fill="#81FBBF"/>
<path d="M218.845 84.4903C224.549 82.5074 230.062 81.5545 235.566 80.5926C237.912 80.1842 240.303 80.0118 242.667 79.6987C243.252 79.6216 243.769 79.431 244.096 78.7912C250.435 66.4674 257.069 54.2707 260.776 40.7989C263.258 31.7784 264.76 22.5855 265.1 13.2202C265.155 11.6911 264.955 10.1528 264.837 7.92041C239.69 27.9624 225.284 53.6445 218.841 84.4903H218.845Z" fill="white"/>
<path d="M86.3783 304.067C77.6255 284.039 69.1177 264.56 60.61 245.08C60.188 244.118 59.6889 243.165 59.4212 242.158C58.6226 239.159 56.2858 238.192 53.6404 237.489C52.4879 237.181 51.4034 236.627 50.2872 236.178C42.6234 233.101 34.9596 230.025 27.2959 226.944C27.0327 226.84 26.8013 226.567 26.4473 226.849C29.6145 233.328 32.7817 239.826 35.9624 246.315C38.939 252.386 41.9338 258.448 44.9149 264.519C46.5347 267.818 48.141 271.125 49.7518 274.433C50.2464 275.445 51.0132 275.894 52.1657 276.185C56.1587 277.192 60.2198 278.059 63.5775 280.74C68.3282 284.534 69.3537 288.409 66.8853 293.958C66.6403 294.512 66.4588 294.802 67.1712 295.169C73.2877 298.346 79.6401 300.996 86.3828 304.063L86.3783 304.067Z" fill="#81FBBF"/>
<path d="M72.8943 300.592C74.1331 304.131 74.8137 307.321 73.2982 310.574C72.967 311.282 73.4615 311.79 73.8608 312.38C76.606 316.414 79.0018 320.552 76.8828 325.702C76.7421 326.047 76.7376 326.56 76.488 326.728C74.0423 328.411 75.0224 330.353 75.9118 332.399C79.6507 340.989 83.3668 349.592 87.0195 358.218C87.5776 359.529 88.7256 359.869 89.7601 360.346C97.7325 364.021 105.732 367.628 113.723 371.263C114.594 371.658 115.447 372.084 116.672 372.67C113.913 366.499 111.263 360.65 108.677 354.774C103.354 342.668 98.0637 330.544 92.7594 318.429C91.3619 315.239 89.919 312.063 88.5895 308.845C88.1312 307.738 87.5277 307.012 86.3888 306.527C81.9738 304.657 77.6088 302.679 72.8989 300.596L72.8943 300.592Z" fill="#81FBBF"/>
<path d="M358.998 375.102C356.698 377.003 354.357 378.114 351.911 379.008C350.731 379.439 349.334 380.179 348.313 379.199C347.369 378.291 348.167 376.948 348.644 375.968C351.108 370.886 350.84 365.378 351.244 359.978C351.276 359.574 351.031 359.152 350.89 358.64C346.965 362.383 343.317 366.263 339.115 369.539C337.672 370.664 338.407 372.307 338.317 373.709C337.817 381.445 337.6 389.231 334.954 396.636C334.473 397.98 334.836 398.066 335.884 397.97C348.685 396.8 356.884 385.887 359.075 376.132C359.121 375.927 359.048 375.691 359.003 375.102H358.998Z" fill="white"/>
<path d="M56.9019 294.974C57.823 294.843 59.2705 294.802 60.6226 294.416C65.0512 293.159 66.181 289.294 63.2997 285.564C62.5057 284.538 61.5437 283.599 60.3912 283.109C56.126 281.298 51.7201 279.856 47.1055 279.288C44.1108 278.921 41.4745 280.287 40.6623 282.256C39.6504 284.702 40.4264 288.068 42.3865 290.038C45.9621 293.631 50.6493 294.194 55.3093 294.852C55.6723 294.902 56.0443 294.906 56.9019 294.97V294.974Z" fill="white"/>
<path d="M44.6095 300.882C44.5596 305.165 46.9962 307.484 50.2133 309.099C53.031 310.515 56.1574 310.946 59.2292 311.613C61.5932 312.126 63.5262 311.472 65.6452 310.996C67.6871 310.533 68.9939 309.367 69.4476 307.366C69.9921 304.966 69.5247 302.742 67.6462 301.05C65.5318 299.144 63.381 298.214 60.1912 299.049C56.1528 300.101 51.9103 299.385 47.7993 298.409C44.9589 297.733 44.5051 298.2 44.605 300.882H44.6095Z" fill="white"/>
<path d="M63.7415 326.492C65.1572 326.868 66.9359 326.945 68.6102 326.328C74.0234 324.332 74.2639 320.983 71.2102 316.605C70.3662 315.393 69.4497 314.885 67.6528 315.711C63.5147 317.612 59.0407 317.167 54.6303 316.605C53.9315 316.514 53.0512 315.928 52.5521 316.623C52.0212 317.362 52.239 318.374 52.5748 319.218C54.1765 323.257 59.1042 326.546 63.7415 326.492Z" fill="white"/>
<path d="M321.116 282.388C322.277 287.338 322.917 292.161 323.33 297.017C323.407 297.915 323.806 298.01 324.473 297.801C325.322 297.538 326.175 297.266 326.987 296.912C328.584 296.209 331.171 296.39 331.602 294.907C331.892 293.908 329.778 292.234 328.766 290.841C327.196 288.686 325.109 286.957 323.779 284.584C323.28 283.69 322.477 282.801 321.116 282.388Z" fill="white"/>
<path d="M204.754 222.384C203.992 222.42 203.448 222.443 202.953 222.466C202.74 222.951 203.048 223.151 203.253 223.301C207.903 226.74 213.017 228.923 218.88 229.159C228.635 229.558 237.152 226.3 244.616 220.238C246.159 218.986 247.257 218.35 249.349 218.84C252.049 219.476 252.911 218.06 251.772 215.451C250.651 212.883 248.518 211.335 246.05 210.333C243.949 209.48 242.524 210.723 243.187 212.942C243.69 214.634 242.996 215.319 241.907 216.272C237.179 220.397 231.639 223.069 225.695 224.617C220.822 225.887 215.767 225.864 211.17 223.029C207.336 220.664 206.311 216.662 205.14 212.756C204.995 212.266 204.763 211.789 204.682 211.304C204.446 209.865 204.332 208.754 206.352 208.091C211.084 206.535 214.977 203.649 217.609 199.288C218.027 198.594 218.498 197.827 218.58 197.056C218.929 193.789 218.771 192.922 215.563 192.192C207.491 190.35 199.355 190.15 191.215 191.783C188.533 192.319 187.585 194.506 188.624 197.523C190.461 202.85 194.395 206.181 199.287 208.477C200.448 209.021 200.911 209.434 201.006 210.782C201.301 214.852 202.046 218.84 204.759 222.384H204.754Z" fill="#143635"/>
<path d="M246.258 179.183C246.326 176.692 246.009 174.246 245.451 171.828C244.666 168.429 242.079 166.446 238.835 166.737C236.839 166.914 235.459 167.98 234.897 169.858C233.122 175.771 234.325 181.442 236.789 186.851C237.56 188.548 239.284 189.751 241.426 189.397C243.795 189.006 245.188 187.45 245.891 185.209C246.513 183.23 246.349 181.207 246.258 179.187V179.183Z" fill="#143635"/>
<path d="M190.931 173.692C190.885 177.086 191.244 180.421 192.882 183.457C193.694 184.954 194.629 186.547 196.711 186.42C198.989 186.284 200.382 185 201.017 182.822C202.37 178.189 202.179 173.592 200.75 169.014C199.946 166.451 198.649 165.375 196.371 165.38C194.057 165.389 192.26 166.886 191.362 169.105C190.735 170.648 191.044 172.163 190.926 173.688L190.931 173.692Z" fill="#143635"/>
<path d="M244.959 148.623C239.369 148.827 234.046 149.998 229.241 153.02C227.812 153.918 226.627 155.098 227.421 156.863C228.252 158.71 229.899 159.032 231.8 158.428C234.849 157.462 237.504 155.588 240.703 154.889C244.038 154.159 247.296 153.782 250.64 154.581C251.148 154.703 251.688 154.717 252.214 154.744C253.353 154.798 254.383 154.449 254.828 153.36C255.341 152.103 254.542 151.182 253.598 150.51C251.289 148.859 248.593 148.646 245.871 148.591C245.571 148.587 245.267 148.614 244.968 148.632L244.959 148.623Z" fill="#143635"/>
<path d="M202.052 157.566C203.663 157.598 204.521 156.477 204.008 155.17C203.772 154.572 203.382 153.918 202.869 153.56C199.153 150.942 195.155 149.072 190.468 149.113C189.769 149.117 189.161 149.285 188.544 149.544C187.442 150.002 186.421 150.683 186.493 151.944C186.575 153.351 187.954 153.174 188.921 153.378C192.569 154.131 196.154 155.062 199.502 156.763C200.346 157.194 201.335 157.348 202.048 157.566H202.052Z" fill="#143635"/>
<path d="M309.735 185.141C309.735 188.725 311.777 190.758 315.348 190.722C319.11 190.685 321.129 188.585 321.097 184.737C321.075 181.665 318.756 179.373 315.648 179.355C311.46 179.328 309.735 181.016 309.731 185.141H309.735Z" fill="#143635"/>
</g>
<defs>
<clipPath id="clip0_6413_8321">
<rect width="381" height="601.741" fill="white" transform="matrix(-1 0 0 1 381.5 0.320068)"/>
</clipPath>
</defs>
</svg>
