<svg width="62" height="63" viewBox="0 0 62 63" fill="none" xmlns="http://www.w3.org/2000/svg">
<g clip-path="url(#clip0_6413_7222)">
<path fill-rule="evenodd" clip-rule="evenodd" d="M59.1855 7.5332C50.1451 -2.35978 17.8572 -1.01662 3.59892 6.6033C3.3797 6.71632 3.21437 6.91183 3.13927 7.14676C3.0642 7.38171 3.08551 7.63684 3.19856 7.85606C3.31158 8.07528 3.50709 8.24062 3.74201 8.31571C3.97697 8.39079 4.2321 8.36947 4.45132 8.25643C18.5288 1.0498 49.3959 0.688178 57.1191 9.39297C58.5141 10.9944 56.086 32.6403 54.7426 38.4262C53.3996 44.2121 41.8275 54.4408 36.0933 57.8763C32.3222 60.1494 31.883 60.0719 28.1893 57.8763C21.1635 53.5885 7.96424 41.3965 7.52513 38.3745C7.52513 37.9353 2.79819 13.5516 3.23731 11.821C3.25389 11.6269 3.20137 11.4332 3.08908 11.2741C2.97678 11.1149 2.81186 11.0005 2.62343 10.9511C2.43503 10.9017 2.23521 10.9204 2.05924 11.0039C1.88328 11.0875 1.74247 11.2305 1.66166 11.4077C1.17088 13.6033 5.43286 37.6253 5.48452 38.4778C5.82033 43.2048 26.1488 62.5517 32.2447 62.5C38.3405 62.4483 55.931 47.2343 57.7907 39.2526C58.6949 35.0681 62.1819 10.8395 59.1855 7.5332Z" fill="#81FBBF"/>
<path fill-rule="evenodd" clip-rule="evenodd" d="M44.9714 16.0001C44.8379 15.9978 44.7068 16.0359 44.5952 16.1093C44.4835 16.1827 44.3966 16.288 44.3455 16.4117L43.5241 17.5877C41.9204 19.8416 38.3416 24.5259 34.9581 29.1317C32.5526 32.4049 30.2643 35.6192 28.6803 37.6969C28.2026 38.4575 27.6733 39.1844 27.0961 39.8724H26.7245C26.3813 39.7222 26.0537 39.5384 25.7467 39.3236C24.1528 38.0336 22.7095 36.5675 21.4441 34.9529C20.9943 34.4041 20.74 33.7965 20.2902 34.1886C19.9577 34.1886 19.6252 34.4826 19.9186 34.9137L20.2315 35.3644C21.2777 36.8968 22.4417 38.3451 23.7127 39.6959C24.4121 40.4981 25.2544 41.1626 26.1965 41.6559C26.5096 41.7954 26.8526 41.8542 27.1942 41.8268C27.5358 41.7993 27.8652 41.6867 28.1522 41.4992C29.3744 40.3579 30.4876 39.1046 31.4769 37.7557C32.7285 36.168 34.215 34.1689 35.7208 32.0326C39.2607 27.0542 42.9374 21.3508 44.6193 18.6852C45.0407 18.0782 45.3824 17.4195 45.6363 16.7253C45.6445 16.633 45.6333 16.5399 45.6036 16.4522C45.5738 16.3644 45.5263 16.2838 45.4636 16.2156C45.401 16.1473 45.3249 16.0929 45.2401 16.0558C45.1554 16.0187 45.0638 15.9997 44.9714 16.0001Z" fill="#81FBBF" stroke="#81FBBF"/>
</g>
<defs>
<clipPath id="clip0_6413_7222">
<rect width="62" height="62" fill="white" transform="translate(0 0.5)"/>
</clipPath>
</defs>
</svg>
