<svg width="62" height="63" viewBox="0 0 62 63" fill="none" xmlns="http://www.w3.org/2000/svg">
<path fill-rule="evenodd" clip-rule="evenodd" d="M58.5861 38.2286C57.0746 36.4463 55.1681 35.0415 53.018 34.126C50.8679 33.2107 48.5338 32.8098 46.2016 32.9555C43.8694 33.1014 41.6033 33.7896 39.5839 34.9656C37.5645 36.1418 35.8476 37.7731 34.5702 39.7297C30.3257 45.9925 32.5257 55.2571 36.744 57.8451C36.9156 57.9619 37.1264 58.0055 37.3302 57.9668C37.534 57.9278 37.7141 57.8097 37.8308 57.6382C37.9476 57.4664 37.9913 57.2556 37.9525 57.0518C37.9135 56.8479 37.7954 56.6679 37.6239 56.5511C34.2594 54.1961 32.7585 46.1994 36.5369 41.0235C37.6425 39.482 39.0812 38.2095 40.7461 37.3001C42.4111 36.3908 44.2595 35.8682 46.1538 35.7713C48.0484 35.6744 49.9405 36.0054 51.6896 36.7401C53.4386 37.4745 54.9997 38.5936 56.257 40.0144C62.5198 47.4157 58.8447 58.5956 47.8462 59.8896C45.8381 60.1817 43.7908 60.0407 41.8422 59.4754C41.619 59.4 41.3752 59.4163 41.1641 59.5207C40.9528 59.6248 40.7919 59.8087 40.7164 60.0319C40.641 60.2548 40.657 60.499 40.7614 60.71C40.8657 60.9211 41.0497 61.082 41.2729 61.1577C43.447 61.8769 45.7498 62.1239 48.0273 61.8823C50.7343 61.8087 53.3652 60.9715 55.6168 59.4669C57.8685 57.9624 59.6486 55.8521 60.7525 53.3793C61.8564 50.9065 62.2387 48.1721 61.8553 45.4914C61.472 42.8106 60.3386 40.2929 58.5861 38.2286Z" fill="#81FBBF"/>
<path fill-rule="evenodd" clip-rule="evenodd" d="M27.4792 45.837C27.6835 45.7894 27.8641 45.6704 27.9883 45.5011C28.1126 45.3319 28.1723 45.124 28.1565 44.9147C28.141 44.7055 28.0511 44.5086 27.9031 44.3598C27.7551 44.211 27.559 44.1201 27.3497 44.1033C19.5771 44.7259 11.7696 43.4469 4.6019 40.3766C3.41147 40.3766 3.20442 41.6447 4.6019 42.5246C11.6465 46.1439 19.6973 47.3095 27.4792 45.837Z" fill="#81FBBF"/>
<path fill-rule="evenodd" clip-rule="evenodd" d="M9.31231 34.916C18.9135 36.6499 28.0231 37.2193 36.7703 33.5703C36.9684 33.4724 37.1226 33.3035 37.2019 33.0973C37.2815 32.8909 37.2802 32.6623 37.1986 32.4567C37.1172 32.2513 36.9612 32.0839 36.762 31.9883C36.5625 31.8925 36.3347 31.8751 36.1231 31.94C26.8844 35.3818 10.244 33.622 4.03293 31.0082C2.92013 31.0082 2.94602 32.3541 4.03293 33.001C5.66482 33.9483 7.45262 34.5967 9.31231 34.916Z" fill="#81FBBF"/>
<path fill-rule="evenodd" clip-rule="evenodd" d="M24.9689 24.202C19.9483 24.3573 8.53553 24.4091 4.03254 21.6141C2.91975 21.6141 2.16924 22.6234 4.03254 23.7104C7.31922 25.8842 14.3842 27.1264 22.148 27.1781C28.6179 27.1781 35.657 26.6348 40.9363 23.6586C41.7903 22.6234 41.4281 21.3295 40.6777 21.6918C35.7262 23.8033 30.3317 24.6653 24.9689 24.202Z" fill="#81FBBF"/>
<path fill-rule="evenodd" clip-rule="evenodd" d="M44.223 8.26043C44.223 4.87025 38.8918 1.99766 35.8122 2.04942C35.6859 2.0275 35.5562 2.03348 35.4325 2.06695C35.3085 2.10041 35.1935 2.16054 35.0953 2.24314C34.9972 2.32573 34.9184 2.42878 34.8641 2.54508C34.8102 2.66137 34.782 2.7881 34.782 2.91637C34.782 3.04465 34.8102 3.17137 34.8641 3.28767C34.9184 3.40398 34.9972 3.50703 35.0953 3.58961C35.1935 3.6722 35.3085 3.73234 35.4325 3.7658C35.5562 3.79928 35.6859 3.80525 35.8122 3.78334C37.9603 3.78334 42.1528 6.13833 42.1008 8.28632C42.1008 9.6838 40.7035 11.133 37.2098 12.2458C33.4332 13.2727 29.5288 13.7521 25.6158 13.6692C20.44 13.6692 12.8574 14.135 8.19911 12.0129C6.48918 11.4396 4.96806 10.4106 3.79964 9.0368C2.68685 7.09587 7.31923 5.41373 9.36368 4.53382C15.7041 2.51525 22.9503 3.0846 29.6789 3.0846C29.8848 3.0846 30.0824 3.00279 30.2278 2.85719C30.3735 2.71159 30.4552 2.51412 30.4552 2.30821C30.4552 2.1023 30.3735 1.90483 30.2278 1.75923C30.0824 1.61363 29.8848 1.53184 29.6789 1.53184C20.6729 0.988372 12.5986 0.134356 4.83481 3.62805C2.55745 4.63734 0.461229 6.52653 0.771779 8.9074C-0.0304768 13.9798 0.590625 20.0614 0.305952 23.2704C-0.175246 30.4519 -0.0887129 37.6599 0.564745 44.8279C0.838777 47.2981 2.05268 49.5683 3.95493 51.1682C7.16394 53.7561 16.8945 55.5159 23.9854 55.1018C24.2143 55.0884 24.4288 54.9863 24.5835 54.8171C24.7382 54.6479 24.8207 54.4252 24.8136 54.1961C24.8136 52.3327 20.6211 54.5583 10.9682 51.427C9.09679 51.0421 7.33101 50.2563 5.79235 49.1237C4.48929 48.1847 3.57004 46.806 3.20442 45.2417C1.57404 36.0807 2.19514 14.3162 2.22102 11.5989C7.99208 17.4217 18.3955 16.7747 25.6935 16.4124C37.2873 16.0242 40.9363 13.0998 41.8939 12.4011C42.8515 11.7024 42.4633 25.1337 42.6185 26.2465C42.6185 26.4524 42.7004 26.65 42.8459 26.7955C42.9916 26.9412 43.1889 27.0228 43.3948 27.0228C43.6007 27.0228 43.7983 26.9412 43.9438 26.7955C44.0895 26.65 44.1714 26.4524 44.1714 26.2465C45.1807 14.782 44.4819 21.0189 44.223 8.26043Z" fill="#81FBBF"/>
<path fill-rule="evenodd" clip-rule="evenodd" d="M52.5055 41.7082C51.1756 42.8015 49.6978 44.0944 48.2548 45.4393C47.8028 45.8644 47.3855 46.307 46.9248 46.7321C46.6379 46.4371 46.3598 46.1334 46.0555 45.8644C44.1431 43.9382 42.3176 42.2809 41.457 41.5781C41.4335 41.5534 41.4052 41.5338 41.3738 41.5203C41.3424 41.5069 41.3086 41.5 41.2745 41.5C41.2403 41.5 41.2066 41.5069 41.1752 41.5203C41.1438 41.5338 41.1155 41.5534 41.0919 41.5781C41.0441 41.6267 41.0174 41.6922 41.0174 41.7603C41.0174 41.8284 41.0441 41.8939 41.0919 41.9425C41.8308 42.6367 43.2477 44.2679 44.9081 46.0553L46.1859 47.4262C45.7165 47.9208 45.2819 48.3981 44.8472 48.8666C43.2564 50.602 41.9264 52.1291 41.0746 53.0575C41.0268 53.1061 41 53.1716 41 53.2398C41 53.3078 41.0268 53.3733 41.0746 53.4219C41.0981 53.4466 41.1264 53.4663 41.1578 53.4797C41.1892 53.4931 41.223 53.5 41.2571 53.5C41.2912 53.5 41.325 53.4931 41.3564 53.4797C41.3878 53.4663 41.4161 53.4466 41.4396 53.4219C42.4567 52.4588 44.1866 50.8189 46.0903 48.962C46.3598 48.7018 46.6379 48.4154 46.9074 48.1464L47.5333 48.7799C49.3414 50.628 51.0799 52.3026 52.0101 53.1703C52.0664 53.2203 52.1397 53.2469 52.215 53.2447C52.2904 53.2425 52.362 53.2116 52.4154 53.1584C52.4687 53.1052 52.4996 53.0337 52.5018 52.9585C52.504 52.8832 52.4774 52.81 52.4273 52.7539C51.6276 51.8862 50.2367 50.2983 48.6547 48.5803L47.6028 47.4436L48.8024 46.1855C50.2107 44.7538 51.6015 43.3135 52.8967 42.1247C52.9263 42.0991 52.9507 42.0679 52.9683 42.0328C52.9859 41.9978 52.9964 41.9597 52.9992 41.9206C53.002 41.8815 52.9972 41.8423 52.9848 41.8051C52.9724 41.7679 52.9528 41.7335 52.9271 41.7039C52.9015 41.6743 52.8701 41.65 52.8351 41.6324C52.7999 41.6149 52.7618 41.6044 52.7226 41.6016C52.6835 41.5987 52.6441 41.6037 52.6069 41.616C52.5697 41.6283 52.5352 41.6479 52.5055 41.6735V41.7082Z" fill="#81FBBF"/>
</svg>
