<svg width="62" height="63" viewBox="0 0 62 63" fill="none" xmlns="http://www.w3.org/2000/svg">
<g clip-path="url(#clip0_6413_7245)">
<path fill-rule="evenodd" clip-rule="evenodd" d="M61.5035 26.7701C60.6518 24.2593 59.2984 21.9479 57.5254 19.9765C56.6564 19.3825 55.7088 18.913 54.7098 18.5816C54.7098 17.6775 55.0457 15.9984 54.9682 15.1202C54.6261 12.081 53.3228 9.23036 51.2484 6.98327C48.7943 4.40014 42.8531 2.69526 39.3659 5.58837C39.1592 5.76921 39.3659 5.58837 39.0559 4.83926C37.3253 0.628743 28.4133 0.0087899 22.7046 6.87994C22.1486 7.92458 21.7566 9.04844 21.5422 10.2122C20.3899 9.58298 19.115 9.21075 17.8052 9.12111C16.4954 9.03144 15.1817 9.22651 13.9545 9.69285C12.7272 10.1592 11.6155 10.8858 10.6958 11.8227C9.77603 12.7596 9.07008 13.8845 8.62647 15.1202C8.16284 15.7779 7.91399 16.5628 7.91399 17.3675C7.91399 18.1722 8.16284 18.9571 8.62647 19.6148C2.94355 21.5005 -0.956991 29.689 0.205423 35.5271C0.711259 37.3897 1.6282 39.1156 2.88881 40.5773C4.14943 42.0392 5.72165 43.1996 7.48989 43.9738C4.75176 48.2877 6.3533 54.7972 12.6562 58.1036C17.0772 60.2478 22.1282 60.7069 26.8636 59.3953C27.8995 58.8962 28.8855 58.2992 29.8083 57.6128C32.3914 62.185 39.7017 62.0559 44.997 59.7311C47.9242 58.3731 50.3799 56.1731 52.0503 53.4123C53.7207 50.6515 54.5298 47.4551 54.374 44.2322C54.374 43.4313 54.1415 43.5863 54.374 43.5088C58.5327 42.1658 63.6216 34.0804 61.5035 26.7701ZM58.7135 34.0804C57.8706 36.6152 56.32 38.856 54.2448 40.5383C52.6173 41.0549 53.1857 40.9516 52.049 40.9516C50.9126 40.9516 50.4993 42.3724 50.4993 42.3724C50.5049 42.7811 50.6721 43.1712 50.9643 43.4572C53.5473 46.0405 49.4143 57.8453 38.4359 58.3361C32.5722 58.5945 32.5206 55.5981 31.3064 54.3064C30.9969 54.0525 30.6089 53.9137 30.2087 53.9137C29.8083 53.9137 29.4203 54.0525 29.1108 54.3064C25.8302 56.6831 22.8854 58.8786 15.4976 56.2181C9.42723 54.0481 7.74819 48.7269 9.73723 45.3172C10.3077 45.22 10.8578 45.0281 11.3646 44.7488C11.5747 44.6352 11.7571 44.4766 11.8989 44.2844C12.0408 44.0922 12.1386 43.871 12.1855 43.637C12.2323 43.4027 12.227 43.1611 12.17 42.9291C12.1129 42.6972 12.0055 42.4807 11.8554 42.2949C11.3129 41.7008 10.7963 41.8041 10.0214 41.9591C8.92247 41.8348 7.86134 41.4838 6.9053 40.9281C5.94926 40.3722 5.11913 39.6238 4.46762 38.7302C3.55002 37.679 2.90274 36.4199 2.58192 35.0621C1.26451 29.5857 5.63001 21.1647 11.158 21.1647C11.3951 21.1772 11.6288 21.1032 11.8156 20.9565C12.0024 20.8098 12.1297 20.6003 12.1738 20.367C12.218 20.1336 12.176 19.8921 12.0557 19.6873C11.9354 19.4825 11.7449 19.3283 11.5196 19.2532C11.2633 19.2109 11.0122 19.1416 10.7705 19.0466C9.45306 18.1166 9.6339 17.2125 10.3313 15.9984C10.8881 14.1533 12.1487 12.6014 13.8404 11.6782C15.5322 10.755 17.5194 10.5346 19.3723 11.0646C22.8079 11.9687 22.4204 12.7954 22.4721 12.7954C22.5687 12.8269 22.6707 12.8385 22.772 12.8294C22.8732 12.8202 22.9715 12.7906 23.0609 12.7423C23.1503 12.6939 23.229 12.6279 23.2921 12.5482C23.3551 12.4685 23.4014 12.3768 23.4279 12.2787C23.2215 11.5709 23.1747 10.8261 23.2908 10.098C23.407 9.36996 23.6832 8.6767 24.0995 8.06819C28.5941 2.90191 34.9745 2.6436 37.0153 5.30423C37.5575 6.00168 37.4028 7.29324 38.1 8.06819C38.3178 8.23787 38.586 8.32999 38.8621 8.32999C39.1383 8.32999 39.4064 8.23787 39.6242 8.06819C40.448 7.1003 41.571 6.43496 42.8157 6.17761C44.0603 5.92025 45.3553 6.08561 46.4954 6.64746C47.6976 7.00259 48.7958 7.64411 49.6956 8.51694C50.5954 9.38977 51.2701 10.4679 51.6615 11.6588C52.6096 13.8398 52.8181 16.2709 52.2557 18.5816C52.2557 20.5706 53.1857 20.4931 55.6396 21.578C58.9202 25.6852 60.2377 29.0432 58.7135 34.0804Z" fill="#81FBBF"/>
<path fill-rule="evenodd" clip-rule="evenodd" d="M37.0426 30.8269C33.6584 28.5278 29.9901 29.3544 26.8901 27.4169C26.1926 27.0036 25.65 26.7453 25.6758 25.9185C25.7219 25.3506 25.88 24.7975 26.1409 24.291C28.1817 20.0802 36.4742 20.4677 37.4301 22.5085C37.4458 22.6307 37.4903 22.7474 37.56 22.849C37.63 22.9505 37.723 23.0339 37.8315 23.0924C37.94 23.1507 38.0609 23.1824 38.1841 23.1848C38.3071 23.1871 38.4293 23.16 38.5399 23.1058C38.6504 23.0515 38.7465 22.9717 38.8202 22.8729C38.8938 22.7741 38.9429 22.6591 38.963 22.5376C38.9834 22.4161 38.9744 22.2914 38.9369 22.1741C38.8995 22.0567 38.8346 21.9499 38.7476 21.8627C38.4004 21.1811 37.8821 20.6014 37.2435 20.1803C36.6052 19.7592 35.8682 19.511 35.1051 19.4602C34.4249 19.3045 33.7341 19.2009 33.0384 19.1502C33.2629 18.4664 33.3422 17.7432 33.2712 17.0269C33.1999 16.3107 32.9798 15.6172 32.6251 14.991C32.6284 14.8871 32.6111 14.7835 32.5737 14.6865C32.5362 14.5895 32.4796 14.501 32.4073 14.4262C32.335 14.3515 32.2484 14.2921 32.1526 14.2515C32.057 14.211 31.9539 14.1901 31.8501 14.1902C31.1526 14.1902 29.7317 16.7735 30.7392 19.1502C28.8663 19.1299 27.0495 19.7886 25.6248 21.0044C24.2 22.2202 23.2638 23.9108 22.9892 25.7635C22.9171 26.606 23.1034 27.4505 23.5234 28.1842C23.9434 28.9181 24.5771 29.5066 25.34 29.8711C28.8276 32.1186 32.4442 31.2919 35.3892 33.2811C36.4226 33.9528 37.5334 35.5803 37.0426 36.7169C35.5442 40.1786 29.8092 40.7986 26.8901 39.3003C26.2442 38.9644 24.1258 37.8019 24.3067 37.0786C24.3478 36.8489 24.296 36.6126 24.1628 36.4211C24.0296 36.2297 23.8258 36.0992 23.5963 36.0582C23.3667 36.0171 23.1303 36.0688 22.9389 36.2021C22.7476 36.3351 22.617 36.5389 22.5758 36.7686C22.1883 38.5511 24.41 40.1269 25.9859 41.0569C27.3008 41.7376 28.7444 42.1337 30.2226 42.2194C29.9257 43.2538 29.886 44.3452 30.1063 45.3987C30.3269 46.4522 30.8015 47.4357 31.4884 48.2644C31.6021 48.2869 31.7191 48.2866 31.8328 48.2636C31.9462 48.2407 32.0541 48.1954 32.1502 48.1306C32.2463 48.0658 32.3285 47.9826 32.3923 47.886C32.4561 47.7891 32.5 47.6806 32.5217 47.5669C33.1027 45.8229 33.1027 43.9376 32.5217 42.1936C39.8326 41.5478 42.4934 34.6503 37.0426 30.8269Z" fill="#81FBBF"/>
</g>
<defs>
<clipPath id="clip0_6413_7245">
<rect width="62" height="62" fill="white" transform="translate(0 0.5)"/>
</clipPath>
</defs>
</svg>
