<svg width="62" height="63" viewBox="0 0 62 63" fill="none" xmlns="http://www.w3.org/2000/svg">
<g clip-path="url(#clip0_6413_7255)">
<path d="M23.9099 51.1692C21.9797 51.5239 19.9924 51.4082 18.1165 50.8316C16.1984 50.2749 14.3887 49.3963 12.7647 48.2338C9.1585 45.4998 6.44576 41.7563 4.97089 37.4781C3.40647 33.2109 2.78603 28.655 3.15232 24.1248C3.28508 20.7846 4.2506 17.5305 5.9611 14.6585C7.67163 11.7865 10.0729 9.38752 12.9466 7.67975C18.8968 4.33762 25.7052 2.83672 32.509 3.36719C35.6767 3.74332 38.7204 4.82261 41.4174 6.52619C44.1141 8.22974 46.3963 10.5145 48.0969 13.2134C51.8378 18.5885 53.4402 25.1653 52.5913 31.6589C52.5526 31.8583 52.5934 32.065 52.705 32.235C52.8166 32.4049 52.9902 32.5243 53.1889 32.5682C53.2863 32.5951 53.388 32.6013 53.488 32.5865C53.588 32.5718 53.6838 32.5364 53.7693 32.4827C53.8549 32.429 53.9282 32.3579 53.9848 32.2742C54.0416 32.1905 54.0801 32.096 54.0979 31.9965C55.2429 25.0617 53.7409 17.9498 49.8894 12.0703C48.0801 9.01779 45.6101 6.40906 42.6613 4.43555C39.7121 2.46204 36.3587 1.17379 32.8469 0.665316C25.4039 -0.0408728 17.9218 1.52621 11.3878 5.15976C8.15043 7.11925 5.4541 9.85678 3.54396 13.1235C1.63381 16.3903 0.570428 20.0826 0.450466 23.865C0.168113 28.765 0.957148 33.6677 2.76263 38.2316C4.48775 42.8943 7.5629 46.937 11.5957 49.8445C13.4397 51.0517 15.4789 51.9308 17.6229 52.4423C19.7932 53.0248 22.0678 53.1047 24.2736 52.6761C24.5021 52.6205 24.7001 52.4785 24.8261 52.2798C24.952 52.0811 24.9961 51.8414 24.9491 51.611C24.8547 51.4276 24.6991 51.2832 24.5093 51.2026C24.3195 51.1217 24.1075 51.1101 23.9099 51.1692Z" fill="#81FBBF"/>
<path d="M34.9768 56.1835C36.767 54.479 38.4015 52.6185 39.8608 50.6239C40.9737 49.1636 41.7059 47.4495 41.9913 45.6358C42.1765 44.5156 41.9898 43.3655 41.4597 42.3616C40.9296 41.3575 40.0851 40.5549 39.0556 40.0762C38.369 39.7145 37.6133 39.5022 36.8389 39.4528C36.0644 39.4037 35.2881 39.5187 34.5611 39.7905C32.5764 40.45 30.891 41.7946 29.807 43.5833C29.5546 44.0873 29.3376 44.6081 29.1573 45.1421C28.9997 45.6864 28.8868 46.2423 28.8197 46.805C28.8047 47.0103 28.869 47.2139 28.9997 47.3733C29.1302 47.5327 29.3167 47.636 29.521 47.6621C29.6202 47.673 29.7202 47.6639 29.8158 47.6358C29.9114 47.6076 30.0005 47.5609 30.0778 47.4978C30.155 47.435 30.2191 47.3576 30.2663 47.2697C30.3134 47.1821 30.3428 47.0858 30.3524 46.9868C30.4286 46.5423 30.5502 46.107 30.7161 45.6877C30.9241 45.2462 31.1318 44.8305 31.3397 44.4668C32.1026 43.3676 33.1803 42.5254 34.4312 42.0506C34.9391 41.7799 35.5056 41.6383 36.0809 41.6383C36.6562 41.6383 37.223 41.7799 37.7306 42.0506C38.439 42.4859 38.9458 43.1842 39.1406 43.9922C39.3354 44.8006 39.2021 45.6531 38.7699 46.3632C37.2873 49.2664 35.3289 51.9006 32.9765 54.1571C31.9326 55.051 30.9677 56.0332 30.0927 57.0928C29.8998 57.3791 29.7716 57.7043 29.7179 58.0453C29.6639 58.3866 29.6856 58.7353 29.7809 59.0673C29.8675 59.3081 30.0018 59.5289 30.1759 59.7162C30.35 59.9038 30.5603 60.0541 30.7941 60.1582C31.3245 60.3747 31.8856 60.5062 32.4567 60.548L38.588 60.9895H41.3419C41.5467 60.9542 41.7327 60.8472 41.8668 60.6881C42.0006 60.5289 42.0742 60.3274 42.0742 60.1192C42.0742 59.9113 42.0006 59.7098 41.8668 59.5506C41.7327 59.3915 41.5467 59.2845 41.3419 59.2491H38.8477L32.9765 58.4176L32.6128 58.2618L33.0284 57.9242C33.6779 57.1706 34.665 56.4953 34.9768 56.1835Z" fill="#81FBBF"/>
<path d="M60.9044 50.9615C60.2028 50.5977 58.722 50.9615 56.0462 51.403V50.7535C56.0462 48.1557 55.6563 45.8434 55.5267 44.3887C55.5199 44.1841 55.436 43.9896 55.2911 43.8447C55.1464 43.7 54.9519 43.6158 54.7473 43.6093C54.646 43.6093 54.5458 43.6295 54.4528 43.669C54.3595 43.7085 54.2753 43.7664 54.205 43.839C54.1348 43.9118 54.0797 43.9978 54.0436 44.0924C54.0071 44.1867 53.9904 44.2874 53.9937 44.3887C53.8118 45.8176 53.3962 48.1296 53.2143 50.7016V51.6629L51.3959 51.8708C50.1154 51.9478 48.8314 51.9478 47.5509 51.8708H46.5377C46.3031 51.8749 46.0711 51.8215 45.8622 51.7148C46.0701 51.0653 48.4602 45.0121 49.4734 42.7519C49.8304 41.8356 50.2926 40.964 50.8503 40.1541C50.9872 40.0053 51.0632 39.8105 51.0632 39.6085C51.0632 39.4062 50.9872 39.2114 50.8503 39.0629C50.7046 38.92 50.5088 38.84 50.3047 38.84C50.1006 38.84 49.9048 38.92 49.7591 39.0629C49.0231 39.848 48.3863 40.7206 47.8627 41.6607C46.6935 43.7912 45.7322 46.2851 44.719 48.2335C44.0719 49.2637 43.5816 50.3844 43.2644 51.559C43.2 51.9078 43.2207 52.2671 43.3248 52.6063C43.4289 52.9455 43.6131 53.2544 43.8619 53.5074C44.2352 53.8879 44.7004 54.1653 45.2127 54.3128C46.0177 54.5236 46.8498 54.6112 47.6808 54.5725C48.772 54.5725 49.8891 54.4428 51.0322 54.2867C52.1753 54.131 52.539 53.9749 53.2923 53.8192V54.5986C53.3432 56.737 53.5168 58.8709 53.8118 60.9895C53.833 61.2716 53.8855 61.5503 53.9679 61.8208C54.2017 62.4183 54.6173 62.5224 54.8511 62.4963C55.0854 62.4963 55.3099 62.4033 55.4758 62.2377C55.6414 62.0719 55.7344 61.8474 55.7344 61.6131C55.7344 61.6131 56.0201 57.3524 56.15 54.6246V53.2736C57.0333 53.1178 59.7093 52.8321 60.6445 52.5461C61.5797 52.2604 61.5797 51.8966 61.6058 51.6889C61.574 51.5117 61.4903 51.3482 61.3655 51.2188C61.2405 51.0894 61.0801 50.9997 60.9044 50.9615Z" fill="#81FBBF"/>
<path d="M31.5477 29.6064C31.7474 28.941 31.8437 28.2489 31.8334 27.554C31.8334 26.385 31.8334 24.6703 31.6774 22.7479C31.4697 19.2406 31.054 14.954 30.976 11.7845C30.976 11.5503 30.883 11.3256 30.7174 11.1599C30.5515 10.9943 30.327 10.9012 30.0927 10.9012C29.8584 10.9012 29.6337 10.9943 29.4681 11.1599C29.3025 11.3256 29.2095 11.5503 29.2095 11.7845C28.9757 15.032 28.9235 19.3446 28.9235 22.8778V28.0477H27.3128L23.1562 28.3075L16.2197 28.4633C16.1186 28.4563 16.0172 28.4698 15.9214 28.5028C15.8256 28.5359 15.7375 28.5878 15.6623 28.6558C15.5872 28.7237 15.5265 28.8061 15.4838 28.8981C15.4412 28.9901 15.4176 29.0895 15.4143 29.1908C15.4071 29.3933 15.479 29.5904 15.6148 29.7408C15.7506 29.8911 15.9396 29.9828 16.1418 29.996C19.0774 30.282 24.1174 30.8534 27.3389 30.9053C28.45 30.9927 29.5678 30.8782 30.6383 30.5677C30.8512 30.484 31.0429 30.3546 31.2 30.1882C31.357 30.0221 31.4759 29.8234 31.5477 29.6064Z" fill="#81FBBF"/>
</g>
<defs>
<clipPath id="clip0_6413_7255">
<rect width="62" height="62" fill="white" transform="translate(0 0.5)"/>
</clipPath>
</defs>
</svg>
