<svg width="62" height="63" viewBox="0 0 62 63" fill="none" xmlns="http://www.w3.org/2000/svg">
<path fill-rule="evenodd" clip-rule="evenodd" d="M36.2245 43.0803L27.0059 49.923C26.4637 50.3364 25.6632 51.1625 24.811 51.7564C24.5289 52.0274 24.1665 52.1997 23.7781 52.247C22.7307 52.099 21.7652 51.5981 21.041 50.8269C19.6829 49.4704 18.4311 48.0114 17.2968 46.4629C15.2569 43.8806 13.2685 41.2986 11.3577 38.7163C9.44686 36.134 7.69097 33.4228 6.01253 30.6599C2.52654 25.0305 2.73312 27.0189 4.07585 25.5728C4.88286 24.66 5.74523 23.7976 6.65808 22.9906C7.56793 22.1854 8.52505 21.4352 9.52434 20.7441L14.6888 16.6383L16.393 15.3214C16.8062 15.3214 17.2451 15.7862 17.7099 16.1994C18.3508 16.7989 18.9544 17.4371 19.5175 18.1102L22.0997 21.2089L30.5694 32.5447C30.7166 32.7433 30.9367 32.8753 31.1814 32.9118C31.4257 32.9479 31.6748 32.8857 31.8734 32.7384C32.0721 32.5912 32.2041 32.3711 32.2403 32.1264C32.2767 31.8821 32.2142 31.633 32.0672 31.4344L23.9073 19.8403L21.4542 16.5867C20.6101 15.479 19.6395 14.4737 18.5621 13.5914C17.8723 13.0446 17.0149 12.7527 16.1348 12.765C15.6657 12.8475 15.2179 13.023 14.8179 13.2815C14.2199 13.6614 13.6503 14.0843 13.1136 14.5468L7.94918 18.3684C6.83883 19.1173 5.78013 19.892 4.74724 20.7183C3.71574 21.575 2.73299 22.4888 1.80352 23.4554C1.18046 24.0641 0.626257 24.7396 0.150903 25.4695C0.0513735 25.6976 0 25.9437 0 26.1925C0 26.4413 0.0513735 26.6875 0.150903 26.9156C0.397634 27.5731 0.709027 28.2044 1.0805 28.8007C1.80352 30.0143 2.75895 31.2021 3.43031 32.2866C5.10875 35.1012 6.89047 37.8899 8.9046 40.5755C10.9187 43.2609 13.0361 45.7398 15.231 48.3221C16.7331 50.2498 18.4677 51.9845 20.3954 53.4865C21.3886 54.2119 22.5751 54.6255 23.804 54.6743C24.513 54.6425 25.1963 54.3997 25.7665 53.9771C26.6724 53.2726 27.5347 52.5139 28.3487 51.7048C30.1046 50.2589 31.8605 48.761 33.5131 47.341C34.6836 46.3942 35.8714 45.4645 37.0765 44.552C37.2196 44.4164 37.3093 44.2337 37.3297 44.0377C37.3498 43.8416 37.2995 43.6445 37.1871 43.4823C37.075 43.3203 36.9083 43.2035 36.7174 43.1534C36.5268 43.1033 36.3245 43.1232 36.147 43.2095L36.2245 43.0803Z" fill="#81FBBF"/>
<path fill-rule="evenodd" clip-rule="evenodd" d="M23.0293 29.3687C22.0165 28.3767 20.6921 27.7658 19.2803 27.6387C17.8685 27.5116 16.4562 27.8763 15.2827 28.6715C14.6118 29.2225 14.0615 29.9058 13.6661 30.6787C13.2708 31.4519 13.0387 32.298 12.9845 33.1644C12.9108 34.0391 13.0456 34.9187 13.3778 35.7312C13.71 36.5437 14.23 37.2657 14.8953 37.8382C15.92 38.6344 17.1873 39.0536 18.4846 39.026C19.6942 39.0469 20.885 38.7245 21.9189 38.0965C22.1069 37.9834 22.244 37.8023 22.3017 37.5904C22.3594 37.3789 22.3333 37.1531 22.2288 36.9604C22.3567 36.9691 22.485 36.9508 22.6052 36.9061C22.7254 36.8617 22.8347 36.7922 22.926 36.702C23.4774 36.2667 23.9247 35.7139 24.2355 35.0838C24.5463 34.4537 24.7127 33.7624 24.7226 33.06C24.7325 32.3574 24.5857 31.6617 24.2927 31.0231C23.9998 30.3845 23.5682 29.8193 23.0293 29.3687ZM21.5316 35.3336C21.381 35.4997 21.2976 35.716 21.2976 35.9402C21.2976 36.1647 21.381 36.3809 21.5316 36.547H21.2217C20.4096 36.8996 19.5121 37.0074 18.6395 36.857C17.8795 36.7638 17.1761 36.4075 16.6512 35.85C16.3573 35.4959 16.1505 35.0779 16.0473 34.6294C15.9442 34.181 15.9476 33.7147 16.0573 33.2677C16.1386 32.3762 16.5648 31.5516 17.2451 30.9696C17.8333 30.54 18.5504 30.3238 19.2781 30.3566C20.0058 30.3894 20.7005 30.6694 21.2475 31.1504C21.5955 31.3664 21.8872 31.6622 22.0983 32.0133C22.3094 32.3641 22.434 32.7604 22.4617 33.1691C22.4895 33.5777 22.4196 33.9872 22.2579 34.3636C22.0961 34.74 21.8472 35.0725 21.5316 35.3336Z" fill="#81FBBF"/>
<path fill-rule="evenodd" clip-rule="evenodd" d="M44.8231 17.0515C44.5749 15.6992 44.2473 14.3627 43.842 13.049C43.4832 11.9468 43.0161 10.8829 42.4475 9.8729C41.9745 9.02089 41.2419 8.34233 40.356 7.93625C39.7446 7.7162 39.0894 7.64537 38.4451 7.72966C37.3325 7.93264 36.2364 8.21745 35.1656 8.5818C34.9499 8.63316 34.7634 8.76811 34.6471 8.95698C34.5311 9.14585 34.4947 9.37313 34.5459 9.58886C34.5973 9.8046 34.7324 9.99109 34.9212 10.1073C35.1101 10.2235 35.3374 10.26 35.5531 10.2086C36.4051 10.0385 37.2679 9.92635 38.1351 9.8729C38.5363 9.84368 38.938 9.92402 39.2971 10.1053C39.6588 10.3119 39.8135 10.7767 40.0202 11.2157C40.3912 12.1054 40.6681 13.0314 40.8466 13.9786C41.3372 15.4247 41.6728 16.8965 42.0344 18.3684C42.3958 19.8402 42.8864 21.3896 43.2997 22.8873C43.7128 24.3849 43.9453 25.0047 43.9453 25.0305C44.1517 26.115 45.5462 25.2371 45.6495 23.6619C45.1331 21.0022 45.3395 19.7111 44.8231 17.0515Z" fill="#81FBBF"/>
<path fill-rule="evenodd" clip-rule="evenodd" d="M61.9173 43.1833C61.7388 41.3057 61.2955 39.4625 60.6003 37.7092C59.9114 35.9342 58.9344 34.2853 57.7083 32.8288C54.7556 29.4488 50.8031 27.0974 46.424 26.115C45.4943 25.676 44.7971 26.3475 44.8229 27.4578C44.424 28.9034 43.8058 30.2793 42.9895 31.5376C42.0019 32.331 40.8172 32.8414 39.5619 33.0143C38.3067 33.1871 37.0282 33.0158 35.8626 32.5188C35.1416 32.3679 34.3914 32.4493 33.7195 32.7513C32.8851 33.0117 32.1597 33.54 31.6556 34.254C31.1514 34.9683 30.8967 35.8286 30.9308 36.702C30.9266 37.5082 31.1113 38.3042 31.4702 39.0259C31.8287 39.7477 32.3516 40.3757 32.9964 40.8593C33.3322 41.0402 34.0295 41.3757 34.9073 41.7374C36.8957 42.5638 40.0716 43.6483 41.2853 44.3197C41.0789 44.8361 41.8275 46.2045 41.9567 46.592C42.5656 48.3146 43.5041 49.902 44.7198 51.2658C45.1799 51.7943 45.7529 52.2126 46.3967 52.4898C47.0402 52.767 47.7379 52.8956 48.438 52.8667C48.6847 52.8667 48.9211 52.7688 49.0955 52.5944C49.2698 52.42 49.3678 52.1836 49.3678 51.9372C49.3678 51.6905 49.2698 51.4541 49.0955 51.2797C48.9211 51.1054 48.6847 51.0074 48.438 51.0074C48.0216 50.9814 47.6157 50.8636 47.2497 50.6628C46.8839 50.4618 46.5666 50.1828 46.3207 49.8455C45.4013 48.6489 44.7338 47.2787 44.3582 45.8173C44.229 45.3525 44.1773 43.8805 43.9709 43.235C43.8779 42.8769 43.6576 42.5649 43.3512 42.3572C42.741 41.9655 42.1021 41.6204 41.4403 41.3243C39.1938 40.2913 35.527 38.742 34.6748 38.2256C34.4893 38.0298 34.3457 37.7983 34.2524 37.5454C34.1592 37.2923 34.1186 37.0231 34.1325 36.7536C34.1096 36.5276 34.1599 36.3 34.2762 36.1047C34.3924 35.9094 34.5684 35.7567 34.7781 35.6692C35.077 35.6159 35.3831 35.6159 35.682 35.6692C36.9432 35.7932 38.2106 35.8448 39.4777 35.8242C40.6157 35.7239 41.7175 35.3734 42.704 34.7975C43.6906 34.2217 44.5377 33.4348 45.1846 32.493C45.9983 31.1643 46.4274 29.6358 46.424 28.0775C49.9681 29.3769 53.0617 31.6725 55.3327 34.688C56.2859 35.9753 57.0671 37.3817 57.6566 38.8712C58.2614 40.3755 58.6944 41.9433 58.9478 43.545C59.5407 47.4319 59.3652 51.3973 58.4314 55.2165C58.3671 55.4562 58.3983 55.7114 58.519 55.9282C58.6393 56.1452 58.8393 56.3066 59.0767 56.3785C59.3131 56.442 59.5647 56.41 59.7776 56.2891C59.9902 56.1682 60.1467 55.9685 60.2131 55.7329C61.65 51.7145 62.2304 47.4396 61.9173 43.1833Z" fill="#81FBBF"/>
<path fill-rule="evenodd" clip-rule="evenodd" d="M38.3673 26.5025C37.6183 23.9202 36.9469 21.3379 36.2239 18.7557C35.7591 17.0257 35.2169 15.3214 34.7263 13.5913C34.3225 11.7886 33.6708 10.0506 32.7896 8.42687C32.4982 7.92643 32.0947 7.50039 31.6108 7.18228C31.1269 6.86416 30.5757 6.66261 30.0009 6.59351C29.5886 6.56879 29.1776 6.65814 28.8131 6.85174C28.1535 7.24782 27.5157 7.67879 26.9022 8.14284L20.6015 12.1453C20.4856 12.1776 20.3781 12.2349 20.2866 12.3131C20.195 12.3913 20.1217 12.4885 20.0717 12.5981C20.0217 12.7076 19.9963 12.8267 19.9971 12.947C19.9979 13.0674 20.0251 13.1862 20.0766 13.295C20.1282 13.4038 20.2029 13.5 20.2954 13.5769C20.3881 13.6538 20.4963 13.7096 20.6127 13.7402C20.7292 13.7709 20.8509 13.7758 20.9694 13.7545C21.0879 13.7333 21.2003 13.6864 21.2987 13.6171L28.1158 10.3635C29.2778 9.76964 29.6134 8.06536 30.6981 11.1382C31.1628 12.3777 31.4468 13.7204 31.6534 14.4693C32.6604 17.5421 33.6418 20.5891 34.7263 23.6361C35.8108 26.6831 36.508 27.7934 37.67 30.5307C38.1864 32.0282 39.5292 32.3899 39.5292 31.2796C38.987 29.472 38.9095 28.31 38.3673 26.5025Z" fill="#81FBBF"/>
</svg>
