<svg width="62" height="63" viewBox="0 0 62 63" fill="none" xmlns="http://www.w3.org/2000/svg">
<g clip-path="url(#clip0_6413_7276)">
<path fill-rule="evenodd" clip-rule="evenodd" d="M5.96101 31.917C8.54331 33.8795 10.3767 32.0461 8.38837 29.8772L8.18178 29.6705C7.75814 29.2644 7.3097 28.8849 6.83901 28.5344C6.34836 28.1727 5.8319 27.8629 5.31544 27.5529C4.06622 26.8505 2.75166 26.2711 1.39038 25.8229C1.16095 25.7099 0.896029 25.6926 0.653891 25.775C0.411755 25.8573 0.212241 26.0324 0.099238 26.2618C-0.0137646 26.4912 -0.0309984 26.7562 0.051328 26.9983C0.133654 27.2404 0.308796 27.4401 0.538227 27.5529C1.64861 28.3019 2.57823 29.2574 3.63697 30.1352C4.31582 30.7387 5.03163 31.2993 5.78026 31.8139L5.96101 31.917Z" fill="#81FBBF"/>
<path fill-rule="evenodd" clip-rule="evenodd" d="M30.9832 45.9905C30.8977 45.7507 30.7205 45.5549 30.4903 45.4459C30.2604 45.3371 29.9963 45.324 29.7566 45.4095C29.5169 45.4952 29.3211 45.6725 29.212 45.9024C29.1033 46.1325 29.0901 46.3963 29.1756 46.636C29.3195 47.3893 29.1581 48.169 28.7272 48.8035C28.296 49.4377 27.6308 49.875 26.8775 50.0189C26.422 50.0313 25.9702 49.9337 25.5605 49.7347C25.1191 49.5658 24.7154 49.3113 24.3726 48.9861C24.1438 48.7484 23.9283 48.4984 23.7271 48.2372C23.6091 48.0545 23.5219 47.8538 23.4688 47.6433C23.364 47.1519 23.4372 46.6394 23.6754 46.1971C23.8562 46.0163 23.9853 45.8355 24.1402 45.6549C24.3544 45.3542 24.6266 45.0997 24.9407 44.906C25.5086 44.5337 26.1728 44.3356 26.8517 44.3356C27.5306 44.3356 28.1947 44.5337 28.7625 44.906C28.9271 45.0419 29.1369 45.1111 29.3503 45.0997C29.5634 45.0884 29.7646 44.9974 29.9142 44.845C30.0635 44.6923 30.1501 44.489 30.1568 44.2756C30.1635 44.0623 30.0899 43.854 29.9504 43.6923C29.3156 43.0418 28.5207 42.5706 27.6458 42.3257C26.7708 42.0808 25.8465 42.0713 24.9666 42.2978C24.961 41.8954 24.9002 41.4957 24.7858 41.11C24.6981 40.8685 24.5192 40.6709 24.2874 40.5598C24.0556 40.4487 23.7895 40.4329 23.5463 40.5161C23.4246 40.5567 23.3123 40.6213 23.2161 40.706C23.1199 40.7907 23.0417 40.8941 22.9863 41.0098C22.9309 41.1255 22.8993 41.2511 22.8935 41.3792C22.8877 41.5073 22.9077 41.6355 22.9524 41.7556C23.0944 42.1919 23.0944 42.6621 22.9524 43.0984C22.1571 43.5544 21.4976 44.2139 21.0415 45.0093C20.9385 45.0204 20.8346 45.0204 20.7316 45.0093C20.2839 45.0282 19.8389 44.9303 19.4405 44.7251C18.9436 44.6097 18.477 44.3896 18.0719 44.0796C17.8391 43.853 17.6313 43.6019 17.4521 43.3307C17.3166 43.155 17.2198 42.9527 17.1681 42.7368C17.0848 42.1924 17.1777 41.6357 17.4332 41.148C17.6887 40.6603 18.0934 40.2668 18.5883 40.0255C19.1537 39.6468 19.8188 39.4448 20.4992 39.4448C21.1796 39.4448 21.8447 39.6468 22.4101 40.0255C22.5745 40.1829 22.7947 40.2686 23.0223 40.264C23.2499 40.2591 23.4662 40.164 23.6238 39.9997C23.7813 39.8352 23.8671 39.6151 23.8622 39.3875C23.8574 39.1599 23.7623 38.9434 23.5979 38.7861C23.0744 38.2306 22.4278 37.8059 21.7103 37.5458C20.9927 37.2857 20.2241 37.1973 19.4663 37.2882C19.5584 36.5672 19.4513 35.8351 19.1564 35.1707C19.0708 34.931 18.8935 34.7351 18.6635 34.6261C18.4334 34.5174 18.1695 34.5042 17.9298 34.5897C17.6901 34.6755 17.4943 34.8527 17.3853 35.0826C17.2763 35.3128 17.2632 35.5765 17.3488 35.8163C17.4379 36.1955 17.44 36.59 17.355 36.97C17.2701 37.3502 17.1002 37.706 16.8582 38.0113C16.3555 38.2787 15.8944 38.6179 15.4896 39.0183C15.3408 39.0935 15.1852 39.1539 15.0248 39.1991C14.5789 39.1991 14.1383 39.1023 13.7336 38.915C13.2922 38.746 12.8886 38.4916 12.5458 38.1663C12.3098 37.9354 12.0938 37.6848 11.9002 37.4174C11.7667 37.234 11.6782 37.0216 11.642 36.7977C11.535 36.2451 11.6233 35.6726 11.8917 35.1779C12.1602 34.6835 12.5922 34.2975 13.1139 34.0862C13.6817 33.7139 14.3458 33.5158 15.0248 33.5158C15.7037 33.5158 16.3678 33.7139 16.9357 34.0862C17.1025 34.1841 17.2976 34.2223 17.4891 34.1944C17.6805 34.1668 17.8567 34.0748 17.9889 33.9335C18.1211 33.7925 18.2013 33.6103 18.2164 33.4176C18.2315 33.2247 18.1805 33.0325 18.0719 32.8726C17.2562 32.1453 16.2573 31.655 15.1831 31.4548C14.109 31.2546 13.0005 31.352 11.9777 31.7364C10.9003 32.0849 9.98393 32.809 9.39539 33.7762C8.65188 34.8165 8.32065 36.0955 8.46576 37.3657C8.55677 37.9093 8.74018 38.4334 9.00805 38.915C9.37429 39.4895 9.80775 40.0183 10.2992 40.4903C11.0508 41.1369 11.9444 41.597 12.9073 41.8331C13.3012 41.954 13.7092 42.0235 14.121 42.0395C14.0691 42.4598 14.0691 42.8848 14.121 43.3048C14.2166 43.8429 14.4091 44.3591 14.6891 44.8285C15.0386 45.4226 15.4736 45.962 15.9802 46.4296C16.729 47.0656 17.6117 47.5244 18.5625 47.7722C19.1761 47.9398 19.8123 48.0096 20.4476 47.9789C20.4602 48.0471 20.4602 48.1171 20.4476 48.1855C20.536 48.7334 20.7289 49.2594 21.0157 49.7347C21.3657 50.3209 21.8008 50.8518 22.3068 51.3101C23.0453 51.9613 23.9318 52.4222 24.8891 52.6529C25.8343 52.9213 26.8359 52.9213 27.7811 52.6529C28.473 52.4392 29.1152 52.0892 29.6696 51.6237C30.2239 51.1579 30.6794 50.586 31.009 49.9414C31.2934 49.3209 31.4386 48.6456 31.4342 47.9631C31.4298 47.2806 31.2759 46.6074 30.9832 45.9905Z" fill="#81FBBF"/>
<path fill-rule="evenodd" clip-rule="evenodd" d="M27.8844 16.9143C28.2358 16.9815 28.5812 17.0765 28.9175 17.1984C30.6992 17.9214 31.6804 16.0363 30.3892 15.21C29.7465 14.8256 29.0503 14.5384 28.3236 14.3579C26.7108 14.0104 25.0485 13.9579 23.4172 14.2029C21.9765 14.3004 20.5295 14.231 19.1048 13.9963L13.8111 12.008C12.5882 11.4935 11.3164 11.1042 10.0151 10.8459C9.90481 10.8551 9.79763 10.8871 9.70032 10.9398C9.60303 10.9925 9.5177 11.0649 9.44976 11.1522C9.38182 11.2396 9.33271 11.3401 9.30558 11.4474C9.27843 11.5547 9.27383 11.6664 9.29207 11.7756C9.30943 11.9683 9.39391 12.1489 9.53074 12.2857C9.66761 12.4226 9.84816 12.5071 10.0409 12.5244C10.0409 12.5244 10.3508 12.6794 10.6349 12.8343C12.2359 13.6606 15.6187 15.7781 17.9169 16.9401C18.861 17.4792 19.908 17.8136 20.9898 17.9214L23.9078 17.3275C25.2061 16.9962 26.5458 16.857 27.8844 16.9143Z" fill="#81FBBF"/>
<path fill-rule="evenodd" clip-rule="evenodd" d="M61.7641 10.5099C61.6301 10.2878 61.4136 10.1279 61.162 10.0649C60.9104 10.002 60.6443 10.0413 60.4213 10.1742L55.8251 12.7564C55.0015 13.2287 54.1371 13.6262 53.2428 13.9443C52.7173 14.1132 52.1673 14.1917 51.6158 14.1767C50.7514 14.1635 49.8891 14.0945 49.0335 13.9701C48.2735 13.8391 47.523 13.6579 46.787 13.4279C45.7025 13.0663 44.6694 12.6015 43.585 12.2916C42.748 12.0381 41.8769 11.9162 41.0027 11.9301C40.3054 11.9626 39.6175 12.102 38.9626 12.3433C38.0489 12.6471 37.1804 13.0727 36.3803 13.6086C35.7347 13.996 29.7954 19.4962 29.2273 20.0901C28.2325 21.0325 27.3645 22.1002 26.645 23.2663C26.1487 24.1438 25.8656 25.1257 25.8188 26.1327C25.7609 26.7216 25.8377 27.316 26.0436 27.8706C26.2492 28.4255 26.5786 28.9262 27.0067 29.3346C27.614 29.8149 28.3216 30.1525 29.077 30.3222C29.8323 30.4922 30.6164 30.4899 31.3707 30.316C32.704 30.0492 33.953 29.4646 35.0116 28.6118C36.0667 27.7725 37.0512 26.8484 37.9556 25.8486C39.2705 26.4012 40.6653 26.7412 42.0871 26.8557C42.7565 26.9329 43.4323 26.9329 44.1014 26.8557C44.7648 26.7596 45.4147 26.5862 46.0381 26.3392C47.4628 25.7401 48.7534 24.8621 49.834 23.757C49.9286 23.695 50.0092 23.6142 50.0712 23.5198C50.1332 23.4253 50.1753 23.3191 50.1947 23.2078C50.2141 23.0965 50.2104 22.9824 50.1838 22.8725C50.1575 22.7626 50.1087 22.6594 50.0407 22.5691C49.9761 22.4775 49.8945 22.3995 49.7999 22.3395C49.7054 22.2796 49.5997 22.2389 49.4894 22.2197C49.3791 22.2005 49.2662 22.2032 49.157 22.2277C49.0477 22.2523 48.9443 22.2981 48.8529 22.3625C47.6651 22.8662 46.414 23.205 45.1342 23.3697L42.8877 23.757C42.3713 23.757 41.9063 23.9378 41.3899 23.9636C40.5821 24.0282 39.7704 24.0282 38.9626 23.9636C38.9879 23.8706 38.9879 23.7725 38.9626 23.6795C38.8856 23.5999 38.7934 23.5365 38.6913 23.4933C38.5893 23.45 38.4795 23.4277 38.3687 23.4277C38.2579 23.4277 38.1481 23.45 38.046 23.4933C37.944 23.5365 37.8518 23.5999 37.7748 23.6795C36.5552 24.8906 35.2429 26.0043 33.8497 27.0107C33.0171 27.5839 32.062 27.9554 31.061 28.0951C30.3678 28.2083 29.6569 28.0807 29.0467 27.7337C28.8039 27.6012 28.6101 27.394 28.4939 27.1429C28.3776 26.8918 28.3451 26.6102 28.4012 26.3392C28.5094 25.7482 28.738 25.1857 29.0726 24.6866C29.7156 23.7859 30.4608 22.9627 31.2932 22.2334C32.5585 20.9681 33.8755 19.6512 35.2183 18.3858C36.0636 17.608 36.9703 16.8999 37.9298 16.2684C38.4289 15.9313 38.9559 15.6376 39.5048 15.3904C40.5222 14.944 41.6622 14.8619 42.7327 15.158C43.7914 15.3904 44.7986 15.7777 45.8573 16.0876C46.7826 16.318 47.7232 16.4819 48.6721 16.5782C49.601 16.6296 50.5321 16.6296 51.4608 16.5782C52.2898 16.5542 53.1092 16.3973 53.8883 16.1134C54.9131 15.6842 55.8982 15.1658 56.832 14.5641L61.2994 11.7494C61.5218 11.6428 61.6947 11.4542 61.7812 11.2232C61.868 10.9921 61.8618 10.7365 61.7641 10.5099Z" fill="#81FBBF"/>
<path fill-rule="evenodd" clip-rule="evenodd" d="M47.949 36.6685C47.7912 36.2166 47.6013 35.7764 47.3809 35.3515C46.6506 34.0983 45.7847 32.9291 44.7986 31.8653L42.0357 28.7149C41.8955 28.5524 41.6991 28.4488 41.486 28.4248C41.2726 28.4008 41.0582 28.4581 40.8854 28.5852C40.7126 28.7123 40.594 28.9001 40.5534 29.1109C40.5131 29.3217 40.5537 29.54 40.6671 29.7221L42.7072 33.3889C43.3783 34.4607 43.9655 35.5832 44.463 36.746C44.7774 37.3975 44.9867 38.0947 45.0828 38.8116C45.1649 39.2632 45.15 39.7271 45.0386 40.1725C44.9273 40.6179 44.7222 41.0343 44.4372 41.3939C44.0753 41.8062 43.6126 42.1175 43.0944 42.2978C43.0564 42.2009 43.0133 42.1061 42.9652 42.0136C42.4207 41.204 41.8164 40.4357 41.1577 39.7155L37.4392 35.5065C37.3679 35.4013 37.2767 35.3112 37.1708 35.2414C37.0646 35.1714 36.9461 35.1231 36.8213 35.0991C36.5694 35.0508 36.3088 35.1043 36.0964 35.2481C35.8841 35.392 35.7376 35.6142 35.6893 35.8661C35.6407 36.118 35.6944 36.3786 35.8381 36.591L38.7304 41.5231C39.2222 42.2141 39.679 42.9294 40.099 43.6665C40.3222 44.0472 40.4958 44.4551 40.6154 44.8801C40.7588 45.1756 40.8012 45.5102 40.7358 45.8321C40.6707 46.1539 40.5012 46.4456 40.254 46.6618C39.8846 46.9674 39.4374 47.164 38.9629 47.2299V46.9977C38.6885 46.4115 38.3509 45.8571 37.9556 45.3448C37.3359 44.5959 36.742 43.8729 36.0706 43.1759C35.3992 42.4786 34.7794 41.8072 34.0822 41.1617C33.9406 40.9886 33.737 40.878 33.5146 40.854C33.2925 40.8297 33.0698 40.894 32.8944 41.0325C32.7197 41.1784 32.6086 41.3867 32.5844 41.6132C32.5603 41.8398 32.6252 42.0666 32.7652 42.2461C33.1785 42.8659 33.5399 43.4598 33.9013 44.1054C34.263 44.7509 34.9086 45.9904 35.3733 46.9718L36.0964 48.7277L35.735 49.3475C35.5606 49.6265 35.331 49.8667 35.06 50.0532C34.789 50.2397 34.4826 50.3687 34.1597 50.4319C33.5358 50.5978 32.8727 50.5242 32.3005 50.2253C32.1938 50.1591 32.0749 50.1145 31.9509 50.0943C31.8269 50.0739 31.7001 50.0783 31.5776 50.1072C31.4554 50.1359 31.34 50.1886 31.2379 50.262C31.1359 50.3356 31.0496 50.4283 30.9835 50.5353C30.8484 50.7549 30.805 51.0189 30.8631 51.2702C30.921 51.5216 31.0757 51.7399 31.2935 51.8781C32.1235 52.5976 33.1907 52.984 34.2888 52.9626C35.0042 52.9809 35.7159 52.8505 36.3782 52.5792C37.0404 52.3082 37.6392 51.9024 38.1365 51.3875C38.5134 50.9998 38.827 50.5554 39.0659 50.0705C39.1447 49.8184 39.1969 49.5588 39.2209 49.2958C40.1096 49.3578 40.9993 49.1886 41.8032 48.8052C42.5633 48.3797 43.1724 47.729 43.5473 46.9429C43.9218 46.1565 44.0433 45.2735 43.895 44.4154C44.8498 44.2363 45.7402 43.8088 46.4773 43.1759C47.0655 42.6398 47.5403 41.9909 47.873 41.2678C48.2055 40.5448 48.3897 39.7623 48.414 38.9666C48.3548 38.1844 48.1985 37.4122 47.949 36.6685Z" fill="#81FBBF"/>
<path fill-rule="evenodd" clip-rule="evenodd" d="M61.9708 33.4923C61.9408 33.3701 61.8865 33.2549 61.8119 33.1536C61.737 33.0524 61.6429 32.9668 61.5349 32.902C61.427 32.8372 61.3071 32.7943 61.1826 32.7759C61.0578 32.7576 60.931 32.764 60.8088 32.795C59.2337 32.9759 57.7101 33.0276 56.1864 33.2856C55.1497 33.4523 54.1298 33.7116 53.1394 34.0604C52.0006 34.4897 50.9172 35.0534 49.9115 35.7388C47.7942 36.6168 49.0595 38.3211 51.0479 37.753L53.4494 37.2624L55.2569 36.8235L57.0387 36.2554C58.459 35.7646 59.8535 35.2223 61.2735 34.6543C61.396 34.624 61.5109 34.5701 61.6122 34.4951C61.7137 34.4205 61.7992 34.3262 61.8638 34.2182C61.9287 34.1102 61.9715 33.9906 61.9899 33.8658C62.0082 33.7413 62.0018 33.6142 61.9708 33.4923Z" fill="#81FBBF"/>
</g>
<defs>
<clipPath id="clip0_6413_7276">
<rect width="62" height="62" fill="white" transform="translate(0 0.5)"/>
</clipPath>
</defs>
</svg>
