<svg width="62" height="63" viewBox="0 0 62 63" fill="none" xmlns="http://www.w3.org/2000/svg">
<g clip-path="url(#clip0_6509_10070)">
<path fill-rule="evenodd" clip-rule="evenodd" d="M61.6734 7.16051C61.5342 6.74309 61.2728 6.37716 60.923 6.11023C60.5732 5.84329 60.1513 5.68772 59.7119 5.6637C58.8307 5.72663 58.0035 6.1126 57.3892 6.74759C54.2223 9.95348 51.3143 13.4052 48.6924 17.0705C42.2406 25.6384 34.4467 37.0452 30.9628 42.31L29.6982 44.2454C26.1797 42.9682 22.5252 42.1023 18.8076 41.6647C17.0926 41.3764 15.3369 41.4379 13.6462 41.8452C13.419 41.9362 13.2127 42.0723 13.0397 42.2454C12.8666 42.4182 12.7306 42.6246 12.6397 42.8517C12.555 43.3606 12.5852 43.8819 12.7281 44.3777C12.871 44.8734 13.123 45.3307 13.4656 45.7164C15.2332 47.883 17.2517 49.8321 19.4786 51.5229C24.382 55.4715 30.5758 59.2652 32.7951 59.5491C32.9106 59.5636 33.0276 59.5548 33.1395 59.5235C33.2516 59.4923 33.3562 59.439 33.4474 59.367C33.5386 59.2949 33.6146 59.2055 33.6711 59.104C33.7275 59.0022 33.7631 58.8903 33.7758 58.7749C33.7975 58.5393 33.7259 58.3044 33.5763 58.121C33.4268 57.9376 33.211 57.8203 32.9757 57.7942C29.1865 56.3284 25.6902 54.1959 22.6529 51.4971C20.0012 49.5273 17.5852 47.2586 15.4527 44.7357C15.2542 44.4725 15.0731 44.1969 14.9108 43.9098C15.1106 43.8398 15.3189 43.7964 15.5301 43.7809C18.1477 43.8794 20.7454 44.2777 23.2723 44.968C25.418 45.4567 27.5099 46.1571 29.5176 47.0584C29.7362 47.1891 29.9896 47.2493 30.2436 47.231C30.4975 47.2124 30.7398 47.1163 30.9369 46.9551C31.1588 46.8254 31.3311 46.6257 31.4272 46.3875V46.2584C31.7112 45.8197 32.279 44.9421 33.1307 43.6776C36.6662 38.5161 44.5374 27.2644 50.9893 18.7737C53.8795 14.9543 56.4603 11.6768 58.2668 9.79284C58.4998 9.54926 58.7594 9.33281 59.041 9.14766C58.9118 9.87027 58.6024 10.8251 58.3701 11.7284C56.1676 18.667 53.3879 25.409 50.0601 31.8837C46.1414 40.1555 41.6306 48.1333 36.5629 55.7555C36.502 55.8368 36.4575 55.9293 36.4325 56.0277C36.4071 56.1262 36.4015 56.2287 36.4159 56.3295C36.4304 56.43 36.4642 56.5268 36.5162 56.6144C36.5678 56.702 36.6365 56.7782 36.7179 56.8394C36.8861 56.9639 37.0969 57.0174 37.3043 56.9885C37.5118 56.9596 37.6996 56.8505 37.8275 56.6844C46.2809 44.4934 53.4832 31.4812 59.3249 17.8447C60.4484 15.3593 61.3131 12.7649 61.9057 10.1025C62.0865 9.11839 62.0064 8.10407 61.6734 7.16051Z" fill="#81FBBF"/>
<path fill-rule="evenodd" clip-rule="evenodd" d="M23.4789 36.8128C26.7307 32.3483 31.221 26.4901 35.4277 21.0705L40.5889 14.3606C43.1697 11.1864 45.131 8.50241 46.5763 6.95398C46.8344 6.69591 47.0667 6.38622 47.2731 6.15398C47.2976 6.28185 47.2976 6.41319 47.2731 6.54106C47.2082 7.65998 47.0178 8.76805 46.7052 9.8444C46.4213 11.4444 45.7763 13.4058 45.0021 15.4704C44.9393 15.5681 44.8992 15.6787 44.885 15.794C44.8708 15.9093 44.8827 16.0263 44.9199 16.1364C44.9571 16.2465 45.0183 16.3468 45.0997 16.4299C45.1808 16.513 45.2798 16.5767 45.3888 16.6164C45.4981 16.6562 45.6148 16.6708 45.7303 16.6592C45.846 16.6477 45.9574 16.6103 46.0566 16.5498C46.1558 16.4893 46.24 16.4072 46.3033 16.3097C46.3663 16.2122 46.4069 16.1017 46.4213 15.9865C47.8716 13.0378 48.9383 9.91554 49.5957 6.69591C49.8021 4.57972 48.899 3.57325 47.7117 3.44421C46.9814 3.45811 46.2824 3.74329 45.7504 4.24425C42.9821 6.75171 40.459 9.51693 38.2149 12.5025C36.5889 14.5671 34.8341 16.9155 33.0534 19.3414C29.0017 24.9674 24.9757 31.161 21.9562 35.8064C21.8658 36.0004 21.8471 36.2202 21.9036 36.4266C21.9601 36.633 22.0881 36.8128 22.2648 36.9337C22.4414 37.0546 22.6553 37.1086 22.8682 37.0867C23.0811 37.0645 23.2792 36.9676 23.4273 36.8128H23.4789Z" fill="#81FBBF"/>
<path fill-rule="evenodd" clip-rule="evenodd" d="M17.1561 57.278C15.7109 56.9941 13.0269 53.923 10.2914 50.4133C9.18166 49.0196 8.09774 47.497 7.06547 46.0777C6.03317 44.6581 4.89767 42.955 4.09763 41.6129C3.54728 40.7976 3.0722 39.9337 2.67825 39.0324V38.9033C5.01733 38.863 7.34907 39.1761 9.59455 39.8322C9.69115 39.8679 9.79381 39.8841 9.89665 39.88C9.99952 39.8759 10.1006 39.8516 10.194 39.8085C10.2875 39.7653 10.3715 39.7043 10.4414 39.6287C10.5112 39.553 10.5654 39.4644 10.601 39.3677C10.6366 39.2711 10.6528 39.1686 10.6488 39.0657C10.6447 38.9629 10.6204 38.8619 10.5772 38.7684C10.5341 38.6749 10.473 38.5909 10.3974 38.5209C10.3217 38.4512 10.2331 38.3969 10.1365 38.3613C7.84962 37.4429 5.44177 36.8604 2.98794 36.6322C2.23611 36.5194 1.46774 36.6178 0.768514 36.9162C0.493784 37.0655 0.276053 37.3013 0.149142 37.587C-0.0181764 38.2856 -0.045021 39.0102 0.0701678 39.7191C0.185357 40.4279 0.440283 41.1068 0.820129 41.7162C1.92908 43.9901 3.26955 46.1433 4.82024 48.1423C8.89778 53.536 14.5754 58.8523 16.8464 59.1876C16.96 59.2101 17.0768 59.2101 17.1903 59.1871C17.3038 59.1641 17.4116 59.1189 17.5076 59.0543C17.6035 58.9895 17.6857 58.9063 17.7494 58.8097C17.8131 58.713 17.857 58.6045 17.8787 58.4909C17.9319 58.3643 17.9546 58.2268 17.945 58.0899C17.9354 57.953 17.8938 57.82 17.8235 57.7022C17.7532 57.5841 17.6562 57.4841 17.5403 57.4105C17.4243 57.3369 17.2927 57.2914 17.1561 57.278Z" fill="#81FBBF"/>
</g>
<defs>
<clipPath id="clip0_6509_10070">
<rect width="62" height="62" fill="white" transform="translate(0 0.5)"/>
</clipPath>
</defs>
</svg>
