<svg width="40" height="40" viewBox="0 0 40 40" fill="none" xmlns="http://www.w3.org/2000/svg">
<mask id="mask0_3290_9016" style="mask-type:alpha" maskUnits="userSpaceOnUse" x="0" y="0" width="40" height="40">
<rect width="40" height="40" fill="#D9D9D9"/>
</mask>
<g mask="url(#mask0_3290_9016)">
<path d="M13.3333 11.6667C11.9444 11.6667 10.7638 11.1806 9.79159 10.2084C8.81936 9.23619 8.33325 8.05564 8.33325 6.66675C8.33325 5.27786 8.81936 4.0973 9.79159 3.12508C10.7638 2.15286 11.9444 1.66675 13.3333 1.66675C14.3888 1.66675 15.3471 1.97925 16.2083 2.60425C17.0694 3.22925 17.6944 4.02786 18.0833 5.00008H29.9999C30.4721 5.00008 30.868 5.1598 31.1874 5.47925C31.5069 5.79869 31.6666 6.19453 31.6666 6.66675C31.6666 7.11119 31.4652 7.42369 31.0624 7.60425C30.6596 7.7848 30.3055 8.02786 29.9999 8.33341V10.0001C29.9999 10.4723 29.8402 10.8681 29.5208 11.1876C29.2013 11.507 28.8055 11.6667 28.3333 11.6667C27.861 11.6667 27.4652 11.507 27.1458 11.1876C26.8263 10.8681 26.6666 10.4723 26.6666 10.0001V8.33341H18.0833C17.6944 9.30564 17.0694 10.1042 16.2083 10.7292C15.3471 11.3542 14.3888 11.6667 13.3333 11.6667ZM13.3333 8.33341C13.8055 8.33341 14.2013 8.17369 14.5208 7.85425C14.8402 7.5348 14.9999 7.13897 14.9999 6.66675C14.9999 6.19453 14.8402 5.79869 14.5208 5.47925C14.2013 5.1598 13.8055 5.00008 13.3333 5.00008C12.861 5.00008 12.4652 5.1598 12.1458 5.47925C11.8263 5.79869 11.6666 6.19453 11.6666 6.66675C11.6666 7.13897 11.8263 7.5348 12.1458 7.85425C12.4652 8.17369 12.861 8.33341 13.3333 8.33341ZM14.9999 29.1667C15.4721 29.1667 15.868 29.007 16.1874 28.6876C16.5069 28.3681 16.6666 27.9723 16.6666 27.5001C16.6666 27.0279 16.5069 26.632 16.1874 26.3126C15.868 25.9931 15.4721 25.8334 14.9999 25.8334C14.5277 25.8334 14.1319 25.9931 13.8124 26.3126C13.493 26.632 13.3333 27.0279 13.3333 27.5001C13.3333 27.9723 13.493 28.3681 13.8124 28.6876C14.1319 29.007 14.5277 29.1667 14.9999 29.1667ZM24.9999 29.1667C25.4721 29.1667 25.868 29.007 26.1874 28.6876C26.5069 28.3681 26.6666 27.9723 26.6666 27.5001C26.6666 27.0279 26.5069 26.632 26.1874 26.3126C25.868 25.9931 25.4721 25.8334 24.9999 25.8334C24.5277 25.8334 24.1319 25.9931 23.8124 26.3126C23.493 26.632 23.3333 27.0279 23.3333 27.5001C23.3333 27.9723 23.493 28.3681 23.8124 28.6876C24.1319 29.007 24.5277 29.1667 24.9999 29.1667ZM9.99992 36.6667C9.5277 36.6667 9.13186 36.507 8.81242 36.1876C8.49297 35.8681 8.33325 35.4723 8.33325 35.0001V24.8751C8.33325 24.6806 8.34714 24.4931 8.37492 24.3126C8.4027 24.132 8.44436 23.9584 8.49992 23.7917L10.7499 17.2501C10.9721 16.5834 11.3749 16.0417 11.9583 15.6251C12.5416 15.2084 13.1944 15.0001 13.9166 15.0001H26.0833C26.8055 15.0001 27.4583 15.2084 28.0416 15.6251C28.6249 16.0417 29.0277 16.5834 29.2499 17.2501L31.4999 23.7917C31.5555 23.9584 31.5971 24.132 31.6249 24.3126C31.6527 24.4931 31.6666 24.6806 31.6666 24.8751V35.0001C31.6666 35.4723 31.5069 35.8681 31.1874 36.1876C30.868 36.507 30.4721 36.6667 29.9999 36.6667C29.5277 36.6667 29.1319 36.507 28.8124 36.1876C28.493 35.8681 28.3333 35.4723 28.3333 35.0001V33.3334H11.6666V35.0001C11.6666 35.4723 11.5069 35.8681 11.1874 36.1876C10.868 36.507 10.4721 36.6667 9.99992 36.6667ZM12.7499 21.6667H27.2499L26.0833 18.3334H13.9166L12.7499 21.6667Z" fill="white"/>
</g>
</svg>
