<svg width="40" height="40" viewBox="0 0 40 40" fill="none" xmlns="http://www.w3.org/2000/svg">
<mask id="mask0_3290_8833" style="mask-type:alpha" maskUnits="userSpaceOnUse" x="0" y="0" width="40" height="40">
<rect width="40" height="40" fill="#D9D9D9"/>
</mask>
<g mask="url(#mask0_3290_8833)">
<path d="M20 36.6666C17.0556 36.6666 14.6528 36.2013 12.7917 35.2708C10.9306 34.3402 10 33.1388 10 31.6666C10 30.6944 10.4028 29.8471 11.2083 29.1249C12.0139 28.4027 13.125 27.8333 14.5417 27.4166L15.5 30.5833C15.0278 30.7221 14.5972 30.8958 14.2083 31.1041C13.8194 31.3124 13.5556 31.4999 13.4167 31.6666C13.7778 32.111 14.6111 32.4999 15.9167 32.8333C17.2222 33.1666 18.5833 33.3333 20 33.3333C21.4167 33.3333 22.7847 33.1666 24.1042 32.8333C25.4236 32.4999 26.2639 32.111 26.625 31.6666C26.4861 31.4999 26.2222 31.3124 25.8333 31.1041C25.4444 30.8958 25.0139 30.7221 24.5417 30.5833L25.5 27.4166C26.9167 27.8333 28.0208 28.4027 28.8125 29.1249C29.6042 29.8471 30 30.6944 30 31.6666C30 33.1388 29.0694 34.3402 27.2083 35.2708C25.3472 36.2013 22.9444 36.6666 20 36.6666ZM20 31.6666C19.6944 31.6666 19.4167 31.5763 19.1667 31.3958C18.9167 31.2152 18.7361 30.9721 18.625 30.6666C17.9861 28.6944 17.1806 27.0416 16.2083 25.7083C15.2361 24.3749 14.2917 23.0971 13.375 21.8749C12.4861 20.6527 11.7153 19.3888 11.0625 18.0833C10.4097 16.7777 10.0833 15.1666 10.0833 13.2499C10.0833 10.4721 11.0417 8.12492 12.9583 6.20825C14.875 4.29159 17.2222 3.33325 20 3.33325C22.7778 3.33325 25.125 4.29159 27.0417 6.20825C28.9583 8.12492 29.9167 10.4721 29.9167 13.2499C29.9167 15.1666 29.5972 16.7777 28.9583 18.0833C28.3194 19.3888 27.5417 20.6527 26.625 21.8749C25.7361 23.0971 24.7986 24.3749 23.8125 25.7083C22.8264 27.0416 22.0139 28.6944 21.375 30.6666C21.2639 30.9721 21.0833 31.2152 20.8333 31.3958C20.5833 31.5763 20.3056 31.6666 20 31.6666ZM20 16.7916C20.9722 16.7916 21.8056 16.4444 22.5 15.7499C23.1944 15.0555 23.5417 14.2221 23.5417 13.2499C23.5417 12.2777 23.1944 11.4444 22.5 10.7499C21.8056 10.0555 20.9722 9.70825 20 9.70825C19.0278 9.70825 18.1944 10.0555 17.5 10.7499C16.8056 11.4444 16.4583 12.2777 16.4583 13.2499C16.4583 14.2221 16.8056 15.0555 17.5 15.7499C18.1944 16.4444 19.0278 16.7916 20 16.7916Z" fill="white"/>
</g>
</svg>
