<svg width="19" height="126" viewBox="0 0 19 126" fill="none" xmlns="http://www.w3.org/2000/svg">
<path d="M8 110.5L0.839746 125.5H18.1603L11 110.5H8ZM11 15.5L18.1603 0.5H0.839746L8 15.5H11ZM11 120.54C11 119.711 10.3284 119.04 9.5 119.04C8.67157 119.04 8 119.711 8 120.54H11ZM8 112.603C8 113.432 8.67157 114.103 9.5 114.103C10.3284 114.103 11 113.432 11 112.603H8ZM11 102.683C11 101.854 10.3284 101.183 9.5 101.183C8.67157 101.183 8 101.854 8 102.683H11ZM8 94.746C8 95.5745 8.67157 96.246 9.5 96.246C10.3284 96.246 11 95.5745 11 94.746H8ZM11 84.8254C11 83.997 10.3284 83.3254 9.5 83.3254C8.67157 83.3254 8 83.997 8 84.8254H11ZM8 76.8889C8 77.7173 8.67157 78.3889 9.5 78.3889C10.3284 78.3889 11 77.7173 11 76.8889H8ZM11 66.9683C11 66.1398 10.3284 65.4683 9.5 65.4683C8.67157 65.4683 8 66.1398 8 66.9683H11ZM8 59.0317C8 59.8602 8.67157 60.5317 9.5 60.5317C10.3284 60.5317 11 59.8602 11 59.0317H8ZM11 49.1111C11 48.2827 10.3284 47.6111 9.5 47.6111C8.67157 47.6111 8 48.2827 8 49.1111H11ZM8 41.1746C8 42.003 8.67157 42.6746 9.5 42.6746C10.3284 42.6746 11 42.003 11 41.1746H8ZM11 31.254C11 30.4255 10.3284 29.754 9.5 29.754C8.67157 29.754 8 30.4255 8 31.254H11ZM8 23.3175C8 24.1459 8.67157 24.8175 9.5 24.8175C10.3284 24.8175 11 24.1459 11 23.3175H8ZM11 13.3968C11 12.5684 10.3284 11.8968 9.5 11.8968C8.67157 11.8968 8 12.5684 8 13.3968H11ZM8 5.46031C8 6.28874 8.67157 6.96031 9.5 6.96031C10.3284 6.96031 11 6.28874 11 5.46031H8ZM11 112.603L11 102.683H8L8 112.603H11ZM11 94.746L11 84.8254H8L8 94.746H11ZM11 76.8889L11 66.9683H8L8 76.8889H11ZM11 59.0317L11 49.1111H8L8 59.0317H11ZM11 41.1746L11 31.254H8L8 41.1746H11ZM11 23.3175L11 13.3968H8L8 23.3175H11Z" fill="#009FEE" fill-opacity="0.25"/>
</svg>
