<svg width="40" height="40" viewBox="0 0 40 40" fill="none" xmlns="http://www.w3.org/2000/svg">
<rect x="0.5" y="0.5" width="39" height="39" rx="19.5" stroke="white" stroke-opacity="0.5"/>
<mask id="mask0_4907_1980" style="mask-type:alpha" maskUnits="userSpaceOnUse" x="8" y="8" width="24" height="24">
<rect width="24" height="24" transform="matrix(-1 0 0 1 32 8)" fill="#D9D9D9"/>
</mask>
<g mask="url(#mask0_4907_1980)">
<path d="M24 16.4V24C24 24.2833 24.0958 24.5208 24.2875 24.7125C24.4792 24.9042 24.7167 25 25 25C25.2833 25 25.5208 24.9042 25.7125 24.7125C25.9042 24.5208 26 24.2833 26 24V14C26 13.7167 25.9042 13.4792 25.7125 13.2875C25.5208 13.0958 25.2833 13 25 13H15C14.7167 13 14.4792 13.0958 14.2875 13.2875C14.0958 13.4792 14 13.7167 14 14C14 14.2833 14.0958 14.5208 14.2875 14.7125C14.4792 14.9042 14.7167 15 15 15H22.6L13.7 23.9C13.5167 24.0833 13.425 24.3167 13.425 24.6C13.425 24.8833 13.5167 25.1167 13.7 25.3C13.8833 25.4833 14.1167 25.575 14.4 25.575C14.6833 25.575 14.9167 25.4833 15.1 25.3L24 16.4Z" fill="white"/>
</g>
</svg>
