<svg width="12" height="12" viewBox="0 0 12 12" fill="none" xmlns="http://www.w3.org/2000/svg">
<mask id="mask0_7901_526" style="mask-type:alpha" maskUnits="userSpaceOnUse" x="0" y="0" width="12" height="12">
<rect x="12" y="12" width="12" height="12" transform="rotate(-180 12 12)" fill="#D9D9D9"/>
</mask>
<g mask="url(#mask0_7901_526)">
<path d="M7.22539 6.00019L3.55039 2.32519C3.42539 2.20019 3.36497 2.05436 3.36914 1.88769C3.37331 1.72102 3.43789 1.57519 3.56289 1.45019C3.68789 1.32519 3.83372 1.26269 4.00039 1.26269C4.16706 1.26269 4.31289 1.32519 4.43789 1.45019L8.28789 5.28769C8.38789 5.38769 8.46289 5.50019 8.51289 5.62519C8.56289 5.75019 8.58789 5.87519 8.58789 6.00019C8.58789 6.12519 8.56289 6.25019 8.51289 6.37519C8.46289 6.50019 8.38789 6.61269 8.28789 6.71269L4.43789 10.5627C4.31289 10.6877 4.16497 10.7481 3.99414 10.7439C3.82331 10.7398 3.67539 10.6752 3.55039 10.5502C3.42539 10.4252 3.36289 10.2794 3.36289 10.1127C3.36289 9.94602 3.42539 9.80019 3.55039 9.67519L7.22539 6.00019Z" fill="#565656"/>
</g>
</svg>
