<svg width="43" height="49" viewBox="0 0 43 49" fill="none" xmlns="http://www.w3.org/2000/svg">
<g clip-path="url(#clip0_3325_5014)">
<path d="M36.2094 9.60312C32.2812 5.66562 27.05 3.5 21.4906 3.5C10.0156 3.5 0.678125 12.8375 0.678125 24.3125C0.678125 27.9781 1.63438 31.5594 3.45312 34.7188L0.5 45.5L11.5344 42.6031C14.5719 44.2625 17.9937 45.1344 21.4813 45.1344H21.4906C32.9562 45.1344 42.5 35.7969 42.5 24.3219C42.5 18.7625 40.1375 13.5406 36.2094 9.60312ZM21.4906 41.6281C18.3781 41.6281 15.3312 40.7938 12.6781 39.2188L12.05 38.8438L5.50625 40.5594L7.25 34.175L6.8375 33.5188C5.10312 30.7625 4.19375 27.5844 4.19375 24.3125C4.19375 14.7781 11.9562 7.01562 21.5 7.01562C26.1219 7.01562 30.4625 8.81562 33.725 12.0875C36.9875 15.3594 38.9938 19.7 38.9844 24.3219C38.9844 33.8656 31.025 41.6281 21.4906 41.6281ZM30.9781 28.6719C30.4625 28.4094 27.9031 27.1531 27.425 26.9844C26.9469 26.8062 26.6 26.7219 26.2531 27.2469C25.9063 27.7719 24.9125 28.9344 24.6031 29.2906C24.3031 29.6375 23.9938 29.6844 23.4781 29.4219C20.4219 27.8937 18.4156 26.6938 16.4 23.2344C15.8656 22.3156 16.9344 22.3813 17.9281 20.3937C18.0969 20.0469 18.0125 19.7469 17.8812 19.4844C17.75 19.2219 16.7094 16.6625 16.2781 15.6219C15.8563 14.6094 15.425 14.75 15.1063 14.7313C14.8063 14.7125 14.4594 14.7125 14.1125 14.7125C13.7656 14.7125 13.2031 14.8438 12.725 15.3594C12.2469 15.8844 10.9062 17.1406 10.9062 19.7C10.9062 22.2594 12.7719 24.7344 13.025 25.0813C13.2875 25.4281 16.6906 30.6781 21.9125 32.9375C25.2125 34.3625 26.5063 34.4844 28.1562 34.2406C29.1594 34.0906 31.2312 32.9844 31.6625 31.7656C32.0938 30.5469 32.0938 29.5063 31.9625 29.2906C31.8406 29.0563 31.4938 28.925 30.9781 28.6719Z" fill="#25D366"/>
</g>
<defs>
<clipPath id="clip0_3325_5014">
<rect width="42" height="48" fill="white" transform="translate(0.5 0.5)"/>
</clipPath>
</defs>
</svg>
