<svg width="40" height="40" viewBox="0 0 40 40" fill="none" xmlns="http://www.w3.org/2000/svg">
<mask id="mask0_3290_9019" style="mask-type:alpha" maskUnits="userSpaceOnUse" x="0" y="0" width="40" height="40">
<rect width="40" height="40" fill="#D9D9D9"/>
</mask>
<g mask="url(#mask0_3290_9019)">
<path d="M6.66659 33.3334C5.74992 33.3334 4.9652 33.007 4.31242 32.3542C3.65964 31.7015 3.33325 30.9167 3.33325 30.0001V10.0001C3.33325 9.08341 3.65964 8.29869 4.31242 7.64591C4.9652 6.99314 5.74992 6.66675 6.66659 6.66675H33.3333C34.2499 6.66675 35.0346 6.99314 35.6874 7.64591C36.3402 8.29869 36.6666 9.08341 36.6666 10.0001V20.4584C35.7221 19.9584 34.7013 19.7779 33.6041 19.9167C32.5069 20.0556 31.5555 20.5279 30.7499 21.3334L24.9166 27.2084L23.6666 26.0001C22.6944 25.0279 21.5277 24.5487 20.1666 24.5626C18.8055 24.5765 17.6388 25.0695 16.6666 26.0417C15.6666 27.0417 15.1666 28.2223 15.1666 29.5834C15.1666 30.9445 15.6527 32.1112 16.6249 33.0834L16.8749 33.3334H6.66659ZM6.66659 13.3334V20.0001H33.3333V13.3334H6.66659ZM24.9166 31.9167L33.1249 23.7084C33.4583 23.3751 33.8541 23.2154 34.3124 23.2292C34.7708 23.2431 35.1666 23.4167 35.4999 23.7501C35.8055 24.0834 35.9652 24.4723 35.9791 24.9167C35.993 25.3612 35.8333 25.7501 35.4999 26.0834L26.0833 35.5001C25.7499 35.8334 25.361 36.0001 24.9166 36.0001C24.4721 36.0001 24.0833 35.8334 23.7499 35.5001L18.9999 30.7501C18.6944 30.4445 18.5346 30.0626 18.5208 29.6042C18.5069 29.1459 18.6666 28.7501 18.9999 28.4167C19.3055 28.1112 19.6874 27.9584 20.1458 27.9584C20.6041 27.9584 20.9999 28.1112 21.3333 28.4167L24.9166 31.9167Z" fill="white"/>
</g>
</svg>
