<svg width="64" height="64" viewBox="0 0 64 64" fill="none" xmlns="http://www.w3.org/2000/svg">
<path d="M43.4285 59.4287H20.5713C18.057 59.4287 15.9999 57.3715 15.9999 54.8573V46.6287C15.9999 45.4858 16.457 44.343 17.3713 43.4287L28.7999 32.0001L17.3713 20.5715C16.457 19.6572 15.9999 18.5144 15.9999 17.3715V9.14296C15.9999 6.62868 18.057 4.57153 20.5713 4.57153L43.4285 4.57153C45.9427 4.57153 47.9999 6.62868 47.9999 9.14296V17.3715C47.9999 18.5144 47.5427 19.6572 46.6285 20.5715L35.1999 32.0001L46.6285 43.4287C47.5427 44.343 47.9999 45.4858 47.9999 46.6287V54.8573C47.9999 57.3715 45.9427 59.4287 43.4285 59.4287ZM20.5713 9.14296V17.3715L31.9999 28.8001L43.4285 17.3715V9.14296H20.5713Z" fill="#102849"/>
<path d="M31.9999 35.2002L20.5713 46.6288V54.8573H43.4284V46.6288L31.9999 35.2002Z" fill="#155AB8"/>
</svg>
