<svg width="65" height="64" viewBox="0 0 65 64" fill="none" xmlns="http://www.w3.org/2000/svg">
<path d="M32.3332 64C31.8118 64 31.3141 63.783 30.9592 63.4009L4.85096 35.2841C4.34346 34.7376 4.20809 33.9424 4.50621 33.2588C4.80434 32.5751 5.47921 32.1333 6.22496 32.1333H14.3916V5.89175C14.3916 2.64312 17.0345 0 20.2832 0H44.3832C47.6318 0 50.2748 2.64312 50.2748 5.89175V32.1334H58.4415C59.1872 32.1334 59.8621 32.5753 60.1602 33.2589C60.4583 33.9425 60.323 34.7377 59.8155 35.2842L33.7072 63.4009C33.3523 63.783 32.8546 64 32.3332 64Z" fill="#102849"/>
<path d="M59.8155 35.2841C60.323 34.7376 60.4584 33.9424 60.1603 33.2588C59.8621 32.5751 59.1873 32.1333 58.4415 32.1333H50.2749V5.89175C50.2749 2.64312 47.632 0 44.3833 0H32.3333V64C32.8546 64 33.3524 63.783 33.7073 63.4009L59.8155 35.2841Z" fill="#155AB8"/>
<path d="M34.3415 22.0915H30.3249C29.1269 22.0915 28.1831 21.1148 28.1831 19.9498C28.1831 18.7663 29.14 17.8081 30.3249 17.8081H36.3499C37.3854 17.8081 38.2249 16.9686 38.2249 15.9331C38.2249 14.8976 37.3854 14.0581 36.3499 14.0581H34.2082V11.9165C34.2082 10.881 33.3687 10.0415 32.3332 10.0415C31.2977 10.0415 30.4582 10.881 30.4582 11.9165V14.0583H30.325C27.0714 14.0583 24.4332 16.6895 24.4332 19.9499C24.4332 23.1559 27.0264 25.8416 30.325 25.8416H34.3416C35.5476 25.8416 36.4834 26.8245 36.4834 27.9833C36.4834 29.1458 35.5422 30.125 34.3416 30.125H28.3166C27.2811 30.125 26.4416 30.9645 26.4416 32C26.4416 33.0355 27.2811 33.875 28.3166 33.875H30.4582V36.0168C30.4582 37.0523 31.2977 37.8918 32.3332 37.8918C33.3687 37.8918 34.2082 37.0523 34.2082 36.0168V33.8749H34.3415C37.6471 33.8749 40.2332 31.1816 40.2332 27.9831C40.2332 24.729 37.602 22.0915 34.3415 22.0915Z" fill="white"/>
<path d="M34.2083 33.8749H34.3415C37.6471 33.8749 40.2333 31.1817 40.2333 27.9832C40.2333 24.7289 37.6019 22.0916 34.3415 22.0916H32.3333V25.8416H34.3415C35.5475 25.8416 36.4833 26.8244 36.4833 27.9832C36.4833 29.1457 35.5421 30.1249 34.3415 30.1249H32.3333V37.8917C33.3688 37.8917 34.2083 37.0522 34.2083 36.0167V33.8749Z" fill="white"/>
<path d="M36.35 17.8083C37.3855 17.8083 38.225 16.9688 38.225 15.9333C38.225 14.8978 37.3855 14.0583 36.35 14.0583H34.2083V11.9165C34.2083 10.881 33.3688 10.0415 32.3333 10.0415V17.8083H36.35Z" fill="white"/>
</svg>
