<svg width="64" height="64" viewBox="0 0 64 64" fill="none" xmlns="http://www.w3.org/2000/svg">
<g clip-path="url(#clip0_6282_6097)">
<path d="M39.2791 22.1104C39.2149 21.7249 39.0317 21.3692 38.7555 21.0928L29.9166 12.2539C29.1844 11.5216 27.9972 11.5216 27.265 12.2539L24.1714 15.3475L21.9616 13.1378C21.2294 12.4055 20.0422 12.4055 19.31 13.1378L11.355 21.0928C10.7466 21.7011 10.6304 22.6455 11.073 23.3833L12.9715 26.5473L2.51625 37.0026C1.784 37.7349 1.784 38.922 2.51625 39.6543L4.726 41.8639L2.746 43.8439C0.97525 45.6146 0 47.9689 0 50.4731V62.125C0 63.1605 0.8395 64 1.875 64C2.9105 64 3.75 63.1605 3.75 62.125V50.4731C3.75 48.9706 4.33512 47.5581 5.39762 46.4956L7.37762 44.5156L12.239 49.377C15.8944 53.0324 21.842 53.0323 25.4972 49.377L40.5233 34.351C40.9514 33.9228 41.1464 33.3143 41.0469 32.7169L39.2791 22.1104ZM22.8456 46.7254C20.6525 48.9185 17.0839 48.9186 14.8906 46.7254L13.5647 45.3995L20.5285 38.4358V40.9802C20.5285 42.0156 21.368 42.8552 22.4035 42.8552C23.439 42.8552 24.2785 42.0156 24.2785 40.9802V36.9428L29.8449 39.7259L22.8456 46.7254Z" fill="#102849"/>
<path d="M61.2469 23.7736C59.9744 21.5801 58.7205 19.7608 58.6678 19.6844C58.3176 19.1775 57.741 18.875 57.125 18.875C56.509 18.875 55.9324 19.1775 55.5822 19.6844C55.5295 19.7608 54.2756 21.5801 53.0031 23.7736C50.5354 28.0276 50.25 29.7925 50.25 30.75C50.25 34.5409 53.3341 37.625 57.125 37.625C60.9159 37.625 64 34.5409 64 30.75C64 29.7925 63.7146 28.0276 61.2469 23.7736Z" fill="#155AB8"/>
<path d="M56.2413 9.37438C56.7421 9.37438 57.213 9.17925 57.5671 8.82512C57.9212 8.47087 58.1163 8 58.1162 7.49937V1.87513C58.1162 0.841375 57.2752 0.000250022 56.2412 0.000125022L53.0535 2.15196e-08C47.4605 -0.000249979 42.2025 2.17775 38.2477 6.1325L33.6731 10.7071L40.3022 17.3363L44.8772 12.7612C47.061 10.5775 49.9645 9.37488 53.0526 9.37475L56.2413 9.37438Z" fill="#155AB8"/>
</g>
<defs>
<clipPath id="clip0_6282_6097">
<rect width="64" height="64" fill="white"/>
</clipPath>
</defs>
</svg>
