<svg width="288" height="70" viewBox="0 0 288 70" fill="none" xmlns="http://www.w3.org/2000/svg">
<path d="M31.7793 0H288L256.221 70H0L31.7793 0Z" fill="#155AB8"/>
<mask id="mask0_7910_9189" style="mask-type:luminance" maskUnits="userSpaceOnUse" x="-375" y="-546" width="754" height="755">
<path d="M-374.826 -545.173H378.797V208.45H-374.826V-545.173Z" fill="white"/>
</mask>
<g mask="url(#mask0_7910_9189)">
<path d="M113.481 41.8768H113.413L109.137 24.6279H103.983L99.6366 41.6658H99.5687L95.6077 24.6279H90.1047L96.7291 49.6587H102.303L106.472 32.6193H106.541L110.783 49.6587H116.251L122.981 24.6279H117.583L113.481 41.8768Z" fill="white"/>
</g>
<mask id="mask1_7910_9189" style="mask-type:luminance" maskUnits="userSpaceOnUse" x="-375" y="-546" width="754" height="755">
<path d="M-374.826 -545.174H378.797V208.449H-374.826V-545.174Z" fill="white"/>
</mask>
<g mask="url(#mask1_7910_9189)">
<path d="M139.767 33.0936C139.278 32.45 138.605 31.9481 137.754 31.5848C136.899 31.2246 135.806 31.0437 134.475 31.0437C133.541 31.0437 132.582 31.2834 131.601 31.7627C130.62 32.2405 129.814 33.0061 129.184 34.0597H129.078V24.6274H124.1V49.6582H129.078V40.158C129.078 38.3117 129.381 36.9868 129.99 36.1789C130.596 35.374 131.577 34.9686 132.934 34.9686C134.124 34.9686 134.955 35.3363 135.422 36.0749C135.889 36.8104 136.123 37.9258 136.123 39.421V49.6582H141.1V38.5106C141.1 37.3892 140.999 36.3673 140.803 35.4419C140.604 34.5194 140.259 33.7372 139.767 33.0936Z" fill="white"/>
</g>
<mask id="mask2_7910_9189" style="mask-type:luminance" maskUnits="userSpaceOnUse" x="-375" y="-546" width="754" height="755">
<path d="M-374.826 -545.174H378.797V208.449H-374.826V-545.174Z" fill="white"/>
</mask>
<g mask="url(#mask2_7910_9189)">
<path d="M155.293 42.6463C155.293 42.9282 155.265 43.3035 155.206 43.7692C155.149 44.238 154.99 44.6977 154.734 45.1544C154.476 45.6096 154.077 46.003 153.542 46.327C153.004 46.6556 152.246 46.8199 151.263 46.8199C150.867 46.8199 150.481 46.7852 150.107 46.7129C149.733 46.6436 149.406 46.52 149.126 46.3451C148.847 46.1703 148.622 45.9321 148.459 45.6277C148.297 45.3232 148.214 44.9494 148.214 44.5063C148.214 44.039 148.297 43.6517 148.459 43.3487C148.622 43.0473 148.839 42.7941 149.108 42.5951C149.376 42.3961 149.692 42.2379 150.054 42.1203C150.417 42.0043 150.784 41.9123 151.159 41.8415C151.555 41.7721 151.953 41.7118 152.35 41.6666C152.749 41.6199 153.127 41.5596 153.489 41.4903C153.852 41.4209 154.19 41.332 154.507 41.228C154.822 41.121 155.082 40.9778 155.293 40.7894V42.6463ZM160.412 47.976C160.317 47.2284 160.27 46.4461 160.27 45.6277V36.1968C160.27 35.0965 160.028 34.2148 159.533 33.5501C159.043 32.8824 158.413 32.3639 157.643 31.9901C156.871 31.6163 156.017 31.3646 155.082 31.2365C154.149 31.1084 153.225 31.0436 152.315 31.0436C151.311 31.0436 150.31 31.1415 149.319 31.342C148.324 31.5394 147.432 31.8741 146.637 32.3398C145.841 32.8085 145.186 33.428 144.675 34.1982C144.159 34.9684 143.868 35.9391 143.798 37.1087H148.775C148.868 36.126 149.197 35.4251 149.757 35.0046C150.318 34.5826 151.088 34.3746 152.069 34.3746C152.512 34.3746 152.928 34.4032 153.314 34.4605C153.699 34.5193 154.038 34.6368 154.33 34.8117C154.624 34.9865 154.856 35.2322 155.031 35.5487C155.206 35.8637 155.293 36.2903 155.293 36.8284C155.317 37.3423 155.165 37.7312 154.838 38.001C154.51 38.2723 154.068 38.4758 153.506 38.6145C152.945 38.7561 152.304 38.8616 151.578 38.9295C150.855 39.0018 150.117 39.0968 149.371 39.2128C148.622 39.3289 147.881 39.4856 147.147 39.6846C146.41 39.8836 145.754 40.182 145.183 40.5784C144.61 40.9778 144.143 41.5084 143.779 42.1761C143.418 42.8408 143.237 43.6878 143.237 44.7158C143.237 45.6503 143.394 46.4567 143.71 47.1349C144.025 47.8147 144.462 48.3724 145.026 48.8185C145.587 49.2616 146.239 49.5887 146.987 49.7997C147.733 50.0107 148.541 50.1147 149.406 50.1147C150.527 50.1147 151.626 49.952 152.699 49.6264C153.774 49.2963 154.71 48.7251 155.506 47.9051C155.527 48.2096 155.569 48.5095 155.626 48.8004C155.685 49.0913 155.762 49.3792 155.856 49.6581H160.903C160.668 49.2858 160.504 48.7251 160.412 47.976Z" fill="white"/>
</g>
<mask id="mask3_7910_9189" style="mask-type:luminance" maskUnits="userSpaceOnUse" x="-375" y="-546" width="754" height="755">
<path d="M-374.826 -545.173H378.797V208.45H-374.826V-545.173Z" fill="white"/>
</mask>
<g mask="url(#mask3_7910_9189)">
<path d="M169.559 26.1009H164.581V31.533H161.568V34.8625H164.581V45.5564C164.581 46.4698 164.734 47.2053 165.037 47.766C165.342 48.3252 165.756 48.7608 166.281 49.0638C166.807 49.3682 167.414 49.5717 168.104 49.6772C168.792 49.7812 169.526 49.834 170.293 49.834C170.786 49.834 171.286 49.8219 171.802 49.8008C172.316 49.7767 172.783 49.7315 173.204 49.6591V45.8021C172.97 45.8503 172.726 45.8865 172.466 45.9076C172.21 45.9317 171.942 45.9438 171.662 45.9438C170.821 45.9438 170.26 45.8021 169.978 45.5218C169.699 45.2414 169.559 44.6807 169.559 43.8397V34.8625H173.204V31.533H169.559V26.1009Z" fill="white"/>
</g>
<mask id="mask4_7910_9189" style="mask-type:luminance" maskUnits="userSpaceOnUse" x="-375" y="-546" width="754" height="755">
<path d="M-374.826 -545.173H378.797V208.45H-374.826V-545.173Z" fill="white"/>
</mask>
<g mask="url(#mask4_7910_9189)">
<path d="M190.13 41.7194C189.803 41.1466 189.371 40.6673 188.834 40.28C188.296 39.8956 187.683 39.5851 186.994 39.3515C186.304 39.1179 185.597 38.9219 184.873 38.7561C184.172 38.5934 183.485 38.4396 182.807 38.2994C182.128 38.1593 181.526 38.001 181 37.8277C180.475 37.6513 180.05 37.4252 179.723 37.1434C179.394 36.8615 179.233 36.5013 179.233 36.0567C179.233 35.6829 179.323 35.3844 179.512 35.1614C179.699 34.9413 179.926 34.771 180.195 34.6534C180.464 34.5374 180.76 34.462 181.088 34.4258C181.416 34.3912 181.72 34.3746 181.999 34.3746C182.888 34.3746 183.658 34.5434 184.315 34.8825C184.967 35.2201 185.33 35.8698 185.399 36.8284H190.13C190.037 35.707 189.752 34.7785 189.273 34.0385C188.794 33.3044 188.191 32.7136 187.467 32.2689C186.745 31.8273 185.921 31.5123 184.997 31.3239C184.073 31.137 183.122 31.0436 182.142 31.0436C181.159 31.0436 180.199 31.1325 179.268 31.3058C178.332 31.4807 177.489 31.7866 176.743 32.2177C175.995 32.6503 175.396 33.2396 174.937 33.9872C174.481 34.7348 174.255 35.6949 174.255 36.8615C174.255 37.6574 174.419 38.3311 174.746 38.8797C175.07 39.4284 175.506 39.8836 176.039 40.2453C176.579 40.6085 177.192 40.9009 177.881 41.1225C178.571 41.3471 179.278 41.5385 180 41.7013C181.779 42.0751 183.164 42.4489 184.156 42.8242C185.149 43.1965 185.645 43.7587 185.645 44.5078C185.645 44.9509 185.541 45.3172 185.33 45.6096C185.12 45.9035 184.857 46.1356 184.542 46.312C184.225 46.4868 183.874 46.6164 183.491 46.6963C183.105 46.7777 182.736 46.8199 182.385 46.8199C181.895 46.8199 181.422 46.7611 180.968 46.6451C180.51 46.5275 180.109 46.3451 179.758 46.1009C179.408 45.8553 179.118 45.5403 178.898 45.1544C178.677 44.767 178.564 44.3088 178.564 43.7692H173.833C173.881 44.9841 174.154 45.9969 174.657 46.8018C175.157 47.6082 175.801 48.2563 176.585 48.7477C177.367 49.2375 178.262 49.5902 179.268 49.7997C180.27 50.0107 181.299 50.1147 182.349 50.1147C183.378 50.1147 184.388 50.0153 185.383 49.8193C186.376 49.6189 187.258 49.2752 188.028 48.7838C188.801 48.2925 189.424 47.6444 189.904 46.838C190.382 46.0301 190.62 45.0308 190.62 43.8386C190.62 42.996 190.458 42.2921 190.13 41.7194Z" fill="white"/>
</g>
<mask id="mask5_7910_9189" style="mask-type:luminance" maskUnits="userSpaceOnUse" x="-375" y="-546" width="754" height="755">
<path d="M-374.826 -545.173H378.797V208.45H-374.826V-545.173Z" fill="white"/>
</mask>
<g mask="url(#mask5_7910_9189)">
<path d="M199.489 39.9837L202.749 30.797H202.819L205.975 39.9837H199.489ZM205.66 24.6279H200.015L190.553 49.6587H196.09L198.053 44.0849H207.411L209.303 49.6587H215.017L205.66 24.6279Z" fill="white"/>
</g>
<mask id="mask6_7910_9189" style="mask-type:luminance" maskUnits="userSpaceOnUse" x="-375" y="-546" width="754" height="755">
<path d="M-374.826 -545.173H378.797V208.45H-374.826V-545.173Z" fill="white"/>
</mask>
<g mask="url(#mask6_7910_9189)">
<path d="M229.036 42.7878C228.895 43.4902 228.654 44.1021 228.316 44.6281C227.978 45.1542 227.534 45.5822 226.984 45.9063C226.435 46.2349 225.751 46.3992 224.934 46.3992C224.138 46.3992 223.464 46.2349 222.903 45.9063C222.341 45.5822 221.892 45.1542 221.551 44.6281C221.214 44.1021 220.968 43.4902 220.816 42.7878C220.664 42.0869 220.59 41.374 220.59 40.6505C220.59 39.8999 220.658 39.1764 220.798 38.4771C220.94 37.7762 221.178 37.1567 221.518 36.6156C221.854 36.0806 222.299 35.6419 222.851 35.3028C223.399 34.9652 224.081 34.7934 224.899 34.7934C225.692 34.7934 226.367 34.9652 226.914 35.3028C227.463 35.6419 227.915 36.0851 228.263 36.6352C228.614 37.1839 228.865 37.8094 229.017 38.5102C229.171 39.2126 229.244 39.927 229.244 40.6505C229.244 41.374 229.177 42.0869 229.036 42.7878ZM233.732 37.0904C233.401 35.9117 232.901 34.8763 232.224 33.987C231.548 33.0992 230.694 32.3878 229.665 31.8497C228.636 31.3116 227.412 31.0433 225.987 31.0433C224.863 31.0433 223.836 31.2634 222.903 31.708C221.966 32.1527 221.197 32.8671 220.59 33.8483H220.519V31.5332H215.785V56.0063H220.766V47.4166H220.832C221.44 48.3043 222.219 48.975 223.164 49.4302C224.109 49.8869 225.145 50.1145 226.266 50.1145C227.599 50.1145 228.759 49.8553 229.754 49.3443C230.747 48.8303 231.576 48.14 232.242 47.2749C232.909 46.4097 233.401 45.4164 233.732 44.295C234.057 43.1737 234.221 42.004 234.221 40.7892C234.221 39.5035 234.057 38.2721 233.732 37.0904Z" fill="white"/>
</g>
<mask id="mask7_7910_9189" style="mask-type:luminance" maskUnits="userSpaceOnUse" x="-375" y="-546" width="754" height="755">
<path d="M-374.826 -545.173H378.797V208.45H-374.826V-545.173Z" fill="white"/>
</mask>
<g mask="url(#mask7_7910_9189)">
<path d="M248.872 42.7878C248.732 43.4902 248.492 44.1021 248.153 44.6281C247.814 45.1542 247.371 45.5822 246.822 45.9063C246.272 46.2349 245.589 46.3992 244.771 46.3992C243.977 46.3992 243.3 46.2349 242.739 45.9063C242.177 45.5822 241.729 45.1542 241.389 44.6281C241.053 44.1021 240.804 43.4902 240.653 42.7878C240.499 42.0869 240.425 41.374 240.425 40.6505C240.425 39.8999 240.496 39.1764 240.635 38.4771C240.777 37.7762 241.016 37.1567 241.355 36.6156C241.692 36.0806 242.138 35.6419 242.686 35.3028C243.233 34.9652 243.918 34.7934 244.736 34.7934C245.531 34.7934 246.203 34.9652 246.75 35.3028C247.302 35.6419 247.749 36.0851 248.1 36.6352C248.453 37.1839 248.703 37.8094 248.854 38.5102C249.009 39.2126 249.083 39.927 249.083 40.6505C249.083 41.374 249.012 42.0869 248.872 42.7878ZM253.569 37.0904C253.24 35.9117 252.738 34.8763 252.06 33.987C251.383 33.0992 250.533 32.3878 249.504 31.8497C248.474 31.3116 247.247 31.0433 245.823 31.0433C244.7 31.0433 243.672 31.2634 242.739 31.708C241.805 32.1527 241.033 32.8671 240.425 33.8483H240.358V31.5332H235.623V56.0063H240.6V47.4166H240.671C241.279 48.3043 242.058 48.975 243.001 49.4302C243.946 49.8869 244.982 50.1145 246.105 50.1145C247.436 50.1145 248.596 49.8553 249.593 49.3443C250.583 48.8303 251.415 48.14 252.08 47.2749C252.746 46.4097 253.24 45.4164 253.569 44.295C253.897 43.1737 254.059 42.004 254.059 40.7892C254.059 39.5035 253.897 38.2721 253.569 37.0904Z" fill="white"/>
</g>
<path d="M31.6285 36.733C31.627 41.0497 32.7559 45.2685 34.9022 48.9869L31.4235 61.6899L44.4235 58.2821C48.0047 60.234 52.0381 61.2634 56.1424 61.2634H56.1514C69.6669 61.2634 80.6683 50.268 80.6743 36.751C80.6758 30.2006 78.1271 24.0404 73.4968 19.4072C68.868 14.7739 62.7109 12.2221 56.1499 12.2191C42.6359 12.2191 31.6345 23.2145 31.6285 36.733Z" fill="url(#paint0_linear_7910_9189)"/>
<path d="M30.7528 36.7229C30.7513 41.1994 31.9209 45.5674 34.1441 49.4184L30.5403 62.5767L44.006 59.0467C47.7168 61.0694 51.8935 62.1365 56.1454 62.1381H56.1544C70.1567 62.1381 81.5515 50.7448 81.5575 36.744C81.5606 29.9583 78.9199 23.5767 74.1238 18.7776C69.3292 13.9785 62.9506 11.3348 56.1544 11.3318C42.1536 11.3318 30.7588 22.7221 30.7528 36.7229ZM38.7714 48.7567L38.2694 47.9564C36.1563 44.5967 35.0394 40.7125 35.0409 36.7244C35.0469 25.0884 44.5185 15.6199 56.1635 15.6199C61.8036 15.6229 67.1031 17.822 71.0912 21.8102C75.0764 25.7998 77.2694 31.1023 77.2679 36.7425C77.2634 48.3799 67.7919 57.8484 56.1544 57.8484H56.1469C52.3576 57.8469 48.6423 56.8295 45.4017 54.9063L44.63 54.4496L36.6401 56.5447L38.7714 48.7567ZM56.1544 62.1381H56.1559C56.1559 62.1381 56.1559 62.1381 56.1544 62.1381Z" fill="url(#paint1_linear_7910_9189)"/>
<mask id="mask8_7910_9189" style="mask-type:luminance" maskUnits="userSpaceOnUse" x="-375" y="-546" width="754" height="755">
<path d="M-374.826 -545.173H378.797V208.45H-374.826V-545.173Z" fill="white"/>
</mask>
<g mask="url(#mask8_7910_9189)">
<path fill-rule="evenodd" clip-rule="evenodd" d="M49.8066 26.108C49.3318 25.0514 48.8314 25.0303 48.3792 25.0108C48.0084 24.9957 47.5849 24.9972 47.1614 24.9972C46.7393 24.9972 46.052 25.1554 45.4702 25.79C44.8869 26.4261 43.247 27.9604 43.247 31.0834C43.247 34.2065 45.5215 37.224 45.8395 37.6475C46.156 38.071 50.2301 44.6848 56.6826 47.2291C62.0439 49.3422 63.1352 48.9232 64.2972 48.8162C65.4623 48.7107 68.0533 47.2818 68.5823 45.7987C69.1114 44.3171 69.1114 43.0465 68.9531 42.7827C68.7949 42.5174 68.3698 42.3576 67.7368 42.0411C67.1022 41.7231 63.9807 40.1887 63.3989 39.9762C62.8171 39.7652 62.3951 39.6582 61.9701 40.2942C61.548 40.9288 60.3317 42.3576 59.9609 42.7827C59.5916 43.2062 59.2208 43.259 58.5863 42.941C57.9502 42.6229 55.9079 41.9537 53.4812 39.7908C51.5957 38.1087 50.3221 36.0317 49.9513 35.3957C49.582 34.7611 49.9106 34.4175 50.2301 34.101C50.515 33.8161 50.8647 33.3609 51.1812 32.9886C51.4992 32.6178 51.6032 32.3556 51.8157 31.9305C52.0283 31.507 51.9212 31.1362 51.763 30.8197C51.6032 30.5016 50.3703 27.3636 49.8066 26.108Z" fill="white"/>
</g>
<defs>
<linearGradient id="paint0_linear_7910_9189" x1="56.0487" y1="61.6902" x2="56.0487" y2="12.2179" gradientUnits="userSpaceOnUse">
<stop stop-color="#20B038"/>
<stop offset="1" stop-color="#60D66A"/>
</linearGradient>
<linearGradient id="paint1_linear_7910_9189" x1="56.0488" y1="62.5774" x2="56.0488" y2="11.331" gradientUnits="userSpaceOnUse">
<stop stop-color="#F9F9F9"/>
<stop offset="1" stop-color="white"/>
</linearGradient>
</defs>
</svg>
