<svg width="81" height="49" viewBox="0 0 81 49" fill="none" xmlns="http://www.w3.org/2000/svg">
<path d="M77.9907 0.656738C77.6322 1.80064 77.0526 2.88488 76.8046 4.05854C74.8374 14.3984 68.475 22.3104 60.3589 29.0398C57.5655 31.3576 53.9308 33.1529 50.3864 34.2044C40.3101 37.3321 30.0979 38.178 19.9789 36.4495C17.0613 35.9568 14.2301 34.8968 11.5566 33.4066C12.5236 33.2543 13.5658 33.063 14.5684 32.9794C17.4659 32.6984 20.3988 32.4862 23.3001 32.029C24.5277 31.8289 25.8023 31.1687 26.9665 30.4788C27.4163 30.2457 27.7709 29.2781 27.6326 28.827C27.4941 28.376 26.6529 27.8534 26.2424 27.979C18.9442 29.4936 11.6169 28.9327 4.31372 28.969C1.75564 28.9871 0.623254 29.9221 0.683953 32.2426C0.89292 37.9709 2.44386 43.3527 5.19068 48.2894C5.26182 48.4268 5.66847 48.4776 6.3318 48.6567C9.97309 44.8545 6.34672 41.1573 6.70692 36.528C7.65867 37.0804 8.38931 37.5733 9.12372 37.8897C24.0853 43.6439 39.524 42.7917 55.1375 37.3192C57.4899 36.5364 59.818 35.1565 61.8896 33.6481C69.4616 28.0715 75.1734 21.1064 78.5077 12.6718C79.5678 9.94497 79.8185 6.94046 80.1405 4.07324C80.3134 2.93836 79.7086 1.77063 79.4356 0.692472C78.9539 0.680565 78.4723 0.668645 77.9907 0.656738Z" fill="white"/>
</svg>
