<svg width="229" height="470" viewBox="0 0 229 470" fill="none" xmlns="http://www.w3.org/2000/svg">
<g clip-path="url(#clip0_6413_7294)">
<path d="M207.176 200.151L216.375 202.319C216.364 203.366 216.35 204.409 216.336 205.455C216.286 209.243 217.251 211.624 220.554 213.661C225.132 216.48 226.435 219.937 224.755 224.999C223.69 228.213 224.278 230.189 226.748 232.24C228.628 233.799 229.415 236.077 229.155 238.598C228.824 241.794 227.962 244.813 226.108 247.49C225.698 248.081 225.506 248.604 226.004 249.377C228.119 252.663 227.621 256.102 226.246 259.476C224.901 262.78 222.444 265.197 219.369 266.842C217.023 268.098 216.325 269.636 216.346 272.37C216.357 273.737 216.364 275.101 216.371 276.468L206.767 279.12V287.763C206.767 286.635 206.624 285.499 206.258 284.331C205.952 283.36 205.389 283.527 205.012 283.381C201.359 281.964 197.881 280.166 195.151 277.375C191.249 273.392 189.914 268.369 190.331 262.865C190.434 261.513 190.356 260.138 190.754 258.811C190.94 258.202 190.487 257.857 190.121 257.458C187.494 254.628 186.493 251.203 186.55 247.415C186.561 246.565 186.561 245.849 185.671 245.304C178.537 240.965 171.204 237.078 163.012 235.109C160.784 234.575 158.545 234.034 156.22 234.141C155.722 234.166 155.266 234.045 154.924 234.728C151.802 240.976 146.993 245.803 141.795 250.32C136.317 255.083 129.952 258.017 122.974 259.804C119.817 260.612 116.666 260.662 113.498 260.078C112.832 259.957 111.917 260.007 111.828 258.875C111.743 257.757 112.284 257.305 113.263 257.006C117.457 255.731 121.757 254.82 125.751 252.901C132.721 249.555 138.659 244.906 143.803 239.164C147.797 234.703 150.756 229.705 152.162 223.838C152.692 221.635 152.767 219.403 152.753 217.153C152.749 216.327 152.457 216.245 151.72 216.245C150.069 216.245 148.417 216.089 146.765 216C146.103 215.964 145.323 215.946 145.316 215.085C145.309 214.33 146.146 214.298 146.655 214.205C148.335 213.892 150.033 213.671 151.731 213.472C152.489 213.383 152.753 213.155 152.543 212.34C152.222 211.101 152.45 209.417 151.699 208.673C150.791 207.78 149.41 209.268 148.139 209.232H148.118C148.118 209.232 148.128 209.207 148.128 209.197C148.136 209.179 148.139 209.161 148.143 209.143C148.15 209.09 148.143 209.044 148.121 209.012C148.114 208.997 148.1 208.983 148.086 208.969C148.064 208.951 148.032 208.933 148 208.926C147.986 208.919 147.972 208.915 147.958 208.912C147.94 208.908 147.918 208.908 147.901 208.905C147.68 208.89 147.434 208.876 147.438 209.2V209.225H147.427C145.555 209.357 144.081 210.435 142.497 211.272C141.973 211.546 141.45 212.5 140.77 211.464C140.169 210.546 140.208 209.798 141.251 209.157C143.615 207.705 146.078 206.434 148.616 205.352C149.98 204.775 149.972 204.241 149.321 203.102C147.869 200.55 147.345 197.752 147.381 194.811C147.441 190.247 147.537 185.68 147.367 181.12C147.157 175.456 145.975 169.96 143.938 164.645C143.194 162.69 141.888 161.615 139.93 161.188C133.177 159.707 126.324 159.59 119.475 159.971C116.524 160.138 113.566 160.184 110.611 160.412C104.666 160.864 98.7351 161.459 92.8471 162.342C86.6351 163.274 80.416 164.221 74.3322 165.844C69.149 167.226 64.0975 168.917 60.0677 172.694C56.2053 176.318 54.4431 180.992 53.5923 186.072C52.8127 190.728 53.3324 195.374 53.7312 200.037C54.4858 208.809 55.9383 217.573 54.9522 226.409C54.5072 230.399 53.8557 234.44 51.7198 237.992C51.0256 239.142 52.0367 239.641 52.4923 240.235C55.6321 244.308 59.5622 247.522 63.8305 250.327C69.3946 253.987 75.4464 256.604 81.7723 258.633C82.438 258.846 83.6412 258.704 83.36 260.007C83.1286 261.082 82.349 261.31 81.3273 261.11C80.8788 261.021 80.3626 261.068 79.9212 261.196C78.5755 261.587 78.2943 262.638 79.316 263.552C79.8393 264.022 80.2451 264.35 79.8073 265.14C79.3374 265.991 78.7322 265.873 78.0131 265.642C75.8416 264.937 73.6843 264.168 71.7085 263.011C70.8114 262.488 70.0888 262.545 69.1525 262.919C59.1635 266.881 52.1114 273.573 49.1923 284.175C47.8787 288.959 47.6224 293.861 47.9642 298.752C49.3596 318.73 54.1726 337.997 60.3561 356.953C61.659 360.954 63.2147 364.884 65.671 368.359C69.3305 373.542 74.5885 376.472 80.4267 378.469C85.8982 380.341 91.5762 381.167 97.3183 381.737C102.968 382.299 108.642 382.47 114.292 383.001C115.061 383.072 115.591 383.029 116.036 382.257C117.033 380.526 118.101 378.832 119.226 377.184C119.806 376.34 119.874 375.66 119.265 374.806C115.232 369.142 111.227 363.457 107.233 357.761C106.798 357.142 106.182 356.996 105.559 356.914C101.127 356.319 96.8769 354.92 92.5196 354.002C91.149 353.713 90.4905 352.92 90.1451 351.581C88.5432 345.348 86.8309 339.146 85.229 332.913C83.9759 328.025 80.8823 324.102 78.5079 319.809C74.5707 312.704 70.9325 305.495 69.3697 297.428C69.3163 297.14 69.1917 296.855 69.1881 296.57C69.1881 296.122 68.6399 295.577 69.4765 295.25C70.2454 294.951 70.4946 295.378 70.815 295.929C72.8833 299.486 74.9587 303.035 77.0626 306.57C85.6953 321.073 95.1503 334.988 105.933 348.011C107.912 350.399 110.308 350.389 112.661 350.677C117.407 351.264 122.191 351.385 126.997 351.204C134.131 350.933 140.916 349.103 147.666 347.099C156.067 344.604 163.977 340.933 171.31 336.142C180.438 330.179 187.91 322.579 193.417 313.088C195.073 310.23 195.382 307.898 193.456 304.719C186.29 292.886 178.131 281.8 169.516 271.021C169.039 270.419 168.587 269.8 168.096 269.213C167.669 268.7 167.58 268.283 168.007 267.65C168.587 266.785 169.057 267.408 169.466 267.664C174.973 271.128 180.42 274.681 185.835 278.287C192.057 282.438 198.28 286.613 204.652 290.54C205.197 290.874 205.745 291.191 206.35 291.554C206.592 290.266 206.767 289.016 206.767 287.763V297.147C206.745 297.136 206.724 297.126 206.703 297.118C206.681 297.108 206.656 297.101 206.628 297.094C206.439 297.044 206.254 296.99 206.069 296.93C205.884 296.873 205.699 296.812 205.517 296.748C205.336 296.688 205.154 296.62 204.976 296.549C204.798 296.481 204.62 296.41 204.446 296.335C202.335 295.438 200.412 294.185 198.469 292.968C198.038 292.697 197.604 292.427 197.169 292.167C196.952 292.035 196.731 291.907 196.511 291.779C196.294 291.651 196.073 291.522 195.849 291.401C194.962 290.91 194.097 290.376 193.214 289.817C192.335 289.255 191.434 288.664 190.473 288.062C190.815 288.614 191.157 289.166 191.495 289.718C193.545 293.064 195.518 296.428 197.511 299.771C197.992 300.579 198.476 301.383 198.96 302.188C198.974 302.216 198.992 302.245 199.01 302.273C199.48 303.049 199.95 303.822 200.423 304.594C200.455 304.651 200.491 304.708 200.526 304.765C200.829 305.256 201.131 305.744 201.438 306.235C201.473 306.299 201.512 306.36 201.552 306.42C201.854 306.901 202.157 307.385 202.463 307.866C202.854 308.485 203.25 309.097 203.648 309.713C203.954 310.18 204.261 310.642 204.57 311.109C204.62 311.187 204.674 311.265 204.727 311.344C205.033 311.803 205.343 312.262 205.656 312.718C206.023 313.252 206.393 313.786 206.767 314.316V420.71C206.738 420.301 206.624 419.909 206.211 419.507C200.38 413.833 195.197 407.553 189.711 401.558C188.7 400.451 188.302 400.647 187.511 401.661C183.517 406.781 179.452 411.839 175.447 416.944C168.381 425.961 161.403 435.053 154.227 443.985C152.838 445.715 152.831 447 153.689 448.844C156.708 455.305 159.342 461.941 162.04 468.544C162.528 469.741 162.293 470.004 161.026 470C139.93 469.968 118.831 469.975 97.7348 470C96.6989 470 96.1471 469.687 95.8018 468.665C94.5701 465.006 93.1853 461.403 91.9785 457.74C89.2765 449.527 88.472 441.176 90.5296 432.689C92.0283 426.52 94.4846 420.707 97.4607 415.118C102.024 406.549 106.884 398.151 111.853 389.636C109.714 389.604 107.674 389.387 105.634 389.259C97.7526 388.771 89.8817 388.273 82.1639 386.39C68.704 383.107 59.0496 375.703 54.7493 362.015C50.2888 347.815 46.4121 333.483 43.5321 318.873C41.5777 308.937 40.3781 298.959 41.0687 288.81C41.6347 280.515 44.8777 273.395 50.4205 267.276C53.8878 263.442 58.0172 260.452 62.6914 257.903C56.7179 254.211 51.4742 249.954 47.1667 244.632C46.4797 243.784 45.7001 243.909 44.9418 244.19C39.0324 246.39 33.5751 245.02 28.4382 241.948C21.9059 238.046 17.5414 232.104 14.0528 225.544C7.87638 213.935 5.42006 201.336 4.83624 188.325C4.41261 178.966 5.18867 169.682 7.32815 160.551C9.77735 150.106 13.5971 140.274 20.6457 131.958C21.4858 130.968 21.4894 130.068 20.6385 128.996C18.3638 126.127 16.5839 122.919 14.9107 119.691C5.37736 101.265 1.38671 81.4896 0.916809 60.8992C0.763734 54.2102 1.08769 47.5426 1.92426 40.8892C2.68963 34.816 3.73624 28.8176 5.54821 22.9723C6.6055 19.5477 7.78383 16.1551 10.1013 13.3215C12.1376 10.8331 14.9321 10.7263 17.2851 12.9406C18.2072 13.8056 18.7625 14.9198 19.5136 15.8988C30.3214 29.9924 38.0428 45.7021 43.8383 62.4157C47.0493 71.6821 49.4557 81.1585 51.0434 90.8342C51.8729 95.9035 52.2431 101.03 52.7024 106.145C52.9337 108.708 53.0833 108.726 55.4684 107.801C68.2768 102.835 81.5267 101.236 95.1753 102.4C96.795 102.539 98.4112 103.08 100.081 102.749C99.6287 101.015 99.6251 99.2961 99.5646 97.5873C99.2086 87.819 99.4436 78.0899 101.142 68.4141C102.206 62.3445 102.843 56.2037 104.559 50.2552C108.318 37.2296 113.683 24.9124 120.835 13.3998C123.373 9.31304 125.655 5.00202 129.229 1.6415C131.835 -0.807696 134.619 -0.515786 136.484 2.52435C138.51 5.8208 140.336 9.22404 141.411 12.9868C145.156 26.0943 146.968 39.4616 147.167 53.0889C147.317 63.4125 146.327 73.608 144.405 83.7323C142.28 94.9352 138.275 105.465 132.988 115.529C132.479 116.497 132.629 117.021 133.355 117.786C135.918 120.488 138.908 122.727 141.315 125.621C146.947 132.382 151.507 139.708 153.967 148.216C154.259 149.23 154.764 149.7 155.697 150.096C159.15 151.548 160.492 154.36 159.908 158.636C159.495 161.662 157.519 163.58 154.312 164.061C150.716 164.606 150.652 164.62 151.571 168.119C153.671 176.122 154.536 184.235 153.828 192.487C153.586 195.302 153.871 197.955 155.166 200.539C155.821 201.849 156.405 202.209 157.854 201.863C162.678 200.713 167.555 199.955 172.56 200.251C173.881 200.329 174.65 200.61 174.557 202.073C171.602 202.565 168.633 202.988 165.693 203.572C163.24 204.06 160.713 204.348 158.52 205.747C157.69 206.278 157.249 206.79 157.68 207.901C158.203 209.261 158.602 210.702 158.776 212.141C158.897 213.134 159.228 213.209 160.086 213.212C165.344 213.241 170.598 213.397 175.764 214.526C176.529 214.693 177.455 214.868 177.366 215.825C177.28 216.783 176.316 216.302 175.806 216.306C170.769 216.341 165.736 216.291 160.698 216.288C160.011 216.288 159.086 215.95 159.175 217.302C159.385 220.4 158.787 223.397 157.836 226.33C157.583 227.121 157.883 227.299 158.676 227.348C163.924 227.665 168.982 228.854 173.902 230.702C179.423 232.774 184.436 235.839 189.69 238.772C189.768 237.355 188.95 236.576 188.476 235.664C186.896 232.61 185.845 229.47 186.942 226.024C187.643 223.817 189.035 221.969 190.366 220.111C191.107 219.075 191.47 217.929 191.491 216.665C191.538 213.682 192.563 211.062 194.314 208.67C197.233 204.676 201.231 202.141 205.713 200.308C206.806 199.859 207.18 199.368 207.162 198.168M207.326 211.414C206.874 210.371 207.176 209.207 207.176 208.1C207.18 207.132 206.87 206.648 205.806 206.968C205.574 207.036 205.346 207.111 205.122 207.185C204.965 207.239 204.809 207.292 204.652 207.349C204.253 207.491 203.865 207.645 203.488 207.812C203.278 207.904 203.072 208.004 202.869 208.107C202.744 208.171 202.619 208.235 202.498 208.303C202.153 208.492 201.819 208.698 201.498 208.926C201.416 208.983 201.338 209.04 201.263 209.097C201.174 209.161 201.085 209.232 200.996 209.303C200.921 209.36 200.854 209.421 200.783 209.481C200.676 209.57 200.573 209.663 200.469 209.763C200.419 209.809 200.37 209.859 200.32 209.909C200.27 209.955 200.22 210.005 200.17 210.058C200.099 210.129 200.031 210.204 199.964 210.279C199.918 210.332 199.868 210.386 199.821 210.443C199.754 210.521 199.683 210.603 199.619 210.688C199.344 211.026 199.092 211.397 198.86 211.799C198.8 211.906 198.739 212.016 198.682 212.126C198.622 212.237 198.568 212.347 198.511 212.465C198.454 212.586 198.397 212.71 198.344 212.838C198.291 212.956 198.241 213.077 198.195 213.201C198.145 213.326 198.098 213.454 198.052 213.586C197.96 213.853 197.874 214.127 197.796 214.415C200.708 212.429 203.68 212.835 206.496 212.465C206.599 212.45 206.699 212.443 206.795 212.433C206.856 212.425 206.916 212.422 206.973 212.415C207.059 212.404 207.137 212.39 207.201 212.372C207.247 212.358 207.29 212.344 207.326 212.326C207.361 212.308 207.39 212.283 207.415 212.258C207.44 212.23 207.457 212.198 207.472 212.158C207.486 212.119 207.493 212.077 207.493 212.023C207.493 211.881 207.443 211.685 207.326 211.414ZM196.169 265.172C196.212 265.514 196.269 265.856 196.343 266.201C196.361 266.286 196.379 266.372 196.404 266.457C196.461 266.721 196.532 266.988 196.61 267.255C196.66 267.429 196.717 267.607 196.778 267.782C196.863 268.034 196.952 268.283 197.048 268.529C197.109 268.693 197.173 268.853 197.237 269.01C197.344 269.277 197.458 269.537 197.575 269.789C197.636 269.917 197.696 270.042 197.757 270.167C197.828 270.313 197.903 270.455 197.977 270.597C198.034 270.697 198.088 270.8 198.145 270.896C198.205 271.003 198.266 271.11 198.33 271.217C198.401 271.334 198.472 271.448 198.543 271.562C198.622 271.683 198.704 271.804 198.786 271.922C198.86 272.032 198.939 272.139 199.017 272.246C199.327 272.669 199.665 273.064 200.031 273.428C200.117 273.513 200.202 273.598 200.288 273.68C200.373 273.766 200.462 273.848 200.555 273.922C200.644 274.001 200.736 274.079 200.832 274.157C200.925 274.232 201.021 274.307 201.117 274.378C201.213 274.449 201.309 274.52 201.409 274.588C201.459 274.624 201.509 274.659 201.562 274.691C201.612 274.723 201.662 274.755 201.715 274.791C201.765 274.827 201.815 274.859 201.868 274.887C201.922 274.919 201.975 274.948 202.025 274.98C202.128 275.044 202.239 275.104 202.349 275.161C202.474 275.229 202.598 275.293 202.73 275.353C202.986 275.474 203.253 275.588 203.527 275.692C203.627 275.727 203.727 275.763 203.826 275.795C203.887 275.816 203.947 275.838 204.011 275.855C204.1 275.887 204.189 275.912 204.282 275.937C204.335 275.955 204.389 275.969 204.442 275.983C204.57 276.019 204.698 276.051 204.83 276.083C205.133 276.154 205.446 276.215 205.77 276.261C206.09 276.311 206.425 276.35 206.767 276.375C206.767 273.488 206.909 270.58 206.688 267.696C206.61 266.657 206.948 266.439 207.653 266.119C208.451 265.76 209.252 265.4 210.042 265.03C210.437 264.841 210.832 264.652 211.224 264.46C211.672 264.239 212.117 264.008 212.562 263.77C212.626 263.738 212.69 263.702 212.758 263.666C212.982 263.542 213.21 263.417 213.434 263.289C213.659 263.161 213.883 263.029 214.104 262.897C214.299 262.78 214.495 262.655 214.691 262.531C214.841 262.435 214.99 262.338 215.14 262.239C215.321 262.118 215.499 261.997 215.674 261.869C215.809 261.772 215.944 261.676 216.076 261.577C216.165 261.513 216.254 261.445 216.343 261.377C216.496 261.26 216.649 261.139 216.802 261.018C217.489 260.462 218.158 259.875 218.788 259.252C221.369 256.703 221.287 253.425 218.657 250.837C218.586 250.765 218.514 250.701 218.44 250.644C218.219 250.466 217.987 250.342 217.749 250.256C217.667 250.224 217.589 250.203 217.507 250.185C217.425 250.164 217.343 250.149 217.258 250.135C217.176 250.121 217.09 250.11 217.001 250.107C216.916 250.1 216.827 250.1 216.738 250.1C216.628 250.1 216.514 250.1 216.396 250.107C216.101 250.125 215.805 250.146 215.513 250.171C215.218 250.196 214.922 250.221 214.631 250.246C214.335 250.267 214.043 250.295 213.748 250.331C213.456 250.359 213.16 250.392 212.868 250.427C212.576 250.459 212.288 250.498 211.996 250.541C211.704 250.58 211.412 250.623 211.124 250.673C210.832 250.715 210.544 250.765 210.255 250.822C209.967 250.872 209.679 250.929 209.394 250.99C209.248 251.018 209.106 251.047 208.963 251.082C208.678 251.146 208.394 251.21 208.112 251.281C207.97 251.314 207.828 251.353 207.689 251.392C207.404 251.467 207.123 251.545 206.845 251.627C206.617 251.694 206.389 251.766 206.162 251.84C205.973 251.901 205.784 251.961 205.596 252.029C205.457 252.072 205.321 252.122 205.183 252.175C205.047 252.225 204.908 252.278 204.773 252.328C204.499 252.431 204.229 252.542 203.958 252.659C203.816 252.723 203.673 252.784 203.531 252.848C203.406 252.901 203.282 252.962 203.157 253.022C203.022 253.083 202.89 253.147 202.758 253.211C202.495 253.343 202.239 253.478 201.989 253.627C201.804 253.738 201.619 253.848 201.441 253.966C201.26 254.08 201.085 254.201 200.914 254.322C200.679 254.489 200.452 254.663 200.234 254.845C200.167 254.898 200.103 254.955 200.039 255.012C199.925 255.108 199.814 255.208 199.708 255.308C199.647 255.368 199.583 255.425 199.522 255.486C199.401 255.6 199.287 255.714 199.177 255.835C199.12 255.892 199.067 255.952 199.013 256.009C198.86 256.173 198.718 256.344 198.579 256.515C198.469 256.65 198.362 256.789 198.259 256.927C198.159 257.063 198.063 257.202 197.97 257.34C197.878 257.472 197.792 257.607 197.71 257.746C197.668 257.817 197.625 257.889 197.582 257.96C197.54 258.031 197.5 258.102 197.461 258.173C197.386 258.305 197.315 258.44 197.248 258.579C197.148 258.775 197.055 258.978 196.97 259.181C196.927 259.273 196.892 259.366 196.856 259.459C196.735 259.758 196.632 260.06 196.539 260.37C196.511 260.473 196.482 260.576 196.454 260.683C196.425 260.786 196.4 260.89 196.375 260.996C196.336 261.149 196.301 261.306 196.272 261.466C196.251 261.591 196.226 261.719 196.208 261.847C196.194 261.947 196.18 262.043 196.165 262.143C196.144 262.299 196.126 262.456 196.116 262.616C196.101 262.773 196.091 262.933 196.084 263.093C196.08 263.161 196.076 263.232 196.076 263.303C196.059 263.916 196.087 264.538 196.169 265.172ZM193.001 248.021C193.09 249.943 193.282 251.851 195.023 253.179C195.567 253.595 195.902 253.681 196.5 253.179C197.152 252.634 197.842 252.129 198.533 251.63C199.052 251.257 199.576 250.886 200.085 250.498C200.252 250.367 200.419 250.235 200.587 250.103C200.765 249.961 200.946 249.822 201.128 249.69C201.495 249.423 201.865 249.174 202.242 248.943C202.619 248.708 203.004 248.494 203.396 248.302C203.759 248.117 204.125 247.953 204.503 247.803C204.535 247.789 204.57 247.775 204.602 247.761C204.798 247.682 204.994 247.611 205.193 247.54C205.603 247.394 206.016 247.266 206.436 247.156C206.617 247.106 206.799 247.063 206.984 247.02C207.041 247.006 207.098 246.992 207.155 246.981C207.34 246.938 207.525 246.899 207.714 246.867C207.927 246.825 208.144 246.789 208.362 246.753C208.579 246.721 208.799 246.693 209.02 246.664C209.462 246.611 209.907 246.575 210.359 246.55C210.465 246.547 210.572 246.536 210.683 246.529C211.085 246.504 211.487 246.476 211.893 246.44C211.893 246.44 211.893 246.44 211.897 246.44C212.096 246.422 212.295 246.404 212.495 246.387C212.694 246.372 212.893 246.351 213.096 246.333C213.271 246.315 213.445 246.301 213.62 246.287C214.004 246.255 214.388 246.223 214.773 246.198C215.157 246.173 215.542 246.155 215.926 246.145C216.225 246.137 216.524 246.134 216.823 246.145C216.902 246.145 216.984 246.145 217.062 246.145C217.105 246.145 217.144 246.145 217.183 246.145C217.382 246.152 217.585 246.162 217.785 246.177C218.333 246.219 218.81 246.141 219.216 245.696C220.7 244.066 221.925 242.264 222.395 240.096C222.854 237.985 221.786 236.138 219.561 234.917C216.795 233.404 213.854 233.343 210.8 233.746C206.888 234.262 203.1 235.013 199.537 236.868C194.973 239.246 192.787 242.877 193.001 248.017V248.021ZM194.375 232.863C194.435 232.927 194.496 232.991 194.56 233.051C194.62 233.108 194.681 233.162 194.745 233.215C194.806 233.265 194.866 233.315 194.93 233.358C194.991 233.4 195.055 233.439 195.119 233.475C195.247 233.546 195.375 233.6 195.503 233.639C195.713 233.696 195.93 233.71 196.165 233.674C196.251 233.66 196.336 233.639 196.429 233.61C196.475 233.596 196.521 233.582 196.568 233.564C196.66 233.528 196.753 233.486 196.852 233.436C196.899 233.411 196.949 233.382 196.998 233.354C197.354 233.147 197.714 232.945 198.077 232.756C198.259 232.66 198.437 232.567 198.622 232.475C198.771 232.4 198.921 232.325 199.07 232.254C199.22 232.179 199.369 232.108 199.522 232.04C199.651 231.98 199.779 231.919 199.91 231.862C199.953 231.845 199.992 231.827 200.031 231.809C200.149 231.756 200.274 231.702 200.391 231.652C200.658 231.538 200.929 231.428 201.199 231.321C201.448 231.222 201.701 231.125 201.95 231.033C201.972 231.026 201.989 231.019 202.011 231.012C202.26 230.919 202.509 230.83 202.758 230.748C202.808 230.73 202.854 230.713 202.904 230.698C203.153 230.613 203.406 230.535 203.655 230.456C203.844 230.396 204.036 230.339 204.229 230.282C204.994 230.054 205.766 229.851 206.546 229.677C206.742 229.63 206.934 229.588 207.13 229.545C207.909 229.374 208.696 229.224 209.49 229.096C209.885 229.032 210.284 228.968 210.683 228.911C211.078 228.851 211.476 228.797 211.879 228.751C212.277 228.701 212.68 228.655 213.082 228.612C213.481 228.569 213.887 228.53 214.289 228.495C214.691 228.456 215.093 228.424 215.499 228.391C215.57 228.384 215.645 228.384 215.716 228.381C215.773 228.377 215.83 228.374 215.887 228.367C215.919 228.363 215.951 228.359 215.983 228.356C216.03 228.349 216.076 228.342 216.119 228.327C216.161 228.317 216.204 228.302 216.243 228.285C216.272 228.27 216.3 228.253 216.325 228.235C216.4 228.181 216.475 228.124 216.546 228.068C216.606 228.021 216.663 227.975 216.72 227.925C216.759 227.897 216.795 227.865 216.831 227.833C216.873 227.79 216.916 227.754 216.955 227.715C217.009 227.665 217.058 227.615 217.108 227.562C217.144 227.526 217.176 227.491 217.208 227.455C217.322 227.334 217.429 227.206 217.525 227.078C217.564 227.028 217.603 226.978 217.639 226.925C217.735 226.793 217.82 226.658 217.898 226.523C217.938 226.462 217.973 226.398 218.005 226.334C218.041 226.273 218.073 226.209 218.101 226.149C218.119 226.117 218.133 226.088 218.148 226.056C218.165 226.021 218.183 225.981 218.194 225.946C218.233 225.864 218.269 225.779 218.297 225.697C218.333 225.618 218.361 225.544 218.386 225.465C218.422 225.366 218.454 225.262 218.482 225.163C218.504 225.091 218.521 225.02 218.536 224.949C218.607 224.668 218.657 224.379 218.682 224.091C218.692 224.009 218.699 223.924 218.699 223.842C218.71 223.728 218.71 223.611 218.71 223.497C218.71 223.365 218.707 223.233 218.696 223.102C218.696 222.995 218.682 222.888 218.667 222.781C218.664 222.738 218.66 222.696 218.653 222.653C218.639 222.539 218.621 222.425 218.596 222.311C218.571 222.179 218.543 222.051 218.507 221.923C218.479 221.802 218.443 221.681 218.404 221.56C218.393 221.532 218.386 221.503 218.372 221.471C218.34 221.368 218.301 221.261 218.258 221.161C218.219 221.055 218.173 220.955 218.123 220.852C218.112 220.827 218.101 220.805 218.091 220.78C217.977 220.542 217.849 220.314 217.699 220.093C217.628 219.979 217.546 219.869 217.464 219.759C217.382 219.648 217.297 219.545 217.204 219.442C217.115 219.339 217.023 219.235 216.923 219.139C216.528 218.748 216.072 218.402 215.553 218.125C215.464 218.075 215.371 218.029 215.282 217.99C215.189 217.94 215.1 217.897 215.008 217.858C214.826 217.772 214.645 217.698 214.46 217.626C214.353 217.587 214.242 217.548 214.136 217.509C214.032 217.473 213.926 217.441 213.822 217.409C213.687 217.367 213.552 217.327 213.417 217.295C213.296 217.263 213.175 217.235 213.053 217.21C212.861 217.167 212.673 217.135 212.48 217.107H212.477C212.381 217.092 212.281 217.082 212.185 217.071C212.117 217.06 212.05 217.053 211.978 217.05C211.925 217.043 211.868 217.039 211.815 217.035C211.8 217.032 211.786 217.032 211.768 217.032C211.637 217.021 211.505 217.014 211.37 217.011C211.245 217.007 211.12 217.003 210.996 217.003C210.747 217.003 210.49 217.011 210.234 217.028C203.574 217.37 197.874 219.734 193.908 225.337C192 228.032 192.328 230.67 194.375 232.863ZM99.3332 349.652C97.9021 347.64 96.4461 345.647 94.9332 343.699C94.3351 342.931 94.2212 341.88 93.3419 341.268C93.2565 341.208 93.171 341.151 93.0856 341.101C93.0464 341.076 93.0073 341.054 92.9681 341.033C92.9254 341.012 92.8863 340.99 92.8435 340.973C92.8079 340.955 92.7723 340.941 92.7367 340.93C92.6905 340.916 92.6442 340.901 92.6015 340.894C92.5837 340.891 92.5694 340.887 92.5552 340.887C92.452 340.877 92.3487 340.884 92.2455 340.916C91.7186 341.09 91.9785 341.606 92.0532 341.934C92.4733 343.753 92.7189 345.608 93.3526 347.388C93.3989 347.519 93.4452 347.644 93.4914 347.765C93.6303 348.132 93.7655 348.459 93.9044 348.751C93.9329 348.811 93.9613 348.872 93.9934 348.929C94.0361 349.014 94.0788 349.096 94.1251 349.178C94.1678 349.26 94.2141 349.335 94.2604 349.406C94.3066 349.481 94.3529 349.552 94.4028 349.62C94.4134 349.637 94.4241 349.652 94.4348 349.666C94.4846 349.741 94.5416 349.812 94.595 349.876C94.9261 350.271 95.3034 350.549 95.7733 350.741C95.8303 350.762 95.8872 350.784 95.9478 350.805C96.0474 350.841 96.1542 350.873 96.2646 350.901C96.3536 350.926 96.4497 350.947 96.5494 350.965C96.6562 350.987 96.7665 351.008 96.884 351.022L96.9588 351.033C97.0513 351.044 97.1474 351.054 97.2471 351.065C97.3397 351.076 97.4358 351.083 97.5319 351.086C97.6529 351.097 97.7811 351.104 97.9128 351.108C97.9698 351.108 98.0267 351.108 98.0837 351.108C98.2581 351.115 98.4397 351.115 98.6319 351.115C98.7173 351.093 98.8099 351.097 98.906 351.104C99.0342 351.118 99.1694 351.143 99.2976 351.143C99.3296 351.143 99.3581 351.143 99.3901 351.143C99.4507 351.133 99.5076 351.118 99.5646 351.086C99.5788 351.079 99.5895 351.072 99.6002 351.061C99.6144 351.051 99.6287 351.04 99.6393 351.029C99.6749 350.997 99.707 350.962 99.7319 350.915C100.031 350.41 99.5753 349.993 99.3332 349.652ZM132.892 7.76449C131.055 10.6729 129.432 13.2253 127.83 15.792C119.511 29.1024 113.537 43.3989 109.913 58.6672C108.39 65.0892 107.51 71.6145 106.909 78.186C106.218 85.7507 106.553 93.3297 106.716 100.902C106.745 102.187 105.919 103.799 106.812 104.65C107.613 105.412 109.233 105.262 110.444 105.665C110.718 105.757 110.992 105.85 111.266 105.946C112.359 106.32 113.448 106.704 114.53 107.11C115.071 107.313 115.609 107.523 116.143 107.74C116.677 107.957 117.211 108.182 117.741 108.413C118.268 108.644 118.795 108.883 119.315 109.128C119.578 109.249 119.838 109.378 120.094 109.506C120.354 109.634 120.614 109.762 120.87 109.897C121.383 110.161 121.892 110.438 122.398 110.723C122.647 110.866 122.9 111.012 123.149 111.161C123.245 111.222 123.345 111.279 123.444 111.336C123.547 111.396 123.654 111.457 123.758 111.517C123.936 111.613 124.114 111.713 124.291 111.809C124.484 111.912 124.68 112.016 124.872 112.119C125.324 112.361 125.776 112.599 126.225 112.841C143.059 82.6358 143.718 38.9633 132.892 7.76449ZM34.9065 237.861C35.0881 237.964 35.2732 238.06 35.4583 238.153C35.8321 238.331 36.213 238.477 36.601 238.594C36.9855 238.712 37.3771 238.797 37.7687 238.858C37.8683 238.872 37.9645 238.886 38.0641 238.897C38.235 238.914 38.4023 238.929 38.5732 238.936C38.6658 238.943 38.7548 238.943 38.8473 238.943C39.2069 238.947 39.5664 238.929 39.9189 238.886C39.926 238.886 39.9331 238.886 39.9402 238.886C40.0506 238.872 40.1609 238.854 40.2713 238.836C40.3816 238.818 40.4955 238.797 40.6059 238.772C40.6949 238.754 40.7839 238.733 40.8693 238.712C40.9085 238.701 40.9477 238.69 40.9868 238.68C41.0758 238.655 41.1612 238.633 41.2467 238.605C41.3535 238.573 41.4603 238.537 41.5635 238.502C41.713 238.448 41.8625 238.388 42.012 238.327C42.2328 238.231 42.4499 238.124 42.6635 238.01C42.8059 237.932 42.9447 237.85 43.0836 237.765C43.1512 237.722 43.2188 237.679 43.2865 237.633C43.4182 237.54 43.5499 237.444 43.6781 237.345C43.7671 237.277 43.8525 237.206 43.9379 237.131C44.0198 237.063 44.0981 236.992 44.1765 236.917C44.3473 236.761 44.5111 236.593 44.6677 236.415C44.746 236.33 44.8208 236.241 44.892 236.152C45.0023 236.017 45.1091 235.878 45.2053 235.732C45.2551 235.661 45.3049 235.586 45.3548 235.515C45.4046 235.44 45.4509 235.365 45.4972 235.287C48.8079 229.773 49.1354 223.728 48.8043 217.484C48.3237 208.442 46.8962 199.45 47.1667 190.368C47.3305 184.975 47.925 179.578 50.4952 174.755C50.6198 174.523 50.7444 174.292 50.8726 174.068C51.1289 173.619 51.3959 173.185 51.6735 172.765C51.8124 172.551 51.9548 172.345 52.0972 172.138C52.5315 171.519 52.9836 170.931 53.457 170.369C53.7703 169.995 54.0943 169.632 54.4324 169.283C54.5998 169.109 54.7671 168.938 54.938 168.767C55.1124 168.596 55.2833 168.432 55.4613 168.269C55.6357 168.101 55.8137 167.941 55.9952 167.785C56.1732 167.624 56.3583 167.468 56.5399 167.315C56.9101 167.009 57.2839 166.713 57.6684 166.432C57.8179 166.325 57.9639 166.218 58.1098 166.111C58.2059 166.044 58.302 165.98 58.4017 165.912C58.4338 165.887 58.4658 165.862 58.5014 165.841C58.6153 165.763 58.7292 165.684 58.8467 165.609C58.9927 165.513 59.1386 165.421 59.2846 165.328C59.4839 165.2 59.6833 165.079 59.8862 164.958C59.9111 164.944 59.9325 164.93 59.9538 164.915C60.1959 164.773 60.4451 164.631 60.6943 164.492C61.1143 164.26 61.5415 164.036 61.9758 163.819H61.9794C62.4137 163.605 62.8551 163.399 63.3001 163.203C63.4923 163.118 63.6917 163.032 63.8875 162.95C63.9409 162.929 63.9943 162.908 64.0441 162.886C64.247 162.801 64.4535 162.719 64.6564 162.641C65.3114 162.384 65.97 162.149 66.6428 161.929C66.7461 161.897 66.8529 161.861 66.9597 161.829C67.1768 161.758 67.394 161.69 67.6147 161.626C68.049 161.494 68.4904 161.37 68.9354 161.252C69.416 161.124 69.8966 160.999 70.3807 160.878C71.3419 160.636 72.3102 160.405 73.2784 160.188C73.9833 160.028 74.6882 159.875 75.3966 159.729C75.8238 159.636 76.2509 159.551 76.6817 159.465C77.9775 159.202 79.2768 158.96 80.5798 158.728C82.5341 158.379 84.4992 158.063 86.4642 157.764C87.4468 157.61 88.4293 157.464 89.4118 157.322C90.3943 157.176 91.3804 157.037 92.363 156.895C92.8364 156.827 93.3063 156.763 93.7798 156.696C94.7231 156.567 95.6701 156.439 96.6134 156.322C97.3361 156.229 98.0588 156.14 98.7814 156.058C98.9487 156.037 99.1196 156.016 99.2869 155.998C99.8138 155.934 100.341 155.873 100.867 155.816C101.814 155.709 102.761 155.606 103.708 155.51C105.602 155.318 107.503 155.14 109.401 154.983C110.351 154.905 111.298 154.83 112.248 154.759C113.199 154.688 114.149 154.62 115.1 154.556C115.317 154.542 115.534 154.531 115.748 154.52C115.961 154.506 116.175 154.499 116.392 154.492C116.527 154.485 116.663 154.481 116.798 154.478C116.83 154.478 116.862 154.478 116.894 154.474C117.111 154.471 117.328 154.463 117.546 154.463C118.646 154.446 119.746 154.463 120.846 154.499C124.256 154.606 127.656 154.898 131.066 154.955C138.325 155.069 145.366 156.364 152.301 158.39C152.482 158.443 152.664 158.486 152.838 158.518C153.016 158.547 153.183 158.564 153.351 158.564C153.518 158.564 153.668 158.55 153.817 158.515C153.874 158.5 153.927 158.486 153.981 158.468C154.145 158.419 154.301 158.34 154.444 158.233C154.508 158.187 154.568 158.134 154.629 158.077C154.75 157.959 154.86 157.824 154.963 157.66C155.529 156.749 154.835 155.991 154.412 155.243C154.38 155.186 154.344 155.129 154.308 155.072C154.276 155.015 154.241 154.962 154.205 154.908C154.098 154.745 153.984 154.592 153.863 154.446C153.838 154.414 153.814 154.382 153.785 154.353C153.696 154.246 153.6 154.147 153.504 154.047C153.39 153.937 153.272 153.83 153.155 153.73C153.08 153.67 153.002 153.609 152.927 153.556C152.852 153.499 152.778 153.445 152.699 153.392C152.585 153.314 152.468 153.239 152.35 153.171C152.301 153.139 152.247 153.111 152.194 153.082C151.994 152.968 151.788 152.865 151.574 152.773C151.457 152.716 151.325 152.662 151.204 152.616C151.186 152.605 151.165 152.598 151.147 152.591C150.973 152.523 150.798 152.459 150.624 152.399C150.435 152.335 150.247 152.274 150.054 152.214C149.866 152.157 149.673 152.1 149.481 152.043C148.986 151.9 148.492 151.765 148.004 151.616C147.797 151.552 147.587 151.491 147.381 151.43C147.214 151.381 147.046 151.334 146.879 151.288C146.626 151.217 146.373 151.146 146.117 151.082C145.907 151.025 145.693 150.971 145.483 150.918C145.273 150.864 145.06 150.811 144.846 150.761C144.633 150.708 144.419 150.658 144.205 150.612C143.935 150.548 143.664 150.491 143.39 150.434C143.237 150.398 143.084 150.366 142.931 150.338C142.639 150.277 142.347 150.22 142.055 150.167C141.76 150.11 141.468 150.056 141.176 150.007C140.898 149.957 140.621 149.914 140.347 149.868C140.069 149.821 139.791 149.779 139.514 149.74C139.111 149.679 138.705 149.626 138.3 149.572C137.99 149.533 137.684 149.494 137.374 149.458C136.993 149.412 136.612 149.369 136.231 149.334C135.267 149.238 134.295 149.156 133.326 149.092C133.006 149.07 132.682 149.049 132.358 149.031C131.888 149.003 131.418 148.978 130.948 148.96C130.229 148.931 129.507 148.907 128.784 148.889C128.773 148.889 128.77 148.889 128.759 148.889C128.279 148.878 127.798 148.871 127.317 148.864C125.747 148.842 124.17 148.846 122.597 148.867C121.999 148.874 121.404 148.882 120.81 148.892C120.215 148.903 119.621 148.914 119.023 148.928C118.432 148.942 117.845 148.953 117.254 148.967C116.666 148.978 116.075 148.992 115.484 149.006C115.032 149.013 114.577 149.024 114.124 149.035C113.405 149.052 112.683 149.074 111.964 149.095H111.949C111.173 149.12 110.394 149.145 109.614 149.177C109.223 149.191 108.831 149.209 108.439 149.227C107.656 149.263 106.869 149.305 106.086 149.352C105.613 149.384 105.139 149.412 104.666 149.448C104.292 149.476 103.915 149.505 103.537 149.533C103.523 149.533 103.505 149.533 103.491 149.533C103.181 149.554 102.879 149.579 102.569 149.611C102.178 149.643 101.79 149.679 101.398 149.722C101.006 149.757 100.618 149.8 100.227 149.843C99.116 149.967 98.0089 150.11 96.9018 150.266C95.9727 150.398 95.04 150.533 94.1109 150.679C93.7976 150.726 93.4843 150.775 93.1746 150.825C92.1387 150.985 91.1028 151.156 90.0704 151.324C89.0345 151.495 88.0021 151.662 86.9662 151.829C86.4464 151.915 85.9267 152 85.4105 152.093C85.3607 152.1 85.3144 152.107 85.2681 152.118C84.7662 152.203 84.2607 152.296 83.7587 152.392C83.3351 152.47 82.915 152.552 82.4914 152.637C80.9286 152.947 79.3765 153.285 77.828 153.648C77.5717 153.705 77.3189 153.766 77.0662 153.83C76.55 153.951 76.0338 154.075 75.514 154.207C75.094 154.31 74.6739 154.414 74.2574 154.524C73.3176 154.763 72.3778 155.012 71.438 155.268C70.9182 155.41 70.3949 155.553 69.8752 155.699C69.3555 155.845 68.8322 155.991 68.3124 156.14C67.7927 156.286 67.2729 156.436 66.7532 156.589C65.4004 156.984 64.0619 157.408 62.7554 157.888C62.4279 158.006 62.1004 158.13 61.7765 158.258C61.6163 158.322 61.4525 158.386 61.2923 158.454C61.1286 158.515 60.9719 158.582 60.8118 158.653C60.1639 158.924 59.5266 159.212 58.9037 159.522C58.7541 159.593 58.6046 159.668 58.4551 159.75C58.2202 159.867 57.9923 159.988 57.7645 160.113C57.5367 160.238 57.3088 160.362 57.0881 160.494C56.7891 160.665 56.4901 160.843 56.1982 161.035C56.0486 161.124 55.9027 161.217 55.7603 161.316C55.1765 161.701 54.6104 162.107 54.0587 162.544C53.9198 162.651 53.7846 162.762 53.6493 162.875C53.5104 162.989 53.3752 163.103 53.2435 163.217C52.9729 163.449 52.7095 163.687 52.4496 163.936C52.3179 164.061 52.1897 164.186 52.0616 164.314C46.8748 169.479 44.3758 175.933 43.2473 183.014C41.8447 191.824 42.7774 200.603 43.5143 209.396C44.0305 215.587 44.7211 221.802 43.9273 228.018C43.0907 234.579 41.0616 236.725 34.3654 237.526C34.5434 237.647 34.7214 237.758 34.9065 237.861ZM13.7644 165.264C12.1162 173.121 11.5537 181.099 12.045 189.098C12.8104 201.568 15.3201 213.618 21.6816 224.59C23.0699 226.989 24.5936 229.296 26.6476 231.207C29.8195 234.158 35.2768 234.632 38.8188 232.268C39.3777 231.894 39.481 231.289 39.6483 230.759C41.0011 226.473 41.2787 222.055 41.0438 217.605C40.7056 211.222 39.99 204.871 39.5985 198.489C39.2104 192.131 39.3884 185.865 40.2962 179.578C41.8305 168.952 47.8396 161.541 56.8318 156.233C62.136 153.104 68.1166 151.95 73.9869 150.53C83.1144 148.323 92.4128 147.166 101.74 146.19C109.397 145.389 117.058 144.809 124.751 145.204C130.831 145.514 136.922 145.777 142.967 146.596C144.202 146.763 145.281 147.618 146.704 147.429C146.484 146.023 145.562 144.923 144.985 143.688C142.71 138.807 139.67 134.293 136.285 130.26C131.141 124.13 124.747 119.256 117.446 115.675C105.915 110.022 93.7157 108.587 81.0959 109.527C72.4312 110.175 64.0121 111.944 55.8706 115.006C52.6098 116.234 52.7451 116.227 52.4603 119.748C52.0616 124.625 51.3567 129.47 49.6302 134.094C49.2244 135.183 48.7117 136.24 48.1671 137.269C44.4684 144.222 37.6975 143.937 31.9376 140.463C30.1327 139.373 28.5343 137.899 26.9716 136.461C26.1884 135.742 25.989 135.909 25.4729 136.693C19.6987 145.453 15.9075 155.026 13.7644 165.264ZM29.5489 128.889C32.0586 132.122 35.1593 134.802 38.47 137.244C39.9082 138.305 40.7803 138.01 41.859 136.778C44.002 134.332 44.3188 131.26 44.9774 128.309C45.8745 124.297 45.7891 120.207 45.814 116.12C45.4687 93.4365 40.1253 71.8886 31.3324 51.0633C27.0463 40.907 21.7813 31.338 15.6725 22.1998C15.4162 21.8153 15.1848 21.3668 14.8288 21.1034C14.4764 20.847 14.0777 20.4377 13.7324 21.3917C11.721 26.9949 10.5178 32.7548 9.77735 38.6607C8.88382 45.7697 8.2573 52.8824 8.43529 60.0484C8.88028 78.2785 12.223 95.8715 19.923 112.528C22.5965 118.309 25.6509 123.863 29.5489 128.889Z" fill="#143635"/>
<path d="M48.3096 284.174C51.2287 273.573 58.2808 266.88 68.2699 262.918C69.2061 262.544 69.9288 262.487 70.8259 263.011C72.8016 264.168 74.9589 264.937 77.1304 265.641C77.8495 265.873 78.4547 265.99 78.9246 265.14C79.3624 264.349 78.9566 264.022 78.4333 263.552C77.4116 262.637 77.6929 261.587 79.0385 261.195C79.4799 261.067 79.9961 261.021 80.4446 261.11C81.4663 261.309 82.2459 261.081 82.4773 260.006C82.7586 258.703 81.5553 258.846 80.8896 258.632C74.5637 256.603 68.5119 253.986 62.9479 250.327C58.6796 247.522 54.7495 244.307 51.6096 240.235C51.154 239.64 50.143 239.142 50.8371 237.992C52.9731 234.439 53.6245 230.399 54.0695 226.408C55.0556 217.572 53.6032 208.808 52.8485 200.036C52.4498 195.373 51.93 190.727 52.7096 186.071C53.5604 180.991 55.3226 176.317 59.1851 172.693C63.2148 168.916 68.2663 167.225 73.4495 165.844C79.5333 164.221 85.7524 163.274 91.9644 162.341C97.8524 161.458 103.783 160.864 109.728 160.411C112.683 160.184 115.641 160.137 118.592 159.97C125.442 159.589 132.294 159.707 139.047 161.188C141.005 161.615 142.312 162.69 143.056 164.644C145.092 169.959 146.274 175.456 146.484 181.119C146.655 185.68 146.559 190.247 146.498 194.811C146.463 197.751 146.986 200.549 148.438 203.102C149.09 204.241 149.097 204.775 147.733 205.351C145.195 206.434 142.732 207.704 140.368 209.157C139.325 209.798 139.286 210.545 139.887 211.464C140.567 212.5 141.091 211.546 141.614 211.271C143.198 210.435 144.672 209.356 146.544 209.225C146.655 209.42 146.765 209.541 146.876 209.566C146.904 209.573 146.932 209.573 146.961 209.566C146.975 209.566 146.989 209.559 147.004 209.552C147.018 209.545 147.032 209.538 147.046 209.527C147.103 209.488 147.16 209.417 147.214 209.314C147.228 209.289 147.242 209.26 147.256 209.232C148.527 209.267 149.909 207.779 150.816 208.673C151.567 209.417 151.34 211.101 151.66 212.339C151.87 213.155 151.607 213.382 150.848 213.471C149.15 213.671 147.452 213.892 145.772 214.205C145.263 214.297 144.426 214.329 144.433 215.084C144.441 215.946 145.22 215.963 145.882 215.999C147.534 216.088 149.186 216.241 150.838 216.245C151.575 216.245 151.866 216.326 151.87 217.152C151.884 219.402 151.81 221.634 151.279 223.838C149.873 229.705 146.915 234.703 142.921 239.163C137.776 244.905 131.839 249.554 124.868 252.901C120.874 254.819 116.574 255.731 112.38 257.005C111.401 257.304 110.86 257.756 110.946 258.874C111.035 260.006 111.95 259.956 112.615 260.077C115.784 260.661 118.934 260.611 122.092 259.803C129.069 258.016 135.434 255.083 140.913 250.32C146.11 245.802 150.92 240.975 154.042 234.728C154.383 234.044 154.839 234.165 155.337 234.14C157.662 234.033 159.901 234.574 162.13 235.108C170.321 237.077 177.654 240.964 184.788 245.304C185.678 245.849 185.678 246.564 185.668 247.415C185.611 251.203 186.611 254.627 189.238 257.457C189.605 257.856 190.057 258.201 189.872 258.81C189.473 260.138 189.551 261.512 189.448 262.865C189.032 268.368 190.367 273.391 194.268 277.375C196.999 280.166 200.477 281.964 204.129 283.38C204.506 283.526 205.069 283.359 205.375 284.331C205.742 285.498 205.884 286.634 205.884 287.763C205.884 289.016 205.71 290.265 205.468 291.554C204.862 291.191 204.314 290.874 203.769 290.539C197.397 286.613 191.175 282.437 184.952 278.286C179.537 274.68 174.091 271.127 168.584 267.664C168.174 267.407 167.704 266.784 167.124 267.649C166.697 268.283 166.786 268.699 167.213 269.212C167.704 269.799 168.156 270.419 168.634 271.02C177.248 281.8 185.408 292.885 192.574 304.718C194.5 307.897 194.19 310.229 192.535 313.088C187.027 322.578 179.555 330.179 170.428 336.141C163.094 340.933 155.184 344.603 146.783 347.099C140.033 349.103 133.248 350.933 126.114 351.203C121.308 351.385 116.524 351.264 111.779 350.676C109.426 350.388 107.03 350.399 105.051 348.01C94.2677 334.988 84.8126 321.072 76.1799 306.569C74.076 303.034 72.0006 299.485 69.9323 295.929C69.6119 295.377 69.3627 294.95 68.5938 295.249C67.7572 295.577 68.3055 296.121 68.3055 296.57C68.309 296.855 68.4336 297.139 68.487 297.428C70.0498 305.494 73.688 312.703 77.6252 319.809C79.9997 324.102 83.0932 328.025 84.3463 332.912C85.9482 339.146 87.6605 345.347 89.2625 351.58C89.6078 352.919 90.2664 353.713 91.6369 354.001C95.9942 354.92 100.245 356.319 104.677 356.913C105.3 356.995 105.916 357.141 106.35 357.76C110.344 363.456 114.349 369.141 118.382 374.805C118.991 375.659 118.923 376.339 118.343 377.183C117.218 378.831 116.15 380.526 115.153 382.256C114.708 383.028 114.178 383.071 113.409 383C107.76 382.47 102.085 382.299 96.4356 381.736C90.6935 381.167 85.0155 380.341 79.544 378.468C73.7058 376.471 68.4479 373.541 64.7883 368.358C62.332 364.884 60.7763 360.954 59.4734 356.952C53.2899 337.996 48.4769 318.73 47.0815 298.752C46.7397 293.861 46.996 288.959 48.3096 284.174ZM72.7375 205.576C73.4317 207.697 74.3537 209.716 76.123 211.229C77.1696 212.122 78.2482 212.332 79.5333 211.83C79.7576 211.745 79.9712 211.652 80.1777 211.553C80.3841 211.453 80.5835 211.35 80.7757 211.243C81.0285 211.097 81.267 210.944 81.4948 210.78C81.5482 210.741 81.6016 210.702 81.655 210.663C81.7404 210.599 81.8223 210.535 81.9042 210.467C81.9505 210.428 81.9967 210.392 82.0395 210.349C82.2424 210.179 82.4311 209.993 82.609 209.805C82.6945 209.712 82.7764 209.62 82.8582 209.524C82.901 209.477 82.9401 209.431 82.9757 209.381C83.054 209.285 83.1288 209.189 83.2 209.089C83.2925 208.965 83.378 208.84 83.4599 208.712C83.5453 208.584 83.6236 208.452 83.6984 208.317C83.7304 208.26 83.766 208.199 83.7945 208.142C83.8515 208.046 83.9013 207.947 83.9476 207.843C84.0045 207.729 84.0615 207.608 84.1113 207.491C84.1647 207.37 84.2146 207.249 84.2644 207.124C84.3 207.028 84.3356 206.932 84.3676 206.836C84.4175 206.701 84.4637 206.562 84.5029 206.419C84.5243 206.362 84.5421 206.302 84.5563 206.245C84.5955 206.12 84.6275 205.996 84.6595 205.868C84.6951 205.725 84.7272 205.579 84.7592 205.433C84.7592 205.426 84.7592 205.423 84.7592 205.415C84.7877 205.28 84.8162 205.145 84.8411 205.006C84.8411 204.992 84.8447 204.978 84.8482 204.963C84.8731 204.81 84.8981 204.661 84.9194 204.504C84.9408 204.351 84.9621 204.191 84.9799 204.034C85.5104 199.26 84.866 194.647 82.4809 190.382C82.1392 189.77 81.7796 189.154 81.3346 188.613C81.1246 188.353 80.9074 188.122 80.6832 187.912C80.6084 187.84 80.5336 187.773 80.4589 187.712C80.3841 187.645 80.3058 187.584 80.2311 187.527C80.1741 187.481 80.1171 187.438 80.0566 187.399C80.0175 187.37 79.9747 187.338 79.932 187.313C79.8786 187.274 79.8217 187.239 79.7683 187.207C79.69 187.157 79.6116 187.111 79.5333 187.068C79.3767 186.982 79.2165 186.908 79.0599 186.847C78.978 186.812 78.8997 186.783 78.8178 186.758C78.4974 186.648 78.177 186.584 77.8602 186.566C77.6857 186.552 77.5113 186.552 77.3369 186.566C77.2443 186.573 77.1518 186.584 77.0556 186.602C76.9738 186.612 76.8919 186.626 76.81 186.648C76.7887 186.655 76.7637 186.658 76.7424 186.666C76.6605 186.683 76.5822 186.705 76.5039 186.737C76.4113 186.762 76.3223 186.797 76.2333 186.836C76.0518 186.908 75.8773 187 75.7029 187.103C75.6175 187.157 75.532 187.214 75.4501 187.271C75.2793 187.388 75.1155 187.524 74.9589 187.673C74.8806 187.744 74.8022 187.823 74.7275 187.904C74.6705 187.961 74.6171 188.022 74.5637 188.086C74.5246 188.129 74.4854 188.175 74.4498 188.221C74.3786 188.307 74.311 188.396 74.2469 188.488C74.1152 188.666 73.9906 188.855 73.8731 189.058C73.809 189.168 73.745 189.282 73.6844 189.4C73.4993 189.759 73.3747 190.147 73.2181 190.521C72.4171 190.044 72.7873 190.909 72.5631 191.091L72.5951 191.062C72.5951 191.062 72.588 191.08 72.5844 191.087C72.4349 191.422 72.2961 191.753 72.175 192.087C72.1359 192.187 72.1003 192.283 72.0683 192.383C72.0327 192.479 72.0006 192.575 71.9721 192.671C71.9259 192.806 71.8867 192.938 71.8475 193.073C71.8191 193.162 71.7941 193.251 71.7728 193.34C71.7407 193.454 71.7123 193.568 71.6838 193.679C71.6517 193.8 71.6233 193.921 71.5984 194.042C71.5592 194.195 71.5272 194.351 71.5022 194.504C71.4844 194.593 71.4666 194.682 71.4524 194.775C71.431 194.878 71.4168 194.981 71.4026 195.085C71.3776 195.241 71.3563 195.398 71.3385 195.555C71.2815 196.003 71.2495 196.455 71.2352 196.904C71.2281 197.1 71.2246 197.299 71.2246 197.495C71.2246 200.197 71.8511 202.892 72.734 205.572L72.7375 205.576ZM88.7997 175.918C87.5644 173.697 85.6955 172.223 83.2071 171.707C78.4653 170.724 73.8411 170.66 69.8006 173.953C68.6615 174.882 67.9388 176.057 67.7572 177.542C67.7394 177.641 67.7359 177.745 67.743 177.841C67.7466 177.873 67.7501 177.905 67.7572 177.937C67.7679 178.001 67.7822 178.061 67.8071 178.118C67.8178 178.147 67.8284 178.172 67.8427 178.197C67.8818 178.279 67.9352 178.353 68.0064 178.417C68.0207 178.432 68.0349 178.442 68.0492 178.453C68.0598 178.464 68.0741 178.474 68.0919 178.485C68.1132 178.499 68.131 178.513 68.1524 178.524C68.1773 178.542 68.2058 178.556 68.2307 178.563C68.2556 178.574 68.277 178.581 68.2983 178.588C68.4087 178.62 68.5119 178.617 68.6081 178.588C68.633 178.581 68.6579 178.574 68.6828 178.56C68.7077 178.553 68.7327 178.542 68.754 178.528C68.8003 178.503 68.8501 178.471 68.8928 178.439C68.9213 178.421 68.9462 178.4 68.9712 178.378C69.078 178.293 69.1741 178.204 69.2666 178.129C69.2844 178.115 69.2987 178.101 69.3129 178.09C69.4268 178.008 69.5407 177.926 69.6547 177.848C69.8433 177.716 70.0356 177.591 70.2278 177.467C70.3844 177.367 70.5375 177.275 70.6941 177.182C71.0074 176.997 71.3242 176.83 71.6446 176.673C71.7657 176.616 71.8867 176.559 72.0077 176.506C72.1074 176.459 72.2071 176.417 72.3068 176.374C72.41 176.328 72.5132 176.285 72.6165 176.246C72.7767 176.182 72.944 176.118 73.1077 176.061C73.4388 175.947 73.7699 175.844 74.1081 175.758C74.2291 175.726 74.3501 175.698 74.4712 175.673C74.4819 175.666 74.489 175.666 74.4996 175.666C74.5602 175.651 74.6207 175.637 74.6812 175.626C74.7773 175.601 74.8734 175.584 74.9696 175.569C75.0479 175.552 75.1262 175.541 75.2045 175.527C75.5249 175.473 75.8488 175.431 76.1728 175.406C76.3081 175.391 76.4433 175.384 76.5786 175.377C76.6427 175.377 76.7103 175.37 76.7744 175.37C76.9275 175.363 77.077 175.359 77.2301 175.359C77.8531 175.359 78.4867 175.406 79.1275 175.498C79.4052 175.537 79.6864 175.584 79.9641 175.63C80.2382 175.676 80.5087 175.723 80.7828 175.772C80.9644 175.804 81.1459 175.84 81.3311 175.876C81.4628 175.901 81.5945 175.925 81.7262 175.954C81.9683 176 82.2103 176.05 82.4524 176.103C82.6268 176.139 82.8013 176.175 82.9757 176.214C83.1573 176.253 83.3388 176.292 83.5204 176.331C84.2502 176.488 84.9764 176.659 85.7061 176.826C86.0728 176.908 86.4359 176.993 86.799 177.075C87.1621 177.157 87.5288 177.239 87.8919 177.317C87.9239 177.324 87.956 177.335 87.9845 177.346C88.0485 177.367 88.1091 177.396 88.1731 177.424C88.2871 177.481 88.401 177.538 88.5149 177.563C88.5291 177.563 88.5398 177.57 88.5541 177.57C88.611 177.581 88.6644 177.581 88.7214 177.567C88.7498 177.559 88.7819 177.549 88.8139 177.531C88.8424 177.517 88.8744 177.495 88.9029 177.47C88.935 177.442 88.9634 177.413 88.9955 177.374C89.4191 176.851 89.0311 176.331 88.7997 175.918ZM137.591 172.07C137.734 172.195 137.88 172.316 138.026 172.433C138.172 172.554 138.318 172.672 138.467 172.786C138.503 172.814 138.542 172.843 138.577 172.875C138.617 172.903 138.656 172.935 138.695 172.967C138.734 172.996 138.773 173.028 138.812 173.056C139.126 173.295 139.475 173.476 139.87 173.17C139.891 173.152 139.912 173.134 139.934 173.117C139.984 173.067 140.023 173.013 140.048 172.957C140.058 172.939 140.065 172.921 140.069 172.903C140.083 172.864 140.094 172.828 140.098 172.789C140.105 172.75 140.108 172.707 140.108 172.668C140.108 172.415 140.005 172.131 139.944 171.86C139.891 171.611 139.827 171.369 139.752 171.13C139.717 171.009 139.681 170.892 139.638 170.774C139.556 170.543 139.467 170.315 139.368 170.094C139.268 169.874 139.161 169.66 139.047 169.454C138.816 169.037 138.553 168.645 138.257 168.282C137.965 167.923 137.641 167.588 137.289 167.282C137.2 167.204 137.111 167.133 137.022 167.061C136.84 166.912 136.652 166.777 136.456 166.648C136.26 166.517 136.061 166.396 135.854 166.285C135.644 166.171 135.431 166.068 135.213 165.972C134.996 165.876 134.772 165.787 134.541 165.712C134.427 165.669 134.309 165.634 134.192 165.598C134.074 165.563 133.957 165.531 133.836 165.502C133.718 165.467 133.597 165.442 133.473 165.417C133.352 165.388 133.227 165.367 133.102 165.345C132.978 165.324 132.85 165.306 132.725 165.289C132.597 165.271 132.472 165.256 132.341 165.249C132.212 165.235 132.081 165.224 131.949 165.221C131.817 165.21 131.686 165.207 131.554 165.203C131.294 165.203 131.038 165.207 130.785 165.228C130.742 165.228 130.696 165.235 130.653 165.239C130.596 165.242 130.536 165.246 130.479 165.256C130.365 165.267 130.251 165.281 130.137 165.299C130.005 165.317 129.874 165.338 129.742 165.363C129.649 165.381 129.553 165.402 129.457 165.424C129.364 165.445 129.268 165.467 129.176 165.491C129.101 165.509 129.03 165.531 128.955 165.552C128.88 165.57 128.806 165.591 128.731 165.616C128.642 165.645 128.553 165.673 128.467 165.705C128.097 165.833 127.734 165.983 127.385 166.161C127.282 166.211 127.182 166.264 127.083 166.321C127.083 166.321 127.075 166.321 127.072 166.324C126.983 166.374 126.897 166.424 126.808 166.478C126.73 166.524 126.648 166.574 126.57 166.627C126.456 166.695 126.346 166.773 126.235 166.851C126.178 166.89 126.125 166.93 126.072 166.972C125.929 167.072 125.794 167.182 125.662 167.293C125.498 167.428 125.342 167.574 125.189 167.723C125.068 167.841 124.947 167.966 124.836 168.094C124.754 168.179 124.68 168.268 124.608 168.357C124.519 168.464 124.434 168.571 124.352 168.678C124.22 168.852 124.096 169.03 123.982 169.215C123.921 169.304 123.868 169.397 123.815 169.489C123.601 169.859 123.416 170.251 123.266 170.657C123.106 171.095 122.982 171.557 122.935 172.017C122.918 172.184 122.9 172.369 122.91 172.547C122.91 172.579 122.914 172.608 122.918 172.64C122.918 172.657 122.918 172.679 122.925 172.7C122.932 172.722 122.932 172.743 122.939 172.764C122.939 172.771 122.939 172.782 122.946 172.793C122.95 172.811 122.953 172.825 122.957 172.843C122.964 172.868 122.971 172.889 122.982 172.914C122.996 172.949 123.014 172.985 123.035 173.021C123.039 173.031 123.046 173.042 123.056 173.053C123.071 173.074 123.088 173.099 123.11 173.12C123.163 173.177 123.231 173.227 123.313 173.27C123.334 173.28 123.352 173.291 123.373 173.298C123.594 173.377 123.808 173.298 124.01 173.174C124.082 173.127 124.153 173.074 124.22 173.024C124.256 172.999 124.292 172.971 124.324 172.942C124.356 172.917 124.388 172.889 124.42 172.864C124.733 172.618 125.046 172.373 125.36 172.134C125.833 171.775 126.314 171.422 126.808 171.091C127.136 170.87 127.471 170.66 127.816 170.461C127.987 170.361 128.161 170.265 128.339 170.173C128.432 170.126 128.528 170.077 128.62 170.034C128.738 169.977 128.859 169.923 128.976 169.874C129.03 169.852 129.083 169.831 129.137 169.81C129.219 169.778 129.3 169.749 129.382 169.721C129.432 169.703 129.482 169.685 129.535 169.671C129.646 169.635 129.753 169.603 129.863 169.575C129.948 169.55 130.037 169.528 130.123 169.511C130.319 169.468 130.514 169.436 130.707 169.411C130.828 169.397 130.952 169.382 131.073 169.375C131.522 169.347 131.963 169.368 132.398 169.429C132.472 169.443 132.547 169.454 132.618 169.468C132.935 169.521 133.252 169.6 133.565 169.699C133.654 169.724 133.743 169.756 133.832 169.788C133.839 169.788 133.846 169.792 133.853 169.795C133.942 169.824 134.031 169.859 134.12 169.895C134.242 169.941 134.363 169.991 134.48 170.045C134.58 170.087 134.683 170.134 134.783 170.183C135.039 170.304 135.295 170.436 135.548 170.582C135.737 170.689 135.925 170.803 136.11 170.92C136.217 170.988 136.32 171.056 136.42 171.134C136.826 171.422 137.207 171.746 137.591 172.07ZM131.753 204.113C131.839 204.059 131.92 204.006 132.002 203.945C132.084 203.885 132.163 203.824 132.237 203.757H132.241C132.298 203.707 132.355 203.657 132.408 203.603C132.465 203.554 132.519 203.497 132.572 203.44C132.64 203.365 132.707 203.287 132.778 203.208C132.846 203.126 132.914 203.041 132.974 202.956C133.038 202.87 133.099 202.785 133.159 202.696C133.22 202.607 133.28 202.514 133.337 202.422C133.426 202.283 133.508 202.14 133.59 201.994C133.668 201.852 133.747 201.703 133.825 201.553C136.139 197.043 135.932 192.401 134.665 187.677C134.16 185.797 133.622 183.957 132.244 182.479C130.379 180.482 128.46 180.368 126.534 182.273C123.864 184.921 123.419 188.328 123.38 192.141C123.419 195.391 124.178 198.726 126.025 201.77C126.125 201.934 126.228 202.094 126.339 202.251C126.417 202.365 126.499 202.479 126.581 202.589C126.588 202.596 126.591 202.603 126.595 202.607C126.663 202.696 126.734 202.781 126.805 202.867C126.933 203.023 127.072 203.173 127.218 203.315C127.243 203.34 127.271 203.365 127.296 203.39C127.499 203.586 127.713 203.76 127.944 203.913C128.015 203.959 128.086 204.002 128.158 204.045C128.218 204.084 128.279 204.116 128.343 204.148C128.435 204.194 128.528 204.241 128.624 204.28C128.681 204.305 128.742 204.326 128.802 204.348C128.855 204.369 128.909 204.383 128.962 204.401C129.016 204.419 129.069 204.433 129.126 204.447C129.183 204.461 129.243 204.476 129.3 204.486C129.361 204.501 129.421 204.511 129.478 204.518C129.539 204.529 129.603 204.536 129.664 204.543C129.703 204.55 129.745 204.554 129.785 204.554C129.87 204.561 129.955 204.565 130.044 204.565H130.116C130.187 204.565 130.258 204.561 130.326 204.554C130.358 204.554 130.39 204.554 130.418 204.547C130.468 204.547 130.518 204.536 130.564 204.533C130.735 204.508 130.899 204.472 131.055 204.422C131.205 204.376 131.347 204.319 131.483 204.255C131.575 204.212 131.661 204.166 131.746 204.113H131.753ZM84.777 239.775C85.1259 239.996 85.4748 240.217 85.8272 240.438C86.0016 240.548 86.1796 240.655 86.354 240.765C86.7599 241.018 87.1728 241.263 87.5858 241.498C87.7744 241.612 87.9631 241.719 88.1518 241.822C88.3013 241.908 88.4473 241.99 88.5968 242.068C88.7427 242.146 88.8922 242.228 89.0418 242.306C89.4084 242.499 89.7751 242.684 90.1489 242.862C90.5547 243.054 90.9641 243.239 91.3806 243.414C91.5159 243.474 91.6583 243.531 91.7971 243.584C92.0071 243.666 92.2172 243.748 92.4308 243.823C92.8579 243.98 93.2887 244.122 93.7266 244.247C93.9473 244.311 94.168 244.371 94.3887 244.428C99.6858 245.77 104.962 246.059 110.262 245.357C110.729 245.293 111.191 245.226 111.654 245.151C112.12 245.076 112.587 244.991 113.05 244.898C113.747 244.759 114.449 244.606 115.146 244.435C115.381 244.378 115.613 244.318 115.848 244.257C116.036 244.207 116.225 244.158 116.414 244.108C116.649 244.044 116.884 243.976 117.115 243.908C117.346 243.837 117.578 243.77 117.806 243.695C117.998 243.634 118.186 243.574 118.375 243.51C118.639 243.421 118.902 243.328 119.162 243.236C119.244 243.207 119.322 243.179 119.4 243.147C119.678 243.043 119.952 242.94 120.223 242.83C120.483 242.723 120.746 242.613 121.002 242.502C121.259 242.388 121.515 242.274 121.768 242.157C122.02 242.039 122.273 241.918 122.522 241.79C122.772 241.666 123.017 241.538 123.259 241.406C123.747 241.142 124.228 240.865 124.701 240.569C125.014 240.373 125.324 240.171 125.63 239.964C125.936 239.754 126.242 239.537 126.545 239.309C126.695 239.199 126.844 239.085 126.99 238.967C127.14 238.85 127.289 238.732 127.435 238.611C127.581 238.494 127.723 238.373 127.866 238.248C128.282 237.892 128.692 237.518 129.09 237.127C129.222 237.002 129.354 236.871 129.482 236.739C130.023 236.187 130.543 235.607 131.048 234.994C131.764 234.129 131.71 233.581 130.924 232.762C130.892 232.723 130.856 232.691 130.824 232.663C130.632 232.467 130.45 232.307 130.279 232.182C130.222 232.139 130.165 232.104 130.108 232.072C130.052 232.04 129.995 232.011 129.938 231.99C129.884 231.969 129.831 231.951 129.781 231.937C129.753 231.929 129.724 231.922 129.696 231.919C129.671 231.919 129.646 231.908 129.621 231.908C129.585 231.908 129.55 231.901 129.514 231.901C129.446 231.901 129.379 231.908 129.308 231.926C129.275 231.926 129.24 231.937 129.208 231.947C129.154 231.961 129.101 231.983 129.048 232.004C128.941 232.047 128.827 232.111 128.709 232.189C128.592 232.268 128.467 232.36 128.339 232.474C128.272 232.531 128.204 232.592 128.136 232.656C125.214 235.404 121.949 237.696 117.82 238.715C118.532 234.521 119.105 230.495 118.457 226.426C118.265 225.223 118.774 224.603 119.674 224.002C120.554 223.411 121.43 222.813 122.298 222.204C123.167 221.592 124.028 220.972 124.879 220.338C128.556 217.597 129.087 213.301 126.321 209.655C126.271 209.588 126.218 209.52 126.164 209.456C126.111 209.392 126.054 209.328 126 209.267C125.943 209.207 125.89 209.146 125.833 209.089C125.769 209.025 125.705 208.961 125.637 208.901C125.58 208.847 125.527 208.797 125.47 208.751C125.413 208.701 125.356 208.655 125.296 208.612C125.235 208.562 125.171 208.516 125.107 208.473C125.061 208.438 125.011 208.406 124.964 208.374C124.961 208.374 124.954 208.374 124.95 208.367C124.851 208.299 124.747 208.238 124.641 208.181C124.534 208.121 124.427 208.064 124.313 208.014C124.281 207.996 124.245 207.982 124.21 207.968C124.103 207.922 123.996 207.879 123.889 207.84C123.832 207.822 123.779 207.801 123.722 207.786C123.654 207.758 123.583 207.74 123.512 207.722C123.448 207.704 123.38 207.687 123.309 207.672C123.242 207.658 123.17 207.644 123.103 207.63C122.964 207.605 122.825 207.583 122.686 207.566C122.59 207.555 122.497 207.548 122.401 207.541C121.305 207.473 120.205 207.409 119.101 207.37C118.767 207.356 118.432 207.348 118.097 207.341C117.813 207.334 117.528 207.331 117.24 207.331C116.823 207.331 116.403 207.334 115.986 207.348C115.805 207.352 115.623 207.359 115.442 207.366C115.242 207.373 115.043 207.384 114.844 207.398C114.58 207.413 114.317 207.434 114.053 207.459C114.025 207.459 114 207.459 113.972 207.466C113.701 207.491 113.427 207.519 113.156 207.555C113.003 207.576 112.847 207.594 112.694 207.619C112.548 207.637 112.402 207.658 112.256 207.687C111.96 207.733 111.668 207.79 111.376 207.85C111.23 207.875 111.085 207.907 110.942 207.943C110.65 208.007 110.358 208.082 110.07 208.16C109.799 208.235 109.532 208.317 109.269 208.413C109.137 208.456 109.006 208.505 108.877 208.555C108.685 208.63 108.493 208.708 108.301 208.797C108.194 208.844 108.084 208.89 107.977 208.943C107.852 209 107.724 209.061 107.599 209.128C107.461 209.2 107.325 209.271 107.186 209.346C107.051 209.42 106.916 209.499 106.781 209.581C106.645 209.659 106.514 209.741 106.382 209.826C106.115 209.993 105.855 210.171 105.599 210.357C105.371 210.52 105.147 210.691 104.922 210.866C104.702 211.04 104.481 211.222 104.267 211.41C104.2 211.471 104.136 211.528 104.072 211.592C104.007 211.649 103.947 211.713 103.89 211.773C103.659 212.015 103.463 212.265 103.306 212.521C103.224 212.649 103.157 212.777 103.096 212.909C103.032 213.041 102.982 213.172 102.936 213.304C102.89 213.436 102.851 213.571 102.826 213.71C102.811 213.778 102.797 213.845 102.786 213.913C102.772 213.981 102.765 214.048 102.762 214.119C102.751 214.191 102.744 214.258 102.744 214.329C102.737 214.493 102.737 214.657 102.747 214.821C102.751 214.913 102.762 215.009 102.776 215.102C102.794 215.294 102.829 215.486 102.875 215.679C102.964 216.063 103.093 216.455 103.256 216.853C103.399 217.206 103.559 217.54 103.733 217.861C103.851 218.074 103.972 218.277 104.1 218.477C104.189 218.615 104.282 218.751 104.378 218.879C104.41 218.929 104.445 218.975 104.485 219.025C104.801 219.449 105.147 219.84 105.517 220.196C105.659 220.335 105.802 220.47 105.948 220.598C105.955 220.605 105.962 220.609 105.969 220.616C106.118 220.748 106.268 220.872 106.425 220.993C106.791 221.282 107.176 221.549 107.571 221.798C107.785 221.933 108.005 222.065 108.226 222.19C108.354 222.261 108.482 222.332 108.614 222.403C108.674 222.435 108.739 222.467 108.799 222.499C108.977 222.592 109.159 222.681 109.337 222.77C109.337 222.77 109.338 222.771 109.34 222.773C109.522 222.862 109.703 222.948 109.888 223.03C109.913 223.044 109.942 223.055 109.967 223.065C110.123 223.137 110.284 223.204 110.444 223.275C110.632 223.357 110.818 223.436 111.006 223.51C111.195 223.585 111.384 223.66 111.572 223.735C111.693 223.781 111.807 223.827 111.918 223.881C112.416 224.098 112.807 224.336 113.124 224.61C113.171 224.649 113.213 224.692 113.256 224.735C113.299 224.774 113.341 224.817 113.381 224.863C113.391 224.877 113.402 224.888 113.413 224.899C113.463 224.956 113.509 225.016 113.555 225.077C113.601 225.141 113.644 225.201 113.683 225.269C113.751 225.376 113.811 225.486 113.865 225.6C113.9 225.678 113.936 225.757 113.964 225.838C114 225.924 114.029 226.013 114.057 226.105C114.068 226.134 114.075 226.162 114.082 226.191C114.103 226.262 114.125 226.34 114.142 226.419C114.167 226.518 114.192 226.622 114.21 226.732C114.256 226.956 114.292 227.202 114.324 227.462C114.801 231.46 114.335 235.329 113.829 239.241C113.815 239.362 113.79 239.469 113.754 239.555C113.744 239.587 113.733 239.612 113.719 239.64C113.669 239.743 113.608 239.825 113.534 239.882C113.516 239.896 113.498 239.911 113.48 239.921C113.463 239.932 113.445 239.943 113.427 239.953C113.409 239.964 113.391 239.975 113.37 239.982C113.32 240.003 113.263 240.021 113.206 240.035C113.149 240.05 113.092 240.06 113.028 240.067C112.975 240.074 112.921 240.078 112.864 240.082C112.825 240.085 112.786 240.085 112.743 240.089C111.996 240.128 111.248 240.156 110.501 240.178C110.034 240.192 109.568 240.203 109.102 240.21H109.08C106.179 240.249 103.306 240.146 100.473 239.825C100.469 239.825 100.465 239.825 100.465 239.825C100.099 239.783 99.7321 239.736 99.369 239.69C99.0023 239.64 98.6392 239.587 98.2761 239.53H98.269C97.7848 239.451 97.3007 239.37 96.8201 239.281C96.7524 239.27 96.6848 239.256 96.6172 239.241C96.4605 239.213 96.3039 239.181 96.1437 239.149C96.0191 239.124 95.8945 239.099 95.7699 239.071C95.5172 239.017 95.2644 238.96 95.0117 238.903C94.4065 238.764 93.8084 238.615 93.2104 238.451C92.7369 238.319 92.2599 238.181 91.79 238.035C91.7651 238.027 91.7401 238.02 91.7188 238.013C91.6084 237.981 91.5016 237.946 91.3948 237.91C91.3628 237.899 91.3343 237.892 91.3023 237.878C91.1777 237.839 91.0531 237.8 90.9285 237.757C90.5654 237.636 90.2023 237.508 89.8427 237.372C89.6968 237.323 89.5544 237.269 89.4155 237.212C89.177 237.12 88.9385 237.024 88.7 236.928C88.6751 236.92 88.6537 236.913 88.6324 236.903C88.3939 236.803 88.1553 236.707 87.9168 236.604C87.568 236.45 87.2227 236.297 86.8774 236.137C86.7065 236.059 86.532 235.977 86.3576 235.892C86.1832 235.81 86.0087 235.724 85.8379 235.635C85.667 235.55 85.4925 235.461 85.3217 235.372C85.1508 235.283 84.9799 235.19 84.8091 235.098C84.7628 235.073 84.7165 235.048 84.6702 235.023C84.6275 235.002 84.5848 234.977 84.5421 234.948C84.4993 234.923 84.4602 234.898 84.421 234.873C84.3036 234.802 84.2039 234.727 84.1149 234.653C84.0864 234.628 84.0579 234.606 84.033 234.582C83.9938 234.546 83.9618 234.51 83.9333 234.478C83.9048 234.446 83.8799 234.411 83.855 234.379C83.855 234.379 83.8515 234.375 83.8515 234.372C83.8301 234.339 83.8123 234.311 83.798 234.279C83.7767 234.233 83.7625 234.186 83.7553 234.14C83.7482 234.108 83.7447 234.08 83.7447 234.048C83.7447 234.012 83.7447 233.973 83.7553 233.937C83.7625 233.898 83.7767 233.859 83.7945 233.82C83.8194 233.759 83.8586 233.692 83.9084 233.628C83.9262 233.603 83.9476 233.578 83.9689 233.553C83.9903 233.528 84.0152 233.499 84.0401 233.474C84.1184 233.396 84.211 233.314 84.3214 233.229C84.3569 233.2 84.3961 233.172 84.4353 233.143C84.478 233.115 84.5207 233.083 84.5634 233.054C84.9515 232.791 85.3359 232.513 85.7061 232.225C85.7738 232.172 85.8343 232.118 85.8913 232.061C85.9803 231.979 86.0479 231.887 86.0977 231.787C86.1155 231.755 86.1298 231.723 86.1369 231.687C86.176 231.577 86.1867 231.452 86.1618 231.317C86.1511 231.267 86.1369 231.214 86.1191 231.16C86.1084 231.128 86.0942 231.096 86.0728 231.061C86.055 231.025 86.0337 230.99 86.0087 230.954C85.8948 230.79 85.7133 230.612 85.4926 230.438C85.432 230.388 85.3644 230.342 85.2968 230.292C85.2291 230.246 85.1544 230.199 85.0796 230.15C85.0048 230.1 84.9301 230.057 84.8553 230.014C84.777 229.968 84.6987 229.925 84.6204 229.886C84.5812 229.865 84.5421 229.843 84.5029 229.826C84.3819 229.765 84.2608 229.712 84.1434 229.662C84.0437 229.619 83.944 229.583 83.8479 229.551C83.7909 229.53 83.734 229.512 83.677 229.494C83.6201 229.477 83.5631 229.462 83.5097 229.452C83.4563 229.438 83.4029 229.427 83.3495 229.42C83.2997 229.409 83.2498 229.402 83.2 229.398C83.0434 229.384 82.9045 229.398 82.7942 229.43C82.5984 229.494 82.4061 229.566 82.2175 229.637C82.1747 229.651 82.1356 229.665 82.0964 229.683C81.9078 229.758 81.7226 229.833 81.5446 229.911C81.5269 229.918 81.5126 229.925 81.4984 229.932C81.1032 230.103 80.7259 230.295 80.3628 230.502C80.3592 230.502 80.3556 230.502 80.3521 230.509C80.1848 230.605 80.0175 230.705 79.8573 230.808C79.8288 230.826 79.8039 230.84 79.779 230.858C79.6116 230.965 79.4479 231.079 79.2877 231.196C79.1168 231.321 78.9495 231.449 78.7893 231.584C78.6256 231.716 78.4689 231.855 78.3194 231.997C78.2233 232.086 78.1307 232.179 78.0382 232.271C77.9314 232.374 77.8317 232.481 77.7356 232.592C77.6537 232.677 77.5789 232.762 77.5077 232.848C77.4223 232.948 77.3404 233.051 77.2586 233.154C77.166 233.272 77.077 233.393 76.9916 233.514C76.81 233.763 76.6427 234.023 76.4861 234.297C76.3971 234.446 76.3152 234.596 76.2333 234.752C76.2262 234.763 76.2226 234.774 76.2155 234.784C76.1336 234.948 76.0518 235.112 75.977 235.283C75.8987 235.454 75.8239 235.628 75.7527 235.806C75.6815 235.988 75.6139 236.169 75.5498 236.354C75.3184 237.031 75.1155 237.978 75.6068 238.366C75.6424 238.394 75.678 238.416 75.7171 238.437C75.7421 238.451 75.767 238.462 75.7954 238.469C75.799 238.472 75.8026 238.476 75.8061 238.472C75.8239 238.48 75.8417 238.487 75.8595 238.49C75.8631 238.49 75.8666 238.497 75.8702 238.49C75.8844 238.497 75.8987 238.501 75.9165 238.501C75.9343 238.501 75.9556 238.508 75.977 238.512C76.0767 238.522 76.1799 238.519 76.2867 238.505C76.333 238.497 76.3793 238.487 76.4255 238.472C76.4718 238.462 76.5181 238.448 76.5679 238.43H76.5715C76.632 238.401 76.6961 238.376 76.7566 238.348C76.8492 238.302 76.9417 238.248 77.0343 238.191C77.0912 238.152 77.1482 238.113 77.2052 238.07C77.2586 238.031 77.312 237.988 77.3618 237.942C77.4116 237.899 77.4579 237.857 77.5006 237.81C77.5398 237.768 77.5825 237.728 77.6217 237.693C77.6608 237.654 77.7 237.618 77.7391 237.583C77.7783 237.547 77.821 237.515 77.8602 237.479C77.9385 237.415 78.0168 237.358 78.0916 237.305L78.209 237.23C78.2482 237.205 78.2874 237.184 78.3265 237.162C78.3657 237.141 78.4013 237.123 78.4404 237.105C78.4796 237.084 78.5187 237.07 78.5579 237.052C78.5935 237.038 78.6327 237.024 78.6718 237.009C78.7074 236.995 78.7466 236.984 78.7857 236.974C78.8712 236.949 78.9566 236.928 79.0421 236.917C79.0919 236.906 79.1453 236.903 79.1987 236.899C79.3411 236.888 79.487 236.892 79.6294 236.91C79.6757 236.913 79.722 236.92 79.7683 236.931C79.8573 236.945 79.9498 236.967 80.0424 236.995C80.0922 237.009 80.1385 237.024 80.1848 237.038C80.2311 237.052 80.2773 237.07 80.3236 237.088C80.3699 237.106 80.4162 237.123 80.466 237.145C80.6654 237.227 80.8647 237.326 81.0712 237.437C81.1602 237.49 81.2492 237.54 81.3382 237.593C81.3916 237.622 81.4414 237.654 81.4913 237.682C81.5411 237.711 81.5945 237.743 81.6443 237.775C82.666 238.408 83.6735 239.063 84.6916 239.715C84.7201 239.736 84.7521 239.758 84.7841 239.772L84.777 239.775ZM146.555 209.225H146.544L146.534 209.203C146.534 209.203 146.555 209.228 146.555 209.225ZM147.274 209.196C147.274 209.196 147.264 209.221 147.256 209.232H147.239L147.274 209.196Z" fill="white"/>
<path d="M12.8835 165.264C15.0266 155.026 18.8179 145.453 24.592 136.692C25.1082 135.909 25.3075 135.742 26.0907 136.461C27.6535 137.899 29.2518 139.373 31.0567 140.462C36.8166 143.937 43.5875 144.221 47.2862 137.269C47.8309 136.24 48.3435 135.183 48.7493 134.093C50.4758 129.469 51.1807 124.624 51.5794 119.747C51.8642 116.226 51.7289 116.234 54.9898 115.005C63.1312 111.944 71.5503 110.175 80.2151 109.527C92.8348 108.587 105.035 110.022 116.565 115.675C123.866 119.256 130.26 124.129 135.404 130.259C138.789 134.293 141.829 138.807 144.104 143.687C144.681 144.923 145.603 146.023 145.824 147.429C144.4 147.617 143.321 146.763 142.086 146.596C136.041 145.777 129.95 145.514 123.87 145.204C116.177 144.809 108.516 145.389 100.859 146.19C91.5319 147.165 82.2335 148.322 73.106 150.529C67.2357 151.95 61.2552 153.103 55.9509 156.232C46.9587 161.54 40.9496 168.952 39.4153 179.578C38.5075 185.865 38.3295 192.13 38.7176 198.488C39.1092 204.871 39.8247 211.222 40.1629 217.605C40.3978 222.054 40.1202 226.472 38.7674 230.758C38.6001 231.289 38.4969 231.894 37.938 232.268C34.3959 234.632 28.9386 234.158 25.7667 231.207C23.7127 229.295 22.189 226.988 20.8007 224.589C14.4392 213.618 11.9295 201.567 11.1641 189.097C10.6728 181.098 11.2353 173.12 12.8835 165.264ZM24.3819 219.353C24.4068 219.509 24.446 219.673 24.4923 219.844C24.5777 220.157 24.6703 220.47 24.7735 220.776C24.8234 220.944 24.8803 221.111 24.9408 221.275C24.9729 221.364 25.0049 221.456 25.0405 221.545C25.069 221.631 25.101 221.713 25.1331 221.795C25.1936 221.951 25.2577 222.108 25.3253 222.261C25.4392 222.528 25.5638 222.791 25.6991 223.044C25.7311 223.108 25.7667 223.172 25.7988 223.233C25.8095 223.251 25.8166 223.268 25.8272 223.286C25.8806 223.382 25.934 223.475 25.9874 223.564C26.1405 223.817 26.3007 224.062 26.4787 224.301C26.5535 224.4 26.6282 224.497 26.7065 224.593C26.7884 224.696 26.8667 224.788 26.9522 224.885C27.034 224.974 27.1159 225.063 27.2014 225.152C27.2583 225.212 27.3188 225.273 27.3829 225.333C27.4897 225.436 27.6001 225.536 27.714 225.632C27.8279 225.728 27.9454 225.824 28.0664 225.917C28.1269 225.963 28.1874 226.009 28.2515 226.052C28.3156 226.098 28.3797 226.141 28.4438 226.184C28.5719 226.269 28.7036 226.355 28.8425 226.437C29.4156 226.775 29.9959 227.028 30.6758 226.992C30.7256 226.992 30.7755 226.992 30.8289 226.988C30.8751 226.988 30.9214 226.981 30.9677 226.978C30.9748 226.978 30.9819 226.978 30.9855 226.978C31.0496 226.974 31.1137 226.964 31.1777 226.949C31.2133 226.946 31.2454 226.939 31.2774 226.931C31.3415 226.921 31.4056 226.907 31.4697 226.889C31.491 226.885 31.5124 226.878 31.5302 226.871C31.5942 226.853 31.6548 226.832 31.7153 226.81C31.8363 226.768 31.9502 226.721 32.0677 226.668C32.1282 226.64 32.1852 226.611 32.2421 226.579C32.2991 226.547 32.3561 226.519 32.4094 226.483C32.4984 226.43 32.5839 226.373 32.6693 226.316C32.7548 226.255 32.8367 226.191 32.9185 226.123C33.0182 226.042 33.1143 225.953 33.2069 225.864C33.2603 225.814 33.3065 225.764 33.3528 225.714C33.3991 225.664 33.4454 225.614 33.4881 225.561C33.5379 225.508 33.5842 225.451 33.6234 225.394C33.6661 225.34 33.7052 225.287 33.7444 225.233C33.7836 225.176 33.8227 225.12 33.8583 225.063C33.8939 225.006 33.9331 224.945 33.9651 224.888C34.0007 224.828 34.0363 224.764 34.0684 224.696C34.1004 224.639 34.1289 224.582 34.1538 224.521C34.1858 224.457 34.2143 224.39 34.2428 224.319C34.2677 224.262 34.2891 224.201 34.3069 224.144C34.3282 224.08 34.3496 224.016 34.3674 223.952C34.3852 223.898 34.3994 223.845 34.4101 223.792C34.4244 223.735 34.4386 223.674 34.4493 223.617C34.4671 223.528 34.4813 223.436 34.492 223.343C34.4991 223.283 34.5027 223.219 34.5062 223.158C34.5098 223.098 34.5133 223.037 34.5133 222.976C34.5133 222.709 34.4813 222.446 34.4101 222.186C33.8761 220.228 32.9328 218.455 31.5693 216.946C31.5088 216.882 31.4518 216.818 31.3913 216.757C31.2739 216.636 31.1528 216.526 31.0282 216.419C29.8677 215.433 28.5292 215.17 27.1729 215.593C27.0839 215.622 26.9913 215.65 26.9023 215.686C26.8027 215.725 26.703 215.764 26.5997 215.814C26.4004 215.903 26.1975 216.01 25.9946 216.131C25.8557 216.216 25.7276 216.302 25.6065 216.391C25.457 216.501 25.3182 216.619 25.1936 216.736C25.1509 216.779 25.1117 216.818 25.0725 216.857C25.0547 216.875 25.0369 216.893 25.0227 216.91C24.9764 216.96 24.9337 217.014 24.8946 217.064C24.8661 217.096 24.8412 217.131 24.8198 217.163C24.8127 217.167 24.8127 217.17 24.8091 217.174C24.7878 217.202 24.7664 217.234 24.7486 217.263C24.6774 217.37 24.6169 217.48 24.5635 217.594C24.5101 217.708 24.4674 217.825 24.4318 217.946C24.4211 217.982 24.4104 218.021 24.4033 218.06C24.389 218.11 24.3784 218.164 24.3713 218.213C24.357 218.288 24.3463 218.366 24.3392 218.441C24.3107 218.722 24.325 219.025 24.3819 219.353ZM16.6072 184.889C16.6855 184.832 16.7496 184.772 16.8065 184.711C16.8991 184.608 16.9631 184.498 17.013 184.384C17.0237 184.359 17.0343 184.338 17.0415 184.313C17.0557 184.277 17.0699 184.241 17.0806 184.206C17.0984 184.152 17.1127 184.099 17.1269 184.042C17.134 184.006 17.1447 183.974 17.1518 183.939C17.1625 183.896 17.1732 183.85 17.1839 183.807C17.1945 183.764 17.2052 183.718 17.2159 183.675C18.469 179.037 19.5512 174.359 20.4483 169.639C20.5515 169.094 20.79 168.496 20.078 168.325C19.3696 168.158 19.4907 168.959 19.3589 169.304C17.3975 174.37 16.6143 179.685 15.9842 185.178C16.2512 185.099 16.4541 185.003 16.6072 184.889ZM13.6204 176.73C13.7984 176.766 13.9195 176.73 14.0049 176.659C14.0369 176.63 14.0618 176.598 14.0868 176.563C14.1081 176.524 14.1259 176.484 14.1437 176.442C14.1544 176.41 14.1651 176.374 14.1758 176.339C14.1829 176.306 14.1936 176.271 14.2007 176.235C14.2078 176.2 14.2149 176.161 14.222 176.125C14.2327 176.089 14.2398 176.054 14.247 176.018C14.2576 175.972 14.2648 175.929 14.279 175.886C15.589 171.615 16.8955 167.339 18.1949 163.064C18.9496 160.59 19.6829 158.108 20.4411 155.631C20.5942 155.132 20.79 154.652 20.5871 154.121C20.3628 154.121 20.1884 154.164 20.0567 154.242C20.0247 154.26 19.9926 154.282 19.9641 154.306C19.9357 154.328 19.9107 154.353 19.8858 154.378C19.8538 154.41 19.8253 154.445 19.8004 154.481C19.7754 154.513 19.7541 154.545 19.7363 154.577C19.7043 154.627 19.6793 154.684 19.6544 154.737C19.5654 154.933 19.5049 155.147 19.423 155.325C16.4612 161.65 14.3573 168.247 13.2716 175.157C13.2431 175.331 13.2217 175.509 13.2217 175.687C13.2182 176.089 13.0971 176.63 13.6204 176.73Z" fill="#81FBBF"/>
<path d="M132.011 7.76404C130.174 10.6725 128.551 13.2249 126.949 15.7916C118.633 29.1019 112.656 43.3984 109.032 58.6667C107.508 65.0887 106.629 71.614 106.027 78.1855C105.337 85.7538 105.668 93.3293 105.832 100.901C105.86 102.186 105.034 103.799 105.928 104.65C106.729 105.415 108.348 105.266 109.559 105.668C113.948 107.134 118.27 108.776 122.268 111.164C123.268 111.762 124.314 112.286 125.34 112.845C142.174 82.6354 142.833 38.9664 132.007 7.7676L132.011 7.76404Z" fill="white"/>
<path d="M8.89578 38.6601C9.63623 32.7543 10.8395 26.9944 12.8508 21.3912C13.1961 20.4371 13.5948 20.8465 13.9472 21.1028C14.3032 21.3662 14.5346 21.8148 14.7909 22.1993C20.8997 31.3375 26.1647 40.9064 30.4508 51.0627C39.2437 71.888 44.5871 93.436 44.9324 116.12C44.9075 120.206 44.9929 124.297 44.0958 128.309C43.4373 131.26 43.1204 134.332 40.9774 136.777C39.8988 138.009 39.0266 138.305 37.5884 137.244C34.2777 134.802 31.1771 132.121 28.6674 128.889C24.7693 123.862 21.7149 118.309 19.0414 112.528C11.3414 95.8709 7.9987 78.278 7.55372 60.0479C7.37573 52.8818 8.00225 45.7692 8.89578 38.6601ZM16.4854 55.6087C17.7919 70.279 20.7395 84.6716 25.7198 98.612C28.9059 107.53 32.1881 116.419 36.5916 124.834C36.6735 124.991 36.6913 125.183 36.791 125.322C36.8373 125.389 36.8764 125.464 36.9156 125.546C36.9512 125.614 36.9832 125.685 37.0152 125.753C37.0615 125.849 37.1078 125.948 37.1612 126.034C37.1861 126.069 37.211 126.101 37.236 126.133C37.2609 126.165 37.2858 126.194 37.3179 126.219C37.3214 126.219 37.3285 126.23 37.3356 126.237C37.4104 126.294 37.4958 126.329 37.6026 126.329C37.6738 126.329 37.7486 126.311 37.8376 126.276C37.8696 126.262 37.8981 126.247 37.9266 126.237C37.9444 126.226 37.9657 126.215 37.98 126.201C37.9942 126.194 38.0049 126.183 38.0156 126.173C38.0298 126.158 38.0441 126.148 38.0583 126.133C38.1224 126.062 38.158 125.98 38.1687 125.891C38.1722 125.859 38.1758 125.831 38.1758 125.799C38.1758 125.521 38.0227 125.187 37.9337 124.905C37.3499 123.068 36.7874 121.224 36.2 119.387C30.2266 100.734 24.5842 81.9838 19.8246 62.9812C19.1838 60.4217 18.7602 57.8087 18.2476 55.2171C18.1265 54.5977 18.1728 53.6793 17.3149 53.8323C16.6243 53.9569 16.2434 54.7187 16.4854 55.6087Z" fill="white"/>
<path d="M33.4845 237.526C37.2686 240.082 42.3308 239.092 44.6162 235.283C47.9269 229.769 48.2544 223.721 47.9233 217.48C47.4463 208.434 46.0152 199.446 46.2894 190.365C46.4531 184.971 47.0441 179.575 49.6178 174.751C53.5622 167.357 60.2156 163.334 68.058 161.248C75.7438 159.201 83.6111 158.019 91.482 156.891C99.0325 155.809 106.611 155.058 114.219 154.552C119.559 154.196 124.863 154.869 130.185 154.954C137.444 155.068 144.485 156.364 151.42 158.39C152.502 158.707 153.459 158.653 154.082 157.656C154.652 156.745 153.958 155.987 153.534 155.239C152.125 152.758 149.508 152.338 147.126 151.612C137.657 148.728 127.903 148.707 118.142 148.924C111.869 149.063 105.586 149.145 99.3493 149.846C94.9102 150.344 90.503 151.12 86.0888 151.829C79.2147 152.932 72.5257 154.648 65.8723 156.588C60.4684 158.165 55.2781 160.23 51.1806 164.313C45.9939 169.479 43.4949 175.933 42.3664 183.013C40.9638 191.82 41.8929 200.603 42.6298 209.396C43.1495 215.586 43.8402 221.802 43.0463 228.017C42.2097 234.578 40.1806 236.728 33.4809 237.526H33.4845Z" fill="#81FBBF"/>
<path d="M205.884 276.375C205.884 273.488 206.026 270.579 205.809 267.696C205.73 266.656 206.065 266.436 206.773 266.119C209.967 264.681 213.167 263.242 215.922 261.017C216.609 260.462 217.282 259.875 217.912 259.252C220.493 256.699 220.411 253.424 217.777 250.836C217.111 250.185 216.374 250.053 215.517 250.106C210.8 250.409 206.104 251.114 201.879 253.211C196.386 255.934 193.848 261.726 195.898 267.778C197.525 272.576 200.405 275.951 205.887 276.371L205.884 276.375Z" fill="white"/>
<path d="M192.12 248.02C192.209 249.939 192.405 251.847 194.146 253.179C194.691 253.595 195.022 253.681 195.623 253.179C196.926 252.086 198.382 251.171 199.71 250.106C202.572 247.81 205.876 246.746 209.482 246.554C211.956 246.422 214.42 246.002 216.908 246.18C217.456 246.219 217.933 246.144 218.339 245.696C219.823 244.065 221.048 242.268 221.518 240.1C221.977 237.989 220.906 236.141 218.681 234.92C215.918 233.407 212.974 233.347 209.92 233.749C206.008 234.265 202.22 235.016 198.656 236.871C194.093 239.249 191.907 242.88 192.12 248.02Z" fill="white"/>
<path d="M209.351 217.028C202.691 217.37 196.991 219.733 193.026 225.337C191.118 228.032 191.445 230.666 193.492 232.862C194.282 233.706 195.048 233.977 196.116 233.354C201.829 230.022 208.141 228.897 214.616 228.391C214.898 228.37 215.236 228.384 215.442 228.234C218.949 225.725 218.507 220.189 214.67 218.124C213.004 217.227 211.245 216.903 209.348 217.028H209.351Z" fill="white"/>
<path d="M189.591 288.062C189.932 288.614 190.274 289.165 190.612 289.717C192.663 293.063 194.635 296.427 196.629 299.77C197.109 300.578 197.593 301.383 198.077 302.187C198.092 302.216 198.109 302.244 198.127 302.273C198.597 303.049 199.067 303.821 199.541 304.594C199.573 304.651 199.608 304.708 199.644 304.765C199.946 305.256 200.249 305.744 200.555 306.235C200.591 306.299 200.63 306.36 200.669 306.42C200.972 306.901 201.274 307.385 201.58 307.865C201.972 308.485 202.367 309.097 202.766 309.713C203.072 310.179 203.378 310.642 203.688 311.108C203.738 311.187 203.791 311.265 203.844 311.343C204.151 311.803 204.46 312.262 204.774 312.717C205.14 313.251 205.51 313.785 205.884 314.316C205.945 314.405 206.005 314.494 206.069 314.579C206.069 308.862 206.076 303.412 206.055 297.958C206.055 297.734 206.187 297.414 205.984 297.218C205.97 297.204 205.955 297.193 205.941 297.182C205.923 297.168 205.906 297.157 205.884 297.147C205.863 297.136 205.842 297.125 205.82 297.118C205.799 297.107 205.774 297.1 205.745 297.093C205.557 297.043 205.372 296.99 205.186 296.929C205.001 296.872 204.816 296.812 204.635 296.748C204.453 296.687 204.272 296.62 204.094 296.549C203.916 296.481 203.738 296.41 203.563 296.335C201.452 295.438 199.53 294.185 197.586 292.967C197.155 292.697 196.721 292.43 196.287 292.166C196.07 292.035 195.849 291.906 195.628 291.778C195.411 291.654 195.19 291.526 194.966 291.404C194.08 290.917 193.215 290.379 192.332 289.817C191.452 289.254 190.552 288.663 189.591 288.062Z" fill="white"/>
<path d="M196.918 214.415C199.826 212.428 202.802 212.834 205.618 212.464C206.359 212.368 206.907 212.482 206.448 211.414C205.996 210.371 206.298 209.207 206.302 208.096C206.302 207.128 205.996 206.644 204.928 206.968C201.247 208.075 198.167 209.837 196.918 214.415Z" fill="white"/>
<path d="M97.75 351.118C98.0953 351.029 98.5937 351.349 98.85 350.915C99.149 350.41 98.6934 349.993 98.4513 349.651C97.0202 347.64 95.5678 345.646 94.0513 343.703C93.4532 342.934 93.3393 341.88 92.46 341.271C92.0934 341.019 91.7374 340.798 91.3636 340.919C90.8332 341.093 91.0966 341.61 91.1714 341.937C91.5879 343.756 91.8371 345.611 92.4707 347.391C93.5565 350.449 94.4322 351.132 97.7465 351.122L97.75 351.118Z" fill="white"/>
<path d="M147.241 209.232C147.327 209.018 147.213 208.919 147.024 208.904C146.796 208.887 146.547 208.876 146.562 209.225L146.537 209.2C146.786 209.2 147.031 209.2 147.281 209.196L147.241 209.232Z" fill="white"/>
<path d="M117.822 238.715C118.534 234.521 119.107 230.495 118.46 226.426C118.267 225.223 118.776 224.603 119.677 224.002C121.439 222.823 123.183 221.606 124.882 220.339C128.559 217.598 129.086 213.301 126.323 209.655C125.305 208.313 123.92 207.633 122.4 207.541C118.274 207.292 114.109 207.043 110.065 208.16C107.904 208.755 105.989 209.908 104.263 211.41C102.458 212.984 102.433 214.849 103.252 216.85C104.79 220.62 108.111 222.382 111.571 223.735C113.497 224.489 114.077 225.401 114.319 227.462C114.796 231.46 114.33 235.329 113.825 239.242C113.725 240.018 113.262 240.064 112.739 240.089C103.045 240.58 93.5724 239.836 84.8009 235.101C83.5798 234.443 83.2915 233.909 84.5517 233.058C84.9433 232.795 85.3242 232.517 85.698 232.229C86.0433 231.962 86.2747 231.638 86.1109 231.161C85.8404 230.385 83.5905 229.164 82.786 229.431C79.2902 230.598 76.7591 232.798 75.5452 236.355C75.3138 237.031 75.1073 237.978 75.6021 238.366C76.129 238.779 77.0225 238.302 77.496 237.814C78.9128 236.362 80.1339 236.846 81.6397 237.779C85.7193 240.31 89.6423 243.222 94.3912 244.425C101.543 246.237 108.656 246.126 115.85 244.257C121.927 242.677 127.053 239.854 131.051 234.995C131.763 234.126 131.713 233.578 130.926 232.759C129.933 231.727 129.321 231.545 128.139 232.656C125.213 235.404 121.952 237.697 117.822 238.715Z" fill="#143635"/>
<path d="M72.6035 191.062C70.3892 195.922 71.1582 200.767 72.7388 205.58C73.4365 207.701 74.3549 209.72 76.1242 211.233C77.1708 212.126 78.2495 212.336 79.5346 211.834C83.098 210.446 84.5932 207.559 84.9847 204.038C85.5152 199.264 84.8708 194.651 82.4857 190.386C82.1439 189.774 81.7808 189.158 81.3394 188.617C78.8689 185.591 75.4763 185.95 73.6892 189.411C73.5041 189.77 73.376 190.158 73.2229 190.532C72.4219 190.055 72.7922 190.92 72.5679 191.101C73.0912 190.995 72.8527 191.365 72.8456 191.571C72.8456 191.603 72.6711 191.678 72.6355 191.65C72.4041 191.479 72.543 191.265 72.6035 191.066V191.062Z" fill="#143635"/>
<path d="M123.382 192.141C123.425 195.391 124.179 198.727 126.03 201.767C126.956 203.287 128.205 204.554 130.049 204.565C131.968 204.576 133.008 203.152 133.83 201.553C136.144 197.043 135.937 192.401 134.67 187.677C134.165 185.797 133.627 183.957 132.249 182.479C130.384 180.482 128.465 180.368 126.543 182.273C123.869 184.921 123.428 188.328 123.385 192.141H123.382Z" fill="#143635"/>
<path d="M67.7602 177.542C67.6997 177.915 67.7994 178.282 68.0984 178.489C68.6253 178.852 68.992 178.332 69.3159 178.093C72.2564 175.936 75.5493 174.982 79.1305 175.502C82.0781 175.929 84.9794 176.684 87.8949 177.325C88.2758 177.406 88.6318 177.826 88.9985 177.381C89.4257 176.858 89.0341 176.335 88.8027 175.922C87.5674 173.704 85.6949 172.23 83.2066 171.714C78.4648 170.728 73.8405 170.668 69.8001 173.96C68.6609 174.89 67.9383 176.064 67.7567 177.549L67.7602 177.542Z" fill="#143635"/>
<path d="M131.557 165.203C127.872 165.15 124.49 167.364 123.269 170.657C123.109 171.091 122.985 171.554 122.938 172.013C122.892 172.465 122.839 173.035 123.316 173.27C123.718 173.469 124.099 173.121 124.423 172.864C125.669 171.882 126.929 170.913 128.342 170.173C131.097 168.728 133.664 169.365 136.113 170.921C136.953 171.454 137.669 172.181 138.47 172.786C138.876 173.096 139.335 173.59 139.873 173.17C140.296 172.839 140.051 172.33 139.947 171.857C139.079 167.866 135.818 165.267 131.557 165.203Z" fill="#143635"/>
<path d="M147.281 209.196C147.031 209.196 146.786 209.196 146.537 209.2C146.786 209.652 147.035 209.741 147.281 209.196Z" fill="#143635"/>
<path d="M30.6759 226.996C32.9329 226.996 35.0048 224.372 34.4103 222.186C33.8763 220.228 32.9329 218.456 31.5695 216.946C29.9747 215.18 27.9527 214.945 25.9947 216.131C24.5459 217.01 24.019 218.142 24.4924 219.84C25.24 222.524 26.3187 224.938 28.8426 226.437C29.4158 226.775 29.996 227.028 30.6759 226.992V226.996Z" fill="#143635"/>
<path d="M20.5883 154.121C19.7055 154.111 19.6485 154.848 19.4242 155.325C16.4624 161.65 14.3621 168.247 13.2728 175.157C13.2443 175.331 13.2229 175.509 13.2229 175.687C13.2229 176.093 13.0983 176.634 13.6252 176.734C14.2019 176.844 14.1698 176.253 14.2838 175.886C15.5902 171.615 16.9003 167.339 18.1996 163.064C18.9543 160.59 19.6877 158.105 20.4423 155.631C20.5954 155.129 20.7912 154.648 20.5883 154.121Z" fill="#143635"/>
<path d="M15.9888 185.178C17.0604 184.868 17.0675 184.227 17.217 183.675C18.4701 179.037 19.5523 174.359 20.4529 169.639C20.5562 169.098 20.7947 168.496 20.0827 168.329C19.3707 168.161 19.4953 168.962 19.36 169.308C17.3985 174.373 16.6154 179.685 15.9853 185.181L15.9888 185.178Z" fill="#143635"/>
<path d="M16.4893 55.6089C17.7923 70.2791 20.7434 84.6681 25.7237 98.6086C28.9098 107.526 32.192 116.415 36.5955 124.834C36.6774 124.987 36.6952 125.18 36.7949 125.322C37.0797 125.728 37.1865 126.539 37.8415 126.28C38.4431 126.037 38.0907 125.397 37.9376 124.909C37.3538 123.072 36.7913 121.225 36.2039 119.391C30.2305 100.737 24.5881 81.9911 19.8321 62.9849C19.1913 60.4254 18.7641 57.8124 18.255 55.2208C18.134 54.6014 18.1803 53.683 17.3224 53.836C16.6353 53.9606 16.2508 54.7224 16.4965 55.6124L16.4893 55.6089Z" fill="#143635"/>
<path d="M72.6053 191.062C72.5448 191.262 72.4095 191.472 72.6373 191.646C72.6729 191.671 72.8474 191.596 72.8474 191.568C72.8545 191.361 73.093 190.991 72.5697 191.098L72.6053 191.062Z" fill="white"/>
<path d="M205.884 297.146V314.319C205.945 314.405 206.005 314.494 206.069 314.579C206.069 308.862 206.076 303.412 206.055 297.958C206.055 297.734 206.187 297.413 205.984 297.218C205.97 297.203 205.955 297.193 205.941 297.182C205.923 297.168 205.906 297.157 205.884 297.146Z" fill="#143635"/>
</g>
<defs>
<clipPath id="clip0_6413_7294">
<rect width="228.323" height="470" fill="white" transform="matrix(-1 0 0 1 228.323 0)"/>
</clipPath>
</defs>
</svg>
