<svg width="215" height="292" viewBox="0 0 215 292" fill="none" xmlns="http://www.w3.org/2000/svg">
<g clip-path="url(#clip0_6511_11709)">
<path d="M214.567 272.561C214.474 272.155 214.394 271.948 214.384 271.742C213.964 262.951 206.299 254.624 197.003 255.586C196.55 255.633 195.997 255.516 195.614 255.283C191.132 252.546 186.181 252.163 181.113 252.28C180.044 252.303 178.952 252.386 177.91 252.21C175.909 251.877 173.954 251.237 171.95 251.004C170.931 250.885 170.471 250.555 169.992 249.692C164.648 240.096 157.639 232.371 146.331 229.208C155.667 220.947 162.23 211.307 163.402 198.708C164.112 198.708 164.558 198.651 164.987 198.714C169.766 199.434 174.54 200.186 179.325 200.889C180.264 201.029 181.33 201.485 182.219 200.213C176.362 196.916 170.019 196.054 163.539 195.415C163.362 193.846 163.332 192.345 162.986 190.916C162.726 189.841 163.043 189.548 164.002 189.361C168.467 188.502 172.925 187.603 177.384 186.704C178.626 186.451 179.858 186.145 181.097 185.862C181.09 185.652 181.087 185.442 181.083 185.236C180.314 185.059 179.555 184.796 178.779 184.73C173.721 184.283 168.763 184.979 163.832 186.038C162.946 186.228 161.821 187.19 161.152 185.629C160.722 184.633 159.936 183.648 159.916 182.645C159.863 180.165 160.126 177.671 160.322 175.19C160.785 169.37 160.329 163.589 159.6 157.822C159.297 155.435 158.874 153.064 158.538 150.9C160.266 149.937 161.921 149.185 163.389 148.163C166.399 146.072 167.531 143.145 166.885 139.509C166.366 136.579 164.641 134.517 162.22 133.012C160.978 132.243 160.276 131.268 159.78 129.892C157.069 122.384 153.347 115.428 148.159 109.318C147.536 108.586 147.473 108.006 147.976 107.137C154.645 95.6696 158.997 83.3596 160.829 70.2272C161.728 63.7876 162.467 57.2913 162.69 50.8017C163.039 40.5628 161.844 30.4171 159.45 20.4479C158.028 14.5144 156.28 8.6707 153.273 3.30653C151.535 0.203227 148.402 -0.239627 145.828 2.19773C145.106 2.88032 144.373 3.58289 143.787 4.3787C137.83 12.4899 133.152 21.3303 129.223 30.5603C124.015 42.7937 120.336 55.4899 118.921 68.7389C118.265 74.8822 118.168 81.0854 117.829 87.2588C117.792 87.8847 117.822 88.5141 117.822 89.0735C98.403 84.4685 79.5035 84.7914 60.9603 92.7528C60.8637 92.2267 60.7705 91.8105 60.7105 91.3876C60.0113 86.4829 59.6217 81.5117 58.5762 76.6869C54.7936 59.2358 48.2774 42.9002 38.0818 28.1462C31.7153 18.9396 24.7895 10.2024 16.3387 2.77044C11.1044 -1.83123 7.21193 -0.66583 5.47381 6.02358C3.67577 12.9494 3.0964 20.0184 2.78007 27.1407C2.34388 36.9034 3.02314 46.5929 4.56147 56.2158C6.10646 65.8853 8.85348 75.2518 12.4795 84.3486C16.9913 95.6763 22.7551 106.278 30.8929 115.461C31.5355 116.187 31.3091 116.57 30.9029 117.289C28.4522 121.641 25.7818 125.907 23.7706 130.462C19.3854 140.371 18.0069 150.99 17.5241 161.698C17.0413 172.406 18.3831 182.968 21.5097 193.224C24.0603 201.591 27.8162 209.336 34.8752 214.967C39.437 218.603 44.4682 220.481 50.3751 218.796C50.748 218.689 51.4006 218.843 51.6504 219.119C53.7381 221.456 55.7659 223.854 57.6871 226.091C53.4984 227.037 49.1331 227.846 44.8744 229.025C34.8386 231.802 26.0581 236.893 18.8926 244.438C11.4507 252.273 5.48713 261.197 0.842175 270.973C0.602435 271.476 0.339387 271.852 -0.000244141 272.111H8.53716V272.105C8.78356 271.725 9.02996 271.346 9.27635 270.973C9.38291 270.806 9.49279 270.643 9.59934 270.48C9.6293 270.433 9.65927 270.387 9.68924 270.343C9.88236 270.054 10.0755 269.764 10.2719 269.478C10.2819 269.461 10.2952 269.444 10.3086 269.428C10.4251 269.258 10.5416 269.091 10.6582 268.925C10.7747 268.755 10.8913 268.589 11.0111 268.426C11.131 268.262 11.2475 268.096 11.3707 267.936C11.6038 267.616 11.8436 267.307 12.0833 267C12.0866 266.99 12.0933 266.984 12.1033 266.977C12.353 266.664 12.6061 266.354 12.8625 266.055C13.1189 265.755 13.3819 265.459 13.6549 265.172C13.7915 265.029 13.9246 264.889 14.0645 264.749C14.2043 264.61 14.3575 264.456 14.5073 264.313C14.6572 264.173 14.807 264.03 14.9635 263.894C15.1 263.771 15.2399 263.647 15.3831 263.531C15.9358 263.061 16.5152 262.625 17.1312 262.229C17.3076 262.116 17.4841 262.002 17.6672 261.896C17.8471 261.789 18.0302 261.683 18.22 261.583C18.3898 261.49 18.5596 261.4 18.7361 261.313C18.7661 261.297 18.796 261.283 18.826 261.27C19.0058 261.183 19.1923 261.097 19.3787 261.014C19.5785 260.924 19.7783 260.844 19.9781 260.77C20.1779 260.697 20.3776 260.631 20.5741 260.571C20.6707 260.541 20.7705 260.514 20.8671 260.487C21.0636 260.438 21.26 260.391 21.4565 260.354C21.553 260.334 21.6529 260.318 21.7495 260.301C24.926 259.795 27.8895 261.077 30.4401 263.201C35.1949 267.16 37.0595 274.945 34.9418 280.749C34.0428 283.213 32.1748 285.677 29.0449 285.244C26.834 284.938 25.5787 283.439 24.4099 281.831C22.4354 279.121 22.149 275.831 21.4365 272.691C21.2667 271.945 21.1568 271.143 20.7872 270.5C20.4309 269.887 19.7417 269.008 19.2555 269.042C19.1756 269.048 19.089 269.061 18.9991 269.088C18.9092 269.115 18.8193 269.148 18.7261 269.191C18.6762 269.211 18.6295 269.235 18.5829 269.261C18.4897 269.311 18.3965 269.364 18.3099 269.424C18.2633 269.458 18.2167 269.491 18.1734 269.524C18.0868 269.591 18.0069 269.661 17.9303 269.734C17.8903 269.767 17.8537 269.804 17.8204 269.844C17.6806 269.994 17.5773 270.147 17.5207 270.297C17.5074 270.337 17.4941 270.373 17.4874 270.41C17.4608 270.543 17.4308 270.67 17.3942 270.786C17.3876 270.82 17.3776 270.853 17.3642 270.886C17.3409 270.959 17.3176 271.029 17.291 271.096C17.2644 271.163 17.2377 271.226 17.2111 271.286C17.1811 271.352 17.1478 271.416 17.1178 271.472C17.0879 271.525 17.0546 271.575 17.0246 271.625C16.8348 271.908 16.6084 272.115 16.3487 272.261C16.2987 272.291 16.2455 272.318 16.1889 272.345C16.0257 272.418 15.8492 272.474 15.6628 272.514C15.5895 272.531 15.5129 272.544 15.433 272.554C15.4164 272.554 15.3997 272.554 15.3831 272.561C15.3298 272.568 15.2732 272.574 15.2166 272.578C15.2066 272.581 15.1966 272.581 15.1866 272.581V279.873H15.3731C16.7449 279.87 17.5707 280.04 17.9403 281.601C18.2067 282.733 18.9725 283.792 19.6817 284.761C23.0814 289.416 28.5355 292.573 34.9085 289.223C35.2948 289.02 36.1139 289.266 36.5368 289.573C38.5612 291.034 40.7822 291.83 43.2794 291.88C46.3095 291.943 48.7968 290.721 50.8679 288.617C57.1644 293.322 65.825 290.418 69.218 279.9H69.9339V272.062C69.7574 271.809 69.6575 271.436 69.6175 270.889C69.0215 262.519 63.2478 255.073 55.8758 252.812C51.8801 251.587 47.9177 251.833 43.9654 252.846C42.4137 253.245 40.9853 253.405 39.3471 253.009C34.8752 251.923 30.6565 253.075 26.5509 254.91C25.6453 255.316 24.5797 255.436 23.5742 255.543C21.7362 255.739 19.8848 255.822 18.0935 255.949C26.2446 243.929 37.9086 236.783 52.1565 233.69C56.2787 232.794 60.5108 232.378 64.7029 231.822C65.2922 231.742 65.9582 232.088 66.5675 232.295C69.9905 233.443 73.3635 234.785 76.8464 235.694C78.6977 236.18 80.7455 235.974 82.7033 235.977C83.1395 235.977 83.5757 235.541 84.0152 235.305C83.599 234.865 83.2661 234.213 82.7566 234.013C77.752 232.055 73.2403 229.231 68.8783 226.161C64.6529 223.191 60.8171 219.765 57.6106 215.693C57.3309 215.336 57.2942 214.391 57.5639 214.068C61.3265 209.543 62.8449 204.192 62.9781 198.488C63.1745 190.134 62.9581 181.77 63.1013 173.412C63.1945 167.988 64.0003 162.64 66.8572 157.872C69.8872 152.818 74.5921 150.054 80.1195 148.456C87.7445 146.248 95.5361 144.999 103.411 144.077C113.167 142.935 122.953 142.476 132.746 142.892C138.453 143.131 144.13 144.127 149.814 144.836C150.18 144.883 150.66 145.342 150.799 145.715C152.867 151.316 154.289 157.083 154.469 163.066C154.622 168.258 154.499 173.459 154.489 178.656C154.489 179.039 154.429 179.429 154.352 179.805C153.963 181.676 153.879 183.428 155.231 185.069C155.901 185.885 156.167 187.031 156.613 188.033C153.46 190.024 149.488 190.31 147.034 193.171C147.147 193.437 147.257 193.703 147.37 193.97C150.603 192.964 153.836 191.958 157.289 190.883C157.645 192.661 157.962 194.243 158.298 195.927C155.158 196.71 151.948 196.657 149.338 198.801H157.892C154.552 215.063 144.453 225.522 129.752 231.859C124.908 233.943 119.647 235.062 114.582 236.637C113.67 236.923 112.777 237.273 111.545 237.712C113.1 239.167 114.712 239.194 116.224 239.277C124.042 239.723 131.38 237.859 138.43 234.586C139.192 234.229 140.208 234.136 141.047 234.276C150.54 235.868 157.429 241.142 162.164 249.409C162.84 250.588 163.522 251.767 164.068 252.713C161.654 253.592 159.13 254.098 157.046 255.346C151.895 258.43 149.654 263.577 148.186 269.131C148.072 269.554 147.859 270.004 147.913 270.413C148.009 271.196 147.909 271.725 147.656 272.062H153.353C153.929 267.776 155.344 263.977 158.331 260.85C158.441 260.734 158.554 260.621 158.671 260.511C159.587 259.628 160.575 258.986 161.588 258.573C161.704 258.526 161.814 258.483 161.931 258.443C162.037 258.406 162.144 258.37 162.254 258.34C162.33 258.316 162.404 258.296 162.483 258.273C162.687 258.22 162.89 258.173 163.093 258.14C163.186 258.123 163.283 258.11 163.376 258.097C163.462 258.083 163.549 258.073 163.635 258.067C163.662 258.067 163.689 258.06 163.715 258.06C163.789 258.053 163.865 258.05 163.939 258.043C164.032 258.043 164.125 258.037 164.218 258.037C164.351 258.033 164.485 258.037 164.621 258.043C164.724 258.05 164.828 258.057 164.931 258.067H164.937C165.144 258.09 165.35 258.12 165.553 258.157C165.583 258.16 165.61 258.167 165.637 258.173C165.727 258.193 165.816 258.213 165.906 258.233C165.996 258.257 166.086 258.28 166.173 258.306C166.219 258.316 166.263 258.33 166.303 258.346C166.353 258.36 166.399 258.376 166.449 258.393C166.502 258.41 166.556 258.426 166.606 258.446C166.659 258.466 166.712 258.486 166.762 258.506C166.869 258.546 166.972 258.59 167.075 258.636C167.178 258.683 167.282 258.733 167.385 258.783C167.485 258.836 167.588 258.889 167.688 258.946C167.754 258.982 167.824 259.022 167.888 259.062C168.011 259.136 168.134 259.215 168.257 259.299C168.267 259.305 168.277 259.312 168.284 259.315C168.39 259.389 168.5 259.469 168.607 259.552C168.63 259.565 168.65 259.582 168.673 259.602C168.763 259.672 168.853 259.745 168.943 259.822C168.98 259.851 169.016 259.881 169.05 259.911C169.14 259.988 169.226 260.068 169.313 260.151C169.363 260.198 169.413 260.248 169.463 260.298C169.872 260.701 170.255 261.153 170.615 261.663C173.565 265.838 174.304 270.577 173.585 275.514C173.288 277.536 172.632 279.567 171.777 281.421C171.64 281.718 171.484 281.994 171.307 282.25C171.264 282.314 171.217 282.377 171.171 282.437C171.124 282.5 171.077 282.56 171.027 282.62C170.971 282.69 170.911 282.76 170.848 282.827C170.788 282.893 170.721 282.96 170.658 283.023C170.395 283.283 170.105 283.509 169.799 283.699C169.729 283.746 169.656 283.785 169.582 283.825C169.556 283.842 169.529 283.855 169.502 283.869C169.423 283.912 169.343 283.952 169.263 283.989C169.183 284.025 169.106 284.059 169.026 284.089C168.803 284.178 168.57 284.252 168.33 284.308C168.284 284.318 168.237 284.328 168.191 284.338C168.084 284.362 167.977 284.382 167.868 284.395C167.744 284.411 167.621 284.425 167.495 284.435C167.282 284.451 167.062 284.451 166.839 284.441C166.699 284.435 166.562 284.421 166.429 284.405C166.296 284.388 166.166 284.368 166.04 284.338C165.976 284.325 165.913 284.308 165.85 284.292C165.8 284.282 165.75 284.268 165.703 284.252C165.567 284.215 165.437 284.168 165.307 284.115C165.25 284.095 165.194 284.072 165.137 284.042C165.067 284.012 164.997 283.979 164.927 283.942C164.861 283.905 164.794 283.869 164.728 283.832C164.594 283.756 164.468 283.669 164.345 283.579C164.248 283.509 164.155 283.433 164.062 283.349H164.058C163.968 283.269 163.882 283.186 163.795 283.096C163.719 283.016 163.645 282.933 163.576 282.847C163.519 282.783 163.466 282.713 163.416 282.643C163.322 282.524 163.239 282.397 163.156 282.264C163.119 282.207 163.083 282.147 163.053 282.084C163 281.997 162.953 281.904 162.906 281.811C162.853 281.711 162.806 281.608 162.763 281.501C162.716 281.398 162.677 281.292 162.637 281.185C162.623 281.148 162.61 281.112 162.597 281.075C162.557 280.962 162.523 280.849 162.487 280.732C162.047 279.217 161.711 277.659 161.504 276.1C161.198 273.753 161.092 271.379 160.795 269.028C160.705 268.336 160.262 267.686 159.979 267.017C159.773 267.044 159.567 267.074 159.36 267.104C158.684 268.878 158.012 270.653 157.329 272.454H156.41V280.186C156.929 280.476 157.272 280.995 157.542 281.878C159.254 287.465 165.517 291.487 171.417 288.454C171.713 288.301 172.399 288.567 172.722 288.847C177.054 292.586 181.047 292.926 186.045 289.972C186.381 289.776 186.993 289.712 187.316 289.882C191.555 292.12 195.478 291.311 199.267 288.783C199.606 288.56 200.069 288.257 200.402 288.331C206.516 289.689 211.154 285.946 213.142 281.305C213.305 280.925 213.485 280.636 213.698 280.422C214.051 278.638 214.37 276.846 214.66 275.048C214.793 274.223 214.92 273.393 215 272.561H214.567ZM48.9833 257.794C50.3718 257.794 51.9001 257.561 53.3319 257.834C53.6082 257.887 53.8813 257.947 54.151 258.017C54.2842 258.053 54.4174 258.09 54.5506 258.127C54.6804 258.167 54.8103 258.207 54.9401 258.247C55.2498 258.35 55.5495 258.463 55.8425 258.583C56.0389 258.663 56.2321 258.749 56.4219 258.843C56.6083 258.932 56.7948 259.026 56.9779 259.126C57.1577 259.225 57.3375 259.329 57.514 259.435C57.6871 259.542 57.8603 259.652 58.0301 259.768C58.3664 259.998 58.6894 260.244 58.9991 260.501C59.1056 260.591 59.2122 260.681 59.3187 260.777C59.3886 260.84 59.4586 260.9 59.5218 260.96C59.645 261.073 59.7649 261.19 59.8814 261.31C59.988 261.416 60.0945 261.526 60.1978 261.636C60.291 261.739 60.3842 261.839 60.4741 261.943C60.4841 261.953 60.4908 261.963 60.5008 261.973C60.5873 262.072 60.6739 262.176 60.7605 262.282C61.1034 262.695 61.4198 263.131 61.7094 263.581C61.7527 263.647 61.796 263.714 61.836 263.781C61.8393 263.784 61.8426 263.787 61.8426 263.791C61.9126 263.897 61.9792 264.007 62.0424 264.117C62.1456 264.29 62.2422 264.463 62.3354 264.636C62.3754 264.71 62.4153 264.786 62.452 264.859C62.452 264.859 62.4531 264.862 62.4553 264.866C62.5053 264.959 62.5552 265.052 62.5985 265.149C62.7949 265.545 62.9747 265.948 63.1312 266.358C63.1978 266.518 63.2578 266.677 63.3144 266.837C63.3676 266.984 63.4209 267.134 63.4642 267.283C63.4875 267.347 63.5075 267.413 63.5275 267.477C63.5341 267.487 63.5375 267.5 63.5408 267.513C63.5808 267.636 63.6174 267.763 63.6507 267.886C63.6673 267.933 63.6806 267.979 63.694 268.029C63.7772 268.329 63.8538 268.635 63.9137 268.938C63.9237 268.968 63.9304 268.995 63.9337 269.025C63.947 269.081 63.9603 269.138 63.9703 269.198C64.0036 269.354 64.0303 269.511 64.0569 269.664C64.0902 269.854 64.1202 270.044 64.1435 270.234C64.1701 270.41 64.1901 270.59 64.2067 270.766C64.2101 270.78 64.2101 270.79 64.2101 270.803C64.2267 270.963 64.24 271.126 64.25 271.286C64.2567 271.339 64.26 271.392 64.26 271.446C64.2733 271.609 64.2767 271.769 64.2833 271.932C64.3566 274.635 63.9037 277.416 63.2611 280.06C63.2211 280.229 63.1745 280.393 63.1246 280.556C63.0746 280.719 63.0214 280.879 62.9648 281.032C62.9648 281.032 62.9614 281.042 62.9581 281.048C62.9115 281.172 62.8649 281.295 62.8116 281.411C62.7916 281.458 62.7716 281.505 62.7517 281.548C62.6917 281.681 62.6285 281.811 62.5585 281.941C62.4986 282.057 62.4353 282.174 62.3654 282.284C62.3621 282.29 62.3554 282.3 62.3521 282.307C62.3254 282.354 62.2955 282.397 62.2655 282.444C62.2189 282.52 62.1723 282.593 62.1157 282.667C62.079 282.723 62.0391 282.78 61.9991 282.833C61.9392 282.916 61.8759 282.996 61.8127 283.073C61.806 283.083 61.7994 283.093 61.7894 283.1C61.7494 283.146 61.7094 283.193 61.6695 283.239C61.6162 283.306 61.5563 283.369 61.4997 283.429C61.3099 283.629 61.1101 283.815 60.8937 283.985C60.8371 284.032 60.7805 284.079 60.7205 284.118C60.5907 284.215 60.4575 284.308 60.321 284.395C60.1844 284.481 60.0413 284.561 59.8948 284.638C59.675 284.754 59.4486 284.858 59.2088 284.948C59.1156 284.984 59.0157 285.021 58.9191 285.051C58.706 285.121 58.4896 285.184 58.2632 285.234C58.1533 285.261 58.0401 285.284 57.9269 285.304C57.5073 285.38 57.0645 285.384 56.6183 285.347C56.4452 285.334 56.272 285.311 56.0989 285.284C56.0989 285.281 56.0955 285.284 56.0955 285.284C55.7493 285.231 55.4063 285.157 55.0733 285.077C54.9967 285.057 54.9235 285.037 54.8569 285.011C54.7237 284.961 54.6072 284.901 54.5106 284.828C54.4873 284.811 54.464 284.794 54.444 284.771C54.1277 284.488 54.0677 284.032 54.2575 283.333C56.0256 276.826 55.9823 270.363 53.0222 264.187C52.7592 263.641 52.4695 263.111 52.1532 262.585C52.1132 262.515 52.0732 262.449 52.03 262.379C51.99 262.312 51.95 262.246 51.9068 262.179C51.8268 262.049 51.7436 261.919 51.657 261.786C51.5771 261.656 51.4939 261.526 51.404 261.396C51.2508 261.16 51.091 260.924 50.9311 260.684C50.8679 260.591 50.8013 260.497 50.738 260.401C50.6082 260.211 50.475 260.018 50.3418 259.825C50.1886 259.598 50.0321 259.369 49.8756 259.139C49.7591 258.966 49.6425 258.793 49.5227 258.619C49.3928 258.423 49.263 258.227 49.1331 258.027C49.0798 257.95 49.0299 257.87 48.9799 257.794H48.9833ZM32.7442 258.167C32.984 258.133 33.217 258.103 33.4534 258.073C33.6899 258.047 33.9229 258.02 34.1593 257.997C34.3858 257.974 34.6122 257.954 34.8386 257.937C35.1017 257.917 35.3614 257.9 35.6211 257.89C36.2204 257.864 36.8131 257.864 37.3958 257.897C37.9086 257.924 38.4181 257.977 38.9175 258.06C39.1439 258.097 39.367 258.14 39.5901 258.19C39.7233 258.217 39.8565 258.25 39.9897 258.286C40.0929 258.31 40.1961 258.34 40.296 258.37C40.3893 258.396 40.4792 258.423 40.5724 258.453C40.7422 258.506 40.912 258.566 41.0818 258.629C41.2184 258.679 41.3515 258.736 41.4881 258.793C41.7245 258.892 41.9609 259.002 42.1906 259.122C42.2506 259.152 42.3138 259.182 42.3738 259.219C42.4537 259.259 42.5336 259.305 42.6135 259.352C42.6934 259.395 42.77 259.442 42.8466 259.489C42.8899 259.515 42.9332 259.542 42.9764 259.572C43.053 259.618 43.1296 259.668 43.2062 259.718C43.2561 259.748 43.3061 259.782 43.3527 259.818C43.4193 259.861 43.4826 259.908 43.5458 259.955C43.5991 259.991 43.6524 260.031 43.7057 260.068C43.9188 260.224 44.1219 260.384 44.3217 260.547C44.4049 260.614 44.4848 260.681 44.5681 260.75C44.6913 260.854 44.8144 260.957 44.9343 261.07C45.0242 261.147 45.1108 261.227 45.1974 261.307C45.3006 261.403 45.4005 261.5 45.5004 261.596C45.6202 261.713 45.7368 261.829 45.8467 261.949C45.9432 262.049 46.0398 262.152 46.1297 262.256C46.1563 262.282 46.1796 262.305 46.2029 262.335C46.3028 262.445 46.4027 262.562 46.496 262.675C46.6025 262.798 46.7024 262.921 46.8023 263.048C46.9921 263.288 47.1752 263.534 47.345 263.784C47.4116 263.877 47.4749 263.97 47.5348 264.064C47.6048 264.17 47.6747 264.277 47.7413 264.387C47.7712 264.43 47.8012 264.473 47.8245 264.52C47.8978 264.636 47.9644 264.753 48.031 264.869C48.0842 264.956 48.1342 265.043 48.1808 265.132C48.2541 265.266 48.3273 265.402 48.3972 265.539C48.6603 266.045 48.8934 266.568 49.0965 267.104C49.1398 267.213 49.183 267.323 49.2197 267.437C49.2197 267.437 49.2208 267.439 49.223 267.443C49.2563 267.526 49.2863 267.61 49.3129 267.696C49.3762 267.876 49.4361 268.059 49.4894 268.246C49.5293 268.359 49.5593 268.472 49.5926 268.585C49.6758 268.878 49.7524 269.175 49.8224 269.474C49.849 269.581 49.8723 269.687 49.8956 269.797C49.9189 269.901 49.9389 270.004 49.9589 270.107C50.0188 270.4 50.0721 270.696 50.1154 270.996C50.142 271.156 50.1653 271.316 50.1853 271.479C50.2286 271.798 50.2652 272.121 50.2952 272.448C50.3085 272.594 50.3185 272.741 50.3285 272.891C50.3418 273.06 50.3518 273.23 50.3618 273.4C50.5482 277 50.3551 280.556 48.1908 283.692C48.1309 283.782 48.0676 283.869 47.9977 283.952C47.991 283.965 47.981 283.979 47.9677 283.992C47.9111 284.069 47.8545 284.142 47.7912 284.215C47.688 284.345 47.5781 284.468 47.4649 284.585C47.2918 284.764 47.112 284.931 46.9288 285.081C46.8356 285.157 46.7424 285.231 46.6458 285.297C46.5526 285.37 46.456 285.434 46.3594 285.494C46.2629 285.56 46.163 285.617 46.0631 285.673C45.9632 285.73 45.8633 285.78 45.7601 285.83C45.557 285.926 45.3472 286.01 45.1341 286.08C45.0342 286.113 44.9377 286.143 44.8378 286.17C44.8045 286.176 44.7678 286.186 44.7312 286.196C44.648 286.216 44.5681 286.236 44.4848 286.249C44.2684 286.296 44.0453 286.323 43.8222 286.336C42.6968 286.409 41.5247 286.123 40.4026 285.46C40.3593 285.434 40.316 285.407 40.2727 285.377C40.1895 285.324 40.1129 285.274 40.043 285.221C39.973 285.167 39.9098 285.114 39.8498 285.057C39.74 284.954 39.6501 284.844 39.5835 284.731C39.5635 284.698 39.5435 284.661 39.5269 284.625C39.4969 284.565 39.4736 284.501 39.4536 284.435C39.4403 284.395 39.4303 284.352 39.4236 284.308C39.4136 284.272 39.407 284.228 39.407 284.185C39.377 283.879 39.4303 283.522 39.5468 283.08C41.3782 276.147 40.8454 269.434 36.9696 263.258C36.2005 262.026 35.2016 260.934 34.1294 259.742C34.0428 259.642 33.9529 259.542 33.8597 259.442C33.5866 259.139 33.3136 258.829 33.0372 258.51C32.9373 258.396 32.8375 258.283 32.7409 258.167H32.7442ZM126.492 68.6157C128.301 57.2513 131.061 46.15 135.22 35.4217C139.075 25.4758 143.707 15.8929 149.491 6.3732C158.138 39.6438 158.115 71.8255 142.212 102.935C142.052 102.805 141.892 102.675 141.733 102.545C141.686 102.506 141.643 102.469 141.596 102.436C141.406 102.279 141.216 102.126 141.023 101.976C140.824 101.813 140.624 101.656 140.424 101.503C140.264 101.377 140.104 101.254 139.941 101.13C139.502 100.791 139.059 100.461 138.616 100.138C138.459 100.022 138.306 99.9084 138.146 99.7985C137.534 99.3556 136.918 98.9261 136.295 98.5099C136.045 98.3434 135.796 98.1769 135.546 98.0137C135.486 97.9738 135.423 97.9338 135.36 97.8939C135.053 97.6941 134.747 97.4976 134.437 97.3045C134.434 97.3045 134.427 97.3012 134.424 97.2979C134.104 97.0981 133.788 96.905 133.465 96.7118C133.415 96.6819 133.365 96.6519 133.315 96.6219C133.012 96.4388 132.706 96.259 132.399 96.0858C132.15 95.9427 131.903 95.8028 131.654 95.6663C131.647 95.6596 131.64 95.6563 131.63 95.653C131.447 95.5498 131.261 95.4499 131.077 95.35C130.874 95.2368 130.671 95.1269 130.465 95.0203C130.222 94.8905 129.979 94.7673 129.732 94.6407C129.642 94.5941 129.552 94.5475 129.463 94.5042C129.21 94.3777 128.956 94.2512 128.703 94.128C128.604 94.078 128.5 94.0281 128.397 93.9781C128.164 93.8682 127.928 93.755 127.695 93.6485C127.561 93.5852 127.428 93.522 127.292 93.462C127.158 93.4021 127.022 93.3421 126.889 93.2822C126.619 93.1623 126.349 93.0425 126.076 92.9259C125.823 92.8194 125.61 92.7062 125.434 92.5797C125.344 92.5197 125.264 92.4531 125.191 92.3832C125.117 92.3133 125.054 92.2367 124.997 92.1568C124.967 92.1168 124.944 92.0769 124.924 92.0369C124.898 91.9969 124.874 91.9537 124.858 91.907C124.821 91.8371 124.794 91.7639 124.778 91.684C124.771 91.674 124.768 91.664 124.768 91.654C124.754 91.6174 124.744 91.5774 124.738 91.5374C124.694 91.3476 124.671 91.1279 124.668 90.8782C124.558 83.3929 125.317 75.9976 126.492 68.6157ZM21.4398 86.7293C17.1478 77.5992 14.2942 67.993 12.2098 58.157C10.1154 48.2611 9.7525 38.222 10.0788 28.1496C10.2586 22.5656 10.535 16.9817 10.8114 11.4011C10.8813 10.0525 11.1177 8.71066 11.3441 6.76943C14.211 9.75619 16.9081 12.36 19.3654 15.1736C25.3556 22.0429 30.7297 29.3682 35.2648 37.293C42.3371 49.6529 47.6647 62.6688 50.778 76.6103C53.1554 87.2654 54.6837 97.9804 54.3474 108.909C54.2376 112.461 53.4018 115.878 51.364 118.898C50.0088 120.902 48.6037 121.448 46.6558 120.083C43.9587 118.192 41.2583 116.174 39.0207 113.783C31.5722 105.825 26.0615 96.552 21.4398 86.7293ZM36.2771 206.742C32.6477 203.456 30.4733 199.274 28.7386 194.825C25.8184 187.33 24.2767 179.545 23.6974 171.514C22.8882 160.253 23.9271 149.235 27.3967 138.473C29.4212 132.183 32.318 126.333 36.2204 120.985C37.4791 121.845 38.6278 122.71 39.8498 123.453C46.6325 127.568 53.7614 125.7 57.6006 118.745C59.705 114.929 60.6739 110.757 61.0302 106.438C61.1967 104.453 61.3299 102.469 61.4797 100.451C66.7973 97.8939 72.3646 95.916 78.2382 94.9071C85.4537 93.6651 92.6992 93.2889 100.025 93.8383C108.122 94.4443 115.887 96.2124 123.309 99.5021C136.698 105.439 146.035 115.398 152.118 128.581C152.321 129.02 152.441 129.5 152.671 130.166C150.153 129.786 147.839 129.336 145.505 129.107C139.458 128.517 133.412 127.705 127.352 127.575C120.559 127.428 113.73 127.692 106.95 128.208C95.5161 129.077 84.1518 130.672 73.217 134.268C60.847 138.333 53.5849 147.23 50.3884 159.647C48.5737 166.686 48.4672 173.841 48.9133 181.06C49.2463 186.468 49.4461 191.905 49.2996 197.316C49.203 200.879 47.8045 204.202 45.4504 206.979C43.0397 209.822 39.4769 209.639 36.2771 206.742ZM145.891 138.473C137.267 137.171 128.58 136.848 119.893 137.218C113.273 137.498 106.671 138.177 100.074 138.803C92.8323 139.492 85.6868 140.791 78.691 142.812C74.6454 143.981 70.7896 145.589 67.4299 148.199C62.3354 152.155 59.6084 157.533 58.393 163.712C56.9912 170.828 57.2376 178.03 57.5506 185.232C57.8703 192.535 58.0468 199.857 55.0134 206.752C53.3485 210.535 50.7647 213.425 46.3261 213.692C44.6346 213.795 42.9099 213.295 41.2017 213.072C41.215 212.879 41.2283 212.689 41.2417 212.5C45.1374 212.616 47.8978 210.681 49.6525 207.445C51.7436 203.586 52.283 199.277 52.3496 194.959C52.4095 191.196 52.0732 187.427 52.0866 183.661C52.1032 178.287 51.9467 172.886 52.4495 167.552C53.6216 155.095 58.5296 144.803 70.4067 139.009C75.3014 136.622 80.6023 135.56 85.8832 134.524C98.7126 132.004 111.675 130.642 124.754 130.875C134.92 131.051 145.069 131.704 154.842 134.857C156.893 135.52 158.864 136.635 160.635 137.877C161.335 138.37 161.748 139.818 161.654 140.767C161.475 142.562 160.462 142.902 158.864 142.073C154.795 139.955 150.357 139.149 145.891 138.473ZM185.096 283.502C184.779 283.999 184.43 284.435 184.053 284.811C183.963 284.904 183.867 284.997 183.77 285.084C183.674 285.171 183.577 285.254 183.477 285.334C183.377 285.414 183.278 285.487 183.174 285.557C182.868 285.77 182.552 285.95 182.225 286.096C182.119 286.143 182.009 286.19 181.899 286.226C181.789 286.269 181.679 286.306 181.566 286.336C181.23 286.433 180.89 286.493 180.544 286.516C180.294 286.533 180.048 286.533 179.795 286.516C179.675 286.509 179.552 286.496 179.432 286.476C179.368 286.466 179.305 286.456 179.242 286.443C179.115 286.423 178.989 286.393 178.859 286.356C178.796 286.343 178.732 286.326 178.669 286.303C178.476 286.243 178.286 286.176 178.096 286.096C178 286.056 177.907 286.013 177.81 285.966C177.7 285.913 177.59 285.857 177.48 285.797C177.371 285.737 177.261 285.673 177.151 285.604C176.288 285.064 175.985 284.581 176.425 283.469C179.725 275.085 179.225 267.03 174.038 259.485C173.358 258.5 172.416 257.694 171.32 256.505C175.346 255.842 178.716 256.775 181.646 259.022C186.358 262.638 187.563 267.793 187.54 273.403C187.523 276.966 187.077 280.416 185.096 283.506V283.502ZM198.381 281.122C197.675 283.463 196.203 285.201 193.683 285.71C193.616 285.723 193.546 285.733 193.476 285.743C193.41 285.75 193.343 285.757 193.273 285.763H193.26C193.173 285.77 193.087 285.773 193 285.773C192.86 285.773 192.721 285.77 192.577 285.76C192.481 285.753 192.384 285.747 192.288 285.737C192.095 285.717 191.898 285.693 191.705 285.667C191.608 285.657 191.512 285.643 191.419 285.63C190.51 285.51 190.323 285.077 190.626 284.122C191.835 280.316 192.234 276.39 192.105 272.395C191.925 266.917 190.207 262.072 186.397 258.05C186.251 257.9 186.141 257.717 185.875 257.367C186.131 257.348 186.387 257.341 186.644 257.341C186.927 257.341 187.213 257.351 187.496 257.374C187.783 257.397 188.072 257.431 188.359 257.474C188.532 257.501 188.702 257.531 188.871 257.564C189.011 257.591 189.151 257.621 189.288 257.654C189.434 257.687 189.581 257.724 189.724 257.764C189.84 257.794 189.96 257.827 190.077 257.867C190.217 257.907 190.353 257.954 190.493 258C190.779 258.097 191.059 258.207 191.339 258.323C191.612 258.443 191.885 258.57 192.155 258.706C192.288 258.773 192.421 258.846 192.554 258.919C192.95 259.139 193.337 259.382 193.713 259.645C193.959 259.822 194.206 260.008 194.442 260.201C194.678 260.394 194.908 260.601 195.131 260.814C195.241 260.92 195.351 261.027 195.458 261.14C195.568 261.25 195.671 261.363 195.774 261.48C195.854 261.57 195.934 261.659 196.007 261.749C196.154 261.919 196.29 262.092 196.423 262.272C196.5 262.372 196.576 262.475 196.646 262.579C196.806 262.805 196.956 263.038 197.099 263.281C197.139 263.348 197.179 263.414 197.216 263.481C197.289 263.604 197.359 263.734 197.425 263.864C197.479 263.964 197.529 264.067 197.575 264.17C197.635 264.287 197.689 264.403 197.738 264.523C197.772 264.59 197.798 264.66 197.828 264.726C197.882 264.856 197.935 264.989 197.985 265.122C199.956 270.397 199.999 275.761 198.381 281.122ZM207.917 280.353C206.992 282.207 205.09 283.313 202.72 283.586C204.954 275.851 204.571 268.522 200.712 261.267C200.875 261.267 201.035 261.27 201.191 261.283C201.271 261.283 201.348 261.29 201.424 261.3C201.461 261.3 201.498 261.307 201.534 261.313C202.24 261.393 202.87 261.59 203.446 261.869C203.529 261.906 203.612 261.946 203.692 261.992C203.785 262.039 203.875 262.092 203.965 262.149C204.058 262.202 204.145 262.259 204.231 262.315C204.341 262.389 204.448 262.465 204.551 262.542C204.658 262.622 204.761 262.702 204.861 262.785C204.964 262.868 205.064 262.955 205.16 263.045C205.257 263.131 205.354 263.221 205.447 263.314C210.331 268.089 210.305 275.568 207.917 280.353ZM144.423 252.922C143.907 255.13 143.384 257.334 142.875 259.542C142.009 263.284 141.103 267.017 140.314 270.773C140.191 271.362 139.998 271.775 139.708 272.058H145.189C146.178 265.702 147.153 259.309 145.215 252.996C144.952 252.972 144.686 252.946 144.423 252.922Z" fill="#143635"/>
<path d="M162.164 249.406C157.429 241.138 150.54 235.864 141.047 234.273C140.208 234.133 139.192 234.226 138.43 234.582C131.381 237.855 124.042 239.72 116.224 239.274C114.712 239.191 113.1 239.164 111.545 237.709C112.777 237.269 113.67 236.92 114.582 236.633C119.647 235.058 124.908 233.94 129.752 231.855C144.453 225.519 154.552 215.06 157.892 198.798H149.338C151.948 196.653 155.158 196.707 158.298 195.924C157.962 194.239 157.645 192.658 157.289 190.88C153.836 191.955 150.603 192.961 147.37 193.966C147.257 193.7 147.147 193.434 147.034 193.167C149.488 190.307 153.46 190.021 156.613 188.029C156.167 187.027 155.901 185.882 155.231 185.066C153.879 183.424 153.963 181.673 154.352 179.802C154.429 179.425 154.489 179.036 154.489 178.653C154.499 173.455 154.622 168.254 154.469 163.063C154.289 157.08 152.867 151.313 150.799 145.712C150.66 145.339 150.18 144.88 149.814 144.833C144.13 144.124 138.453 143.128 132.746 142.888C122.953 142.472 113.167 142.932 103.411 144.074C95.5361 144.996 87.7446 146.245 80.1195 148.452C74.5922 150.051 69.8873 152.814 66.8573 157.869C64.0004 162.637 63.1946 167.984 63.1013 173.409C62.9582 181.766 63.1746 190.13 62.9781 198.485C62.8449 204.189 61.3266 209.539 57.564 214.064C57.2943 214.387 57.3309 215.333 57.6106 215.689C60.8171 219.762 64.653 223.188 68.8784 226.158C73.2403 229.228 77.7521 232.052 82.7567 234.009C83.2661 234.209 83.5991 234.862 84.0153 235.301C83.5758 235.538 83.1396 235.974 82.7034 235.974C80.7455 235.971 78.6977 236.177 76.8464 235.691C73.3635 234.782 69.9905 233.44 66.5676 232.291C65.9582 232.085 65.2923 231.739 64.7029 231.819C60.5108 232.375 56.2787 232.791 52.1565 233.687C37.9087 236.78 26.2447 243.925 18.0935 255.946C19.8849 255.819 21.7362 255.736 23.5742 255.539C24.5798 255.433 25.6453 255.313 26.551 254.907C30.6565 253.072 34.8753 251.92 39.3471 253.006C40.9853 253.402 42.4138 253.242 43.9654 252.842C47.9178 251.83 51.8802 251.584 55.8758 252.809C63.2478 255.07 69.0216 262.515 69.6176 270.886C69.6576 271.432 69.7574 271.805 69.9339 272.058C70.2303 272.491 70.7464 272.574 71.5488 272.571C83.2961 272.534 95.0433 272.554 106.791 272.551C117.209 272.551 127.628 272.521 138.047 272.558C138.806 272.558 139.339 272.421 139.708 272.058C139.998 271.775 140.191 271.362 140.314 270.773C141.103 267.017 142.009 263.284 142.875 259.542C143.384 257.334 143.907 255.13 144.423 252.922C144.686 252.946 144.953 252.972 145.216 252.996C147.153 259.309 146.178 265.702 145.189 272.058L145.129 272.448C146.291 272.661 147.213 272.654 147.656 272.058C147.909 271.722 148.009 271.192 147.913 270.41C147.859 270 148.072 269.551 148.186 269.128C149.654 263.574 151.895 258.426 157.046 255.343C159.13 254.094 161.654 253.588 164.068 252.709C163.522 251.764 162.84 250.585 162.164 249.406ZM132.709 153.946C132.712 153.84 132.722 153.733 132.736 153.627C132.742 153.56 132.752 153.49 132.762 153.424C132.769 153.394 132.772 153.364 132.779 153.337C132.792 153.257 132.809 153.181 132.829 153.101C132.832 153.087 132.836 153.071 132.839 153.057C132.856 152.984 132.876 152.914 132.899 152.841C132.952 152.648 133.022 152.461 133.102 152.275C133.129 152.208 133.155 152.145 133.189 152.082C133.225 151.998 133.269 151.919 133.312 151.835C133.438 151.592 133.588 151.356 133.755 151.129C133.808 151.056 133.861 150.983 133.921 150.913C133.974 150.843 134.034 150.773 134.094 150.703C134.161 150.627 134.231 150.55 134.304 150.477C134.371 150.407 134.437 150.34 134.507 150.274C134.607 150.18 134.707 150.091 134.81 150.001C134.913 149.914 135.02 149.831 135.13 149.748C135.203 149.694 135.276 149.641 135.353 149.591C135.42 149.544 135.483 149.501 135.553 149.458C135.626 149.411 135.699 149.365 135.776 149.321C135.849 149.278 135.926 149.235 136.002 149.195C136.102 149.142 136.202 149.092 136.305 149.048C136.362 149.018 136.422 148.995 136.482 148.972C136.562 148.935 136.642 148.905 136.721 148.875C136.775 148.855 136.835 148.835 136.888 148.819C136.911 148.809 136.935 148.802 136.958 148.795C137.151 148.732 137.344 148.679 137.547 148.632C137.627 148.612 137.71 148.596 137.794 148.579C137.92 148.552 138.05 148.529 138.183 148.512C138.316 148.492 138.45 148.472 138.586 148.459C138.743 148.442 138.902 148.432 139.062 148.422C139.145 148.416 139.229 148.416 139.312 148.416C139.568 148.409 139.821 148.416 140.078 148.426C140.168 148.432 140.258 148.436 140.344 148.442C140.524 148.456 140.7 148.472 140.88 148.499C140.97 148.512 141.06 148.526 141.147 148.539C141.323 148.566 141.5 148.599 141.673 148.639L141.932 148.699C142.106 148.739 142.275 148.785 142.445 148.839C142.528 148.865 142.612 148.892 142.695 148.918C142.778 148.945 142.861 148.975 142.945 149.005C143.025 149.038 143.108 149.068 143.188 149.102C143.268 149.132 143.344 149.165 143.424 149.202C143.434 149.202 143.444 149.208 143.451 149.212C143.521 149.241 143.591 149.271 143.657 149.308C144.103 149.525 144.52 149.778 144.886 150.067C144.979 150.137 145.069 150.214 145.156 150.29C147.22 152.132 148.392 154.389 147.799 157.636C147.17 156.73 146.521 155.941 145.855 155.272C145.795 155.208 145.732 155.145 145.668 155.085L145.479 154.905C145.229 154.672 144.972 154.452 144.716 154.249C144.523 154.096 144.33 153.953 144.137 153.82C143.647 153.484 143.154 153.207 142.648 152.981C142.548 152.937 142.445 152.894 142.345 152.854C141.939 152.694 141.526 152.568 141.11 152.475C141.11 152.475 141.11 152.471 141.107 152.475C140.797 152.408 140.481 152.358 140.161 152.328C140.054 152.318 139.948 152.311 139.841 152.305C139.508 152.288 139.169 152.291 138.829 152.315C138.529 152.338 138.226 152.375 137.92 152.425C137.82 152.445 137.717 152.461 137.614 152.485C137.511 152.505 137.411 152.528 137.307 152.551C136.675 152.701 136.032 152.914 135.38 153.197C135.293 153.234 135.203 153.274 135.113 153.314C134.993 153.367 134.877 153.42 134.757 153.48C134.467 153.62 134.174 153.773 133.878 153.94C133.751 154.01 133.625 154.083 133.498 154.159C133.372 154.236 133.242 154.313 133.115 154.393C132.985 154.472 132.859 154.556 132.729 154.639C132.712 154.476 132.702 154.319 132.702 154.159C132.702 154.09 132.706 154.016 132.709 153.946ZM133.728 166.902C133.788 166.809 133.851 166.716 133.918 166.629C133.958 166.569 133.998 166.516 134.044 166.459C134.084 166.406 134.128 166.353 134.168 166.3C134.297 166.14 134.434 165.993 134.574 165.853C134.63 165.797 134.687 165.744 134.747 165.69C134.804 165.637 134.863 165.587 134.923 165.537C134.983 165.487 135.043 165.441 135.103 165.394C135.173 165.341 135.24 165.291 135.313 165.244C135.383 165.194 135.453 165.148 135.526 165.104C135.573 165.074 135.619 165.048 135.669 165.024C135.729 164.991 135.786 164.958 135.846 164.928C135.982 164.858 136.125 164.798 136.269 164.745C136.305 164.731 136.345 164.718 136.382 164.705C136.445 164.681 136.508 164.661 136.575 164.645C136.665 164.618 136.751 164.595 136.841 164.578C136.898 164.565 136.958 164.552 137.014 164.545C137.061 164.535 137.108 164.528 137.154 164.525C137.241 164.512 137.327 164.502 137.414 164.502C137.487 164.495 137.564 164.492 137.637 164.492C139.022 164.485 140.391 165.244 141.36 166.789C144.626 172 144.813 177.487 141.912 182.885C141.776 183.138 141.633 183.374 141.48 183.594C141.42 183.681 141.36 183.767 141.296 183.847C141.15 184.037 140.997 184.214 140.84 184.377C140.684 184.54 140.524 184.686 140.357 184.816C139.961 185.129 139.545 185.359 139.116 185.505C139.062 185.525 139.006 185.542 138.952 185.555C138.719 185.625 138.486 185.669 138.25 185.689C138.226 185.689 138.206 185.689 138.183 185.689C136.592 185.795 134.953 184.83 133.798 182.838C132.403 180.431 131.877 178.187 131.877 174.621C131.82 171.887 132.21 169.243 133.728 166.899V166.902ZM78.0418 161.715C77.3492 159.687 78.498 156.913 80.6889 154.952C80.7688 154.882 80.8454 154.812 80.9253 154.742C81.245 154.469 81.5746 154.213 81.9109 153.97C82.0374 153.88 82.164 153.793 82.2905 153.707C82.417 153.62 82.5436 153.537 82.6734 153.457H82.6768C82.8033 153.377 82.9331 153.3 83.063 153.224C83.1962 153.147 83.326 153.074 83.4592 153.001H83.4626C84.0786 152.671 84.7112 152.391 85.3505 152.165C85.5337 152.102 85.7168 152.042 85.8999 151.985C86.0398 151.945 86.1796 151.905 86.3195 151.869C86.4793 151.829 86.6391 151.789 86.7989 151.752C86.9588 151.719 87.1186 151.685 87.2818 151.656C87.2818 151.656 87.284 151.656 87.2884 151.656H87.2917C88.3073 151.479 89.3195 151.439 90.2985 151.542C90.5682 151.572 90.8346 151.612 91.0976 151.662C91.2741 151.695 91.4472 151.735 91.6204 151.779C91.7502 151.812 91.8801 151.849 92.0066 151.889C92.0832 151.912 92.1565 151.935 92.233 151.959C92.3396 151.995 92.4462 152.032 92.5527 152.072C92.6792 152.118 92.8091 152.172 92.9323 152.225C93.0788 152.288 93.222 152.355 93.3652 152.425C95.8425 153.657 97.9202 155.232 98.4263 158.671C98.1366 158.521 97.847 158.378 97.5606 158.235C97.1777 158.045 96.7981 157.859 96.4218 157.682C96.3752 157.659 96.3286 157.636 96.282 157.616C96.0456 157.506 95.8125 157.399 95.5794 157.296L95.02 157.056C94.8802 157 94.7403 156.943 94.6005 156.887C94.4606 156.833 94.3241 156.777 94.1843 156.727C93.9978 156.657 93.8113 156.59 93.6249 156.527C93.4384 156.464 93.2519 156.404 93.0655 156.347C92.9256 156.304 92.7858 156.264 92.6459 156.227C92.5061 156.191 92.3662 156.151 92.2231 156.117C92.0366 156.074 91.8501 156.034 91.6603 155.994C91.3673 155.934 91.071 155.888 90.7746 155.851C90.5116 155.818 90.2452 155.794 89.9788 155.781C89.9622 155.781 89.9422 155.781 89.9189 155.781C89.0865 155.738 88.2341 155.788 87.355 155.951C87.2784 155.964 87.2052 155.977 87.1319 155.994C87.0553 156.007 86.9821 156.027 86.9088 156.044C86.7623 156.077 86.6191 156.114 86.476 156.154C86.3328 156.194 86.1929 156.237 86.0531 156.284C85.9166 156.33 85.7801 156.38 85.6435 156.43C85.5037 156.484 85.3638 156.54 85.2273 156.597C85.0475 156.677 84.871 156.76 84.6946 156.847C84.5913 156.896 84.4914 156.946 84.3916 157.003C83.9887 157.216 83.5991 157.453 83.2162 157.702C83.0264 157.829 82.8399 157.959 82.6534 158.092C82.2539 158.378 81.861 158.678 81.4714 158.991C81.2849 159.137 81.1051 159.284 80.922 159.434C79.9764 160.203 79.0374 161.002 78.0418 161.718V161.715ZM92.6826 168.114C92.7825 168.208 92.879 168.304 92.9689 168.407C93.0255 168.467 93.0788 168.527 93.1321 168.594C93.2053 168.68 93.2752 168.767 93.3418 168.86C95.9823 172.413 96.2054 176.515 95.7825 180.691C95.6427 182.086 95.1599 183.474 94.6504 184.796C93.8413 186.897 92.2863 188.419 90.0221 188.559C87.8078 188.695 86.2129 187.267 85.1108 185.426C83.5458 182.805 82.9365 179.918 82.9565 176.562C83.023 174.101 83.3494 171.377 84.9776 169.013C85.0275 168.94 85.0808 168.867 85.1341 168.797C85.1874 168.727 85.2406 168.66 85.2939 168.594C85.4771 168.371 85.6702 168.168 85.87 167.984C85.9532 167.911 86.0364 167.838 86.1197 167.771C86.2029 167.705 86.2862 167.638 86.3727 167.578C86.5459 167.455 86.7224 167.345 86.9022 167.249C87.0087 167.189 87.1186 167.135 87.2285 167.089C87.2984 167.052 87.3683 167.022 87.4416 166.996C87.5182 166.966 87.5947 166.936 87.6713 166.912C87.7413 166.889 87.8145 166.866 87.8844 166.846C87.9477 166.826 88.0143 166.809 88.0776 166.792C88.1708 166.769 88.2674 166.749 88.3639 166.732C88.4572 166.716 88.5537 166.699 88.6503 166.689C88.7535 166.676 88.8567 166.669 88.9566 166.663C89.0332 166.659 89.1098 166.656 89.1864 166.656H89.2163C89.3062 166.656 89.3961 166.656 89.486 166.666C89.5693 166.669 89.6459 166.676 89.7258 166.686C89.7624 166.689 89.7957 166.693 89.8356 166.699C89.9588 166.716 90.0821 166.736 90.2053 166.766C90.2552 166.776 90.3051 166.786 90.3518 166.799C90.3884 166.806 90.425 166.816 90.4583 166.826C90.5116 166.839 90.5649 166.856 90.6148 166.872C90.6914 166.896 90.768 166.919 90.8412 166.949C90.8845 166.962 90.9278 166.982 90.9711 166.999C91.011 167.012 91.051 167.029 91.091 167.045C91.1476 167.072 91.2075 167.099 91.2641 167.125C91.3307 167.159 91.3973 167.192 91.4639 167.225C91.6071 167.299 91.7502 167.382 91.8868 167.475C91.9434 167.512 92 167.552 92.0566 167.592C92.0799 167.605 92.1032 167.622 92.1232 167.642C92.1798 167.685 92.2364 167.728 92.293 167.771C92.4262 167.878 92.556 167.991 92.6826 168.114ZM83.5292 210.249C83.3394 210.365 83.1429 210.485 82.9465 210.598C82.8466 210.658 82.7467 210.715 82.6468 210.771C82.4936 210.858 82.3438 210.925 82.2006 210.968C82.2006 210.968 82.2006 210.968 82.1973 210.968C82.124 210.991 82.0541 211.008 81.9875 211.018C81.9176 211.028 81.851 211.034 81.7844 211.034C81.7444 211.034 81.7078 211.031 81.6712 211.028C81.6512 211.024 81.6346 211.021 81.6146 211.018C81.568 211.011 81.5213 210.994 81.4814 210.978C81.2716 210.891 81.1184 210.701 81.0585 210.395C81.0485 210.345 81.0385 210.292 81.0352 210.235C81.0285 210.179 81.0252 210.122 81.0252 210.059V210.012C81.0252 209.936 81.0319 209.859 81.0385 209.779V209.769C81.0419 209.729 81.0452 209.693 81.0518 209.653C81.0785 209.416 81.1251 209.17 81.195 208.923C81.2084 208.877 81.225 208.827 81.2383 208.777C81.3282 208.491 81.4414 208.201 81.5846 207.911C81.6179 207.838 81.6545 207.765 81.6945 207.691C81.7877 207.508 81.8909 207.325 82.0075 207.142C82.0508 207.072 82.0941 207.002 82.144 206.932C82.3038 206.689 82.4836 206.446 82.6734 206.21C82.8299 206.023 82.9864 205.843 83.1529 205.667C83.2361 205.58 83.3194 205.494 83.4093 205.407C83.4959 205.324 83.5824 205.237 83.6723 205.154C83.7556 205.078 83.8388 205.004 83.9254 204.934C83.9987 204.871 84.0719 204.808 84.1485 204.748C84.2417 204.671 84.335 204.598 84.4315 204.528C84.5247 204.455 84.6213 204.388 84.7179 204.322C84.8044 204.262 84.8943 204.202 84.9842 204.145C85.0775 204.085 85.1707 204.029 85.2639 203.975C85.3572 203.922 85.4504 203.869 85.547 203.819C85.5936 203.789 85.6435 203.762 85.6902 203.742C85.7368 203.719 85.7867 203.696 85.8333 203.672C85.9299 203.626 86.0265 203.583 86.123 203.539C86.3228 203.456 86.5192 203.379 86.719 203.313C86.8156 203.283 86.9122 203.256 87.0054 203.23C87.1053 203.203 87.2052 203.18 87.3051 203.156C87.4016 203.136 87.4982 203.12 87.5981 203.103C87.5981 203.103 87.5981 203.103 87.6014 203.103C87.6514 203.096 87.7013 203.09 87.7513 203.083C87.8012 203.073 87.8511 203.066 87.9011 203.066C87.9976 203.056 88.0975 203.05 88.1974 203.046C88.3706 203.04 88.5404 203.046 88.7069 203.056C88.8234 203.063 88.9366 203.076 89.0532 203.096C89.1198 203.11 89.1897 203.123 89.2563 203.136C89.3029 203.143 89.3462 203.153 89.3895 203.166C89.4494 203.18 89.506 203.196 89.5659 203.213C89.8024 203.283 90.0321 203.373 90.2585 203.489C90.3784 203.549 90.4949 203.616 90.6115 203.689C90.7547 203.776 90.8978 203.872 91.0477 203.979C91.1409 204.042 91.2341 204.109 91.334 204.172C91.4073 204.222 91.4805 204.272 91.5571 204.325C91.6171 204.368 91.6803 204.408 91.7436 204.452C91.5338 204.645 91.334 204.838 91.1442 205.028C90.9511 205.217 90.7646 205.407 90.5782 205.587C90.3917 205.767 90.2086 205.937 90.0188 206.096C89.829 206.256 89.6359 206.403 89.4294 206.533C88.2341 207.292 88.7302 207.875 89.3861 208.62C89.5826 208.84 89.7824 209.057 89.9855 209.27C90.1553 209.449 90.3284 209.623 90.5016 209.789C90.6381 209.929 90.7813 210.062 90.9211 210.192C91.081 210.342 91.2441 210.485 91.4073 210.628C91.5671 210.771 91.7336 210.915 91.9001 211.051C92.1198 211.238 92.3429 211.417 92.5727 211.594C93.162 212.053 93.7714 212.483 94.3974 212.886C94.7303 213.105 95.07 213.315 95.4163 213.515C95.6627 213.662 95.9091 213.805 96.1621 213.945C96.7348 214.264 97.3175 214.564 97.9102 214.85C98.3564 215.067 98.8059 215.276 99.2588 215.476C99.7882 215.709 100.324 215.932 100.867 216.149C101.09 216.239 101.313 216.322 101.536 216.405C101.846 216.522 102.159 216.632 102.472 216.735C102.702 216.815 102.938 216.888 103.171 216.961C103.744 217.138 104.32 217.301 104.899 217.444C105.442 217.581 105.985 217.701 106.531 217.807C106.804 217.86 107.077 217.91 107.35 217.957C108.445 218.147 109.548 218.28 110.656 218.366C112.038 218.473 113.423 218.51 114.819 218.486C115.075 218.486 115.335 218.476 115.594 218.466C115.844 218.46 116.09 218.45 116.34 218.436C116.826 218.413 117.312 218.383 117.799 218.346C118.062 218.327 118.321 218.307 118.584 218.283C118.618 218.28 118.654 218.273 118.691 218.263C118.774 218.243 118.864 218.2 118.951 218.147C118.997 218.12 119.044 218.087 119.091 218.05C119.17 217.994 119.244 217.924 119.317 217.85C119.347 217.82 119.377 217.79 119.404 217.76C119.603 217.544 119.773 217.291 119.873 217.068C121.718 212.919 122.527 208.504 123.053 204.442C122.67 204.208 122.29 203.982 121.914 203.756C121.538 203.533 121.165 203.309 120.799 203.09C119.876 202.544 118.981 202.011 118.102 201.478C117.576 201.162 117.053 200.842 116.54 200.519C115.857 200.093 115.181 199.657 114.516 199.211C114.386 199.124 114.262 199.034 114.139 198.934C113.926 198.764 113.723 198.578 113.527 198.381C113.46 198.312 113.39 198.242 113.323 198.168C113.254 198.095 113.187 198.019 113.12 197.942C113.017 197.829 112.921 197.712 112.827 197.592C112.767 197.519 112.708 197.443 112.651 197.366C112.581 197.276 112.511 197.186 112.448 197.093C112.375 196.996 112.305 196.896 112.238 196.8C112.145 196.67 112.055 196.54 111.968 196.41C110.117 193.63 110.696 191.349 113.753 189.728C113.949 189.624 114.149 189.521 114.349 189.425C114.549 189.325 114.749 189.231 114.952 189.145C116.56 188.429 118.218 187.956 119.91 187.676C119.91 187.676 119.912 187.676 119.916 187.676C119.936 187.67 119.956 187.666 119.976 187.666C120.113 187.64 120.249 187.62 120.389 187.603H120.392C120.712 187.56 121.032 187.523 121.351 187.49C121.671 187.46 121.994 187.437 122.317 187.417C122.48 187.407 122.64 187.4 122.803 187.393C123.666 187.363 124.531 187.373 125.404 187.423C125.853 187.45 126.303 187.483 126.752 187.53C127.102 187.567 127.455 187.613 127.808 187.67C127.968 187.696 128.124 187.726 128.284 187.756C128.48 187.796 128.677 187.84 128.87 187.886C129.013 187.92 129.156 187.956 129.296 187.993C129.366 188.013 129.433 188.029 129.503 188.053C129.619 188.083 129.736 188.119 129.852 188.156C129.889 188.166 129.922 188.179 129.959 188.193C130.109 188.236 130.255 188.289 130.402 188.342C130.568 188.402 130.731 188.466 130.894 188.532C134.317 189.937 135.35 192.887 133.811 196.244C132.553 198.994 130.638 201.202 128.018 202.617C127.921 202.67 127.831 202.72 127.745 202.773C127.678 202.81 127.615 202.85 127.551 202.893C127.495 202.927 127.442 202.963 127.392 203C127.378 203.006 127.368 203.016 127.355 203.026C127.302 203.063 127.252 203.1 127.205 203.136C127.152 203.176 127.099 203.22 127.049 203.263C127.005 203.296 126.965 203.333 126.925 203.376C126.889 203.406 126.855 203.439 126.822 203.473C126.782 203.509 126.749 203.546 126.716 203.583C126.682 203.619 126.646 203.659 126.616 203.699C126.579 203.742 126.542 203.782 126.513 203.826C126.473 203.879 126.433 203.932 126.399 203.989C126.376 204.019 126.356 204.052 126.339 204.082C126.289 204.165 126.243 204.248 126.203 204.332C126.18 204.378 126.156 204.425 126.136 204.472C126.07 204.625 126.01 204.785 125.963 204.954C125.94 205.021 125.92 205.088 125.903 205.157C125.877 205.257 125.853 205.361 125.833 205.47C125.813 205.567 125.793 205.664 125.78 205.767C125.763 205.87 125.747 205.973 125.733 206.083C125.251 209.919 124.325 213.702 123.569 217.564C125.094 217.098 126.632 216.632 128.107 216.029C128.247 215.972 128.384 215.916 128.524 215.856C128.647 215.803 128.77 215.746 128.893 215.693C129.136 215.583 129.379 215.466 129.619 215.346C129.739 215.286 129.859 215.223 129.975 215.163C130.215 215.037 130.448 214.907 130.681 214.767C130.795 214.7 130.911 214.631 131.024 214.557C131.137 214.487 131.251 214.414 131.364 214.338C131.474 214.268 131.584 214.191 131.69 214.114C131.913 213.958 132.136 213.791 132.353 213.618C132.566 213.448 132.779 213.272 132.982 213.079C133.189 212.896 133.388 212.699 133.585 212.496C133.978 212.083 134.351 211.637 134.704 211.151C134.764 211.068 134.833 210.991 134.913 210.921C134.953 210.885 134.993 210.851 135.037 210.815C135.426 210.522 135.956 210.329 136.468 210.122C136.695 210.029 136.918 209.936 137.124 209.829C137.108 210.865 137.481 212.143 137.008 212.889C134.817 216.335 131.63 218.803 127.878 220.261C114.059 225.629 101.307 223.284 89.6525 214.414C87.8745 213.062 86.4926 211.191 84.8178 209.446C84.4448 209.673 84.0053 209.956 83.5292 210.249Z" fill="white"/>
<path d="M152.118 128.58C146.035 115.398 136.698 105.439 123.309 99.5018C115.887 96.212 108.122 94.444 100.025 93.838C92.6992 93.2885 85.4537 93.6648 78.2382 94.9068C72.3646 95.9157 66.7973 97.8935 61.4797 100.451C61.3299 102.469 61.1967 104.453 61.0302 106.438C60.6739 110.756 59.705 114.928 57.6006 118.744C53.7614 125.7 46.6325 127.568 39.8499 123.452C38.6278 122.71 37.4791 121.844 36.2205 120.985C32.318 126.333 29.4212 132.183 27.3967 138.473C23.9271 149.234 22.8883 160.253 23.6974 171.514C24.2768 179.545 25.8184 187.33 28.7386 194.825C30.4734 199.274 32.6477 203.456 36.2771 206.742C39.4769 209.639 43.0397 209.822 45.4504 206.978C47.8046 204.202 49.203 200.878 49.2996 197.316C49.4461 191.905 49.2463 186.467 48.9133 181.06C48.4672 173.841 48.5737 166.686 50.3884 159.647C53.5849 147.23 60.8471 138.333 73.217 134.267C84.1518 130.671 95.5161 129.076 106.95 128.207C113.73 127.691 120.559 127.428 127.352 127.575C133.412 127.705 139.458 128.517 145.505 129.106C147.839 129.336 150.153 129.786 152.671 130.165C152.441 129.499 152.321 129.02 152.118 128.58ZM27.3867 157.436C27.2102 157.382 27.0304 157.329 26.854 157.276C28.4422 150.816 29.9339 144.317 34.1227 138.882C34.2892 138.946 34.4557 139.009 34.6222 139.076C32.2115 145.196 29.7974 151.316 27.3867 157.436ZM27.097 147.26C26.3112 143.614 32.0217 132.559 35.2915 131.141C32.5378 136.555 29.914 141.723 27.097 147.26ZM43.7123 195.754C43.7423 199.403 41.3649 201.791 38.6045 200.912C36.347 200.193 34.9452 197.416 35.4679 194.695C35.5012 194.535 35.5778 194.382 35.6211 194.222C36.2904 191.695 37.882 190.253 39.8732 190.377C41.6546 190.486 43.3993 192.474 43.7057 194.765C43.749 195.088 43.7123 195.424 43.7123 195.754Z" fill="#81FBBF"/>
<path d="M50.7781 76.6065C47.6648 62.665 42.3373 49.6491 35.2649 37.2892C30.7299 29.3644 25.3557 22.039 19.3655 15.1698C16.9082 12.3562 14.2111 9.75238 11.3442 6.76562C11.1178 8.70685 10.8814 10.0487 10.8115 11.3973C10.5351 16.9779 10.2587 22.5618 10.0789 28.1458C9.75261 38.2182 10.1156 48.2573 12.2099 58.1532C14.2944 67.9892 17.1479 77.5954 21.4399 86.7255C26.0616 96.5482 31.5723 105.821 39.0209 113.779C41.2584 116.17 43.9588 118.188 46.6559 120.079C48.6038 121.444 50.0089 120.898 51.3641 118.894C53.4019 115.874 54.2377 112.458 54.3475 108.905C54.6838 97.9766 53.1555 87.2616 50.7781 76.6065ZM45.607 105.675C45.4106 105.109 45.2108 104.543 45.0077 103.977C44.8279 103.471 44.6447 102.965 44.4616 102.458C44.3351 102.112 44.2119 101.769 44.082 101.426C43.9888 101.17 43.8922 100.913 43.799 100.657C43.6591 100.284 43.5193 99.9112 43.3795 99.5383C43.2329 99.1454 43.0864 98.7558 42.9366 98.3662C42.89 98.2463 42.8434 98.1265 42.8001 98.0066C42.5903 97.4639 42.3839 96.9244 42.1741 96.385C41.931 95.7524 41.6846 95.1231 41.4349 94.4971C41.1519 93.7779 40.8688 93.0586 40.5792 92.3427C39.7667 90.3149 38.9409 88.2938 38.1052 86.276C37.8155 85.5734 37.5258 84.8709 37.2328 84.1683C36.9398 83.469 36.6468 82.7665 36.3537 82.0639C36.0607 81.3613 35.7677 80.6588 35.4747 79.9595C34.9186 78.6343 34.3626 77.3091 33.8098 75.9838C33.2538 74.6586 32.701 73.3334 32.1516 72.0048C29.7576 66.2311 27.4234 60.434 25.2957 54.5538C25.056 53.8978 24.8229 53.2352 24.5898 52.5759C24.43 52.1197 24.2702 51.6636 24.1137 51.2074C23.3878 49.1063 22.6919 46.9986 22.0359 44.8709C21.9194 44.5013 21.8062 44.1317 21.6963 43.7621C21.4699 43.0229 21.2501 42.2771 21.037 41.5346C20.9272 41.1616 20.8206 40.792 20.7174 40.4191H20.7207C20.9738 40.8486 21.2235 41.2715 21.4699 41.6977C21.7096 42.1073 21.9494 42.5168 22.1858 42.9264C23.1847 44.6478 24.1603 46.3793 25.1159 48.1141C25.3524 48.5436 25.5888 48.9731 25.8252 49.406C26.2947 50.2684 26.7575 51.1341 27.2137 51.9999C27.4434 52.4327 27.6698 52.8656 27.8963 53.2985C28.1094 53.7014 28.3158 54.1076 28.5256 54.5105C28.5655 54.5871 28.6055 54.6636 28.6421 54.7402C29.065 55.566 29.4845 56.3918 29.8974 57.2209C30.3503 58.1299 30.7964 59.0356 31.2326 59.9479C31.4291 60.3575 31.6255 60.7637 31.8187 61.1732C32.0284 61.6128 32.2349 62.0556 32.4413 62.4985C32.6178 62.8747 32.7909 63.2543 32.9641 63.6306C33.0473 63.8037 33.1272 63.9802 33.2038 64.1533C33.5102 64.8226 33.8098 65.4919 34.1062 66.1645C34.5524 67.1667 34.9852 68.169 35.4081 69.1746C35.5646 69.5375 35.7178 69.9038 35.8676 70.27C35.9342 70.4165 35.9941 70.5631 36.0507 70.7096C36.2106 71.0958 36.3704 71.4821 36.5269 71.8716C36.71 72.3211 36.8898 72.774 37.0696 73.2268C37.2528 73.6797 37.4292 74.1325 37.6024 74.5854C37.6357 74.6686 37.669 74.7485 37.699 74.8318C37.9753 75.551 38.2517 76.2735 38.5214 76.9994C38.5647 77.1126 38.6046 77.2291 38.6479 77.3424C38.8111 77.7885 38.9742 78.2381 39.1374 78.6876C39.3005 79.1437 39.4637 79.6032 39.6269 80.0627C39.8067 80.5689 39.9798 81.0783 40.153 81.5878C40.2928 82.0006 40.4327 82.4135 40.5692 82.8264C40.7723 83.4391 40.9721 84.0518 41.1685 84.6644C41.1685 84.6711 41.1685 84.6777 41.1685 84.6811C41.3683 85.3004 41.5614 85.9197 41.7512 86.5424C41.8944 87.0119 42.0376 87.4814 42.1774 87.9542C42.1841 87.9675 42.1874 87.9808 42.1907 87.9941C42.3239 88.4536 42.4571 88.9098 42.5903 89.3693C42.7268 89.8421 42.86 90.3183 42.9899 90.7911C43.1231 91.2673 43.2496 91.7401 43.3795 92.2162C43.506 92.6924 43.6292 93.1718 43.7524 93.648C43.8822 94.1508 44.0088 94.6536 44.132 95.1564C44.3584 96.0787 44.5782 97.0077 44.7913 97.9367C44.9244 98.536 45.0576 99.1354 45.1875 99.7381C45.2674 100.114 45.3473 100.494 45.4272 100.873C45.5271 101.363 45.6237 101.852 45.7202 102.342C45.8135 102.818 45.9067 103.298 45.9933 103.774C46.1864 104.809 46.3695 105.851 46.536 106.897C46.6126 107.343 46.6825 107.793 46.7525 108.242C46.829 108.738 46.9056 109.234 46.9756 109.734C46.5327 108.375 46.0732 107.02 45.6037 105.675H45.607Z" fill="white"/>
<path d="M149.491 6.37598C158.138 39.6465 158.115 71.8283 142.209 102.938C137.158 98.7624 131.873 95.416 126.076 92.9254C125.067 92.4925 124.684 92.0097 124.668 90.8809C124.558 83.3991 125.317 76.0004 126.489 68.6184C128.297 57.2574 131.057 46.1528 135.216 35.4244C139.072 25.4752 143.704 15.8956 149.487 6.37598H149.491Z" fill="white"/>
<path d="M161.654 140.764C161.474 142.559 160.462 142.898 158.864 142.069C154.795 139.952 150.357 139.146 145.891 138.47C137.267 137.168 128.58 136.845 119.893 137.215C113.273 137.494 106.671 138.173 100.074 138.799C92.8323 139.489 85.6867 140.787 78.691 142.808C74.6454 143.977 70.7895 145.585 67.4299 148.196C62.3354 152.152 59.6083 157.529 58.393 163.709C56.9912 170.825 57.2376 178.027 57.5506 185.229C57.8702 192.531 58.0467 199.853 55.0133 206.749C53.3485 210.532 50.7646 213.422 46.3261 213.688C44.6346 213.791 42.9098 213.292 41.2017 213.069C41.215 212.876 41.2283 212.686 41.2416 212.496C45.1374 212.613 47.8977 210.678 49.6525 207.442C51.7436 203.583 52.283 199.274 52.3496 194.955C52.4095 191.193 52.0732 187.423 52.0865 183.657C52.1032 178.283 51.9467 172.882 52.4495 167.548C53.6215 155.092 58.5295 144.8 70.4066 139.006C75.3013 136.619 80.6022 135.556 85.8832 134.521C98.7126 132 111.675 130.638 124.754 130.871C134.92 131.048 145.069 131.701 154.842 134.854C156.893 135.516 158.864 136.632 160.635 137.874C161.335 138.367 161.747 139.815 161.654 140.764Z" fill="#81FBBF"/>
<path d="M34.9418 280.749C34.0427 283.213 32.1748 285.677 29.0448 285.244C26.8339 284.938 25.5786 283.44 24.4099 281.831C22.4353 279.121 22.149 275.831 21.4364 272.691C21.2666 271.945 21.1567 271.143 20.7871 270.5C20.4308 269.888 19.7416 269.009 19.2555 269.042C19.1755 269.048 19.089 269.062 18.9991 269.088C18.9092 269.115 18.8193 269.148 18.726 269.192C18.6761 269.212 18.6295 269.235 18.5829 269.262C18.4896 269.312 18.3964 269.365 18.3098 269.425C18.2632 269.458 18.2166 269.491 18.1733 269.525C18.0867 269.588 18.0068 269.658 17.9302 269.734C17.8903 269.768 17.8536 269.804 17.8203 269.844C17.6805 269.994 17.5773 270.147 17.5207 270.297C17.5074 270.337 17.494 270.374 17.4874 270.41C17.4607 270.544 17.4308 270.67 17.3941 270.787C17.3875 270.82 17.3775 270.853 17.3642 270.886C17.3409 270.96 17.3176 271.03 17.2909 271.096C17.2643 271.163 17.2376 271.226 17.211 271.286C17.181 271.353 17.1477 271.416 17.1178 271.472C17.0878 271.526 17.0545 271.576 17.0245 271.626C16.8347 271.909 16.6083 272.115 16.3486 272.262C16.2987 272.292 16.2454 272.318 16.1888 272.345C16.0256 272.418 15.8492 272.475 15.6627 272.515C15.5894 272.531 15.5129 272.545 15.4329 272.555C15.4163 272.555 15.3996 272.555 15.383 272.561C15.3297 272.568 15.2731 272.575 15.2165 272.578C15.2065 272.581 15.1965 272.581 15.1865 272.581C15.1399 272.581 15.09 272.588 15.0434 272.591C14.9834 272.595 14.9235 272.598 14.8669 272.598C14.6971 272.605 14.5173 272.598 14.3341 272.598C14.2143 272.591 14.0944 272.585 13.9712 272.578C13.6249 272.555 13.2753 272.541 12.9223 272.535C11.4639 272.498 9.95888 272.555 8.25073 272.555C8.34396 272.408 8.44053 272.262 8.53376 272.115C8.53376 272.115 8.53709 272.115 8.53709 272.108C8.78349 271.729 9.02989 271.349 9.27629 270.976C9.38284 270.81 9.49272 270.647 9.59927 270.484C9.62924 270.437 9.6592 270.39 9.68917 270.347C9.88229 270.057 10.0754 269.768 10.2719 269.481C10.2819 269.465 10.2952 269.448 10.3085 269.431C10.425 269.262 10.5416 269.095 10.6581 268.929C10.7747 268.759 10.8912 268.592 11.0111 268.429C11.1309 268.266 11.2475 268.099 11.3707 267.94C11.6038 267.62 11.8435 267.31 12.0832 267.004C12.0866 266.994 12.0932 266.987 12.1032 266.981C12.3496 266.664 12.5993 266.358 12.8624 266.058C13.1188 265.759 13.3818 265.462 13.6549 265.176C13.7914 265.033 13.9246 264.893 14.0644 264.753C14.2043 264.613 14.3574 264.46 14.5073 264.317C14.6571 264.177 14.8069 264.034 14.9634 263.897C15.1 263.774 15.2398 263.651 15.383 263.534C15.9357 263.065 16.5151 262.629 17.1311 262.233C17.3076 262.119 17.484 262.006 17.6672 261.9C17.847 261.793 18.0301 261.686 18.2199 261.587C18.3897 261.493 18.5595 261.403 18.736 261.317C18.766 261.3 18.796 261.287 18.8259 261.274C19.0057 261.184 19.1922 261.097 19.3787 261.014C19.5784 260.924 19.7782 260.844 19.978 260.774C20.1778 260.701 20.3776 260.634 20.574 260.574C20.6706 260.544 20.7705 260.518 20.867 260.491C21.0635 260.441 21.2599 260.395 21.4564 260.358C21.553 260.338 21.6529 260.321 21.7494 260.305C24.926 259.799 27.8894 261.08 30.44 263.205C35.1948 267.164 37.0595 274.949 34.9418 280.752V280.749Z" fill="white"/>
<path d="M173.585 275.511C173.288 277.532 172.632 279.563 171.777 281.418C171.64 281.714 171.484 281.991 171.307 282.247C171.264 282.311 171.217 282.374 171.171 282.434C171.124 282.497 171.078 282.557 171.028 282.617C170.971 282.687 170.911 282.757 170.848 282.823C170.788 282.89 170.721 282.956 170.658 283.02C170.395 283.279 170.105 283.506 169.799 283.696C169.729 283.742 169.656 283.782 169.582 283.822C169.556 283.839 169.529 283.852 169.503 283.866C169.423 283.909 169.343 283.949 169.263 283.985C169.183 284.022 169.106 284.055 169.026 284.085C168.803 284.175 168.57 284.248 168.33 284.305C168.284 284.315 168.237 284.325 168.191 284.335C168.084 284.358 167.978 284.378 167.868 284.392C167.744 284.408 167.621 284.422 167.495 284.432C167.282 284.448 167.062 284.448 166.839 284.438C166.699 284.432 166.562 284.418 166.429 284.402C166.296 284.385 166.166 284.362 166.04 284.335C165.976 284.322 165.913 284.305 165.85 284.288C165.8 284.278 165.753 284.265 165.703 284.248C165.567 284.212 165.437 284.165 165.307 284.112C165.25 284.089 165.194 284.065 165.137 284.039C165.067 284.009 164.997 283.975 164.928 283.939C164.861 283.902 164.794 283.865 164.728 283.829C164.595 283.752 164.468 283.666 164.345 283.576C164.248 283.503 164.155 283.426 164.062 283.346H164.058C163.969 283.263 163.882 283.18 163.795 283.093C163.719 283.013 163.646 282.93 163.576 282.843C163.519 282.78 163.466 282.71 163.416 282.64C163.323 282.52 163.239 282.394 163.156 282.261C163.119 282.204 163.083 282.144 163.053 282.081C163 281.994 162.953 281.901 162.906 281.808C162.856 281.708 162.806 281.605 162.763 281.498C162.717 281.395 162.677 281.288 162.637 281.182C162.623 281.145 162.61 281.108 162.597 281.072C162.557 280.959 162.52 280.845 162.487 280.729C162.047 279.214 161.711 277.656 161.505 276.097C161.198 273.75 161.092 271.376 160.795 269.025C160.705 268.332 160.263 267.683 159.98 267.014C159.773 267.04 159.567 267.07 159.36 267.1C158.684 268.875 158.012 270.65 157.329 272.451H153.303C153.32 272.321 153.337 272.188 153.353 272.058C153.929 267.773 155.345 263.974 158.331 260.847C158.441 260.731 158.554 260.617 158.671 260.508C159.583 259.625 160.572 258.979 161.588 258.57C161.701 258.523 161.814 258.48 161.931 258.44C162.037 258.403 162.144 258.366 162.254 258.337C162.33 258.313 162.404 258.293 162.484 258.27C162.687 258.217 162.89 258.17 163.093 258.137C163.186 258.12 163.283 258.107 163.376 258.093C163.462 258.08 163.549 258.07 163.636 258.064C163.662 258.064 163.689 258.057 163.715 258.057C163.789 258.05 163.865 258.047 163.939 258.04C164.032 258.04 164.125 258.034 164.218 258.034C164.351 258.03 164.485 258.034 164.621 258.04C164.724 258.047 164.828 258.054 164.931 258.064H164.938C165.144 258.087 165.35 258.117 165.554 258.153C165.583 258.157 165.61 258.163 165.637 258.17C165.727 258.19 165.817 258.21 165.906 258.23C165.996 258.253 166.086 258.277 166.173 258.303C166.219 258.313 166.263 258.327 166.303 258.343C166.353 258.357 166.399 258.373 166.449 258.39C166.502 258.406 166.556 258.423 166.606 258.443C166.659 258.463 166.712 258.483 166.762 258.503C166.869 258.543 166.972 258.586 167.075 258.633C167.178 258.679 167.282 258.729 167.385 258.779C167.485 258.833 167.588 258.886 167.688 258.943C167.754 258.979 167.824 259.019 167.888 259.059C168.011 259.132 168.134 259.212 168.257 259.295C168.267 259.302 168.277 259.309 168.284 259.312C168.39 259.385 168.5 259.465 168.607 259.549C168.63 259.562 168.65 259.579 168.673 259.599C168.763 259.668 168.853 259.742 168.943 259.818C168.98 259.848 169.016 259.878 169.05 259.908C169.14 259.985 169.226 260.065 169.313 260.148C169.363 260.195 169.413 260.244 169.463 260.294C169.872 260.697 170.255 261.15 170.615 261.66C173.565 265.835 174.304 270.573 173.585 275.511Z" fill="white"/>
<path d="M32.7409 258.167C36.6167 257.637 40.2894 257.611 43.5458 259.955C48.1142 263.245 50.0787 267.936 50.3618 273.404C50.5482 277.003 50.3584 280.559 48.1908 283.696C46.3062 286.426 43.2062 287.112 40.4026 285.46C39.3703 284.854 39.2305 284.272 39.5468 283.08C41.3782 276.147 40.8454 269.438 36.9696 263.258C35.8708 261.506 34.3158 260.038 32.7375 258.167H32.7409Z" fill="white"/>
<path d="M171.32 256.501C175.349 255.839 178.719 256.768 181.649 259.019C186.361 262.635 187.563 267.789 187.54 273.4C187.526 276.963 187.077 280.412 185.096 283.502C183.138 286.555 180.001 287.381 177.151 285.6C176.288 285.06 175.985 284.578 176.422 283.465C179.721 275.085 179.225 267.027 174.034 259.481C173.355 258.496 172.413 257.69 171.317 256.501H171.32Z" fill="white"/>
<path d="M48.98 257.79C50.3685 257.79 51.9001 257.557 53.3319 257.83C60.4642 259.192 64.1169 265.948 64.28 271.928C64.3533 274.632 63.9005 277.415 63.2578 280.059C62.6019 282.753 60.8338 284.771 57.9236 285.303C57.0113 285.47 55.989 285.3 55.07 285.077C54.2443 284.877 53.9712 284.371 54.2543 283.332C56.0223 276.829 55.9791 270.363 53.0223 264.186C51.9701 261.989 50.4151 260.031 48.98 257.793V257.79Z" fill="white"/>
<path d="M185.875 257.364C190.633 257.021 196.047 259.928 197.985 265.119C199.956 270.393 199.999 275.758 198.381 281.118C197.675 283.459 196.204 285.197 193.683 285.707C192.96 285.853 192.168 285.727 191.419 285.627C190.51 285.507 190.323 285.077 190.626 284.122C191.835 280.313 192.235 276.387 192.105 272.395C191.925 266.917 190.21 262.072 186.398 258.05C186.254 257.9 186.141 257.717 185.875 257.368V257.364Z" fill="white"/>
<path d="M200.712 261.27C202.756 261.256 204.235 262.129 205.45 263.314C210.335 268.086 210.305 275.571 207.917 280.356C206.992 282.21 205.091 283.316 202.723 283.589C204.957 275.857 204.571 268.525 200.712 261.27Z" fill="white"/>
<path d="M123.053 204.445C119.983 202.584 117.179 201.002 114.516 199.211C113.497 198.525 112.664 197.456 111.968 196.414C110.117 193.633 110.696 191.352 113.75 189.731C117.815 187.573 122.231 187.077 126.749 187.533C128.154 187.673 129.589 187.999 130.891 188.535C134.314 189.941 135.346 192.891 133.808 196.247C132.549 198.997 130.635 201.205 128.014 202.62C126.489 203.443 125.946 204.348 125.727 206.086C125.244 209.922 124.318 213.705 123.562 217.567C127.668 216.315 131.877 215.043 134.697 211.154C135.186 210.482 136.295 210.259 137.118 209.829C137.101 210.865 137.474 212.146 137.001 212.889C134.807 216.335 131.62 218.806 127.871 220.261C114.053 225.628 101.3 223.284 89.6459 214.414C87.8678 213.062 86.486 211.191 84.8078 209.443C84.2118 209.809 83.4393 210.315 82.6368 210.768C81.7744 211.254 80.9953 211.111 81.0186 210.009C81.0885 206.466 86.4061 201.518 90.2519 203.486C90.728 203.729 91.1576 204.065 91.7403 204.445C90.8945 205.221 90.2419 206.006 89.4228 206.526C88.2274 207.285 88.7202 207.871 89.3795 208.614C92.5261 212.166 96.5284 214.421 100.86 216.142C106.571 218.413 112.531 218.813 118.578 218.276C119.047 218.237 119.637 217.571 119.863 217.061C121.708 212.912 122.517 208.497 123.046 204.435L123.053 204.445Z" fill="#143635"/>
<path d="M82.9563 176.561C83.0229 174.101 83.3492 171.377 84.9774 169.013C87.0985 165.933 91.1108 165.863 93.3417 168.863C95.9822 172.416 96.2053 176.518 95.7857 180.69C95.6459 182.085 95.163 183.474 94.6536 184.796C93.8445 186.897 92.2895 188.419 90.0253 188.558C87.811 188.695 86.2161 187.266 85.114 185.425C83.5457 182.805 82.9396 179.921 82.9596 176.561H82.9563Z" fill="#143635"/>
<path d="M131.877 174.624C131.82 171.887 132.21 169.247 133.728 166.903C135.759 163.766 139.392 163.646 141.363 166.789C144.629 171.997 144.816 177.488 141.912 182.885C139.858 186.704 135.972 186.588 133.798 182.839C132.403 180.435 131.877 178.19 131.877 174.624Z" fill="#143635"/>
<path d="M98.4264 158.668C94.6771 156.76 91.3174 155.219 87.355 155.944C83.4992 156.65 81.0386 159.564 78.0418 161.715C77.3526 159.687 78.498 156.913 80.6889 154.952C84.4815 151.556 89.566 150.537 93.3685 152.425C95.8458 153.657 97.9202 155.232 98.4297 158.672L98.4264 158.668Z" fill="#143635"/>
<path d="M147.799 157.636C143.547 151.516 138.526 150.85 132.732 154.636C132.496 152.505 133.878 150.324 136.002 149.192C138.573 147.826 142.908 148.279 145.155 150.287C147.22 152.128 148.392 154.386 147.799 157.632V157.636Z" fill="#143635"/>
<path d="M43.7124 195.751C43.7423 199.4 41.3649 201.788 38.6046 200.909C36.347 200.19 34.9452 197.413 35.468 194.692C35.5013 194.532 35.5779 194.379 35.6212 194.219C36.2904 191.692 37.882 190.25 39.8732 190.374C41.6546 190.483 43.3994 192.471 43.7057 194.762C43.749 195.085 43.7124 195.421 43.7124 195.751Z" fill="#143635"/>
<path d="M35.2915 131.138C32.5378 136.552 29.914 141.72 27.0971 147.257C26.3113 143.611 32.0217 132.556 35.2915 131.138Z" fill="#143635"/>
<path d="M34.6222 139.076C32.2115 145.196 29.7975 151.316 27.3868 157.436C27.2103 157.383 27.0305 157.329 26.854 157.276C28.4423 150.817 29.934 144.317 34.1228 138.883C34.2893 138.946 34.4558 139.009 34.6222 139.076Z" fill="#143635"/>
<path d="M46.9788 109.734C39.2971 86.223 27.44 64.3034 20.7173 40.416C33.4768 61.9793 43.3727 84.6447 46.9788 109.734Z" fill="#143635"/>
</g>
<defs>
<clipPath id="clip0_6511_11709">
<rect width="215" height="291.95" fill="white" transform="translate(-0.000244141)"/>
</clipPath>
</defs>
</svg>
