<svg width="64" height="64" viewBox="0 0 64 64" fill="none" xmlns="http://www.w3.org/2000/svg">
<g clip-path="url(#clip0_6298_16466)">
<path d="M62.688 0.00802713C50.1947 -0.215973 35.9467 6.31469 26.928 16.4454C18.3094 16.608 9.91736 20.1414 3.73869 26.32C3.37869 26.6747 3.25069 27.2054 3.40803 27.6854C3.56803 28.168 3.98403 28.5174 4.48536 28.5894L14.7627 30.0614L13.4934 31.4827C13.0214 32.0107 13.0454 32.8134 13.5467 33.3147L30.6854 50.4534C30.944 50.712 31.2854 50.8427 31.6294 50.8427C31.9467 50.8427 32.264 50.7307 32.5174 50.504L33.9387 49.2347L35.4107 59.512C35.4827 60.0134 35.8774 60.3814 36.3547 60.5414C36.4774 60.5814 36.6054 60.6 36.736 60.6C37.1147 60.6 37.5014 60.4347 37.768 60.1707C43.8614 54.0774 47.3947 45.6854 47.5574 37.0667C57.6987 28.0294 64.2827 13.7867 63.992 1.30936C63.9734 0.600027 63.4 0.0266938 62.688 0.00802713ZM50.4 23.0267C49.1014 24.3254 47.3947 24.976 45.6854 24.976C43.976 24.976 42.2694 24.3254 40.9707 23.0267C38.3734 20.4267 38.3734 16.1974 40.9707 13.5974C43.5707 10.9974 47.8 10.9974 50.4 13.5974C53 16.1974 53 20.4294 50.4 23.0267Z" fill="#102849"/>
<path d="M7.26415 45.08C4.41082 47.9334 0.493486 60.824 0.0561531 62.2827C-0.0851803 62.752 0.0454864 63.2614 0.389486 63.608C0.645486 63.864 0.984153 64 1.33349 64C1.46149 64 1.58949 63.9814 1.71749 63.944C3.17615 63.5067 16.0668 59.5893 18.9202 56.736C22.1335 53.5227 22.1335 48.2934 18.9202 45.08C15.7042 41.8667 10.4775 41.8694 7.26415 45.08Z" fill="#155AB8"/>
</g>
<defs>
<clipPath id="clip0_6298_16466">
<rect width="64" height="64" fill="white"/>
</clipPath>
</defs>
</svg>
