<svg width="64" height="64" viewBox="0 0 64 64" fill="none" xmlns="http://www.w3.org/2000/svg">
<path d="M57.9582 58.3488L51.1998 43.456L43.8718 27.1296C43.8219 27.0274 43.7523 26.936 43.667 26.8608L39.1102 21.7408C39.0218 21.653 38.9071 21.5966 38.7836 21.5802C38.6602 21.5638 38.5347 21.5884 38.4265 21.6501C38.3183 21.7118 38.2333 21.8073 38.1846 21.9219C38.1358 22.0366 38.126 22.164 38.1566 22.2848L44.211 43.456C44.2828 43.5934 44.3022 43.7522 44.2657 43.9029C44.2292 44.0535 44.1393 44.1858 44.0126 44.2752L36.595 51.8912C36.4323 52.0462 36.3244 52.2498 36.2875 52.4714C36.2505 52.693 36.2866 52.9206 36.3902 53.12L39.7886 60.16C39.8803 60.3533 40.0255 60.5164 40.207 60.6298C40.3884 60.7432 40.5986 60.8023 40.8126 60.8H59.9294C60.1636 60.8 60.3883 60.7069 60.5539 60.5413C60.7196 60.3757 60.8126 60.151 60.8126 59.9168C60.8126 59.6825 60.7196 59.4579 60.5539 59.2923C60.3883 59.1266 60.1636 59.0336 59.9294 59.0336H58.9822C58.7611 59.0419 58.5431 58.9802 58.3592 58.8572C58.1753 58.7342 58.0349 58.5563 57.9582 58.3488Z" fill="#102849"/>
<path d="M36.9342 24.32L42.2398 42.8416C42.2926 43.0307 42.2956 43.2303 42.2485 43.4209C42.2014 43.6116 42.1058 43.7868 41.971 43.9296L34.4126 51.6096C34.2837 51.7425 34.1962 51.9102 34.161 52.092C34.1258 52.2739 34.1443 52.4621 34.2142 52.6336L37.4142 59.1616C37.4953 59.3356 37.5316 59.5271 37.5199 59.7187C37.5081 59.9103 37.4487 60.0959 37.3469 60.2587C37.2452 60.4215 37.1044 60.5563 36.9373 60.6508C36.7702 60.7453 36.5821 60.7966 36.3902 60.8H4.07021C3.83597 60.8 3.61133 60.7069 3.44569 60.5413C3.28006 60.3757 3.18701 60.151 3.18701 59.9168C3.18701 59.6825 3.28006 59.4579 3.44569 59.2923C3.61133 59.1266 3.83597 59.0336 4.07021 59.0336H6.31021C6.44064 59.0277 6.56406 58.9729 6.65581 58.88L15.7054 50.3936C15.792 50.3113 15.8606 50.2119 15.9069 50.1018C15.9532 49.9916 15.9761 49.873 15.9742 49.7536L17.8942 38.6688C17.8895 38.5417 17.9184 38.4156 17.9779 38.3033C18.0375 38.1909 18.1256 38.0962 18.2334 38.0288L22.3166 34.4256C22.4391 34.3138 22.5852 34.2312 22.7441 34.1838C22.903 34.1364 23.0706 34.1256 23.2343 34.152C23.398 34.1785 23.5536 34.2416 23.6894 34.3366C23.8253 34.4316 23.938 34.5561 24.019 34.7008L31.6286 47.808C31.7457 48.0057 31.9366 48.1488 32.1593 48.2059C32.3819 48.2629 32.6181 48.2291 32.8158 48.112C33.0136 47.9949 33.1567 47.804 33.2137 47.5813C33.2707 47.3587 33.2369 47.1225 33.1198 46.9248L26.7966 36.1088C26.6955 35.9337 26.6423 35.735 26.6423 35.5328C26.6423 35.3306 26.6955 35.1319 26.7966 34.9568L34.9566 21.28C35.0857 21.1277 35.158 20.9355 35.1614 20.736V4.09598C35.1635 3.95063 35.2009 3.80796 35.2703 3.68029C35.3398 3.55261 35.4394 3.44376 35.5603 3.36313C35.6813 3.2825 35.82 3.2325 35.9646 3.21746C36.1092 3.20241 36.2553 3.22277 36.3902 3.27678L47.411 8.03838C47.5636 8.11321 47.6922 8.22934 47.7821 8.37359C47.8721 8.51783 47.9197 8.6844 47.9197 8.85438C47.9197 9.02436 47.8721 9.19093 47.7821 9.33518C47.6922 9.47942 47.5636 9.59555 47.411 9.67038L37.5486 13.8688C37.3533 13.9608 37.1865 14.104 37.0659 14.2832C36.9454 14.4623 36.8755 14.6708 36.8638 14.8864V24.0704C36.8638 24.1056 36.8814 24.1568 36.899 24.208C36.9166 24.2592 36.9342 24.3104 36.9342 24.3456V24.32Z" fill="#155AB8"/>
</svg>
