<svg width="64" height="64" viewBox="0 0 64 64" fill="none" xmlns="http://www.w3.org/2000/svg">
<g clip-path="url(#clip0_6352_5596)">
<path d="M28.3417 33.0066L34.3014 27.0469C32.9612 26.1914 31.3719 25.6932 29.6674 25.6932C24.9038 25.6932 21.0283 29.5687 21.0283 34.3324C21.0283 39.096 24.9038 42.9715 29.6674 42.9715C34.4311 42.9715 38.3066 39.096 38.3066 34.3324C38.3066 32.628 37.8084 31.0386 36.9529 29.6984L30.9932 35.6581L28.3417 33.0066Z" fill="#102849"/>
<path d="M59.3353 34.3324C59.3353 29.2372 58.0336 24.2544 55.5624 19.8448L48.1751 20.857C50.9378 24.6409 52.571 29.2992 52.571 34.3324C52.571 46.9614 42.2966 57.2359 29.6675 57.2359C17.0384 57.2359 6.76412 46.9614 6.76412 34.3324C6.76412 21.7034 17.0386 11.429 29.6676 11.429C34.7009 11.429 39.3591 13.0623 43.143 15.8249L44.1553 8.43767C39.7456 5.96642 34.7629 4.66479 29.6676 4.66479C21.7431 4.66479 14.2929 7.75079 8.6895 13.3543C3.086 18.9577 0 26.4079 0 34.3324C0 42.2569 3.086 49.7072 8.6895 55.3105C14.2929 60.9142 21.743 64 29.6676 64C37.5923 64 45.0424 60.914 50.6457 55.3105C56.2492 49.7072 59.3353 42.257 59.3353 34.3324Z" fill="#102849"/>
<path d="M29.6677 15.179C19.1064 15.179 10.5142 23.7711 10.5142 34.3325C10.5142 44.8938 19.1063 53.486 29.6677 53.486C40.229 53.486 48.8212 44.8938 48.8212 34.3325C48.8212 29.7256 47.1859 25.4937 44.4659 22.1858L39.6493 27.0025C41.1618 29.0565 42.0569 31.5917 42.0569 34.3325C42.0569 41.1638 36.4992 46.7216 29.6678 46.7216C22.8364 46.7216 17.2787 41.1638 17.2787 34.3325C17.2787 27.5011 22.8364 21.9433 29.6678 21.9433C32.4085 21.9433 34.9437 22.8385 36.9978 24.351L41.8144 19.5343C38.5064 16.8141 34.2745 15.179 29.6677 15.179Z" fill="#155AB8"/>
<path d="M56.288 0L47.9541 8.33387L46.7295 17.2701L55.6657 16.0455L63.9996 7.71163L58.3744 5.62525L56.288 0Z" fill="#155AB8"/>
</g>
<defs>
<clipPath id="clip0_6352_5596">
<rect width="64" height="64" fill="white"/>
</clipPath>
</defs>
</svg>
