<svg width="20" height="21" viewBox="0 0 20 21" fill="none" xmlns="http://www.w3.org/2000/svg">
<mask id="mask0_7901_1004" style="mask-type:alpha" maskUnits="userSpaceOnUse" x="0" y="0" width="20" height="21">
<rect x="3.05176e-05" y="0.5" width="20" height="20" fill="#D9D9D9"/>
</mask>
<g mask="url(#mask0_7901_1004)">
<path d="M9.37503 14.8781L6.8767 17.335C6.76128 17.4503 6.61836 17.5079 6.44795 17.5079C6.27753 17.5079 6.13461 17.4433 6.0192 17.3142C5.89003 17.1987 5.82545 17.0558 5.82545 16.8854C5.82545 16.715 5.89003 16.5651 6.0192 16.4358L9.37503 13.0802V11.125H7.41982L4.04336 14.5017C3.92795 14.6169 3.78503 14.6746 3.61461 14.6746C3.4442 14.6746 3.29434 14.61 3.16503 14.4808C3.04975 14.3654 2.99211 14.2225 2.99211 14.0521C2.99211 13.8817 3.04975 13.7388 3.16503 13.6233L5.62191 11.125H2.4792C2.30725 11.125 2.16357 11.0651 2.04816 10.9454C1.93274 10.8258 1.87503 10.6774 1.87503 10.5C1.87503 10.3281 1.93489 10.1809 2.05461 10.0585C2.1742 9.93618 2.32267 9.875 2.50003 9.875H5.62191L3.16503 7.3975C3.04975 7.28208 2.99211 7.13917 2.99211 6.96875C2.99211 6.79833 3.0567 6.64847 3.18586 6.51917C3.30128 6.40389 3.4442 6.34625 3.61461 6.34625C3.78503 6.34625 3.93489 6.40389 4.0642 6.51917L7.41982 9.875H9.37503V7.91979L5.99836 4.56417C5.88309 4.44875 5.82545 4.30583 5.82545 4.13542C5.82545 3.965 5.89003 3.81514 6.0192 3.68583C6.13461 3.57056 6.27753 3.51292 6.44795 3.51292C6.61836 3.51292 6.76128 3.57056 6.8767 3.68583L9.37503 6.12187V3C9.37503 2.82806 9.43489 2.6809 9.55461 2.55854C9.6742 2.43618 9.82267 2.375 10 2.375C10.172 2.375 10.3191 2.43618 10.4415 2.55854C10.5638 2.6809 10.625 2.82806 10.625 3V6.12187L13.1025 3.68583C13.2179 3.57056 13.3609 3.51292 13.5313 3.51292C13.7017 3.51292 13.8516 3.57056 13.9809 3.68583C14.0961 3.81514 14.1538 3.965 14.1538 4.13542C14.1538 4.30583 14.0961 4.44875 13.9809 4.56417L10.625 7.91979V9.875H12.5802L15.9359 6.51917C16.0513 6.40389 16.1942 6.34625 16.3646 6.34625C16.535 6.34625 16.6849 6.41083 16.8142 6.54C16.9295 6.65542 16.9871 6.79833 16.9871 6.96875C16.9871 7.13917 16.9295 7.28208 16.8142 7.3975L14.3782 9.875H17.5C17.672 9.875 17.8191 9.93618 17.9415 10.0585C18.0639 10.1809 18.125 10.3281 18.125 10.5C18.125 10.6774 18.0639 10.8258 17.9415 10.9454C17.8191 11.0651 17.672 11.125 17.5 11.125H14.3782L16.8142 13.6233C16.9295 13.7388 16.9871 13.8817 16.9871 14.0521C16.9871 14.2225 16.9295 14.3654 16.8142 14.4808C16.6849 14.61 16.535 14.6746 16.3646 14.6746C16.1942 14.6746 16.0513 14.61 15.9359 14.4808L12.5802 11.125H10.625V13.0802L13.9809 16.4567C14.0961 16.5721 14.1538 16.715 14.1538 16.8854C14.1538 17.0558 14.0892 17.2057 13.96 17.335C13.8446 17.4503 13.7017 17.5079 13.5313 17.5079C13.3609 17.5079 13.2179 17.4503 13.1025 17.335L10.625 14.8781V18.0208C10.625 18.1928 10.5638 18.3365 10.4415 18.4519C10.3191 18.5673 10.172 18.625 10 18.625C9.82267 18.625 9.6742 18.5651 9.55461 18.4454C9.43489 18.3258 9.37503 18.1774 9.37503 18V14.8781Z" fill="#808080"/>
</g>
</svg>
