<svg width="20" height="21" viewBox="0 0 20 21" fill="none" xmlns="http://www.w3.org/2000/svg">
<mask id="mask0_7901_994" style="mask-type:alpha" maskUnits="userSpaceOnUse" x="0" y="0" width="20" height="21">
<rect x="3.05176e-05" y="0.5" width="20" height="20" fill="#D9D9D9"/>
</mask>
<g mask="url(#mask0_7901_994)">
<path d="M6.82726 5.74021C6.40629 5.74021 6.04462 5.58903 5.74226 5.28666C5.44004 4.9843 5.28893 4.62264 5.28893 4.20166C5.28893 3.78083 5.44004 3.41923 5.74226 3.11687C6.04462 2.81451 6.40629 2.66333 6.82726 2.66333C7.24823 2.66333 7.6099 2.81451 7.91226 3.11687C8.21462 3.41923 8.3658 3.78083 8.3658 4.20166C8.3658 4.62264 8.21462 4.9843 7.91226 5.28666C7.6099 5.58903 7.24823 5.74021 6.82726 5.74021ZM11.0421 16.7498H6.50039C6.07941 16.7498 5.69671 16.6066 5.35226 16.3202C5.00768 16.034 4.79212 15.6803 4.70559 15.2594L3.07247 7.07666C3.02761 6.88222 3.06851 6.70972 3.19518 6.55916C3.32171 6.40847 3.48914 6.33312 3.69747 6.33312C3.84386 6.33312 3.97344 6.37958 4.08622 6.4725C4.19886 6.56541 4.27066 6.68507 4.30164 6.83146L5.99393 15.2433C6.01004 15.3075 6.04879 15.3662 6.11018 15.4196C6.17157 15.4731 6.23434 15.4998 6.29851 15.4998H11.0421C11.2194 15.4998 11.3679 15.5597 11.4875 15.6794C11.6072 15.799 11.6671 15.9474 11.6671 16.1248C11.6671 16.3022 11.6072 16.4506 11.4875 16.5702C11.3679 16.6899 11.2194 16.7498 11.0421 16.7498ZM15.7616 18.0319L13.8016 14.6665H7.89789C7.54316 14.6665 7.23789 14.5597 6.98205 14.346C6.72608 14.1323 6.55914 13.8534 6.48122 13.5094L5.53247 8.93896C5.39566 8.32035 5.53858 7.78215 5.96122 7.32437C6.38372 6.8666 6.88823 6.63771 7.47476 6.63771C7.91282 6.63771 8.3124 6.76882 8.67351 7.03104C9.03462 7.2934 9.26539 7.65048 9.3658 8.10229L10.3304 12.5831H13.2312C13.4854 12.5831 13.7215 12.6488 13.9396 12.7802C14.1575 12.9116 14.3348 13.0917 14.4714 13.3204L16.8512 17.4069C16.9357 17.5533 16.9547 17.7117 16.9083 17.8821C16.8618 18.0524 16.7653 18.1797 16.6189 18.2642C16.4725 18.3486 16.3141 18.3676 16.1437 18.321C15.9733 18.2747 15.8459 18.1783 15.7616 18.0319Z" fill="#808080"/>
</g>
</svg>
